G75*
G70*
%OFA0B0*%
%FSLAX24Y24*%
%IPPOS*%
%LPD*%
%AMOC8*
5,1,8,0,0,1.08239X$1,22.5*
%
%ADD10C,0.0040*%
%ADD11C,0.0020*%
%ADD12C,0.0010*%
%ADD13C,0.0060*%
%ADD14C,0.0050*%
D10*
X022179Y003961D02*
X022486Y004421D01*
X022640Y004191D02*
X022947Y004191D01*
X023100Y004191D02*
X023254Y004114D01*
X023330Y004114D01*
X023407Y004191D01*
X023407Y004344D01*
X023330Y004421D01*
X023177Y004421D01*
X023100Y004344D01*
X023100Y004191D02*
X023100Y003961D01*
X023407Y003961D01*
X023560Y004114D02*
X023714Y003961D01*
X023714Y004421D01*
X023867Y004421D02*
X023560Y004421D01*
X024021Y004421D02*
X024328Y004421D01*
X024174Y004421D02*
X024174Y003961D01*
X024021Y004114D01*
X022486Y003961D02*
X022179Y004421D01*
X030329Y004263D02*
X030636Y003803D01*
X030789Y004033D02*
X031096Y004033D01*
X031250Y003880D02*
X031326Y003803D01*
X031480Y003803D01*
X031557Y003880D01*
X031557Y003957D01*
X031480Y004033D01*
X031557Y004110D01*
X031557Y004187D01*
X031480Y004263D01*
X031326Y004263D01*
X031250Y004187D01*
X031403Y004033D02*
X031480Y004033D01*
X031710Y003880D02*
X031787Y003803D01*
X031940Y003803D01*
X032017Y003880D01*
X032017Y003957D01*
X031710Y004263D01*
X032017Y004263D01*
X032170Y004187D02*
X032247Y004263D01*
X032401Y004263D01*
X032477Y004187D01*
X032477Y003880D01*
X032401Y003803D01*
X032247Y003803D01*
X032170Y003880D01*
X032170Y003957D01*
X032247Y004033D01*
X032477Y004033D01*
X030636Y004263D02*
X030329Y003803D01*
X032569Y001665D02*
X032722Y001512D01*
X032722Y001205D01*
X032876Y001435D02*
X032953Y001358D01*
X033106Y001358D01*
X033183Y001435D01*
X033183Y001512D01*
X032876Y001512D01*
X032876Y001588D02*
X032876Y001435D01*
X032876Y001588D02*
X032953Y001665D01*
X033106Y001665D01*
X033336Y001665D02*
X033336Y001358D01*
X033336Y001512D02*
X033490Y001358D01*
X033566Y001358D01*
X033720Y001435D02*
X033797Y001358D01*
X034027Y001358D01*
X034180Y001358D02*
X034257Y001358D01*
X034257Y001665D01*
X034180Y001665D02*
X034334Y001665D01*
X034487Y001588D02*
X034564Y001665D01*
X034717Y001665D01*
X034794Y001588D01*
X034794Y001435D01*
X034717Y001358D01*
X034564Y001358D01*
X034487Y001435D01*
X034487Y001588D01*
X034027Y001588D02*
X033950Y001512D01*
X033797Y001512D01*
X033720Y001435D01*
X033720Y001665D02*
X033950Y001665D01*
X034027Y001588D01*
X034257Y001205D02*
X034257Y001128D01*
X034948Y001358D02*
X035178Y001358D01*
X035254Y001435D01*
X035254Y001665D01*
X034948Y001665D02*
X034948Y001358D01*
X035868Y001358D02*
X036022Y001205D01*
X036022Y001665D01*
X036175Y001665D02*
X035868Y001665D01*
X036329Y001665D02*
X036405Y001665D01*
X036405Y001588D01*
X036329Y001588D01*
X036329Y001665D01*
X036559Y001665D02*
X036866Y001358D01*
X036866Y001281D01*
X036789Y001205D01*
X036635Y001205D01*
X036559Y001281D01*
X036559Y001665D02*
X036866Y001665D01*
X038321Y003961D02*
X038628Y004421D01*
X038781Y004191D02*
X039088Y004191D01*
X039242Y004191D02*
X039395Y004114D01*
X039472Y004114D01*
X039549Y004191D01*
X039549Y004344D01*
X039472Y004421D01*
X039319Y004421D01*
X039242Y004344D01*
X039242Y004191D02*
X039242Y003961D01*
X039549Y003961D01*
X039702Y004114D02*
X039856Y003961D01*
X039856Y004421D01*
X040009Y004421D02*
X039702Y004421D01*
X040163Y004344D02*
X040469Y004037D01*
X040469Y004344D01*
X040393Y004421D01*
X040239Y004421D01*
X040163Y004344D01*
X040163Y004037D01*
X040239Y003961D01*
X040393Y003961D01*
X040469Y004037D01*
X038628Y003961D02*
X038321Y004421D01*
X032569Y001665D02*
X032416Y001512D01*
X032416Y001205D01*
D11*
X043557Y001630D02*
X043978Y001213D01*
X044990Y001217D01*
X045400Y001626D01*
X045400Y002114D01*
X045140Y002228D01*
X044860Y002114D01*
X044864Y001913D01*
X044758Y001815D01*
X044211Y001815D01*
X044100Y001921D01*
X044100Y003031D01*
X044199Y003130D01*
X044750Y003134D01*
X044868Y003016D01*
X044868Y002756D01*
X045132Y002878D01*
X045400Y002752D01*
X045396Y003303D01*
X044994Y003705D01*
X043970Y003693D01*
X043577Y003299D01*
X043561Y003299D01*
X043557Y001630D01*
X043557Y001634D02*
X045400Y001634D01*
X045400Y001652D02*
X043557Y001652D01*
X043557Y001671D02*
X045400Y001671D01*
X045400Y001689D02*
X043557Y001689D01*
X043557Y001707D02*
X045400Y001707D01*
X045400Y001725D02*
X043557Y001725D01*
X043557Y001743D02*
X045400Y001743D01*
X045400Y001762D02*
X043557Y001762D01*
X043557Y001780D02*
X045400Y001780D01*
X045400Y001798D02*
X043557Y001798D01*
X043557Y001816D02*
X044209Y001816D01*
X044190Y001835D02*
X043558Y001835D01*
X043558Y001853D02*
X044171Y001853D01*
X044152Y001871D02*
X043558Y001871D01*
X043558Y001889D02*
X044134Y001889D01*
X044115Y001908D02*
X043558Y001908D01*
X043558Y001926D02*
X044100Y001926D01*
X044100Y001944D02*
X043558Y001944D01*
X043558Y001962D02*
X044100Y001962D01*
X044100Y001980D02*
X043558Y001980D01*
X043558Y001999D02*
X044100Y001999D01*
X044100Y002017D02*
X043558Y002017D01*
X043558Y002035D02*
X044100Y002035D01*
X044100Y002053D02*
X043558Y002053D01*
X043558Y002072D02*
X044100Y002072D01*
X044100Y002090D02*
X043558Y002090D01*
X043558Y002108D02*
X044100Y002108D01*
X044100Y002126D02*
X043558Y002126D01*
X043558Y002144D02*
X044100Y002144D01*
X044100Y002163D02*
X043558Y002163D01*
X043558Y002181D02*
X044100Y002181D01*
X044100Y002199D02*
X043558Y002199D01*
X043558Y002217D02*
X044100Y002217D01*
X044100Y002236D02*
X043558Y002236D01*
X043559Y002254D02*
X044100Y002254D01*
X044100Y002272D02*
X043559Y002272D01*
X043559Y002290D02*
X044100Y002290D01*
X044100Y002309D02*
X043559Y002309D01*
X043559Y002327D02*
X044100Y002327D01*
X044100Y002345D02*
X043559Y002345D01*
X043559Y002363D02*
X044100Y002363D01*
X044100Y002381D02*
X043559Y002381D01*
X043559Y002400D02*
X044100Y002400D01*
X044100Y002418D02*
X043559Y002418D01*
X043559Y002436D02*
X044100Y002436D01*
X044100Y002454D02*
X043559Y002454D01*
X043559Y002473D02*
X044100Y002473D01*
X044100Y002491D02*
X043559Y002491D01*
X043559Y002509D02*
X044100Y002509D01*
X044100Y002527D02*
X043559Y002527D01*
X043559Y002546D02*
X044100Y002546D01*
X044100Y002564D02*
X043559Y002564D01*
X043559Y002582D02*
X044100Y002582D01*
X044100Y002600D02*
X043559Y002600D01*
X043559Y002618D02*
X044100Y002618D01*
X044100Y002637D02*
X043559Y002637D01*
X043559Y002655D02*
X044100Y002655D01*
X044100Y002673D02*
X043559Y002673D01*
X043560Y002691D02*
X044100Y002691D01*
X044100Y002710D02*
X043560Y002710D01*
X043560Y002728D02*
X044100Y002728D01*
X044100Y002746D02*
X043560Y002746D01*
X043560Y002764D02*
X044100Y002764D01*
X044100Y002782D02*
X043560Y002782D01*
X043560Y002801D02*
X044100Y002801D01*
X044100Y002819D02*
X043560Y002819D01*
X043560Y002837D02*
X044100Y002837D01*
X044100Y002855D02*
X043560Y002855D01*
X043560Y002874D02*
X044100Y002874D01*
X044100Y002892D02*
X043560Y002892D01*
X043560Y002910D02*
X044100Y002910D01*
X044100Y002928D02*
X043560Y002928D01*
X043560Y002947D02*
X044100Y002947D01*
X044100Y002965D02*
X043560Y002965D01*
X043560Y002983D02*
X044100Y002983D01*
X044100Y003001D02*
X043560Y003001D01*
X043560Y003019D02*
X044100Y003019D01*
X044106Y003038D02*
X043560Y003038D01*
X043560Y003056D02*
X044125Y003056D01*
X044143Y003074D02*
X043560Y003074D01*
X043560Y003092D02*
X044161Y003092D01*
X044179Y003111D02*
X043561Y003111D01*
X043561Y003129D02*
X044198Y003129D01*
X044755Y003129D02*
X045397Y003129D01*
X045397Y003147D02*
X043561Y003147D01*
X043561Y003165D02*
X045397Y003165D01*
X045396Y003184D02*
X043561Y003184D01*
X043561Y003202D02*
X045396Y003202D01*
X045396Y003220D02*
X043561Y003220D01*
X043561Y003238D02*
X045396Y003238D01*
X045396Y003256D02*
X043561Y003256D01*
X043561Y003275D02*
X045396Y003275D01*
X045396Y003293D02*
X043561Y003293D01*
X043589Y003311D02*
X045388Y003311D01*
X045369Y003329D02*
X043607Y003329D01*
X043625Y003348D02*
X045351Y003348D01*
X045333Y003366D02*
X043643Y003366D01*
X043661Y003384D02*
X045315Y003384D01*
X045296Y003402D02*
X043680Y003402D01*
X043698Y003420D02*
X045278Y003420D01*
X045260Y003439D02*
X043716Y003439D01*
X043734Y003457D02*
X045242Y003457D01*
X045224Y003475D02*
X043753Y003475D01*
X043771Y003493D02*
X045205Y003493D01*
X045187Y003512D02*
X043789Y003512D01*
X043807Y003530D02*
X045169Y003530D01*
X045151Y003548D02*
X043826Y003548D01*
X043844Y003566D02*
X045132Y003566D01*
X045114Y003585D02*
X043862Y003585D01*
X043880Y003603D02*
X045096Y003603D01*
X045078Y003621D02*
X043898Y003621D01*
X043917Y003639D02*
X045060Y003639D01*
X045041Y003657D02*
X043935Y003657D01*
X043953Y003676D02*
X045023Y003676D01*
X045005Y003694D02*
X044056Y003694D01*
X044773Y003111D02*
X045397Y003111D01*
X045397Y003092D02*
X044791Y003092D01*
X044810Y003074D02*
X045397Y003074D01*
X045397Y003056D02*
X044828Y003056D01*
X044846Y003038D02*
X045398Y003038D01*
X045398Y003019D02*
X044864Y003019D01*
X044868Y003001D02*
X045398Y003001D01*
X045398Y002983D02*
X044868Y002983D01*
X044868Y002965D02*
X045398Y002965D01*
X045398Y002947D02*
X044868Y002947D01*
X044868Y002928D02*
X045398Y002928D01*
X045398Y002910D02*
X044868Y002910D01*
X044868Y002892D02*
X045399Y002892D01*
X045399Y002874D02*
X045141Y002874D01*
X045122Y002874D02*
X044868Y002874D01*
X044868Y002855D02*
X045083Y002855D01*
X045044Y002837D02*
X044868Y002837D01*
X044868Y002819D02*
X045004Y002819D01*
X044965Y002801D02*
X044868Y002801D01*
X044868Y002782D02*
X044925Y002782D01*
X044886Y002764D02*
X044868Y002764D01*
X045180Y002855D02*
X045399Y002855D01*
X045399Y002837D02*
X045218Y002837D01*
X045257Y002819D02*
X045399Y002819D01*
X045399Y002801D02*
X045296Y002801D01*
X045335Y002782D02*
X045399Y002782D01*
X045399Y002764D02*
X045373Y002764D01*
X045165Y002217D02*
X045113Y002217D01*
X045068Y002199D02*
X045206Y002199D01*
X045248Y002181D02*
X045024Y002181D01*
X044979Y002163D02*
X045289Y002163D01*
X045331Y002144D02*
X044934Y002144D01*
X044890Y002126D02*
X045372Y002126D01*
X045400Y002108D02*
X044860Y002108D01*
X044861Y002090D02*
X045400Y002090D01*
X045400Y002072D02*
X044861Y002072D01*
X044861Y002053D02*
X045400Y002053D01*
X045400Y002035D02*
X044862Y002035D01*
X044862Y002017D02*
X045400Y002017D01*
X045400Y001999D02*
X044862Y001999D01*
X044863Y001980D02*
X045400Y001980D01*
X045400Y001962D02*
X044863Y001962D01*
X044863Y001944D02*
X045400Y001944D01*
X045400Y001926D02*
X044864Y001926D01*
X044858Y001908D02*
X045400Y001908D01*
X045400Y001889D02*
X044838Y001889D01*
X044818Y001871D02*
X045400Y001871D01*
X045400Y001853D02*
X044799Y001853D01*
X044779Y001835D02*
X045400Y001835D01*
X045400Y001816D02*
X044759Y001816D01*
X045171Y001397D02*
X043792Y001397D01*
X043810Y001379D02*
X045152Y001379D01*
X045134Y001361D02*
X043829Y001361D01*
X043847Y001342D02*
X045116Y001342D01*
X045098Y001324D02*
X043866Y001324D01*
X043884Y001306D02*
X045080Y001306D01*
X045061Y001288D02*
X043902Y001288D01*
X043921Y001270D02*
X045043Y001270D01*
X045025Y001251D02*
X043939Y001251D01*
X043958Y001233D02*
X045007Y001233D01*
X045189Y001415D02*
X043774Y001415D01*
X043755Y001434D02*
X045207Y001434D01*
X045225Y001452D02*
X043737Y001452D01*
X043718Y001470D02*
X045244Y001470D01*
X045262Y001488D02*
X043700Y001488D01*
X043682Y001506D02*
X045280Y001506D01*
X045298Y001525D02*
X043663Y001525D01*
X043645Y001543D02*
X045316Y001543D01*
X045335Y001561D02*
X043626Y001561D01*
X043608Y001579D02*
X045353Y001579D01*
X045371Y001598D02*
X043590Y001598D01*
X043571Y001616D02*
X045389Y001616D01*
X044555Y001215D02*
X043976Y001215D01*
D12*
X045024Y005467D02*
X044999Y005492D01*
X044999Y005592D01*
X045024Y005617D01*
X045074Y005617D01*
X045099Y005592D01*
X045099Y005542D01*
X045049Y005542D01*
X045099Y005492D02*
X045074Y005467D01*
X045024Y005467D01*
X045146Y005467D02*
X045246Y005617D01*
X045246Y005467D01*
X045294Y005467D02*
X045369Y005467D01*
X045394Y005492D01*
X045394Y005592D01*
X045369Y005617D01*
X045294Y005617D01*
X045294Y005467D01*
X045146Y005467D02*
X045146Y005617D01*
D13*
X029673Y001655D02*
X029566Y001548D01*
X029566Y001121D01*
X029460Y001228D02*
X029673Y001228D01*
X029242Y001228D02*
X029242Y001655D01*
X028922Y001655D01*
X028815Y001548D01*
X028815Y001228D01*
X028598Y001335D02*
X028491Y001228D01*
X028277Y001228D01*
X028171Y001335D01*
X028171Y001548D01*
X028277Y001655D01*
X028491Y001655D01*
X028598Y001548D01*
X028598Y001335D01*
X027954Y001228D02*
X027633Y001442D01*
X027954Y001655D01*
X027633Y001655D02*
X027633Y001015D01*
X027416Y001335D02*
X027309Y001228D01*
X027096Y001228D01*
X027096Y001442D02*
X026989Y001548D01*
X027096Y001655D01*
X027416Y001655D01*
X027416Y001335D01*
X027416Y001442D02*
X027096Y001442D01*
X026771Y001442D02*
X026344Y001442D01*
X026344Y001548D02*
X026344Y001335D01*
X026451Y001228D01*
X026665Y001228D01*
X026771Y001335D01*
X026771Y001442D01*
X026665Y001655D02*
X026451Y001655D01*
X026344Y001548D01*
X026128Y001228D02*
X026021Y001228D01*
X025807Y001442D01*
X025807Y001655D02*
X025807Y001228D01*
X025590Y001228D02*
X025483Y001335D01*
X025163Y001335D01*
X025483Y001335D02*
X025590Y001442D01*
X025590Y001548D01*
X025483Y001655D01*
X025163Y001655D01*
X025163Y001015D01*
X025483Y001015D01*
X025590Y001121D01*
X025590Y001228D01*
X024301Y001015D02*
X024301Y001655D01*
X023874Y001015D01*
X023874Y001655D01*
X023656Y001548D02*
X023549Y001655D01*
X023336Y001655D01*
X023229Y001548D01*
X023229Y001121D01*
X023336Y001015D01*
X023549Y001015D01*
X023656Y001121D01*
X023012Y001015D02*
X023012Y001655D01*
X022585Y001655D02*
X022585Y001015D01*
X022798Y001228D01*
X023012Y001015D01*
X021724Y001228D02*
X021510Y001228D01*
X021617Y001121D02*
X021617Y001548D01*
X021724Y001655D01*
X021293Y001655D02*
X021293Y001335D01*
X021186Y001228D01*
X020866Y001228D01*
X020866Y001655D01*
X020648Y001548D02*
X020542Y001655D01*
X020328Y001655D01*
X020221Y001548D01*
X020221Y001335D01*
X020328Y001228D01*
X020542Y001228D01*
X020648Y001335D01*
X020648Y001548D01*
X020005Y001228D02*
X019898Y001228D01*
X019684Y001442D01*
X019684Y001655D02*
X019684Y001228D01*
X019467Y001015D02*
X019040Y001015D01*
X019040Y001655D01*
X019040Y001335D02*
X019253Y001335D01*
D14*
X018774Y004126D02*
X018340Y004126D01*
X018340Y009638D01*
X021766Y009638D01*
X021766Y009835D01*
X024128Y009835D01*
X024128Y009638D01*
X027553Y009638D01*
X027553Y004126D01*
X027041Y004126D01*
X027041Y006528D01*
X018774Y006528D01*
X018774Y004126D01*
X029314Y005353D02*
X033114Y005353D01*
X033114Y008253D01*
X029314Y008253D01*
X029314Y005353D01*
X030014Y005603D02*
X030714Y005603D01*
X031014Y005903D01*
X031014Y006603D01*
X030014Y006603D01*
X030014Y005603D01*
X031414Y005603D02*
X032114Y005603D01*
X032414Y005903D01*
X032414Y006603D01*
X031414Y006603D01*
X031414Y005603D01*
X031414Y007003D02*
X032114Y007003D01*
X032414Y007303D01*
X032414Y008003D01*
X031414Y008003D01*
X031414Y007003D01*
X031014Y007003D02*
X030314Y007003D01*
X030014Y007303D01*
X030014Y008003D01*
X031014Y008003D01*
X031014Y007003D01*
X030914Y008303D02*
X030914Y008703D01*
X031514Y008703D01*
X031514Y008303D01*
X034876Y009638D02*
X034876Y004126D01*
X035309Y004126D01*
X035309Y006528D01*
X043577Y006528D01*
X043577Y004126D01*
X044089Y004126D01*
X044089Y009638D01*
X040663Y009638D01*
X040663Y009835D01*
X038301Y009835D01*
X038301Y009638D01*
X034876Y009638D01*
M02*
