G75*
G70*
%OFA0B0*%
%FSLAX24Y24*%
%IPPOS*%
%LPD*%
%AMOC8*
5,1,8,0,0,1.08239X$1,22.5*
%
%ADD10C,0.0000*%
%ADD11C,0.0472*%
%ADD12C,0.0591*%
%ADD13R,0.0500X0.1000*%
%ADD14R,0.1350X0.0650*%
%ADD15C,0.0160*%
%ADD16C,0.0376*%
D10*
X018222Y002079D02*
X018222Y007984D01*
X018224Y008061D01*
X018230Y008138D01*
X018239Y008215D01*
X018252Y008291D01*
X018269Y008367D01*
X018290Y008441D01*
X018314Y008515D01*
X018342Y008587D01*
X018373Y008657D01*
X018408Y008726D01*
X018446Y008794D01*
X018487Y008859D01*
X018532Y008922D01*
X018580Y008983D01*
X018630Y009042D01*
X018683Y009098D01*
X018739Y009151D01*
X018798Y009201D01*
X018859Y009249D01*
X018922Y009294D01*
X018987Y009335D01*
X019055Y009373D01*
X019124Y009408D01*
X019194Y009439D01*
X019266Y009467D01*
X019340Y009491D01*
X019414Y009512D01*
X019490Y009529D01*
X019566Y009542D01*
X019643Y009551D01*
X019720Y009557D01*
X019797Y009559D01*
X044994Y009559D01*
X045071Y009557D01*
X045148Y009551D01*
X045225Y009542D01*
X045301Y009529D01*
X045377Y009512D01*
X045451Y009491D01*
X045525Y009467D01*
X045597Y009439D01*
X045667Y009408D01*
X045736Y009373D01*
X045804Y009335D01*
X045869Y009294D01*
X045932Y009249D01*
X045993Y009201D01*
X046052Y009151D01*
X046108Y009098D01*
X046161Y009042D01*
X046211Y008983D01*
X046259Y008922D01*
X046304Y008859D01*
X046345Y008794D01*
X046383Y008726D01*
X046418Y008657D01*
X046449Y008587D01*
X046477Y008515D01*
X046501Y008441D01*
X046522Y008367D01*
X046539Y008291D01*
X046552Y008215D01*
X046561Y008138D01*
X046567Y008061D01*
X046569Y007984D01*
X046569Y002079D01*
X046567Y002002D01*
X046561Y001925D01*
X046552Y001848D01*
X046539Y001772D01*
X046522Y001696D01*
X046501Y001622D01*
X046477Y001548D01*
X046449Y001476D01*
X046418Y001406D01*
X046383Y001337D01*
X046345Y001269D01*
X046304Y001204D01*
X046259Y001141D01*
X046211Y001080D01*
X046161Y001021D01*
X046108Y000965D01*
X046052Y000912D01*
X045993Y000862D01*
X045932Y000814D01*
X045869Y000769D01*
X045804Y000728D01*
X045736Y000690D01*
X045667Y000655D01*
X045597Y000624D01*
X045525Y000596D01*
X045451Y000572D01*
X045377Y000551D01*
X045301Y000534D01*
X045225Y000521D01*
X045148Y000512D01*
X045071Y000506D01*
X044994Y000504D01*
X019797Y000504D01*
X019720Y000506D01*
X019643Y000512D01*
X019566Y000521D01*
X019490Y000534D01*
X019414Y000551D01*
X019340Y000572D01*
X019266Y000596D01*
X019194Y000624D01*
X019124Y000655D01*
X019055Y000690D01*
X018987Y000728D01*
X018922Y000769D01*
X018859Y000814D01*
X018798Y000862D01*
X018739Y000912D01*
X018683Y000965D01*
X018630Y001021D01*
X018580Y001080D01*
X018532Y001141D01*
X018487Y001204D01*
X018446Y001269D01*
X018408Y001337D01*
X018373Y001406D01*
X018342Y001476D01*
X018314Y001548D01*
X018290Y001622D01*
X018269Y001696D01*
X018252Y001772D01*
X018239Y001848D01*
X018230Y001925D01*
X018224Y002002D01*
X018222Y002079D01*
X020781Y007984D02*
X020783Y008032D01*
X020789Y008080D01*
X020799Y008127D01*
X020812Y008173D01*
X020830Y008218D01*
X020850Y008262D01*
X020875Y008304D01*
X020903Y008343D01*
X020933Y008380D01*
X020967Y008414D01*
X021004Y008446D01*
X021042Y008475D01*
X021083Y008500D01*
X021126Y008522D01*
X021171Y008540D01*
X021217Y008554D01*
X021264Y008565D01*
X021312Y008572D01*
X021360Y008575D01*
X021408Y008574D01*
X021456Y008569D01*
X021504Y008560D01*
X021550Y008548D01*
X021595Y008531D01*
X021639Y008511D01*
X021681Y008488D01*
X021721Y008461D01*
X021759Y008431D01*
X021794Y008398D01*
X021826Y008362D01*
X021856Y008324D01*
X021882Y008283D01*
X021904Y008240D01*
X021924Y008196D01*
X021939Y008151D01*
X021951Y008104D01*
X021959Y008056D01*
X021963Y008008D01*
X021963Y007960D01*
X021959Y007912D01*
X021951Y007864D01*
X021939Y007817D01*
X021924Y007772D01*
X021904Y007728D01*
X021882Y007685D01*
X021856Y007644D01*
X021826Y007606D01*
X021794Y007570D01*
X021759Y007537D01*
X021721Y007507D01*
X021681Y007480D01*
X021639Y007457D01*
X021595Y007437D01*
X021550Y007420D01*
X021504Y007408D01*
X021456Y007399D01*
X021408Y007394D01*
X021360Y007393D01*
X021312Y007396D01*
X021264Y007403D01*
X021217Y007414D01*
X021171Y007428D01*
X021126Y007446D01*
X021083Y007468D01*
X021042Y007493D01*
X021004Y007522D01*
X020967Y007554D01*
X020933Y007588D01*
X020903Y007625D01*
X020875Y007664D01*
X020850Y007706D01*
X020830Y007750D01*
X020812Y007795D01*
X020799Y007841D01*
X020789Y007888D01*
X020783Y007936D01*
X020781Y007984D01*
X023931Y007984D02*
X023933Y008032D01*
X023939Y008080D01*
X023949Y008127D01*
X023962Y008173D01*
X023980Y008218D01*
X024000Y008262D01*
X024025Y008304D01*
X024053Y008343D01*
X024083Y008380D01*
X024117Y008414D01*
X024154Y008446D01*
X024192Y008475D01*
X024233Y008500D01*
X024276Y008522D01*
X024321Y008540D01*
X024367Y008554D01*
X024414Y008565D01*
X024462Y008572D01*
X024510Y008575D01*
X024558Y008574D01*
X024606Y008569D01*
X024654Y008560D01*
X024700Y008548D01*
X024745Y008531D01*
X024789Y008511D01*
X024831Y008488D01*
X024871Y008461D01*
X024909Y008431D01*
X024944Y008398D01*
X024976Y008362D01*
X025006Y008324D01*
X025032Y008283D01*
X025054Y008240D01*
X025074Y008196D01*
X025089Y008151D01*
X025101Y008104D01*
X025109Y008056D01*
X025113Y008008D01*
X025113Y007960D01*
X025109Y007912D01*
X025101Y007864D01*
X025089Y007817D01*
X025074Y007772D01*
X025054Y007728D01*
X025032Y007685D01*
X025006Y007644D01*
X024976Y007606D01*
X024944Y007570D01*
X024909Y007537D01*
X024871Y007507D01*
X024831Y007480D01*
X024789Y007457D01*
X024745Y007437D01*
X024700Y007420D01*
X024654Y007408D01*
X024606Y007399D01*
X024558Y007394D01*
X024510Y007393D01*
X024462Y007396D01*
X024414Y007403D01*
X024367Y007414D01*
X024321Y007428D01*
X024276Y007446D01*
X024233Y007468D01*
X024192Y007493D01*
X024154Y007522D01*
X024117Y007554D01*
X024083Y007588D01*
X024053Y007625D01*
X024025Y007664D01*
X024000Y007706D01*
X023980Y007750D01*
X023962Y007795D01*
X023949Y007841D01*
X023939Y007888D01*
X023933Y007936D01*
X023931Y007984D01*
X036529Y007984D02*
X036531Y008032D01*
X036537Y008080D01*
X036547Y008127D01*
X036560Y008173D01*
X036578Y008218D01*
X036598Y008262D01*
X036623Y008304D01*
X036651Y008343D01*
X036681Y008380D01*
X036715Y008414D01*
X036752Y008446D01*
X036790Y008475D01*
X036831Y008500D01*
X036874Y008522D01*
X036919Y008540D01*
X036965Y008554D01*
X037012Y008565D01*
X037060Y008572D01*
X037108Y008575D01*
X037156Y008574D01*
X037204Y008569D01*
X037252Y008560D01*
X037298Y008548D01*
X037343Y008531D01*
X037387Y008511D01*
X037429Y008488D01*
X037469Y008461D01*
X037507Y008431D01*
X037542Y008398D01*
X037574Y008362D01*
X037604Y008324D01*
X037630Y008283D01*
X037652Y008240D01*
X037672Y008196D01*
X037687Y008151D01*
X037699Y008104D01*
X037707Y008056D01*
X037711Y008008D01*
X037711Y007960D01*
X037707Y007912D01*
X037699Y007864D01*
X037687Y007817D01*
X037672Y007772D01*
X037652Y007728D01*
X037630Y007685D01*
X037604Y007644D01*
X037574Y007606D01*
X037542Y007570D01*
X037507Y007537D01*
X037469Y007507D01*
X037429Y007480D01*
X037387Y007457D01*
X037343Y007437D01*
X037298Y007420D01*
X037252Y007408D01*
X037204Y007399D01*
X037156Y007394D01*
X037108Y007393D01*
X037060Y007396D01*
X037012Y007403D01*
X036965Y007414D01*
X036919Y007428D01*
X036874Y007446D01*
X036831Y007468D01*
X036790Y007493D01*
X036752Y007522D01*
X036715Y007554D01*
X036681Y007588D01*
X036651Y007625D01*
X036623Y007664D01*
X036598Y007706D01*
X036578Y007750D01*
X036560Y007795D01*
X036547Y007841D01*
X036537Y007888D01*
X036531Y007936D01*
X036529Y007984D01*
X041253Y007984D02*
X041255Y008032D01*
X041261Y008080D01*
X041271Y008127D01*
X041284Y008173D01*
X041302Y008218D01*
X041322Y008262D01*
X041347Y008304D01*
X041375Y008343D01*
X041405Y008380D01*
X041439Y008414D01*
X041476Y008446D01*
X041514Y008475D01*
X041555Y008500D01*
X041598Y008522D01*
X041643Y008540D01*
X041689Y008554D01*
X041736Y008565D01*
X041784Y008572D01*
X041832Y008575D01*
X041880Y008574D01*
X041928Y008569D01*
X041976Y008560D01*
X042022Y008548D01*
X042067Y008531D01*
X042111Y008511D01*
X042153Y008488D01*
X042193Y008461D01*
X042231Y008431D01*
X042266Y008398D01*
X042298Y008362D01*
X042328Y008324D01*
X042354Y008283D01*
X042376Y008240D01*
X042396Y008196D01*
X042411Y008151D01*
X042423Y008104D01*
X042431Y008056D01*
X042435Y008008D01*
X042435Y007960D01*
X042431Y007912D01*
X042423Y007864D01*
X042411Y007817D01*
X042396Y007772D01*
X042376Y007728D01*
X042354Y007685D01*
X042328Y007644D01*
X042298Y007606D01*
X042266Y007570D01*
X042231Y007537D01*
X042193Y007507D01*
X042153Y007480D01*
X042111Y007457D01*
X042067Y007437D01*
X042022Y007420D01*
X041976Y007408D01*
X041928Y007399D01*
X041880Y007394D01*
X041832Y007393D01*
X041784Y007396D01*
X041736Y007403D01*
X041689Y007414D01*
X041643Y007428D01*
X041598Y007446D01*
X041555Y007468D01*
X041514Y007493D01*
X041476Y007522D01*
X041439Y007554D01*
X041405Y007588D01*
X041375Y007625D01*
X041347Y007664D01*
X041322Y007706D01*
X041302Y007750D01*
X041284Y007795D01*
X041271Y007841D01*
X041261Y007888D01*
X041255Y007936D01*
X041253Y007984D01*
D11*
X041451Y006016D03*
X040663Y006016D03*
X039876Y006016D03*
X039089Y006016D03*
X038301Y006016D03*
X037514Y006016D03*
X036726Y006016D03*
X035939Y006016D03*
X035939Y005031D03*
X036726Y005031D03*
X037514Y005031D03*
X038301Y005031D03*
X039089Y005031D03*
X039876Y005031D03*
X040663Y005031D03*
X041451Y005031D03*
X042238Y005031D03*
X043026Y005031D03*
X043026Y006016D03*
X042238Y006016D03*
X042770Y003988D03*
X042159Y003831D03*
X041903Y003260D03*
X042159Y002689D03*
X042770Y002531D03*
X043281Y002906D03*
X042632Y003260D03*
X043281Y003614D03*
X036195Y003614D03*
X035545Y003260D03*
X036195Y002906D03*
X035683Y002531D03*
X035073Y002689D03*
X034817Y003260D03*
X035073Y003831D03*
X035683Y003988D03*
X029108Y003614D03*
X028596Y003988D03*
X027986Y003831D03*
X027730Y003260D03*
X028459Y003260D03*
X029108Y002906D03*
X028596Y002531D03*
X027986Y002689D03*
X026490Y005031D03*
X025703Y005031D03*
X024915Y005031D03*
X024128Y005031D03*
X023340Y005031D03*
X022553Y005031D03*
X021766Y005031D03*
X020978Y005031D03*
X020191Y005031D03*
X019403Y005031D03*
X019403Y006016D03*
X020191Y006016D03*
X020978Y006016D03*
X021766Y006016D03*
X022553Y006016D03*
X023340Y006016D03*
X024128Y006016D03*
X024915Y006016D03*
X025703Y006016D03*
X026490Y006016D03*
X022022Y003614D03*
X021510Y003988D03*
X020900Y003831D03*
X020644Y003260D03*
X021372Y003260D03*
X022022Y002906D03*
X021510Y002531D03*
X020900Y002689D03*
D12*
X024522Y003260D03*
X031608Y003260D03*
X038695Y003260D03*
X045191Y006016D03*
X045781Y003260D03*
D13*
X031805Y004953D03*
X030624Y004953D03*
X030624Y008653D03*
X031805Y008653D03*
D14*
X033634Y006803D03*
X028794Y006803D03*
D15*
X028061Y007268D02*
X027979Y007186D01*
X027979Y006420D01*
X028061Y006338D01*
X029528Y006338D01*
X029610Y006420D01*
X029610Y007186D01*
X029528Y007268D01*
X028061Y007268D01*
X027979Y007163D02*
X025703Y007163D01*
X025703Y007321D02*
X030634Y007321D01*
X030533Y007220D02*
X030404Y007091D01*
X030404Y005593D01*
X030316Y005593D01*
X030234Y005511D01*
X030234Y004874D01*
X029301Y003941D01*
X029183Y003990D01*
X029033Y003990D01*
X029013Y003982D01*
X029013Y003988D01*
X028597Y003988D01*
X028597Y003988D01*
X029013Y003988D01*
X029013Y004021D01*
X029002Y004086D01*
X028982Y004148D01*
X028952Y004206D01*
X028914Y004259D01*
X028868Y004306D01*
X028814Y004344D01*
X028756Y004374D01*
X028694Y004394D01*
X028629Y004404D01*
X028597Y004404D01*
X028597Y003989D01*
X028596Y003989D01*
X028596Y004404D01*
X028564Y004404D01*
X028499Y004394D01*
X028437Y004374D01*
X028378Y004344D01*
X028325Y004306D01*
X028279Y004259D01*
X028240Y004206D01*
X028223Y004173D01*
X028204Y004187D01*
X028146Y004216D01*
X028084Y004237D01*
X028019Y004247D01*
X027986Y004247D01*
X027953Y004247D01*
X027889Y004237D01*
X027826Y004216D01*
X027768Y004187D01*
X027715Y004148D01*
X027669Y004102D01*
X027630Y004049D01*
X027600Y003990D01*
X027580Y003928D01*
X027570Y003863D01*
X027570Y003831D01*
X027986Y003831D01*
X027986Y004247D01*
X027986Y003831D01*
X027986Y003831D01*
X027986Y003830D01*
X027570Y003830D01*
X027570Y003798D01*
X027580Y003733D01*
X027600Y003671D01*
X027625Y003623D01*
X027517Y003579D01*
X027411Y003473D01*
X027354Y003335D01*
X027354Y003185D01*
X027411Y003047D01*
X027517Y002941D01*
X027655Y002884D01*
X027660Y002884D01*
X027610Y002764D01*
X027610Y002614D01*
X027667Y002476D01*
X027736Y002407D01*
X027606Y002407D01*
X027485Y002357D01*
X027393Y002265D01*
X027343Y002144D01*
X027343Y002013D01*
X027393Y001893D01*
X027485Y001801D01*
X027606Y001751D01*
X027736Y001751D01*
X027857Y001801D01*
X027915Y001859D01*
X028761Y001859D01*
X028943Y001859D01*
X029199Y002115D01*
X029328Y002244D01*
X029328Y002593D01*
X029427Y002692D01*
X029484Y002831D01*
X029484Y002980D01*
X029427Y003119D01*
X029321Y003224D01*
X029236Y003260D01*
X029301Y003287D01*
X031517Y001071D01*
X031699Y001071D01*
X036424Y001071D01*
X036553Y001200D01*
X037120Y001768D01*
X037423Y001465D01*
X037605Y001465D01*
X043904Y001465D01*
X044033Y001594D01*
X044427Y001988D01*
X044427Y002170D01*
X044427Y002957D01*
X044298Y003086D01*
X043631Y003753D01*
X043600Y003827D01*
X043494Y003933D01*
X043356Y003990D01*
X043207Y003990D01*
X043186Y003982D01*
X043186Y003988D01*
X042770Y003988D01*
X042770Y003988D01*
X043186Y003988D01*
X043186Y004021D01*
X043176Y004086D01*
X043155Y004148D01*
X043126Y004206D01*
X043087Y004259D01*
X043041Y004306D01*
X042988Y004344D01*
X042929Y004374D01*
X042915Y004378D01*
X043879Y004378D01*
X044061Y004378D01*
X044691Y005008D01*
X044820Y005137D01*
X044820Y008528D01*
X044878Y008586D01*
X044928Y008706D01*
X044928Y008837D01*
X044878Y008957D01*
X044786Y009050D01*
X044666Y009100D01*
X044535Y009100D01*
X044414Y009050D01*
X044322Y008957D01*
X044272Y008837D01*
X044272Y008706D01*
X044322Y008586D01*
X044380Y008528D01*
X044380Y006496D01*
X044272Y006541D01*
X044141Y006541D01*
X044021Y006491D01*
X043928Y006398D01*
X043879Y006278D01*
X043879Y006196D01*
X043525Y005842D01*
X043361Y005842D01*
X043402Y005941D01*
X043402Y006091D01*
X043344Y006229D01*
X043239Y006335D01*
X043100Y006392D01*
X042951Y006392D01*
X042907Y006374D01*
X043009Y006475D01*
X043091Y006475D01*
X043211Y006525D01*
X043304Y006617D01*
X043354Y006738D01*
X043354Y006868D01*
X043304Y006989D01*
X043211Y007081D01*
X043091Y007131D01*
X042960Y007131D01*
X042840Y007081D01*
X042747Y006989D01*
X042697Y006868D01*
X042697Y006786D01*
X042541Y006629D01*
X042375Y006629D01*
X042458Y006712D01*
X043117Y007371D01*
X043245Y007499D01*
X043245Y008287D01*
X043402Y008444D01*
X043484Y008444D01*
X043605Y008494D01*
X043697Y008586D01*
X043747Y008706D01*
X043747Y008837D01*
X043697Y008957D01*
X043605Y009050D01*
X043484Y009100D01*
X043354Y009100D01*
X043233Y009050D01*
X043141Y008957D01*
X043091Y008837D01*
X043091Y008755D01*
X042806Y008469D01*
X042806Y008287D01*
X042806Y007682D01*
X042147Y007023D01*
X039785Y007023D01*
X039656Y006894D01*
X039262Y006501D01*
X039262Y006351D01*
X039163Y006392D01*
X039014Y006392D01*
X038875Y006335D01*
X038770Y006229D01*
X038712Y006091D01*
X038712Y005941D01*
X038770Y005803D01*
X038848Y005724D01*
X038541Y005724D01*
X038620Y005803D01*
X038677Y005941D01*
X038677Y006091D01*
X038620Y006229D01*
X038514Y006335D01*
X038376Y006392D01*
X038236Y006392D01*
X037734Y006894D01*
X037605Y007023D01*
X036817Y007023D01*
X035765Y008075D01*
X035636Y008204D01*
X032195Y008204D01*
X032195Y009165D01*
X045615Y009165D01*
X045813Y009051D01*
X046061Y008803D01*
X046175Y008605D01*
X046175Y003447D01*
X046150Y003506D01*
X046028Y003629D01*
X045868Y003695D01*
X045695Y003695D01*
X045535Y003629D01*
X045412Y003506D01*
X045346Y003346D01*
X045346Y003173D01*
X045412Y003013D01*
X045535Y002891D01*
X045695Y002825D01*
X045868Y002825D01*
X046028Y002891D01*
X046150Y003013D01*
X046175Y003073D01*
X046175Y001458D01*
X046061Y001260D01*
X045813Y001012D01*
X045615Y000898D01*
X025703Y000898D01*
X025703Y004655D01*
X025778Y004655D01*
X025916Y004713D01*
X026022Y004818D01*
X026079Y004957D01*
X026079Y005106D01*
X026022Y005245D01*
X025916Y005350D01*
X025778Y005408D01*
X025703Y005408D01*
X025703Y005640D01*
X025778Y005640D01*
X025916Y005697D01*
X026022Y005803D01*
X026079Y005941D01*
X026079Y006091D01*
X026022Y006229D01*
X025916Y006335D01*
X025778Y006392D01*
X025703Y006392D01*
X025703Y009165D01*
X030194Y009165D01*
X030194Y008698D01*
X030579Y008698D01*
X030579Y008608D01*
X030194Y008608D01*
X030194Y008204D01*
X027015Y008204D01*
X027015Y008246D01*
X026965Y008367D01*
X026873Y008459D01*
X026752Y008509D01*
X026622Y008509D01*
X026501Y008459D01*
X026409Y008367D01*
X026359Y008246D01*
X026359Y008116D01*
X026409Y007995D01*
X026501Y007903D01*
X026622Y007853D01*
X026704Y007853D01*
X026793Y007764D01*
X026975Y007764D01*
X031077Y007764D01*
X030994Y007682D01*
X030533Y007220D01*
X030476Y007163D02*
X029610Y007163D01*
X029610Y007004D02*
X030404Y007004D01*
X030404Y006846D02*
X029610Y006846D01*
X029610Y006687D02*
X030404Y006687D01*
X030404Y006529D02*
X029610Y006529D01*
X029559Y006370D02*
X030404Y006370D01*
X030404Y006211D02*
X026816Y006211D01*
X026809Y006229D02*
X026703Y006335D01*
X026565Y006392D01*
X026415Y006392D01*
X026277Y006335D01*
X026171Y006229D01*
X026114Y006091D01*
X026114Y005941D01*
X026171Y005803D01*
X026277Y005697D01*
X026415Y005640D01*
X026565Y005640D01*
X026703Y005697D01*
X026809Y005803D01*
X026866Y005941D01*
X026866Y006091D01*
X026809Y006229D01*
X026866Y006053D02*
X030404Y006053D01*
X030404Y005894D02*
X026847Y005894D01*
X026742Y005736D02*
X030404Y005736D01*
X030300Y005577D02*
X025703Y005577D01*
X025703Y005419D02*
X030234Y005419D01*
X030234Y005260D02*
X026793Y005260D01*
X026809Y005245D02*
X026703Y005350D01*
X026565Y005408D01*
X026415Y005408D01*
X026277Y005350D01*
X026171Y005245D01*
X026114Y005106D01*
X026114Y004957D01*
X026171Y004818D01*
X026277Y004713D01*
X026415Y004655D01*
X026565Y004655D01*
X026703Y004713D01*
X026809Y004818D01*
X026866Y004957D01*
X026866Y005106D01*
X026809Y005245D01*
X026866Y005102D02*
X030234Y005102D01*
X030234Y004943D02*
X026861Y004943D01*
X026775Y004785D02*
X030144Y004785D01*
X029986Y004626D02*
X025703Y004626D01*
X025703Y004468D02*
X029827Y004468D01*
X029669Y004309D02*
X028863Y004309D01*
X028981Y004150D02*
X029510Y004150D01*
X029352Y003992D02*
X029013Y003992D01*
X028597Y003992D02*
X028596Y003992D01*
X028596Y004150D02*
X028597Y004150D01*
X028596Y004309D02*
X028597Y004309D01*
X028330Y004309D02*
X025703Y004309D01*
X025703Y004150D02*
X027718Y004150D01*
X027601Y003992D02*
X025703Y003992D01*
X025703Y003833D02*
X027570Y003833D01*
X027599Y003675D02*
X025703Y003675D01*
X025703Y003516D02*
X027455Y003516D01*
X027364Y003358D02*
X025703Y003358D01*
X025703Y003199D02*
X027354Y003199D01*
X027417Y003041D02*
X025703Y003041D01*
X025703Y002882D02*
X027659Y002882D01*
X027610Y002724D02*
X025703Y002724D01*
X025703Y002565D02*
X027630Y002565D01*
X027605Y002406D02*
X025703Y002406D01*
X025703Y002248D02*
X027386Y002248D01*
X027343Y002089D02*
X025703Y002089D01*
X025703Y001931D02*
X027377Y001931D01*
X027554Y001772D02*
X025703Y001772D01*
X025703Y001614D02*
X030975Y001614D01*
X031133Y001455D02*
X025703Y001455D01*
X025703Y001297D02*
X031292Y001297D01*
X031450Y001138D02*
X025703Y001138D01*
X025703Y000980D02*
X045757Y000980D01*
X045939Y001138D02*
X036490Y001138D01*
X036333Y001291D02*
X031608Y001291D01*
X029285Y003614D01*
X029108Y003614D01*
X029285Y003614D01*
X030624Y004953D01*
X030624Y007000D01*
X031214Y007591D01*
X034364Y007591D01*
X034758Y007197D01*
X034758Y006803D01*
X035065Y006687D02*
X036531Y006687D01*
X036635Y006583D02*
X036817Y006583D01*
X037423Y006583D01*
X037632Y006374D01*
X037589Y006392D01*
X037439Y006392D01*
X037301Y006335D01*
X037195Y006229D01*
X037137Y006091D01*
X037137Y005941D01*
X037195Y005803D01*
X037301Y005697D01*
X037439Y005640D01*
X037589Y005640D01*
X037727Y005697D01*
X037833Y005803D01*
X037890Y005941D01*
X037890Y006091D01*
X037872Y006134D01*
X037925Y006081D01*
X037925Y005941D01*
X037982Y005803D01*
X038076Y005708D01*
X037963Y005595D01*
X037721Y005353D01*
X037589Y005408D01*
X037439Y005408D01*
X037301Y005350D01*
X037195Y005245D01*
X037137Y005106D01*
X037137Y004957D01*
X037195Y004818D01*
X037301Y004713D01*
X037439Y004655D01*
X037589Y004655D01*
X037727Y004713D01*
X037833Y004818D01*
X037850Y004859D01*
X037931Y004941D01*
X037982Y004818D01*
X038088Y004713D01*
X038226Y004655D01*
X038376Y004655D01*
X038514Y004713D01*
X038620Y004818D01*
X038677Y004957D01*
X038677Y005106D01*
X038620Y005245D01*
X038581Y005284D01*
X038809Y005284D01*
X038770Y005245D01*
X038712Y005106D01*
X038712Y004957D01*
X038770Y004818D01*
X038875Y004713D01*
X039014Y004655D01*
X039163Y004655D01*
X039302Y004713D01*
X039407Y004818D01*
X039465Y004957D01*
X039465Y005106D01*
X039407Y005245D01*
X039368Y005284D01*
X039376Y005284D01*
X039573Y005481D01*
X039702Y005610D01*
X039702Y005681D01*
X039801Y005640D01*
X039951Y005640D01*
X040089Y005697D01*
X040195Y005803D01*
X040252Y005941D01*
X040252Y005952D01*
X040257Y005918D01*
X040278Y005856D01*
X040307Y005798D01*
X040346Y005745D01*
X040392Y005698D01*
X040445Y005660D01*
X040504Y005630D01*
X040566Y005610D01*
X040631Y005600D01*
X040663Y005600D01*
X040663Y006015D01*
X040663Y006015D01*
X040663Y005600D01*
X040696Y005600D01*
X040761Y005610D01*
X040823Y005630D01*
X040881Y005660D01*
X040934Y005698D01*
X040981Y005745D01*
X041019Y005798D01*
X041049Y005856D01*
X041057Y005881D01*
X041065Y005856D01*
X041095Y005798D01*
X041133Y005745D01*
X041180Y005698D01*
X041233Y005660D01*
X041291Y005630D01*
X041353Y005610D01*
X041418Y005600D01*
X041450Y005600D01*
X041450Y006015D01*
X041451Y006015D01*
X041451Y005600D01*
X041483Y005600D01*
X041548Y005610D01*
X041610Y005630D01*
X041624Y005637D01*
X041624Y005367D01*
X041526Y005408D01*
X041376Y005408D01*
X041238Y005350D01*
X041132Y005245D01*
X041074Y005106D01*
X041074Y004957D01*
X041132Y004818D01*
X041238Y004713D01*
X041376Y004655D01*
X041526Y004655D01*
X041624Y004696D01*
X041624Y004116D01*
X041611Y004097D01*
X041624Y004027D01*
X041624Y003956D01*
X041641Y003940D01*
X041645Y003918D01*
X041703Y003877D01*
X041753Y003827D01*
X041776Y003827D01*
X041783Y003822D01*
X041783Y003756D01*
X041833Y003636D01*
X041829Y003636D01*
X041690Y003579D01*
X041585Y003473D01*
X041527Y003335D01*
X041527Y003185D01*
X041585Y003047D01*
X041690Y002941D01*
X041829Y002884D01*
X041833Y002884D01*
X041783Y002764D01*
X041783Y002614D01*
X041840Y002476D01*
X041946Y002370D01*
X042084Y002313D01*
X042234Y002313D01*
X042372Y002370D01*
X042413Y002410D01*
X042451Y002318D01*
X042556Y002213D01*
X042695Y002155D01*
X042844Y002155D01*
X042983Y002213D01*
X043089Y002318D01*
X043146Y002457D01*
X043146Y002554D01*
X043207Y002529D01*
X043356Y002529D01*
X043494Y002587D01*
X043600Y002692D01*
X043658Y002831D01*
X043658Y002980D01*
X043600Y003119D01*
X043494Y003224D01*
X043409Y003260D01*
X043475Y003287D01*
X043987Y002775D01*
X043987Y002170D01*
X043722Y001905D01*
X037605Y001905D01*
X037340Y002170D01*
X037340Y002598D01*
X037340Y002780D01*
X036571Y003549D01*
X036571Y003689D01*
X036514Y003827D01*
X036408Y003933D01*
X036270Y003990D01*
X036120Y003990D01*
X036099Y003982D01*
X036099Y003988D01*
X035683Y003988D01*
X035683Y003988D01*
X036099Y003988D01*
X036099Y004021D01*
X036089Y004086D01*
X036069Y004148D01*
X036039Y004206D01*
X036000Y004259D01*
X035954Y004306D01*
X035901Y004344D01*
X035843Y004374D01*
X035780Y004394D01*
X035716Y004404D01*
X035683Y004404D01*
X035683Y003989D01*
X035683Y003989D01*
X035683Y004404D01*
X035650Y004404D01*
X035586Y004394D01*
X035523Y004374D01*
X035465Y004344D01*
X035412Y004306D01*
X035366Y004259D01*
X035327Y004206D01*
X035310Y004173D01*
X035291Y004187D01*
X035233Y004216D01*
X035170Y004237D01*
X035106Y004247D01*
X035073Y004247D01*
X035073Y003831D01*
X035073Y003831D01*
X035073Y004247D01*
X035040Y004247D01*
X034975Y004237D01*
X034913Y004216D01*
X034855Y004187D01*
X034802Y004148D01*
X034755Y004102D01*
X034717Y004049D01*
X034687Y003990D01*
X034667Y003928D01*
X034657Y003863D01*
X034657Y003831D01*
X035072Y003831D01*
X035072Y003830D01*
X034657Y003830D01*
X034657Y003798D01*
X034667Y003733D01*
X034687Y003671D01*
X034711Y003623D01*
X034604Y003579D01*
X034505Y003480D01*
X034455Y003480D01*
X033403Y004532D01*
X033403Y005772D01*
X033461Y005830D01*
X033511Y005950D01*
X033511Y006081D01*
X033461Y006202D01*
X033369Y006294D01*
X033261Y006338D01*
X034368Y006338D01*
X034450Y006420D01*
X034450Y006690D01*
X034480Y006617D01*
X034572Y006525D01*
X034692Y006475D01*
X034823Y006475D01*
X034944Y006525D01*
X035036Y006617D01*
X035086Y006738D01*
X035086Y006868D01*
X035036Y006989D01*
X034978Y007047D01*
X034978Y007106D01*
X034978Y007288D01*
X034584Y007682D01*
X034501Y007764D01*
X035454Y007764D01*
X036635Y006583D01*
X036651Y006392D02*
X036513Y006335D01*
X036407Y006229D01*
X036350Y006091D01*
X036350Y005941D01*
X036407Y005803D01*
X036513Y005697D01*
X036651Y005640D01*
X036801Y005640D01*
X036939Y005697D01*
X037045Y005803D01*
X037102Y005941D01*
X037102Y006091D01*
X037045Y006229D01*
X036939Y006335D01*
X036801Y006392D01*
X036651Y006392D01*
X036599Y006370D02*
X036067Y006370D01*
X036014Y006392D02*
X035864Y006392D01*
X035726Y006335D01*
X035620Y006229D01*
X035563Y006091D01*
X035563Y005941D01*
X035620Y005803D01*
X035726Y005697D01*
X035864Y005640D01*
X036014Y005640D01*
X036152Y005697D01*
X036258Y005803D01*
X036315Y005941D01*
X036315Y006091D01*
X036258Y006229D01*
X036152Y006335D01*
X036014Y006392D01*
X035811Y006370D02*
X034399Y006370D01*
X034450Y006529D02*
X034568Y006529D01*
X034451Y006687D02*
X034450Y006687D01*
X034947Y006529D02*
X037477Y006529D01*
X037386Y006370D02*
X036854Y006370D01*
X037052Y006211D02*
X037188Y006211D01*
X037137Y006053D02*
X037102Y006053D01*
X037083Y005894D02*
X037157Y005894D01*
X037262Y005736D02*
X036978Y005736D01*
X036474Y005736D02*
X036191Y005736D01*
X036296Y005894D02*
X036369Y005894D01*
X036350Y006053D02*
X036315Y006053D01*
X036265Y006211D02*
X036400Y006211D01*
X035613Y006211D02*
X033451Y006211D01*
X033511Y006053D02*
X035563Y006053D01*
X035582Y005894D02*
X033488Y005894D01*
X033403Y005736D02*
X035687Y005736D01*
X035864Y005408D02*
X035726Y005350D01*
X035620Y005245D01*
X035563Y005106D01*
X035563Y005055D01*
X034214Y005055D01*
X034156Y005113D01*
X034036Y005163D01*
X033905Y005163D01*
X033785Y005113D01*
X033692Y005020D01*
X033642Y004900D01*
X033642Y004769D01*
X033692Y004649D01*
X033785Y004556D01*
X033905Y004507D01*
X034036Y004507D01*
X034156Y004556D01*
X034214Y004615D01*
X035651Y004615D01*
X035833Y004615D01*
X035874Y004655D01*
X036014Y004655D01*
X036152Y004713D01*
X036258Y004818D01*
X036315Y004957D01*
X036315Y005106D01*
X036258Y005245D01*
X036152Y005350D01*
X036014Y005408D01*
X035864Y005408D01*
X035636Y005260D02*
X033403Y005260D01*
X033403Y005102D02*
X033773Y005102D01*
X033660Y004943D02*
X033403Y004943D01*
X033403Y004785D02*
X033642Y004785D01*
X033715Y004626D02*
X033403Y004626D01*
X033467Y004468D02*
X041624Y004468D01*
X041624Y004626D02*
X035845Y004626D01*
X035742Y004835D02*
X035939Y005031D01*
X035742Y004835D02*
X033970Y004835D01*
X034167Y005102D02*
X035563Y005102D01*
X036242Y005260D02*
X036423Y005260D01*
X036407Y005245D02*
X036350Y005106D01*
X036350Y004957D01*
X036407Y004818D01*
X036513Y004713D01*
X036651Y004655D01*
X036801Y004655D01*
X036939Y004713D01*
X037045Y004818D01*
X037102Y004957D01*
X037102Y005106D01*
X037045Y005245D01*
X036939Y005350D01*
X036801Y005408D01*
X036651Y005408D01*
X036513Y005350D01*
X036407Y005245D01*
X036350Y005102D02*
X036315Y005102D01*
X036309Y004943D02*
X036356Y004943D01*
X036441Y004785D02*
X036224Y004785D01*
X035950Y004309D02*
X041624Y004309D01*
X041624Y004150D02*
X036067Y004150D01*
X036099Y003992D02*
X041624Y003992D01*
X041747Y003833D02*
X036508Y003833D01*
X036571Y003675D02*
X038559Y003675D01*
X038608Y003695D02*
X038448Y003629D01*
X038326Y003506D01*
X038260Y003346D01*
X038260Y003173D01*
X038326Y003013D01*
X038448Y002891D01*
X038608Y002825D01*
X038781Y002825D01*
X038941Y002891D01*
X039064Y003013D01*
X039130Y003173D01*
X039130Y003346D01*
X039064Y003506D01*
X038941Y003629D01*
X038781Y003695D01*
X038608Y003695D01*
X038830Y003675D02*
X041817Y003675D01*
X041628Y003516D02*
X039054Y003516D01*
X039125Y003358D02*
X041537Y003358D01*
X041527Y003199D02*
X039130Y003199D01*
X039075Y003041D02*
X041591Y003041D01*
X041832Y002882D02*
X038920Y002882D01*
X038469Y002882D02*
X037238Y002882D01*
X037340Y002724D02*
X041783Y002724D01*
X041803Y002565D02*
X037340Y002565D01*
X037340Y002406D02*
X041910Y002406D01*
X042409Y002406D02*
X042414Y002406D01*
X042521Y002248D02*
X037340Y002248D01*
X037420Y002089D02*
X043906Y002089D01*
X043987Y002248D02*
X043018Y002248D01*
X043125Y002406D02*
X043987Y002406D01*
X043987Y002565D02*
X043442Y002565D01*
X043613Y002724D02*
X043987Y002724D01*
X043880Y002882D02*
X043658Y002882D01*
X043633Y003041D02*
X043721Y003041D01*
X043562Y003199D02*
X043520Y003199D01*
X043154Y003260D02*
X043068Y003224D01*
X043044Y003200D01*
X043048Y003227D01*
X043048Y003260D01*
X043048Y003293D01*
X043044Y003320D01*
X043068Y003295D01*
X043154Y003260D01*
X043048Y003260D02*
X042632Y003260D01*
X042632Y003260D01*
X043048Y003260D01*
X043281Y003614D02*
X043459Y003614D01*
X044207Y002866D01*
X044207Y002079D01*
X043813Y001685D01*
X037514Y001685D01*
X037120Y002079D01*
X037120Y002689D01*
X036195Y003614D01*
X036067Y003260D02*
X035982Y003224D01*
X035957Y003200D01*
X035961Y003227D01*
X035961Y003260D01*
X035961Y003293D01*
X035957Y003320D01*
X035982Y003295D01*
X036067Y003260D01*
X035961Y003260D02*
X035546Y003260D01*
X035546Y003260D01*
X035961Y003260D01*
X036195Y002906D02*
X036175Y002886D01*
X036175Y002118D01*
X035742Y001685D01*
X032002Y001685D01*
X030816Y001772D02*
X027789Y001772D01*
X027671Y002079D02*
X028852Y002079D01*
X029108Y002335D01*
X029108Y002906D01*
X029459Y003041D02*
X029548Y003041D01*
X029484Y002882D02*
X029706Y002882D01*
X029865Y002724D02*
X029440Y002724D01*
X029328Y002565D02*
X030023Y002565D01*
X030182Y002406D02*
X029328Y002406D01*
X029328Y002248D02*
X030340Y002248D01*
X030499Y002089D02*
X029174Y002089D01*
X029015Y001931D02*
X030658Y001931D01*
X029389Y003199D02*
X029346Y003199D01*
X027986Y003833D02*
X027986Y003833D01*
X027986Y003992D02*
X027986Y003992D01*
X027986Y004150D02*
X027986Y004150D01*
X026205Y004785D02*
X025988Y004785D01*
X026073Y004943D02*
X026119Y004943D01*
X026114Y005102D02*
X026079Y005102D01*
X026006Y005260D02*
X026187Y005260D01*
X026238Y005736D02*
X025955Y005736D01*
X026060Y005894D02*
X026133Y005894D01*
X026114Y006053D02*
X026079Y006053D01*
X026029Y006211D02*
X026164Y006211D01*
X026362Y006370D02*
X025830Y006370D01*
X025703Y006529D02*
X027979Y006529D01*
X027979Y006687D02*
X025703Y006687D01*
X025703Y006846D02*
X027979Y006846D01*
X027979Y007004D02*
X025703Y007004D01*
X025309Y007004D02*
X018616Y007004D01*
X018616Y006846D02*
X025309Y006846D01*
X025309Y006687D02*
X018616Y006687D01*
X018616Y006529D02*
X025309Y006529D01*
X025309Y006370D02*
X025136Y006370D01*
X025133Y006372D02*
X025075Y006401D01*
X025013Y006422D01*
X024948Y006432D01*
X024915Y006432D01*
X024882Y006432D01*
X024818Y006422D01*
X024755Y006401D01*
X024697Y006372D01*
X024644Y006333D01*
X024598Y006287D01*
X024559Y006234D01*
X024530Y006176D01*
X024522Y006151D01*
X024514Y006176D01*
X024484Y006234D01*
X024445Y006287D01*
X024399Y006333D01*
X024346Y006372D01*
X024288Y006401D01*
X024225Y006422D01*
X024161Y006432D01*
X024128Y006432D01*
X024128Y006016D01*
X024128Y006016D01*
X024544Y006016D01*
X024915Y006016D01*
X024915Y006432D01*
X024915Y006016D01*
X024915Y006016D01*
X024915Y006016D01*
X024544Y006016D01*
X024128Y006016D01*
X024128Y006016D01*
X024128Y006432D01*
X024095Y006432D01*
X024030Y006422D01*
X023968Y006401D01*
X023910Y006372D01*
X023857Y006333D01*
X023810Y006287D01*
X023772Y006234D01*
X023742Y006176D01*
X023722Y006113D01*
X023717Y006080D01*
X023717Y006091D01*
X023659Y006229D01*
X023554Y006335D01*
X023415Y006392D01*
X023266Y006392D01*
X023127Y006335D01*
X023022Y006229D01*
X022964Y006091D01*
X022964Y005941D01*
X023022Y005803D01*
X023127Y005697D01*
X023266Y005640D01*
X023415Y005640D01*
X023554Y005697D01*
X023659Y005803D01*
X023717Y005941D01*
X023717Y005952D01*
X023722Y005918D01*
X023742Y005856D01*
X023772Y005798D01*
X023810Y005745D01*
X023857Y005698D01*
X023910Y005660D01*
X023968Y005630D01*
X024030Y005610D01*
X024095Y005600D01*
X024128Y005600D01*
X024161Y005600D01*
X024225Y005610D01*
X024288Y005630D01*
X024346Y005660D01*
X024399Y005698D01*
X024445Y005745D01*
X024484Y005798D01*
X024514Y005856D01*
X024522Y005881D01*
X024530Y005856D01*
X024559Y005798D01*
X024598Y005745D01*
X024644Y005698D01*
X024697Y005660D01*
X024755Y005630D01*
X024818Y005610D01*
X024882Y005600D01*
X024915Y005600D01*
X024915Y006015D01*
X024915Y006015D01*
X024915Y005600D01*
X024948Y005600D01*
X025013Y005610D01*
X025075Y005630D01*
X025133Y005660D01*
X025186Y005698D01*
X025233Y005745D01*
X025271Y005798D01*
X025301Y005856D01*
X025309Y005881D01*
X025309Y000898D01*
X019176Y000898D01*
X018978Y001012D01*
X018730Y001260D01*
X018616Y001458D01*
X018616Y008605D01*
X018730Y008803D01*
X018978Y009051D01*
X019176Y009165D01*
X025309Y009165D01*
X025309Y008227D01*
X025217Y008449D01*
X024986Y008680D01*
X024685Y008805D01*
X024358Y008805D01*
X024057Y008680D01*
X023826Y008449D01*
X023701Y008147D01*
X023701Y007821D01*
X023826Y007519D01*
X024057Y007289D01*
X024358Y007164D01*
X024685Y007164D01*
X024986Y007289D01*
X025217Y007519D01*
X025309Y007741D01*
X025309Y006151D01*
X025301Y006176D01*
X025271Y006234D01*
X025233Y006287D01*
X025186Y006333D01*
X025133Y006372D01*
X024915Y006370D02*
X024915Y006370D01*
X024915Y006211D02*
X024915Y006211D01*
X024915Y006053D02*
X024915Y006053D01*
X024915Y005894D02*
X024915Y005894D01*
X024915Y005736D02*
X024915Y005736D01*
X024606Y005736D02*
X024437Y005736D01*
X024128Y005736D02*
X024128Y005736D01*
X024128Y005600D02*
X024128Y006015D01*
X024128Y006015D01*
X024128Y005600D01*
X024203Y005408D02*
X024053Y005408D01*
X023915Y005350D01*
X023809Y005245D01*
X023752Y005106D01*
X023752Y004957D01*
X023809Y004818D01*
X023915Y004713D01*
X024053Y004655D01*
X024203Y004655D01*
X024341Y004713D01*
X024447Y004818D01*
X024504Y004957D01*
X024504Y005106D01*
X024447Y005245D01*
X024341Y005350D01*
X024203Y005408D01*
X024431Y005260D02*
X024612Y005260D01*
X024596Y005245D02*
X024539Y005106D01*
X024539Y004957D01*
X024596Y004818D01*
X024695Y004719D01*
X024695Y003745D01*
X024635Y003684D01*
X024608Y003695D01*
X024435Y003695D01*
X024275Y003629D01*
X024153Y003506D01*
X024086Y003346D01*
X024086Y003173D01*
X024153Y003013D01*
X024275Y002891D01*
X024435Y002825D01*
X024608Y002825D01*
X024768Y002891D01*
X024891Y003013D01*
X024957Y003173D01*
X024957Y003346D01*
X024946Y003373D01*
X025006Y003434D01*
X025135Y003562D01*
X025135Y004719D01*
X025234Y004818D01*
X025291Y004957D01*
X025291Y005106D01*
X025234Y005245D01*
X025128Y005350D01*
X024990Y005408D01*
X024840Y005408D01*
X024702Y005350D01*
X024596Y005245D01*
X024539Y005102D02*
X024504Y005102D01*
X024498Y004943D02*
X024545Y004943D01*
X024630Y004785D02*
X024413Y004785D01*
X024695Y004626D02*
X022285Y004626D01*
X022250Y004661D02*
X022068Y004661D01*
X021854Y004661D01*
X021979Y004713D01*
X022085Y004818D01*
X022142Y004957D01*
X022142Y005106D01*
X022085Y005245D01*
X021979Y005350D01*
X021841Y005408D01*
X021691Y005408D01*
X021553Y005350D01*
X021447Y005245D01*
X021389Y005106D01*
X021389Y004957D01*
X021407Y004913D01*
X021354Y004966D01*
X021354Y005106D01*
X021297Y005245D01*
X021191Y005350D01*
X021053Y005408D01*
X020903Y005408D01*
X020765Y005350D01*
X020659Y005245D01*
X020602Y005106D01*
X020602Y004957D01*
X020659Y004818D01*
X020765Y004713D01*
X020903Y004655D01*
X021043Y004655D01*
X021349Y004350D01*
X021364Y004335D01*
X021297Y004307D01*
X021191Y004201D01*
X021169Y004149D01*
X021118Y004187D01*
X021059Y004216D01*
X020997Y004237D01*
X020932Y004247D01*
X020900Y004247D01*
X020900Y003831D01*
X020899Y003831D01*
X020899Y003830D01*
X020483Y003830D01*
X020483Y003798D01*
X020494Y003733D01*
X020514Y003671D01*
X020538Y003623D01*
X020431Y003579D01*
X020325Y003473D01*
X020267Y003335D01*
X020267Y003185D01*
X020325Y003047D01*
X020431Y002941D01*
X020569Y002884D01*
X020573Y002884D01*
X020523Y002764D01*
X020523Y002614D01*
X020581Y002476D01*
X020686Y002370D01*
X020825Y002313D01*
X020974Y002313D01*
X021113Y002370D01*
X021153Y002410D01*
X021191Y002318D01*
X021297Y002213D01*
X021435Y002155D01*
X021585Y002155D01*
X021723Y002213D01*
X021829Y002318D01*
X021886Y002457D01*
X021886Y002554D01*
X021947Y002529D01*
X022096Y002529D01*
X022235Y002587D01*
X022334Y002686D01*
X022684Y002686D01*
X022812Y002814D01*
X023167Y003169D01*
X023167Y003351D01*
X023167Y003745D01*
X023038Y003874D01*
X022250Y004661D01*
X022340Y004713D02*
X022478Y004655D01*
X022628Y004655D01*
X022766Y004713D01*
X022872Y004818D01*
X022929Y004957D01*
X022929Y005106D01*
X022872Y005245D01*
X022766Y005350D01*
X022628Y005408D01*
X022478Y005408D01*
X022340Y005350D01*
X022234Y005245D01*
X022177Y005106D01*
X022177Y004957D01*
X022234Y004818D01*
X022340Y004713D01*
X022268Y004785D02*
X022051Y004785D01*
X022136Y004943D02*
X022182Y004943D01*
X022177Y005102D02*
X022142Y005102D01*
X022069Y005260D02*
X022250Y005260D01*
X022478Y005640D02*
X022340Y005697D01*
X022234Y005803D01*
X022177Y005941D01*
X022177Y006091D01*
X022234Y006229D01*
X022340Y006335D01*
X022478Y006392D01*
X022628Y006392D01*
X022766Y006335D01*
X022872Y006229D01*
X022929Y006091D01*
X022929Y005941D01*
X022872Y005803D01*
X022766Y005697D01*
X022628Y005640D01*
X022478Y005640D01*
X022301Y005736D02*
X022018Y005736D01*
X021979Y005697D02*
X022085Y005803D01*
X022142Y005941D01*
X022142Y006091D01*
X022085Y006229D01*
X021979Y006335D01*
X021841Y006392D01*
X021691Y006392D01*
X021553Y006335D01*
X021447Y006229D01*
X021389Y006091D01*
X021389Y005941D01*
X021447Y005803D01*
X021553Y005697D01*
X021691Y005640D01*
X021841Y005640D01*
X021979Y005697D01*
X022123Y005894D02*
X022196Y005894D01*
X022177Y006053D02*
X022142Y006053D01*
X022092Y006211D02*
X022227Y006211D01*
X022425Y006370D02*
X021893Y006370D01*
X021638Y006370D02*
X021106Y006370D01*
X021053Y006392D02*
X020903Y006392D01*
X020765Y006335D01*
X020659Y006229D01*
X020602Y006091D01*
X020602Y005941D01*
X020659Y005803D01*
X020765Y005697D01*
X020903Y005640D01*
X021053Y005640D01*
X021191Y005697D01*
X021297Y005803D01*
X021354Y005941D01*
X021354Y006091D01*
X021297Y006229D01*
X021191Y006335D01*
X021053Y006392D01*
X020851Y006370D02*
X020319Y006370D01*
X020266Y006392D02*
X020116Y006392D01*
X019978Y006335D01*
X019872Y006229D01*
X019815Y006091D01*
X019815Y005941D01*
X019872Y005803D01*
X019978Y005697D01*
X020116Y005640D01*
X020266Y005640D01*
X020404Y005697D01*
X020510Y005803D01*
X020567Y005941D01*
X020567Y006091D01*
X020510Y006229D01*
X020404Y006335D01*
X020266Y006392D01*
X020063Y006370D02*
X019531Y006370D01*
X019478Y006392D02*
X019329Y006392D01*
X019190Y006335D01*
X019085Y006229D01*
X019027Y006091D01*
X019027Y005941D01*
X019085Y005803D01*
X019190Y005697D01*
X019329Y005640D01*
X019478Y005640D01*
X019617Y005697D01*
X019722Y005803D01*
X019780Y005941D01*
X019780Y006091D01*
X019722Y006229D01*
X019617Y006335D01*
X019478Y006392D01*
X019276Y006370D02*
X018616Y006370D01*
X018616Y006211D02*
X019077Y006211D01*
X019027Y006053D02*
X018616Y006053D01*
X018616Y005894D02*
X019046Y005894D01*
X019151Y005736D02*
X018616Y005736D01*
X018616Y005577D02*
X025309Y005577D01*
X025309Y005419D02*
X018616Y005419D01*
X018616Y005260D02*
X019100Y005260D01*
X019085Y005245D02*
X019027Y005106D01*
X019027Y004957D01*
X019085Y004818D01*
X019190Y004713D01*
X019329Y004655D01*
X019478Y004655D01*
X019617Y004713D01*
X019722Y004818D01*
X019780Y004957D01*
X019780Y005106D01*
X019722Y005245D01*
X019617Y005350D01*
X019478Y005408D01*
X019329Y005408D01*
X019190Y005350D01*
X019085Y005245D01*
X019027Y005102D02*
X018616Y005102D01*
X018616Y004943D02*
X019033Y004943D01*
X019118Y004785D02*
X018616Y004785D01*
X018616Y004626D02*
X021073Y004626D01*
X021231Y004468D02*
X018616Y004468D01*
X018616Y004309D02*
X021301Y004309D01*
X021170Y004150D02*
X021168Y004150D01*
X020900Y004150D02*
X020899Y004150D01*
X020899Y004247D02*
X020899Y003831D01*
X020483Y003831D01*
X020483Y003863D01*
X020494Y003928D01*
X020514Y003990D01*
X020544Y004049D01*
X020582Y004102D01*
X020628Y004148D01*
X020681Y004187D01*
X020740Y004216D01*
X020802Y004237D01*
X020867Y004247D01*
X020899Y004247D01*
X020899Y003992D02*
X020900Y003992D01*
X020899Y003833D02*
X020900Y003833D01*
X020631Y004150D02*
X018616Y004150D01*
X018616Y003992D02*
X020515Y003992D01*
X020483Y003833D02*
X018616Y003833D01*
X018616Y003675D02*
X020512Y003675D01*
X020368Y003516D02*
X018616Y003516D01*
X018616Y003358D02*
X020277Y003358D01*
X020267Y003199D02*
X018616Y003199D01*
X018616Y003041D02*
X020331Y003041D01*
X020572Y002882D02*
X018616Y002882D01*
X018616Y002724D02*
X020523Y002724D01*
X020544Y002565D02*
X018616Y002565D01*
X018616Y002406D02*
X020650Y002406D01*
X021149Y002406D02*
X021154Y002406D01*
X021261Y002248D02*
X018616Y002248D01*
X018616Y002089D02*
X025309Y002089D01*
X025309Y001931D02*
X018616Y001931D01*
X018616Y001772D02*
X025309Y001772D01*
X025309Y001614D02*
X018616Y001614D01*
X018618Y001455D02*
X025309Y001455D01*
X025309Y001297D02*
X018709Y001297D01*
X018852Y001138D02*
X025309Y001138D01*
X025309Y000980D02*
X019034Y000980D01*
X021758Y002248D02*
X025309Y002248D01*
X025309Y002406D02*
X021865Y002406D01*
X022183Y002565D02*
X025309Y002565D01*
X025309Y002724D02*
X022722Y002724D01*
X022592Y002906D02*
X022022Y002906D01*
X022592Y002906D02*
X022947Y003260D01*
X022947Y003654D01*
X022159Y004441D01*
X021569Y004441D01*
X020978Y005031D01*
X020693Y004785D02*
X020476Y004785D01*
X020510Y004818D02*
X020567Y004957D01*
X020567Y005106D01*
X020510Y005245D01*
X020404Y005350D01*
X020266Y005408D01*
X020116Y005408D01*
X019978Y005350D01*
X019872Y005245D01*
X019815Y005106D01*
X019815Y004957D01*
X019872Y004818D01*
X019978Y004713D01*
X020116Y004655D01*
X020266Y004655D01*
X020404Y004713D01*
X020510Y004818D01*
X020561Y004943D02*
X020608Y004943D01*
X020602Y005102D02*
X020567Y005102D01*
X020494Y005260D02*
X020675Y005260D01*
X021281Y005260D02*
X021462Y005260D01*
X021389Y005102D02*
X021354Y005102D01*
X021378Y004943D02*
X021395Y004943D01*
X021514Y005736D02*
X021230Y005736D01*
X021335Y005894D02*
X021409Y005894D01*
X021389Y006053D02*
X021354Y006053D01*
X021304Y006211D02*
X021440Y006211D01*
X020652Y006211D02*
X020517Y006211D01*
X020567Y006053D02*
X020602Y006053D01*
X020621Y005894D02*
X020548Y005894D01*
X020443Y005736D02*
X020726Y005736D01*
X019939Y005736D02*
X019656Y005736D01*
X019760Y005894D02*
X019834Y005894D01*
X019815Y006053D02*
X019780Y006053D01*
X019730Y006211D02*
X019865Y006211D01*
X019888Y005260D02*
X019707Y005260D01*
X019780Y005102D02*
X019815Y005102D01*
X019820Y004943D02*
X019774Y004943D01*
X019689Y004785D02*
X019906Y004785D01*
X022444Y004468D02*
X024695Y004468D01*
X024695Y004309D02*
X022602Y004309D01*
X022761Y004150D02*
X024695Y004150D01*
X024695Y003992D02*
X022919Y003992D01*
X023078Y003833D02*
X024695Y003833D01*
X024915Y003654D02*
X024915Y005031D01*
X025200Y004785D02*
X025309Y004785D01*
X025309Y004943D02*
X025286Y004943D01*
X025291Y005102D02*
X025309Y005102D01*
X025309Y005260D02*
X025219Y005260D01*
X025224Y005736D02*
X025309Y005736D01*
X025283Y006211D02*
X025309Y006211D01*
X024695Y006370D02*
X024348Y006370D01*
X024495Y006211D02*
X024548Y006211D01*
X024128Y006211D02*
X024128Y006211D01*
X024128Y006053D02*
X024128Y006053D01*
X024128Y005894D02*
X024128Y005894D01*
X023819Y005736D02*
X023593Y005736D01*
X023697Y005894D02*
X023730Y005894D01*
X023761Y006211D02*
X023667Y006211D01*
X023468Y006370D02*
X023907Y006370D01*
X024128Y006370D02*
X024128Y006370D01*
X023213Y006370D02*
X022681Y006370D01*
X022879Y006211D02*
X023014Y006211D01*
X022964Y006053D02*
X022929Y006053D01*
X022910Y005894D02*
X022984Y005894D01*
X023088Y005736D02*
X022805Y005736D01*
X022856Y005260D02*
X023037Y005260D01*
X023022Y005245D02*
X022964Y005106D01*
X022964Y004957D01*
X023022Y004818D01*
X023127Y004713D01*
X023266Y004655D01*
X023415Y004655D01*
X023554Y004713D01*
X023659Y004818D01*
X023717Y004957D01*
X023717Y005106D01*
X023659Y005245D01*
X023554Y005350D01*
X023415Y005408D01*
X023266Y005408D01*
X023127Y005350D01*
X023022Y005245D01*
X022964Y005102D02*
X022929Y005102D01*
X022924Y004943D02*
X022970Y004943D01*
X023055Y004785D02*
X022838Y004785D01*
X023626Y004785D02*
X023843Y004785D01*
X023757Y004943D02*
X023711Y004943D01*
X023717Y005102D02*
X023752Y005102D01*
X023825Y005260D02*
X023644Y005260D01*
X025135Y004626D02*
X025309Y004626D01*
X025309Y004468D02*
X025135Y004468D01*
X025135Y004309D02*
X025309Y004309D01*
X025309Y004150D02*
X025135Y004150D01*
X025135Y003992D02*
X025309Y003992D01*
X025309Y003833D02*
X025135Y003833D01*
X025135Y003675D02*
X025309Y003675D01*
X025309Y003516D02*
X025089Y003516D01*
X024952Y003358D02*
X025309Y003358D01*
X025309Y003199D02*
X024957Y003199D01*
X024902Y003041D02*
X025309Y003041D01*
X025309Y002882D02*
X024747Y002882D01*
X024522Y003260D02*
X024915Y003654D01*
X024386Y003675D02*
X023167Y003675D01*
X023167Y003516D02*
X024162Y003516D01*
X024091Y003358D02*
X023167Y003358D01*
X023167Y003199D02*
X024086Y003199D01*
X024141Y003041D02*
X023039Y003041D01*
X022880Y002882D02*
X024296Y002882D01*
X026618Y006370D02*
X028030Y006370D01*
X026760Y007797D02*
X025703Y007797D01*
X025703Y007955D02*
X026449Y007955D01*
X026360Y008114D02*
X025703Y008114D01*
X025703Y008273D02*
X026370Y008273D01*
X026473Y008431D02*
X025703Y008431D01*
X025703Y008590D02*
X030194Y008590D01*
X030194Y008748D02*
X025703Y008748D01*
X025703Y008907D02*
X030194Y008907D01*
X030194Y009065D02*
X025703Y009065D01*
X025309Y009065D02*
X019003Y009065D01*
X018834Y008907D02*
X025309Y008907D01*
X025309Y008748D02*
X024821Y008748D01*
X025077Y008590D02*
X025309Y008590D01*
X025309Y008431D02*
X025225Y008431D01*
X025290Y008273D02*
X025309Y008273D01*
X025309Y007638D02*
X025266Y007638D01*
X025309Y007480D02*
X025178Y007480D01*
X025309Y007321D02*
X025019Y007321D01*
X025309Y007163D02*
X018616Y007163D01*
X018616Y007321D02*
X020874Y007321D01*
X020907Y007289D02*
X021209Y007164D01*
X021535Y007164D01*
X021837Y007289D01*
X022068Y007519D01*
X022192Y007821D01*
X022192Y008147D01*
X022068Y008449D01*
X021837Y008680D01*
X021535Y008805D01*
X021209Y008805D01*
X020907Y008680D01*
X020676Y008449D01*
X020551Y008147D01*
X020551Y007821D01*
X020676Y007519D01*
X020907Y007289D01*
X020716Y007480D02*
X018616Y007480D01*
X018616Y007638D02*
X020627Y007638D01*
X020561Y007797D02*
X018616Y007797D01*
X018616Y007955D02*
X020551Y007955D01*
X020551Y008114D02*
X018616Y008114D01*
X018616Y008273D02*
X020603Y008273D01*
X020669Y008431D02*
X018616Y008431D01*
X018616Y008590D02*
X020817Y008590D01*
X021072Y008748D02*
X018699Y008748D01*
X021672Y008748D02*
X024222Y008748D01*
X023967Y008590D02*
X021927Y008590D01*
X022075Y008431D02*
X023819Y008431D01*
X023753Y008273D02*
X022141Y008273D01*
X022192Y008114D02*
X023701Y008114D01*
X023701Y007955D02*
X022192Y007955D01*
X022182Y007797D02*
X023711Y007797D01*
X023777Y007638D02*
X022117Y007638D01*
X022028Y007480D02*
X023866Y007480D01*
X024024Y007321D02*
X021869Y007321D01*
X025703Y007480D02*
X030793Y007480D01*
X030951Y007638D02*
X025703Y007638D01*
X026687Y008181D02*
X026884Y007984D01*
X035545Y007984D01*
X036726Y006803D01*
X037514Y006803D01*
X038301Y006016D01*
X038429Y006370D02*
X038961Y006370D01*
X038762Y006211D02*
X038627Y006211D01*
X038677Y006053D02*
X038712Y006053D01*
X038732Y005894D02*
X038658Y005894D01*
X038553Y005736D02*
X038836Y005736D01*
X039285Y005504D02*
X039482Y005701D01*
X039482Y006409D01*
X039876Y006803D01*
X042238Y006803D01*
X043026Y007591D01*
X043026Y008378D01*
X043419Y008772D01*
X043120Y008907D02*
X032195Y008907D01*
X032195Y009065D02*
X043271Y009065D01*
X043568Y009065D02*
X044452Y009065D01*
X044301Y008907D02*
X043718Y008907D01*
X043747Y008748D02*
X044272Y008748D01*
X044321Y008590D02*
X043699Y008590D01*
X043390Y008431D02*
X044380Y008431D01*
X044380Y008273D02*
X043245Y008273D01*
X043245Y008114D02*
X044380Y008114D01*
X044380Y007955D02*
X043245Y007955D01*
X043245Y007797D02*
X044380Y007797D01*
X044380Y007638D02*
X043245Y007638D01*
X043226Y007480D02*
X044380Y007480D01*
X044380Y007321D02*
X043067Y007321D01*
X042909Y007163D02*
X044380Y007163D01*
X044380Y007004D02*
X043288Y007004D01*
X043354Y006846D02*
X044380Y006846D01*
X044380Y006687D02*
X043333Y006687D01*
X043215Y006529D02*
X044112Y006529D01*
X044301Y006529D02*
X044380Y006529D01*
X044820Y006529D02*
X046175Y006529D01*
X046175Y006687D02*
X044820Y006687D01*
X044820Y006846D02*
X046175Y006846D01*
X046175Y007004D02*
X044820Y007004D01*
X044820Y007163D02*
X046175Y007163D01*
X046175Y007321D02*
X044820Y007321D01*
X044820Y007480D02*
X046175Y007480D01*
X046175Y007638D02*
X044820Y007638D01*
X044820Y007797D02*
X046175Y007797D01*
X046175Y007955D02*
X044820Y007955D01*
X044820Y008114D02*
X046175Y008114D01*
X046175Y008273D02*
X044820Y008273D01*
X044820Y008431D02*
X046175Y008431D01*
X046175Y008590D02*
X044880Y008590D01*
X044928Y008748D02*
X046092Y008748D01*
X045957Y008907D02*
X044899Y008907D01*
X044749Y009065D02*
X045788Y009065D01*
X044600Y008772D02*
X044600Y008319D01*
X044600Y008772D02*
X044600Y005228D01*
X043970Y004598D01*
X042514Y004598D01*
X042238Y004874D01*
X042238Y005031D01*
X041624Y005419D02*
X039511Y005419D01*
X039663Y005350D02*
X039557Y005245D01*
X039500Y005106D01*
X039500Y004957D01*
X039557Y004818D01*
X039663Y004713D01*
X039801Y004655D01*
X039951Y004655D01*
X040089Y004713D01*
X040195Y004818D01*
X040252Y004957D01*
X040252Y005106D01*
X040195Y005245D01*
X040089Y005350D01*
X039951Y005408D01*
X039801Y005408D01*
X039663Y005350D01*
X039573Y005260D02*
X039392Y005260D01*
X039465Y005102D02*
X039500Y005102D01*
X039505Y004943D02*
X039459Y004943D01*
X039374Y004785D02*
X039591Y004785D01*
X038803Y004785D02*
X038586Y004785D01*
X038672Y004943D02*
X038718Y004943D01*
X038712Y005102D02*
X038677Y005102D01*
X038604Y005260D02*
X038785Y005260D01*
X039285Y005504D02*
X038183Y005504D01*
X037711Y005031D01*
X037514Y005031D01*
X037799Y004785D02*
X038016Y004785D01*
X037787Y005419D02*
X033403Y005419D01*
X033403Y005577D02*
X037945Y005577D01*
X038049Y005736D02*
X037766Y005736D01*
X037871Y005894D02*
X037944Y005894D01*
X037925Y006053D02*
X037890Y006053D01*
X038099Y006529D02*
X039290Y006529D01*
X039262Y006370D02*
X039216Y006370D01*
X039449Y006687D02*
X037941Y006687D01*
X037782Y006846D02*
X039607Y006846D01*
X039766Y007004D02*
X037624Y007004D01*
X037585Y007289D02*
X037283Y007164D01*
X036957Y007164D01*
X036655Y007289D01*
X036424Y007519D01*
X036299Y007821D01*
X036299Y008147D01*
X036424Y008449D01*
X036655Y008680D01*
X036957Y008805D01*
X037283Y008805D01*
X037585Y008680D01*
X037816Y008449D01*
X037941Y008147D01*
X037941Y007821D01*
X037816Y007519D01*
X037585Y007289D01*
X037617Y007321D02*
X041347Y007321D01*
X041380Y007289D02*
X041681Y007164D01*
X042008Y007164D01*
X042309Y007289D01*
X042540Y007519D01*
X042665Y007821D01*
X042665Y008147D01*
X042540Y008449D01*
X042309Y008680D01*
X042008Y008805D01*
X041681Y008805D01*
X041380Y008680D01*
X041149Y008449D01*
X041024Y008147D01*
X041024Y007821D01*
X041149Y007519D01*
X041380Y007289D01*
X041188Y007480D02*
X037776Y007480D01*
X037865Y007638D02*
X041099Y007638D01*
X041034Y007797D02*
X037931Y007797D01*
X037941Y007955D02*
X041024Y007955D01*
X041024Y008114D02*
X037941Y008114D01*
X037889Y008273D02*
X041076Y008273D01*
X041141Y008431D02*
X037823Y008431D01*
X037675Y008590D02*
X041289Y008590D01*
X041545Y008748D02*
X037420Y008748D01*
X036820Y008748D02*
X032195Y008748D01*
X032195Y008590D02*
X036565Y008590D01*
X036417Y008431D02*
X032195Y008431D01*
X032195Y008273D02*
X036351Y008273D01*
X036299Y008114D02*
X035726Y008114D01*
X035885Y007955D02*
X036299Y007955D01*
X036309Y007797D02*
X036044Y007797D01*
X036202Y007638D02*
X036375Y007638D01*
X036361Y007480D02*
X036464Y007480D01*
X036519Y007321D02*
X036623Y007321D01*
X036678Y007163D02*
X042287Y007163D01*
X042342Y007321D02*
X042445Y007321D01*
X042500Y007480D02*
X042604Y007480D01*
X042589Y007638D02*
X042762Y007638D01*
X042806Y007797D02*
X042655Y007797D01*
X042665Y007955D02*
X042806Y007955D01*
X042806Y008114D02*
X042665Y008114D01*
X042613Y008273D02*
X042806Y008273D01*
X042806Y008431D02*
X042547Y008431D01*
X042399Y008590D02*
X042926Y008590D01*
X043085Y008748D02*
X042144Y008748D01*
X042750Y007004D02*
X042763Y007004D01*
X042697Y006846D02*
X042592Y006846D01*
X042598Y006687D02*
X042433Y006687D01*
X042632Y006409D02*
X042041Y006409D01*
X041844Y006213D01*
X041844Y004047D01*
X042159Y003831D01*
X043036Y004309D02*
X046175Y004309D01*
X046175Y004468D02*
X044151Y004468D01*
X044309Y004626D02*
X046175Y004626D01*
X046175Y004785D02*
X044468Y004785D01*
X044626Y004943D02*
X046175Y004943D01*
X046175Y005102D02*
X044785Y005102D01*
X044820Y005260D02*
X046175Y005260D01*
X046175Y005419D02*
X044820Y005419D01*
X044820Y005577D02*
X046175Y005577D01*
X046175Y005736D02*
X044820Y005736D01*
X044820Y005894D02*
X046175Y005894D01*
X046175Y006053D02*
X044820Y006053D01*
X044820Y006211D02*
X046175Y006211D01*
X046175Y006370D02*
X044820Y006370D01*
X044380Y005929D02*
X044272Y005884D01*
X044190Y005884D01*
X043707Y005402D01*
X043525Y005402D01*
X043114Y005402D01*
X043239Y005350D01*
X043344Y005245D01*
X043402Y005106D01*
X043402Y004957D01*
X043344Y004818D01*
X043344Y004818D01*
X043879Y004818D01*
X044380Y005319D01*
X044380Y005929D01*
X044380Y005894D02*
X044296Y005894D01*
X044380Y005736D02*
X044041Y005736D01*
X043882Y005577D02*
X044380Y005577D01*
X044380Y005419D02*
X043724Y005419D01*
X043616Y005622D02*
X044207Y006213D01*
X043879Y006211D02*
X043352Y006211D01*
X043402Y006053D02*
X043736Y006053D01*
X043577Y005894D02*
X043382Y005894D01*
X043616Y005622D02*
X042632Y005622D01*
X042238Y006016D01*
X042632Y006409D02*
X043026Y006803D01*
X043153Y006370D02*
X043917Y006370D01*
X044321Y005260D02*
X043329Y005260D01*
X043402Y005102D02*
X044163Y005102D01*
X044004Y004943D02*
X043396Y004943D01*
X041624Y005577D02*
X039670Y005577D01*
X040128Y005736D02*
X040355Y005736D01*
X040265Y005894D02*
X040233Y005894D01*
X040252Y006080D02*
X040252Y006091D01*
X040195Y006229D01*
X040089Y006335D01*
X039951Y006392D01*
X039801Y006392D01*
X039758Y006374D01*
X039967Y006583D01*
X041904Y006583D01*
X041753Y006433D01*
X041682Y006362D01*
X041669Y006372D01*
X041610Y006401D01*
X041548Y006422D01*
X041483Y006432D01*
X041451Y006432D01*
X041451Y006016D01*
X041450Y006016D01*
X041450Y006016D01*
X041034Y006016D01*
X040664Y006016D01*
X040664Y006016D01*
X040663Y006016D02*
X040663Y006016D01*
X040663Y006432D01*
X040631Y006432D01*
X040566Y006422D01*
X040504Y006401D01*
X040445Y006372D01*
X040392Y006333D01*
X040346Y006287D01*
X040307Y006234D01*
X040278Y006176D01*
X040257Y006113D01*
X040252Y006080D01*
X040296Y006211D02*
X040202Y006211D01*
X040004Y006370D02*
X040443Y006370D01*
X040663Y006370D02*
X040663Y006370D01*
X040663Y006432D02*
X040663Y006016D01*
X040664Y006016D02*
X041079Y006016D01*
X041450Y006016D01*
X041450Y006432D01*
X041418Y006432D01*
X041353Y006422D01*
X041291Y006401D01*
X041233Y006372D01*
X041180Y006333D01*
X041133Y006287D01*
X041095Y006234D01*
X041065Y006176D01*
X041057Y006151D01*
X041049Y006176D01*
X041019Y006234D01*
X040981Y006287D01*
X040934Y006333D01*
X040881Y006372D01*
X040823Y006401D01*
X040761Y006422D01*
X040696Y006432D01*
X040663Y006432D01*
X040663Y006211D02*
X040663Y006211D01*
X040663Y006053D02*
X040663Y006053D01*
X040663Y005894D02*
X040663Y005894D01*
X040663Y005736D02*
X040663Y005736D01*
X040972Y005736D02*
X041142Y005736D01*
X041450Y005736D02*
X041451Y005736D01*
X041450Y005894D02*
X041451Y005894D01*
X041450Y006053D02*
X041451Y006053D01*
X041450Y006211D02*
X041451Y006211D01*
X041450Y006370D02*
X041451Y006370D01*
X041671Y006370D02*
X041691Y006370D01*
X041849Y006529D02*
X039912Y006529D01*
X040884Y006370D02*
X041230Y006370D01*
X041083Y006211D02*
X041031Y006211D01*
X040738Y005408D02*
X040588Y005408D01*
X040450Y005350D01*
X040344Y005245D01*
X040287Y005106D01*
X040287Y004957D01*
X040344Y004818D01*
X040450Y004713D01*
X040588Y004655D01*
X040738Y004655D01*
X040876Y004713D01*
X040982Y004818D01*
X041039Y004957D01*
X041039Y005106D01*
X040982Y005245D01*
X040876Y005350D01*
X040738Y005408D01*
X040967Y005260D02*
X041147Y005260D01*
X041074Y005102D02*
X041039Y005102D01*
X041034Y004943D02*
X041080Y004943D01*
X041166Y004785D02*
X040948Y004785D01*
X040378Y004785D02*
X040161Y004785D01*
X040246Y004943D02*
X040293Y004943D01*
X040287Y005102D02*
X040252Y005102D01*
X040179Y005260D02*
X040360Y005260D01*
X043154Y004150D02*
X046175Y004150D01*
X046175Y003992D02*
X043186Y003992D01*
X043594Y003833D02*
X046175Y003833D01*
X046175Y003675D02*
X045917Y003675D01*
X045646Y003675D02*
X043709Y003675D01*
X043868Y003516D02*
X045422Y003516D01*
X045351Y003358D02*
X044026Y003358D01*
X044185Y003199D02*
X045346Y003199D01*
X045401Y003041D02*
X044343Y003041D01*
X044427Y002882D02*
X045556Y002882D01*
X046007Y002882D02*
X046175Y002882D01*
X046175Y002724D02*
X044427Y002724D01*
X044427Y002565D02*
X046175Y002565D01*
X046175Y002406D02*
X044427Y002406D01*
X044427Y002248D02*
X046175Y002248D01*
X046175Y002089D02*
X044427Y002089D01*
X044370Y001931D02*
X046175Y001931D01*
X046175Y001772D02*
X044211Y001772D01*
X044053Y001614D02*
X046175Y001614D01*
X046174Y001455D02*
X036808Y001455D01*
X036966Y001614D02*
X037274Y001614D01*
X037579Y001931D02*
X043748Y001931D01*
X046082Y001297D02*
X036649Y001297D01*
X036333Y001291D02*
X037120Y002079D01*
X035683Y002217D02*
X035545Y002079D01*
X033577Y002079D01*
X031214Y004441D01*
X031214Y006803D01*
X031608Y006016D02*
X031805Y005819D01*
X031805Y004953D01*
X033183Y004441D02*
X034364Y003260D01*
X034817Y003260D01*
X034541Y003516D02*
X034419Y003516D01*
X034260Y003675D02*
X034686Y003675D01*
X034657Y003833D02*
X034102Y003833D01*
X033943Y003992D02*
X034688Y003992D01*
X034805Y004150D02*
X033785Y004150D01*
X033626Y004309D02*
X035416Y004309D01*
X035683Y004309D02*
X035683Y004309D01*
X035683Y004150D02*
X035683Y004150D01*
X035683Y003992D02*
X035683Y003992D01*
X035073Y003992D02*
X035073Y003992D01*
X035073Y004150D02*
X035073Y004150D01*
X035073Y003833D02*
X035073Y003833D01*
X036604Y003516D02*
X038336Y003516D01*
X038264Y003358D02*
X036762Y003358D01*
X036921Y003199D02*
X038260Y003199D01*
X038314Y003041D02*
X037079Y003041D01*
X035683Y002531D02*
X035683Y002217D01*
X033183Y004441D02*
X033183Y006016D01*
X035086Y006846D02*
X036373Y006846D01*
X036214Y007004D02*
X035021Y007004D01*
X034978Y007163D02*
X036056Y007163D01*
X035897Y007321D02*
X034944Y007321D01*
X034786Y007480D02*
X035738Y007480D01*
X035580Y007638D02*
X034627Y007638D01*
X031415Y008204D02*
X031054Y008204D01*
X031054Y008608D01*
X030669Y008608D01*
X030669Y008698D01*
X031054Y008698D01*
X031054Y009165D01*
X031415Y009165D01*
X031415Y008204D01*
X031415Y008273D02*
X031054Y008273D01*
X031054Y008431D02*
X031415Y008431D01*
X031415Y008590D02*
X031054Y008590D01*
X031054Y008748D02*
X031415Y008748D01*
X031415Y008907D02*
X031054Y008907D01*
X031054Y009065D02*
X031415Y009065D01*
X030194Y008431D02*
X026901Y008431D01*
X027004Y008273D02*
X030194Y008273D01*
X030994Y007682D02*
X030994Y007682D01*
X037030Y005260D02*
X037210Y005260D01*
X037137Y005102D02*
X037102Y005102D01*
X037097Y004943D02*
X037143Y004943D01*
X037229Y004785D02*
X037011Y004785D01*
X046141Y003516D02*
X046175Y003516D01*
X046162Y003041D02*
X046175Y003041D01*
D16*
X044207Y005622D03*
X044207Y006213D03*
X043026Y006803D03*
X043419Y008772D03*
X044600Y008772D03*
X034758Y006803D03*
X033183Y006016D03*
X031608Y006016D03*
X031214Y006803D03*
X033970Y004835D03*
X032002Y001685D03*
X027671Y002079D03*
X026687Y008181D03*
M02*
