G75*
G70*
%OFA0B0*%
%FSLAX24Y24*%
%IPPOS*%
%LPD*%
%AMOC8*
5,1,8,0,0,1.08239X$1,22.5*
%
%ADD10C,0.0040*%
%ADD11C,0.0020*%
%ADD12C,0.0010*%
%ADD13C,0.0060*%
%ADD14C,0.0050*%
D10*
X015093Y003961D02*
X015400Y004421D01*
X015553Y004191D02*
X015860Y004191D01*
X016013Y004191D02*
X016167Y004114D01*
X016244Y004114D01*
X016320Y004191D01*
X016320Y004344D01*
X016244Y004421D01*
X016090Y004421D01*
X016013Y004344D01*
X016013Y004191D02*
X016013Y003961D01*
X016320Y003961D01*
X016474Y004114D02*
X016627Y003961D01*
X016627Y004421D01*
X016474Y004421D02*
X016781Y004421D01*
X016934Y004421D02*
X017241Y004421D01*
X017088Y004421D02*
X017088Y003961D01*
X016934Y004114D01*
X015400Y003961D02*
X015093Y004421D01*
X023242Y004263D02*
X023549Y003803D01*
X023703Y004033D02*
X024010Y004033D01*
X024163Y003880D02*
X024240Y003803D01*
X024393Y003803D01*
X024470Y003880D01*
X024470Y003957D01*
X024393Y004033D01*
X024470Y004110D01*
X024470Y004187D01*
X024393Y004263D01*
X024240Y004263D01*
X024163Y004187D01*
X024316Y004033D02*
X024393Y004033D01*
X024623Y003880D02*
X024700Y003803D01*
X024854Y003803D01*
X024930Y003880D01*
X024930Y003957D01*
X024623Y004263D01*
X024930Y004263D01*
X025084Y004187D02*
X025160Y004263D01*
X025314Y004263D01*
X025391Y004187D01*
X025391Y003880D01*
X025314Y003803D01*
X025160Y003803D01*
X025084Y003880D01*
X025084Y003957D01*
X025160Y004033D01*
X025391Y004033D01*
X023549Y004263D02*
X023242Y003803D01*
X025482Y001665D02*
X025636Y001512D01*
X025636Y001205D01*
X025789Y001435D02*
X025866Y001358D01*
X026019Y001358D01*
X026096Y001435D01*
X026096Y001512D01*
X025789Y001512D01*
X025789Y001588D02*
X025789Y001435D01*
X025789Y001588D02*
X025866Y001665D01*
X026019Y001665D01*
X026250Y001665D02*
X026250Y001358D01*
X026403Y001358D02*
X026480Y001358D01*
X026403Y001358D02*
X026250Y001512D01*
X026633Y001435D02*
X026710Y001358D01*
X026940Y001358D01*
X027094Y001358D02*
X027170Y001358D01*
X027170Y001665D01*
X027094Y001665D02*
X027247Y001665D01*
X027401Y001588D02*
X027401Y001435D01*
X027477Y001358D01*
X027631Y001358D01*
X027707Y001435D01*
X027707Y001588D01*
X027631Y001665D01*
X027477Y001665D01*
X027401Y001588D01*
X026940Y001588D02*
X026863Y001512D01*
X026710Y001512D01*
X026633Y001435D01*
X026633Y001665D02*
X026863Y001665D01*
X026940Y001588D01*
X027170Y001205D02*
X027170Y001128D01*
X027861Y001358D02*
X027861Y001665D01*
X028168Y001665D02*
X028168Y001435D01*
X028091Y001358D01*
X027861Y001358D01*
X028782Y001358D02*
X028935Y001205D01*
X028935Y001665D01*
X028782Y001665D02*
X029089Y001665D01*
X029242Y001665D02*
X029319Y001665D01*
X029319Y001588D01*
X029242Y001588D01*
X029242Y001665D01*
X029472Y001665D02*
X029779Y001665D01*
X029626Y001665D02*
X029626Y001205D01*
X029472Y001358D01*
X031234Y003961D02*
X031541Y004421D01*
X031695Y004191D02*
X032002Y004191D01*
X032155Y004191D02*
X032309Y004114D01*
X032385Y004114D01*
X032462Y004191D01*
X032462Y004344D01*
X032385Y004421D01*
X032232Y004421D01*
X032155Y004344D01*
X032155Y004191D02*
X032155Y003961D01*
X032462Y003961D01*
X032616Y004114D02*
X032769Y003961D01*
X032769Y004421D01*
X032616Y004421D02*
X032922Y004421D01*
X033076Y004344D02*
X033383Y004037D01*
X033383Y004344D01*
X033306Y004421D01*
X033153Y004421D01*
X033076Y004344D01*
X033076Y004037D01*
X033153Y003961D01*
X033306Y003961D01*
X033383Y004037D01*
X031541Y003961D02*
X031234Y004421D01*
X025482Y001665D02*
X025329Y001512D01*
X025329Y001205D01*
D11*
X036470Y001630D02*
X036892Y001213D01*
X037903Y001217D01*
X038313Y001626D01*
X038313Y002114D01*
X038053Y002228D01*
X037774Y002114D01*
X037777Y001913D01*
X037671Y001815D01*
X037124Y001815D01*
X037014Y001921D01*
X037014Y003031D01*
X037112Y003130D01*
X037663Y003134D01*
X037781Y003016D01*
X037781Y002756D01*
X038045Y002878D01*
X038313Y002752D01*
X038309Y003303D01*
X037907Y003705D01*
X036884Y003693D01*
X036490Y003299D01*
X036474Y003299D01*
X036470Y001630D01*
X036470Y001634D02*
X038313Y001634D01*
X038313Y001652D02*
X036470Y001652D01*
X036471Y001671D02*
X038313Y001671D01*
X038313Y001689D02*
X036471Y001689D01*
X036471Y001707D02*
X038313Y001707D01*
X038313Y001725D02*
X036471Y001725D01*
X036471Y001743D02*
X038313Y001743D01*
X038313Y001762D02*
X036471Y001762D01*
X036471Y001780D02*
X038313Y001780D01*
X038313Y001798D02*
X036471Y001798D01*
X036471Y001816D02*
X037122Y001816D01*
X037104Y001835D02*
X036471Y001835D01*
X036471Y001853D02*
X037085Y001853D01*
X037066Y001871D02*
X036471Y001871D01*
X036471Y001889D02*
X037047Y001889D01*
X037028Y001908D02*
X036471Y001908D01*
X036471Y001926D02*
X037014Y001926D01*
X037014Y001944D02*
X036471Y001944D01*
X036471Y001962D02*
X037014Y001962D01*
X037014Y001980D02*
X036471Y001980D01*
X036471Y001999D02*
X037014Y001999D01*
X037014Y002017D02*
X036471Y002017D01*
X036471Y002035D02*
X037014Y002035D01*
X037014Y002053D02*
X036471Y002053D01*
X036471Y002072D02*
X037014Y002072D01*
X037014Y002090D02*
X036471Y002090D01*
X036472Y002108D02*
X037014Y002108D01*
X037014Y002126D02*
X036472Y002126D01*
X036472Y002144D02*
X037014Y002144D01*
X037014Y002163D02*
X036472Y002163D01*
X036472Y002181D02*
X037014Y002181D01*
X037014Y002199D02*
X036472Y002199D01*
X036472Y002217D02*
X037014Y002217D01*
X037014Y002236D02*
X036472Y002236D01*
X036472Y002254D02*
X037014Y002254D01*
X037014Y002272D02*
X036472Y002272D01*
X036472Y002290D02*
X037014Y002290D01*
X037014Y002309D02*
X036472Y002309D01*
X036472Y002327D02*
X037014Y002327D01*
X037014Y002345D02*
X036472Y002345D01*
X036472Y002363D02*
X037014Y002363D01*
X037014Y002381D02*
X036472Y002381D01*
X036472Y002400D02*
X037014Y002400D01*
X037014Y002418D02*
X036472Y002418D01*
X036472Y002436D02*
X037014Y002436D01*
X037014Y002454D02*
X036472Y002454D01*
X036472Y002473D02*
X037014Y002473D01*
X037014Y002491D02*
X036472Y002491D01*
X036472Y002509D02*
X037014Y002509D01*
X037014Y002527D02*
X036473Y002527D01*
X036473Y002546D02*
X037014Y002546D01*
X037014Y002564D02*
X036473Y002564D01*
X036473Y002582D02*
X037014Y002582D01*
X037014Y002600D02*
X036473Y002600D01*
X036473Y002618D02*
X037014Y002618D01*
X037014Y002637D02*
X036473Y002637D01*
X036473Y002655D02*
X037014Y002655D01*
X037014Y002673D02*
X036473Y002673D01*
X036473Y002691D02*
X037014Y002691D01*
X037014Y002710D02*
X036473Y002710D01*
X036473Y002728D02*
X037014Y002728D01*
X037014Y002746D02*
X036473Y002746D01*
X036473Y002764D02*
X037014Y002764D01*
X037014Y002782D02*
X036473Y002782D01*
X036473Y002801D02*
X037014Y002801D01*
X037014Y002819D02*
X036473Y002819D01*
X036473Y002837D02*
X037014Y002837D01*
X037014Y002855D02*
X036473Y002855D01*
X036473Y002874D02*
X037014Y002874D01*
X037014Y002892D02*
X036473Y002892D01*
X036473Y002910D02*
X037014Y002910D01*
X037014Y002928D02*
X036473Y002928D01*
X036474Y002947D02*
X037014Y002947D01*
X037014Y002965D02*
X036474Y002965D01*
X036474Y002983D02*
X037014Y002983D01*
X037014Y003001D02*
X036474Y003001D01*
X036474Y003019D02*
X037014Y003019D01*
X037020Y003038D02*
X036474Y003038D01*
X036474Y003056D02*
X037038Y003056D01*
X037056Y003074D02*
X036474Y003074D01*
X036474Y003092D02*
X037075Y003092D01*
X037093Y003111D02*
X036474Y003111D01*
X036474Y003129D02*
X037111Y003129D01*
X036721Y003530D02*
X038082Y003530D01*
X038064Y003548D02*
X036739Y003548D01*
X036757Y003566D02*
X038046Y003566D01*
X038028Y003585D02*
X036775Y003585D01*
X036794Y003603D02*
X038009Y003603D01*
X037991Y003621D02*
X036812Y003621D01*
X036830Y003639D02*
X037973Y003639D01*
X037955Y003657D02*
X036848Y003657D01*
X036867Y003676D02*
X037936Y003676D01*
X037918Y003694D02*
X036969Y003694D01*
X036702Y003512D02*
X038101Y003512D01*
X038119Y003493D02*
X036684Y003493D01*
X036666Y003475D02*
X038137Y003475D01*
X038155Y003457D02*
X036648Y003457D01*
X036630Y003439D02*
X038173Y003439D01*
X038192Y003420D02*
X036611Y003420D01*
X036593Y003402D02*
X038210Y003402D01*
X038228Y003384D02*
X036575Y003384D01*
X036557Y003366D02*
X038246Y003366D01*
X038265Y003348D02*
X036538Y003348D01*
X036520Y003329D02*
X038283Y003329D01*
X038301Y003311D02*
X036502Y003311D01*
X036474Y003293D02*
X038309Y003293D01*
X038309Y003275D02*
X036474Y003275D01*
X036474Y003256D02*
X038309Y003256D01*
X038309Y003238D02*
X036474Y003238D01*
X036474Y003220D02*
X038310Y003220D01*
X038310Y003202D02*
X036474Y003202D01*
X036474Y003184D02*
X038310Y003184D01*
X038310Y003165D02*
X036474Y003165D01*
X036474Y003147D02*
X038310Y003147D01*
X038310Y003129D02*
X037668Y003129D01*
X037687Y003111D02*
X038310Y003111D01*
X038311Y003092D02*
X037705Y003092D01*
X037723Y003074D02*
X038311Y003074D01*
X038311Y003056D02*
X037741Y003056D01*
X037759Y003038D02*
X038311Y003038D01*
X038311Y003019D02*
X037778Y003019D01*
X037781Y003001D02*
X038311Y003001D01*
X038311Y002983D02*
X037781Y002983D01*
X037781Y002965D02*
X038311Y002965D01*
X038312Y002947D02*
X037781Y002947D01*
X037781Y002928D02*
X038312Y002928D01*
X038312Y002910D02*
X037781Y002910D01*
X037781Y002892D02*
X038312Y002892D01*
X038312Y002874D02*
X038054Y002874D01*
X038036Y002874D02*
X037781Y002874D01*
X037781Y002855D02*
X037996Y002855D01*
X037957Y002837D02*
X037781Y002837D01*
X037781Y002819D02*
X037918Y002819D01*
X037878Y002801D02*
X037781Y002801D01*
X037781Y002782D02*
X037839Y002782D01*
X037799Y002764D02*
X037781Y002764D01*
X038093Y002855D02*
X038312Y002855D01*
X038312Y002837D02*
X038132Y002837D01*
X038171Y002819D02*
X038312Y002819D01*
X038313Y002801D02*
X038209Y002801D01*
X038248Y002782D02*
X038313Y002782D01*
X038313Y002764D02*
X038287Y002764D01*
X038078Y002217D02*
X038026Y002217D01*
X037982Y002199D02*
X038119Y002199D01*
X038161Y002181D02*
X037937Y002181D01*
X037892Y002163D02*
X038202Y002163D01*
X038244Y002144D02*
X037848Y002144D01*
X037803Y002126D02*
X038285Y002126D01*
X038313Y002108D02*
X037774Y002108D01*
X037774Y002090D02*
X038313Y002090D01*
X038313Y002072D02*
X037774Y002072D01*
X037775Y002053D02*
X038313Y002053D01*
X038313Y002035D02*
X037775Y002035D01*
X037775Y002017D02*
X038313Y002017D01*
X038313Y001999D02*
X037776Y001999D01*
X037776Y001980D02*
X038313Y001980D01*
X038313Y001962D02*
X037776Y001962D01*
X037777Y001944D02*
X038313Y001944D01*
X038313Y001926D02*
X037777Y001926D01*
X037771Y001908D02*
X038313Y001908D01*
X038313Y001889D02*
X037751Y001889D01*
X037732Y001871D02*
X038313Y001871D01*
X038313Y001853D02*
X037712Y001853D01*
X037692Y001835D02*
X038313Y001835D01*
X038313Y001816D02*
X037673Y001816D01*
X038084Y001397D02*
X036705Y001397D01*
X036687Y001415D02*
X038102Y001415D01*
X038121Y001434D02*
X036669Y001434D01*
X036650Y001452D02*
X038139Y001452D01*
X038157Y001470D02*
X036632Y001470D01*
X036613Y001488D02*
X038175Y001488D01*
X038193Y001506D02*
X036595Y001506D01*
X036577Y001525D02*
X038212Y001525D01*
X038230Y001543D02*
X036558Y001543D01*
X036540Y001561D02*
X038248Y001561D01*
X038266Y001579D02*
X036521Y001579D01*
X036503Y001598D02*
X038285Y001598D01*
X038303Y001616D02*
X036485Y001616D01*
X036724Y001379D02*
X038066Y001379D01*
X038048Y001361D02*
X036742Y001361D01*
X036761Y001342D02*
X038029Y001342D01*
X038011Y001324D02*
X036779Y001324D01*
X036797Y001306D02*
X037993Y001306D01*
X037975Y001288D02*
X036816Y001288D01*
X036834Y001270D02*
X037956Y001270D01*
X037938Y001251D02*
X036853Y001251D01*
X036871Y001233D02*
X037920Y001233D01*
X037468Y001215D02*
X036889Y001215D01*
D12*
X037937Y005467D02*
X037912Y005492D01*
X037912Y005592D01*
X037937Y005617D01*
X037987Y005617D01*
X038012Y005592D01*
X038012Y005542D01*
X037962Y005542D01*
X038012Y005492D02*
X037987Y005467D01*
X037937Y005467D01*
X038060Y005467D02*
X038160Y005617D01*
X038160Y005467D01*
X038207Y005467D02*
X038282Y005467D01*
X038307Y005492D01*
X038307Y005592D01*
X038282Y005617D01*
X038207Y005617D01*
X038207Y005467D01*
X038060Y005467D02*
X038060Y005617D01*
D13*
X022586Y001655D02*
X022480Y001548D01*
X022480Y001121D01*
X022586Y001228D02*
X022373Y001228D01*
X022155Y001228D02*
X022155Y001655D01*
X021835Y001655D01*
X021728Y001548D01*
X021728Y001228D01*
X021511Y001335D02*
X021404Y001228D01*
X021191Y001228D01*
X021084Y001335D01*
X021084Y001548D01*
X021191Y001655D01*
X021404Y001655D01*
X021511Y001548D01*
X021511Y001335D01*
X020867Y001228D02*
X020547Y001442D01*
X020867Y001655D01*
X020547Y001655D02*
X020547Y001015D01*
X020223Y001228D02*
X020329Y001335D01*
X020329Y001655D01*
X020009Y001655D01*
X019902Y001548D01*
X020009Y001442D01*
X020329Y001442D01*
X020223Y001228D02*
X020009Y001228D01*
X019685Y001335D02*
X019685Y001442D01*
X019258Y001442D01*
X019258Y001548D02*
X019258Y001335D01*
X019364Y001228D01*
X019578Y001228D01*
X019685Y001335D01*
X019578Y001655D02*
X019364Y001655D01*
X019258Y001548D01*
X019041Y001228D02*
X018934Y001228D01*
X018721Y001442D01*
X018721Y001655D02*
X018721Y001228D01*
X018503Y001228D02*
X018396Y001335D01*
X018076Y001335D01*
X018076Y001655D02*
X018396Y001655D01*
X018503Y001548D01*
X018503Y001442D01*
X018396Y001335D01*
X018503Y001228D02*
X018503Y001121D01*
X018396Y001015D01*
X018076Y001015D01*
X018076Y001655D01*
X017214Y001655D02*
X017214Y001015D01*
X016787Y001015D02*
X017214Y001655D01*
X016787Y001655D02*
X016787Y001015D01*
X016570Y001121D02*
X016463Y001015D01*
X016249Y001015D01*
X016143Y001121D01*
X016143Y001548D01*
X016249Y001655D01*
X016463Y001655D01*
X016570Y001548D01*
X015925Y001655D02*
X015925Y001015D01*
X015712Y001228D01*
X015498Y001015D01*
X015498Y001655D01*
X014637Y001655D02*
X014531Y001548D01*
X014531Y001121D01*
X014637Y001228D02*
X014424Y001228D01*
X014206Y001335D02*
X014206Y001655D01*
X014206Y001335D02*
X014100Y001228D01*
X013779Y001228D01*
X013779Y001655D01*
X013562Y001548D02*
X013562Y001335D01*
X013455Y001228D01*
X013241Y001228D01*
X013135Y001335D01*
X013135Y001548D01*
X013241Y001655D01*
X013455Y001655D01*
X013562Y001548D01*
X012918Y001228D02*
X012811Y001228D01*
X012598Y001442D01*
X012598Y001655D02*
X012598Y001228D01*
X012380Y001015D02*
X011953Y001015D01*
X011953Y001655D01*
X011953Y001335D02*
X012167Y001335D01*
D14*
X011687Y004126D02*
X011254Y004126D01*
X011254Y009638D01*
X014679Y009638D01*
X014679Y009835D01*
X017041Y009835D01*
X017041Y009638D01*
X020466Y009638D01*
X020466Y004126D01*
X019955Y004126D01*
X019955Y006528D01*
X011687Y006528D01*
X011687Y004126D01*
X022228Y005353D02*
X026028Y005353D01*
X026028Y008253D01*
X022228Y008253D01*
X022228Y005353D01*
X022928Y005603D02*
X023628Y005603D01*
X023928Y005903D01*
X023928Y006603D01*
X022928Y006603D01*
X022928Y005603D01*
X024328Y005603D02*
X024328Y006603D01*
X025328Y006603D01*
X025328Y005903D01*
X025028Y005603D01*
X024328Y005603D01*
X024328Y007003D02*
X025028Y007003D01*
X025328Y007303D01*
X025328Y008003D01*
X024328Y008003D01*
X024328Y007003D01*
X023928Y007003D02*
X023228Y007003D01*
X022928Y007303D01*
X022928Y008003D01*
X023928Y008003D01*
X023928Y007003D01*
X023828Y008303D02*
X023828Y008703D01*
X024428Y008703D01*
X024428Y008303D01*
X027789Y009638D02*
X027789Y004126D01*
X028222Y004126D01*
X028222Y006528D01*
X036490Y006528D01*
X036490Y004126D01*
X037002Y004126D01*
X037002Y009638D01*
X033577Y009638D01*
X033577Y009835D01*
X031214Y009835D01*
X031214Y009638D01*
X027789Y009638D01*
M02*
