G75*
G70*
%OFA0B0*%
%FSLAX24Y24*%
%IPPOS*%
%LPD*%
%AMOC8*
5,1,8,0,0,1.08239X$1,22.5*
%
%ADD10C,0.0000*%
%ADD11C,0.0472*%
%ADD12C,0.0591*%
%ADD13R,0.0500X0.1000*%
%ADD14R,0.1350X0.0650*%
%ADD15C,0.0160*%
%ADD16C,0.0376*%
D10*
X011136Y002079D02*
X011136Y007984D01*
X011138Y008061D01*
X011144Y008138D01*
X011153Y008215D01*
X011166Y008291D01*
X011183Y008367D01*
X011204Y008441D01*
X011228Y008515D01*
X011256Y008587D01*
X011287Y008657D01*
X011322Y008726D01*
X011360Y008794D01*
X011401Y008859D01*
X011446Y008922D01*
X011494Y008983D01*
X011544Y009042D01*
X011597Y009098D01*
X011653Y009151D01*
X011712Y009201D01*
X011773Y009249D01*
X011836Y009294D01*
X011901Y009335D01*
X011969Y009373D01*
X012038Y009408D01*
X012108Y009439D01*
X012180Y009467D01*
X012254Y009491D01*
X012328Y009512D01*
X012404Y009529D01*
X012480Y009542D01*
X012557Y009551D01*
X012634Y009557D01*
X012711Y009559D01*
X037907Y009559D01*
X037984Y009557D01*
X038061Y009551D01*
X038138Y009542D01*
X038214Y009529D01*
X038290Y009512D01*
X038364Y009491D01*
X038438Y009467D01*
X038510Y009439D01*
X038580Y009408D01*
X038649Y009373D01*
X038717Y009335D01*
X038782Y009294D01*
X038845Y009249D01*
X038906Y009201D01*
X038965Y009151D01*
X039021Y009098D01*
X039074Y009042D01*
X039124Y008983D01*
X039172Y008922D01*
X039217Y008859D01*
X039258Y008794D01*
X039296Y008726D01*
X039331Y008657D01*
X039362Y008587D01*
X039390Y008515D01*
X039414Y008441D01*
X039435Y008367D01*
X039452Y008291D01*
X039465Y008215D01*
X039474Y008138D01*
X039480Y008061D01*
X039482Y007984D01*
X039482Y002079D01*
X039480Y002002D01*
X039474Y001925D01*
X039465Y001848D01*
X039452Y001772D01*
X039435Y001696D01*
X039414Y001622D01*
X039390Y001548D01*
X039362Y001476D01*
X039331Y001406D01*
X039296Y001337D01*
X039258Y001269D01*
X039217Y001204D01*
X039172Y001141D01*
X039124Y001080D01*
X039074Y001021D01*
X039021Y000965D01*
X038965Y000912D01*
X038906Y000862D01*
X038845Y000814D01*
X038782Y000769D01*
X038717Y000728D01*
X038649Y000690D01*
X038580Y000655D01*
X038510Y000624D01*
X038438Y000596D01*
X038364Y000572D01*
X038290Y000551D01*
X038214Y000534D01*
X038138Y000521D01*
X038061Y000512D01*
X037984Y000506D01*
X037907Y000504D01*
X012711Y000504D01*
X012634Y000506D01*
X012557Y000512D01*
X012480Y000521D01*
X012404Y000534D01*
X012328Y000551D01*
X012254Y000572D01*
X012180Y000596D01*
X012108Y000624D01*
X012038Y000655D01*
X011969Y000690D01*
X011901Y000728D01*
X011836Y000769D01*
X011773Y000814D01*
X011712Y000862D01*
X011653Y000912D01*
X011597Y000965D01*
X011544Y001021D01*
X011494Y001080D01*
X011446Y001141D01*
X011401Y001204D01*
X011360Y001269D01*
X011322Y001337D01*
X011287Y001406D01*
X011256Y001476D01*
X011228Y001548D01*
X011204Y001622D01*
X011183Y001696D01*
X011166Y001772D01*
X011153Y001848D01*
X011144Y001925D01*
X011138Y002002D01*
X011136Y002079D01*
X013694Y007984D02*
X013696Y008032D01*
X013702Y008080D01*
X013712Y008127D01*
X013725Y008173D01*
X013743Y008218D01*
X013763Y008262D01*
X013788Y008304D01*
X013816Y008343D01*
X013846Y008380D01*
X013880Y008414D01*
X013917Y008446D01*
X013955Y008475D01*
X013996Y008500D01*
X014039Y008522D01*
X014084Y008540D01*
X014130Y008554D01*
X014177Y008565D01*
X014225Y008572D01*
X014273Y008575D01*
X014321Y008574D01*
X014369Y008569D01*
X014417Y008560D01*
X014463Y008548D01*
X014508Y008531D01*
X014552Y008511D01*
X014594Y008488D01*
X014634Y008461D01*
X014672Y008431D01*
X014707Y008398D01*
X014739Y008362D01*
X014769Y008324D01*
X014795Y008283D01*
X014817Y008240D01*
X014837Y008196D01*
X014852Y008151D01*
X014864Y008104D01*
X014872Y008056D01*
X014876Y008008D01*
X014876Y007960D01*
X014872Y007912D01*
X014864Y007864D01*
X014852Y007817D01*
X014837Y007772D01*
X014817Y007728D01*
X014795Y007685D01*
X014769Y007644D01*
X014739Y007606D01*
X014707Y007570D01*
X014672Y007537D01*
X014634Y007507D01*
X014594Y007480D01*
X014552Y007457D01*
X014508Y007437D01*
X014463Y007420D01*
X014417Y007408D01*
X014369Y007399D01*
X014321Y007394D01*
X014273Y007393D01*
X014225Y007396D01*
X014177Y007403D01*
X014130Y007414D01*
X014084Y007428D01*
X014039Y007446D01*
X013996Y007468D01*
X013955Y007493D01*
X013917Y007522D01*
X013880Y007554D01*
X013846Y007588D01*
X013816Y007625D01*
X013788Y007664D01*
X013763Y007706D01*
X013743Y007750D01*
X013725Y007795D01*
X013712Y007841D01*
X013702Y007888D01*
X013696Y007936D01*
X013694Y007984D01*
X016844Y007984D02*
X016846Y008032D01*
X016852Y008080D01*
X016862Y008127D01*
X016875Y008173D01*
X016893Y008218D01*
X016913Y008262D01*
X016938Y008304D01*
X016966Y008343D01*
X016996Y008380D01*
X017030Y008414D01*
X017067Y008446D01*
X017105Y008475D01*
X017146Y008500D01*
X017189Y008522D01*
X017234Y008540D01*
X017280Y008554D01*
X017327Y008565D01*
X017375Y008572D01*
X017423Y008575D01*
X017471Y008574D01*
X017519Y008569D01*
X017567Y008560D01*
X017613Y008548D01*
X017658Y008531D01*
X017702Y008511D01*
X017744Y008488D01*
X017784Y008461D01*
X017822Y008431D01*
X017857Y008398D01*
X017889Y008362D01*
X017919Y008324D01*
X017945Y008283D01*
X017967Y008240D01*
X017987Y008196D01*
X018002Y008151D01*
X018014Y008104D01*
X018022Y008056D01*
X018026Y008008D01*
X018026Y007960D01*
X018022Y007912D01*
X018014Y007864D01*
X018002Y007817D01*
X017987Y007772D01*
X017967Y007728D01*
X017945Y007685D01*
X017919Y007644D01*
X017889Y007606D01*
X017857Y007570D01*
X017822Y007537D01*
X017784Y007507D01*
X017744Y007480D01*
X017702Y007457D01*
X017658Y007437D01*
X017613Y007420D01*
X017567Y007408D01*
X017519Y007399D01*
X017471Y007394D01*
X017423Y007393D01*
X017375Y007396D01*
X017327Y007403D01*
X017280Y007414D01*
X017234Y007428D01*
X017189Y007446D01*
X017146Y007468D01*
X017105Y007493D01*
X017067Y007522D01*
X017030Y007554D01*
X016996Y007588D01*
X016966Y007625D01*
X016938Y007664D01*
X016913Y007706D01*
X016893Y007750D01*
X016875Y007795D01*
X016862Y007841D01*
X016852Y007888D01*
X016846Y007936D01*
X016844Y007984D01*
X029442Y007984D02*
X029444Y008032D01*
X029450Y008080D01*
X029460Y008127D01*
X029473Y008173D01*
X029491Y008218D01*
X029511Y008262D01*
X029536Y008304D01*
X029564Y008343D01*
X029594Y008380D01*
X029628Y008414D01*
X029665Y008446D01*
X029703Y008475D01*
X029744Y008500D01*
X029787Y008522D01*
X029832Y008540D01*
X029878Y008554D01*
X029925Y008565D01*
X029973Y008572D01*
X030021Y008575D01*
X030069Y008574D01*
X030117Y008569D01*
X030165Y008560D01*
X030211Y008548D01*
X030256Y008531D01*
X030300Y008511D01*
X030342Y008488D01*
X030382Y008461D01*
X030420Y008431D01*
X030455Y008398D01*
X030487Y008362D01*
X030517Y008324D01*
X030543Y008283D01*
X030565Y008240D01*
X030585Y008196D01*
X030600Y008151D01*
X030612Y008104D01*
X030620Y008056D01*
X030624Y008008D01*
X030624Y007960D01*
X030620Y007912D01*
X030612Y007864D01*
X030600Y007817D01*
X030585Y007772D01*
X030565Y007728D01*
X030543Y007685D01*
X030517Y007644D01*
X030487Y007606D01*
X030455Y007570D01*
X030420Y007537D01*
X030382Y007507D01*
X030342Y007480D01*
X030300Y007457D01*
X030256Y007437D01*
X030211Y007420D01*
X030165Y007408D01*
X030117Y007399D01*
X030069Y007394D01*
X030021Y007393D01*
X029973Y007396D01*
X029925Y007403D01*
X029878Y007414D01*
X029832Y007428D01*
X029787Y007446D01*
X029744Y007468D01*
X029703Y007493D01*
X029665Y007522D01*
X029628Y007554D01*
X029594Y007588D01*
X029564Y007625D01*
X029536Y007664D01*
X029511Y007706D01*
X029491Y007750D01*
X029473Y007795D01*
X029460Y007841D01*
X029450Y007888D01*
X029444Y007936D01*
X029442Y007984D01*
X034167Y007984D02*
X034169Y008032D01*
X034175Y008080D01*
X034185Y008127D01*
X034198Y008173D01*
X034216Y008218D01*
X034236Y008262D01*
X034261Y008304D01*
X034289Y008343D01*
X034319Y008380D01*
X034353Y008414D01*
X034390Y008446D01*
X034428Y008475D01*
X034469Y008500D01*
X034512Y008522D01*
X034557Y008540D01*
X034603Y008554D01*
X034650Y008565D01*
X034698Y008572D01*
X034746Y008575D01*
X034794Y008574D01*
X034842Y008569D01*
X034890Y008560D01*
X034936Y008548D01*
X034981Y008531D01*
X035025Y008511D01*
X035067Y008488D01*
X035107Y008461D01*
X035145Y008431D01*
X035180Y008398D01*
X035212Y008362D01*
X035242Y008324D01*
X035268Y008283D01*
X035290Y008240D01*
X035310Y008196D01*
X035325Y008151D01*
X035337Y008104D01*
X035345Y008056D01*
X035349Y008008D01*
X035349Y007960D01*
X035345Y007912D01*
X035337Y007864D01*
X035325Y007817D01*
X035310Y007772D01*
X035290Y007728D01*
X035268Y007685D01*
X035242Y007644D01*
X035212Y007606D01*
X035180Y007570D01*
X035145Y007537D01*
X035107Y007507D01*
X035067Y007480D01*
X035025Y007457D01*
X034981Y007437D01*
X034936Y007420D01*
X034890Y007408D01*
X034842Y007399D01*
X034794Y007394D01*
X034746Y007393D01*
X034698Y007396D01*
X034650Y007403D01*
X034603Y007414D01*
X034557Y007428D01*
X034512Y007446D01*
X034469Y007468D01*
X034428Y007493D01*
X034390Y007522D01*
X034353Y007554D01*
X034319Y007588D01*
X034289Y007625D01*
X034261Y007664D01*
X034236Y007706D01*
X034216Y007750D01*
X034198Y007795D01*
X034185Y007841D01*
X034175Y007888D01*
X034169Y007936D01*
X034167Y007984D01*
D11*
X034364Y006016D03*
X033577Y006016D03*
X032789Y006016D03*
X032002Y006016D03*
X031214Y006016D03*
X030427Y006016D03*
X029640Y006016D03*
X028852Y006016D03*
X028852Y005031D03*
X029640Y005031D03*
X030427Y005031D03*
X031214Y005031D03*
X032002Y005031D03*
X032789Y005031D03*
X033577Y005031D03*
X034364Y005031D03*
X035151Y005031D03*
X035939Y005031D03*
X035939Y006016D03*
X035151Y006016D03*
X035683Y003988D03*
X035073Y003831D03*
X034817Y003260D03*
X035073Y002689D03*
X035683Y002531D03*
X036195Y002906D03*
X036195Y003614D03*
X035545Y003260D03*
X029108Y002906D03*
X028596Y002531D03*
X027986Y002689D03*
X027730Y003260D03*
X028459Y003260D03*
X029108Y003614D03*
X028596Y003988D03*
X027986Y003831D03*
X022022Y003614D03*
X021510Y003988D03*
X020900Y003831D03*
X020644Y003260D03*
X021372Y003260D03*
X022022Y002906D03*
X021510Y002531D03*
X020900Y002689D03*
X019403Y005031D03*
X018616Y005031D03*
X017829Y005031D03*
X017041Y005031D03*
X016254Y005031D03*
X015466Y005031D03*
X014679Y005031D03*
X013892Y005031D03*
X013104Y005031D03*
X012317Y005031D03*
X012317Y006016D03*
X013104Y006016D03*
X013892Y006016D03*
X014679Y006016D03*
X015466Y006016D03*
X016254Y006016D03*
X017041Y006016D03*
X017829Y006016D03*
X018616Y006016D03*
X019403Y006016D03*
X014935Y003614D03*
X014285Y003260D03*
X014935Y002906D03*
X014423Y002531D03*
X013813Y002689D03*
X013557Y003260D03*
X013813Y003831D03*
X014423Y003988D03*
D12*
X017435Y003260D03*
X024522Y003260D03*
X031608Y003260D03*
X038104Y006016D03*
X038695Y003260D03*
D13*
X024718Y004953D03*
X023537Y004953D03*
X023537Y008653D03*
X024718Y008653D03*
D14*
X026548Y006803D03*
X021708Y006803D03*
D15*
X022523Y006846D02*
X023317Y006846D01*
X023317Y007004D02*
X022523Y007004D01*
X022523Y007163D02*
X023389Y007163D01*
X023446Y007220D02*
X023317Y007091D01*
X023317Y005593D01*
X023229Y005593D01*
X023147Y005511D01*
X023147Y004874D01*
X022214Y003941D01*
X022096Y003990D01*
X021947Y003990D01*
X021926Y003982D01*
X021926Y003988D01*
X021510Y003988D01*
X021510Y003988D01*
X021926Y003988D01*
X021926Y004021D01*
X021916Y004086D01*
X021895Y004148D01*
X021866Y004206D01*
X021827Y004259D01*
X021781Y004306D01*
X021728Y004344D01*
X021670Y004374D01*
X021607Y004394D01*
X021543Y004404D01*
X021510Y004404D01*
X021510Y003989D01*
X021510Y003989D01*
X021510Y004404D01*
X021477Y004404D01*
X021412Y004394D01*
X021350Y004374D01*
X021292Y004344D01*
X021239Y004306D01*
X021192Y004259D01*
X021154Y004206D01*
X021137Y004173D01*
X021118Y004187D01*
X021059Y004216D01*
X020997Y004237D01*
X020932Y004247D01*
X020900Y004247D01*
X020900Y003831D01*
X020899Y003831D01*
X020899Y003830D01*
X020483Y003830D01*
X020483Y003798D01*
X020494Y003733D01*
X020514Y003671D01*
X020538Y003623D01*
X020431Y003579D01*
X020325Y003473D01*
X020267Y003335D01*
X020267Y003185D01*
X020325Y003047D01*
X020431Y002941D01*
X020569Y002884D01*
X020573Y002884D01*
X020523Y002764D01*
X020523Y002614D01*
X020581Y002476D01*
X020686Y002370D01*
X020825Y002313D01*
X020974Y002313D01*
X021113Y002370D01*
X021153Y002410D01*
X021191Y002318D01*
X021297Y002213D01*
X021435Y002155D01*
X021585Y002155D01*
X021723Y002213D01*
X021829Y002318D01*
X021886Y002457D01*
X021886Y002554D01*
X021947Y002529D01*
X022096Y002529D01*
X022235Y002587D01*
X022340Y002692D01*
X022398Y002831D01*
X022398Y002980D01*
X022340Y003119D01*
X022235Y003224D01*
X022149Y003260D01*
X022215Y003287D01*
X024430Y001071D01*
X024613Y001071D01*
X029337Y001071D01*
X029466Y001200D01*
X030033Y001768D01*
X030336Y001465D01*
X030518Y001465D01*
X036817Y001465D01*
X036946Y001594D01*
X037340Y001988D01*
X037340Y002170D01*
X037340Y002957D01*
X037211Y003086D01*
X036545Y003753D01*
X036514Y003827D01*
X036408Y003933D01*
X036270Y003990D01*
X036120Y003990D01*
X036099Y003982D01*
X036099Y003988D01*
X035683Y003988D01*
X035230Y003988D01*
X035073Y003831D01*
X035073Y003831D01*
X035073Y004247D01*
X035106Y004247D01*
X035170Y004237D01*
X035233Y004216D01*
X035291Y004187D01*
X035310Y004173D01*
X035327Y004206D01*
X035366Y004259D01*
X035412Y004306D01*
X035465Y004344D01*
X035523Y004374D01*
X035537Y004378D01*
X035336Y004378D01*
X035207Y004507D01*
X035047Y004668D01*
X034938Y004713D01*
X034833Y004818D01*
X034775Y004957D01*
X034775Y005106D01*
X034833Y005245D01*
X034938Y005350D01*
X035077Y005408D01*
X035226Y005408D01*
X035365Y005350D01*
X035470Y005245D01*
X035528Y005106D01*
X035528Y004957D01*
X035484Y004852D01*
X035518Y004818D01*
X035620Y004818D01*
X035620Y004818D01*
X035563Y004957D01*
X035563Y005106D01*
X035620Y005245D01*
X035726Y005350D01*
X035864Y005408D01*
X036014Y005408D01*
X036152Y005350D01*
X036258Y005245D01*
X036315Y005106D01*
X036315Y004957D01*
X036258Y004818D01*
X036258Y004818D01*
X036793Y004818D01*
X037294Y005319D01*
X037294Y008528D01*
X037236Y008586D01*
X037186Y008706D01*
X037186Y008837D01*
X037236Y008957D01*
X037328Y009050D01*
X037448Y009100D01*
X037579Y009100D01*
X037700Y009050D01*
X037792Y008957D01*
X037842Y008837D01*
X037842Y008706D01*
X037792Y008586D01*
X037734Y008528D01*
X037734Y005137D01*
X037605Y005008D01*
X036975Y004378D01*
X036793Y004378D01*
X035829Y004378D01*
X035843Y004374D01*
X035901Y004344D01*
X035954Y004306D01*
X036000Y004259D01*
X036039Y004206D01*
X036069Y004148D01*
X036089Y004086D01*
X036099Y004021D01*
X036099Y003988D01*
X035683Y003988D01*
X035683Y003988D01*
X036099Y003992D02*
X039089Y003992D01*
X039089Y004150D02*
X036067Y004150D01*
X035950Y004309D02*
X039089Y004309D01*
X039089Y004468D02*
X037064Y004468D01*
X036884Y004598D02*
X037514Y005228D01*
X037514Y008772D01*
X037514Y008319D01*
X037734Y008273D02*
X039089Y008273D01*
X039089Y008431D02*
X037734Y008431D01*
X037793Y008590D02*
X039089Y008590D01*
X039089Y008605D02*
X039089Y003447D01*
X039064Y003506D01*
X038941Y003629D01*
X038781Y003695D01*
X038608Y003695D01*
X038448Y003629D01*
X038326Y003506D01*
X038260Y003346D01*
X038260Y003173D01*
X038326Y003013D01*
X038448Y002891D01*
X038608Y002825D01*
X038781Y002825D01*
X038941Y002891D01*
X039064Y003013D01*
X039089Y003073D01*
X039089Y001458D01*
X038974Y001260D01*
X038726Y001012D01*
X038528Y000898D01*
X018616Y000898D01*
X018616Y004655D01*
X018691Y004655D01*
X018829Y004713D01*
X018935Y004818D01*
X018992Y004957D01*
X018992Y005106D01*
X018935Y005245D01*
X018829Y005350D01*
X018691Y005408D01*
X018616Y005408D01*
X018616Y005640D01*
X018691Y005640D01*
X018829Y005697D01*
X018935Y005803D01*
X018992Y005941D01*
X018992Y006091D01*
X018935Y006229D01*
X018829Y006335D01*
X018691Y006392D01*
X018616Y006392D01*
X018616Y009165D01*
X023107Y009165D01*
X023107Y008698D01*
X023492Y008698D01*
X023492Y008608D01*
X023107Y008608D01*
X023107Y008204D01*
X020026Y008204D01*
X019928Y008302D01*
X019928Y008384D01*
X019878Y008505D01*
X019786Y008597D01*
X019666Y008647D01*
X019535Y008647D01*
X019414Y008597D01*
X019322Y008505D01*
X019272Y008384D01*
X019272Y008254D01*
X019322Y008133D01*
X019414Y008041D01*
X019535Y007991D01*
X019617Y007991D01*
X019844Y007764D01*
X020026Y007764D01*
X023991Y007764D01*
X023446Y007220D01*
X023548Y007321D02*
X018616Y007321D01*
X018616Y007163D02*
X020893Y007163D01*
X020893Y007186D02*
X020975Y007268D01*
X022441Y007268D01*
X022523Y007186D01*
X022523Y006420D01*
X022441Y006338D01*
X020975Y006338D01*
X020893Y006420D01*
X020893Y007186D01*
X020893Y007004D02*
X018616Y007004D01*
X018616Y006846D02*
X020893Y006846D01*
X020893Y006687D02*
X018616Y006687D01*
X018616Y006529D02*
X020893Y006529D01*
X020943Y006370D02*
X019531Y006370D01*
X019478Y006392D02*
X019329Y006392D01*
X019190Y006335D01*
X019085Y006229D01*
X019027Y006091D01*
X019027Y005941D01*
X019085Y005803D01*
X019190Y005697D01*
X019329Y005640D01*
X019478Y005640D01*
X019617Y005697D01*
X019722Y005803D01*
X019780Y005941D01*
X019780Y006091D01*
X019722Y006229D01*
X019617Y006335D01*
X019478Y006392D01*
X019276Y006370D02*
X018744Y006370D01*
X018942Y006211D02*
X019077Y006211D01*
X019027Y006053D02*
X018992Y006053D01*
X018973Y005894D02*
X019046Y005894D01*
X019151Y005736D02*
X018868Y005736D01*
X018616Y005577D02*
X023214Y005577D01*
X023147Y005419D02*
X018616Y005419D01*
X018919Y005260D02*
X019100Y005260D01*
X019085Y005245D02*
X019027Y005106D01*
X019027Y004957D01*
X019085Y004818D01*
X019190Y004713D01*
X019329Y004655D01*
X019478Y004655D01*
X019617Y004713D01*
X019722Y004818D01*
X019780Y004957D01*
X019780Y005106D01*
X019722Y005245D01*
X019617Y005350D01*
X019478Y005408D01*
X019329Y005408D01*
X019190Y005350D01*
X019085Y005245D01*
X019027Y005102D02*
X018992Y005102D01*
X018987Y004943D02*
X019033Y004943D01*
X019118Y004785D02*
X018901Y004785D01*
X018616Y004626D02*
X022899Y004626D01*
X022741Y004468D02*
X018616Y004468D01*
X018616Y004309D02*
X021243Y004309D01*
X021510Y004309D02*
X021510Y004309D01*
X021510Y004150D02*
X021510Y004150D01*
X021510Y003992D02*
X021510Y003992D01*
X021776Y004309D02*
X022582Y004309D01*
X022424Y004150D02*
X021894Y004150D01*
X021926Y003992D02*
X022265Y003992D01*
X022199Y003614D02*
X022022Y003614D01*
X022198Y003614D01*
X023537Y004953D01*
X023537Y007000D01*
X024128Y007591D01*
X026490Y007591D01*
X026884Y007197D01*
X027187Y007321D02*
X028810Y007321D01*
X028652Y007480D02*
X027058Y007480D01*
X027070Y007475D02*
X026949Y007525D01*
X026867Y007525D01*
X026710Y007682D01*
X026627Y007764D01*
X028367Y007764D01*
X029549Y006583D01*
X029731Y006583D01*
X030336Y006583D01*
X030545Y006374D01*
X030502Y006392D01*
X030352Y006392D01*
X030214Y006335D01*
X030108Y006229D01*
X030051Y006091D01*
X030051Y005941D01*
X030108Y005803D01*
X030214Y005697D01*
X030352Y005640D01*
X030502Y005640D01*
X030640Y005697D01*
X030746Y005803D01*
X030803Y005941D01*
X030803Y006091D01*
X030785Y006134D01*
X030838Y006081D01*
X030838Y005941D01*
X030896Y005803D01*
X030990Y005708D01*
X030876Y005595D01*
X030634Y005353D01*
X030502Y005408D01*
X030352Y005408D01*
X030214Y005350D01*
X030108Y005245D01*
X030051Y005106D01*
X030051Y004957D01*
X030108Y004818D01*
X030214Y004713D01*
X030352Y004655D01*
X030502Y004655D01*
X030640Y004713D01*
X030746Y004818D01*
X030763Y004859D01*
X030845Y004941D01*
X030896Y004818D01*
X031001Y004713D01*
X031140Y004655D01*
X031289Y004655D01*
X031428Y004713D01*
X031533Y004818D01*
X031591Y004957D01*
X031591Y005106D01*
X031533Y005245D01*
X031494Y005284D01*
X031722Y005284D01*
X031683Y005245D01*
X031626Y005106D01*
X031626Y004957D01*
X031683Y004818D01*
X031789Y004713D01*
X031927Y004655D01*
X032077Y004655D01*
X032215Y004713D01*
X032321Y004818D01*
X032378Y004957D01*
X032378Y005106D01*
X032321Y005245D01*
X032281Y005284D01*
X032290Y005284D01*
X032487Y005481D01*
X032616Y005610D01*
X032616Y005681D01*
X032714Y005640D01*
X032864Y005640D01*
X033002Y005697D01*
X033108Y005803D01*
X033165Y005941D01*
X033165Y005952D01*
X033171Y005918D01*
X033191Y005856D01*
X033221Y005798D01*
X033259Y005745D01*
X033306Y005698D01*
X033359Y005660D01*
X033417Y005630D01*
X033479Y005610D01*
X033544Y005600D01*
X033576Y005600D01*
X033576Y006015D01*
X033577Y006015D01*
X033577Y005600D01*
X033609Y005600D01*
X033674Y005610D01*
X033736Y005630D01*
X033795Y005660D01*
X033848Y005698D01*
X033894Y005745D01*
X033933Y005798D01*
X033962Y005856D01*
X033970Y005881D01*
X033978Y005856D01*
X034008Y005798D01*
X034047Y005745D01*
X034093Y005698D01*
X034146Y005660D01*
X034204Y005630D01*
X034267Y005610D01*
X034331Y005600D01*
X034364Y005600D01*
X034364Y006015D01*
X034364Y006015D01*
X034364Y005600D01*
X034397Y005600D01*
X034462Y005610D01*
X034524Y005630D01*
X034582Y005660D01*
X034635Y005698D01*
X034682Y005745D01*
X034720Y005798D01*
X034750Y005856D01*
X034770Y005918D01*
X034775Y005951D01*
X034775Y005941D01*
X034833Y005803D01*
X034938Y005697D01*
X035077Y005640D01*
X035226Y005640D01*
X035365Y005697D01*
X035470Y005803D01*
X035528Y005941D01*
X035528Y006091D01*
X035470Y006229D01*
X035365Y006335D01*
X035226Y006392D01*
X035077Y006392D01*
X034938Y006335D01*
X034833Y006229D01*
X034775Y006091D01*
X034775Y006080D01*
X034770Y006113D01*
X034750Y006176D01*
X034720Y006234D01*
X034682Y006287D01*
X034635Y006333D01*
X034582Y006372D01*
X034524Y006401D01*
X034462Y006422D01*
X034397Y006432D01*
X034364Y006432D01*
X034331Y006432D01*
X034267Y006422D01*
X034204Y006401D01*
X034146Y006372D01*
X034093Y006333D01*
X034047Y006287D01*
X034008Y006234D01*
X033978Y006176D01*
X033970Y006151D01*
X033962Y006176D01*
X033933Y006234D01*
X033894Y006287D01*
X033848Y006333D01*
X033795Y006372D01*
X033736Y006401D01*
X033674Y006422D01*
X033609Y006432D01*
X033577Y006432D01*
X033577Y006016D01*
X033948Y006016D01*
X034364Y006016D01*
X034364Y006432D01*
X034364Y006016D01*
X034364Y006016D01*
X034364Y006016D01*
X033993Y006016D01*
X033577Y006016D01*
X033577Y006016D01*
X033576Y006016D01*
X033576Y006432D01*
X033544Y006432D01*
X033479Y006422D01*
X033417Y006401D01*
X033359Y006372D01*
X033306Y006333D01*
X033259Y006287D01*
X033221Y006234D01*
X033191Y006176D01*
X033171Y006113D01*
X033165Y006080D01*
X033165Y006091D01*
X033108Y006229D01*
X033002Y006335D01*
X032864Y006392D01*
X032714Y006392D01*
X032671Y006374D01*
X032880Y006583D01*
X035243Y006583D01*
X035371Y006712D01*
X036030Y007371D01*
X036159Y007499D01*
X036159Y008287D01*
X036316Y008444D01*
X036398Y008444D01*
X036518Y008494D01*
X036611Y008586D01*
X036661Y008706D01*
X036661Y008837D01*
X036611Y008957D01*
X036518Y009050D01*
X036398Y009100D01*
X036267Y009100D01*
X036147Y009050D01*
X036054Y008957D01*
X036004Y008837D01*
X036004Y008755D01*
X035719Y008469D01*
X035719Y008287D01*
X035719Y007682D01*
X035060Y007023D01*
X032698Y007023D01*
X032569Y006894D01*
X032176Y006501D01*
X032176Y006351D01*
X032077Y006392D01*
X031927Y006392D01*
X031789Y006335D01*
X031683Y006229D01*
X031626Y006091D01*
X031626Y005941D01*
X031683Y005803D01*
X031762Y005724D01*
X031455Y005724D01*
X031533Y005803D01*
X031591Y005941D01*
X031591Y006091D01*
X031533Y006229D01*
X031428Y006335D01*
X031289Y006392D01*
X031149Y006392D01*
X030647Y006894D01*
X030518Y007023D01*
X029731Y007023D01*
X028679Y008075D01*
X028550Y008204D01*
X025108Y008204D01*
X025108Y009165D01*
X038528Y009165D01*
X038726Y009051D01*
X038974Y008803D01*
X039089Y008605D01*
X039006Y008748D02*
X037842Y008748D01*
X037813Y008907D02*
X038870Y008907D01*
X038702Y009065D02*
X037662Y009065D01*
X037365Y009065D02*
X036481Y009065D01*
X036632Y008907D02*
X037215Y008907D01*
X037186Y008748D02*
X036661Y008748D01*
X036612Y008590D02*
X037234Y008590D01*
X037294Y008431D02*
X036303Y008431D01*
X036159Y008273D02*
X037294Y008273D01*
X037294Y008114D02*
X036159Y008114D01*
X036159Y007955D02*
X037294Y007955D01*
X037294Y007797D02*
X036159Y007797D01*
X036159Y007638D02*
X037294Y007638D01*
X037294Y007480D02*
X036139Y007480D01*
X035981Y007321D02*
X037294Y007321D01*
X037294Y007163D02*
X035822Y007163D01*
X035664Y007004D02*
X037294Y007004D01*
X037294Y006846D02*
X035505Y006846D01*
X035347Y006687D02*
X037294Y006687D01*
X037294Y006529D02*
X032826Y006529D01*
X032917Y006370D02*
X033356Y006370D01*
X033209Y006211D02*
X033115Y006211D01*
X033146Y005894D02*
X033178Y005894D01*
X033268Y005736D02*
X033041Y005736D01*
X032583Y005577D02*
X037294Y005577D01*
X037294Y005419D02*
X032425Y005419D01*
X032576Y005350D02*
X032470Y005245D01*
X032413Y005106D01*
X032413Y004957D01*
X032470Y004818D01*
X032576Y004713D01*
X032714Y004655D01*
X032864Y004655D01*
X033002Y004713D01*
X033108Y004818D01*
X033165Y004957D01*
X033165Y005106D01*
X033108Y005245D01*
X033002Y005350D01*
X032864Y005408D01*
X032714Y005408D01*
X032576Y005350D01*
X032486Y005260D02*
X032305Y005260D01*
X032378Y005102D02*
X032413Y005102D01*
X032419Y004943D02*
X032372Y004943D01*
X032287Y004785D02*
X032504Y004785D01*
X033074Y004785D02*
X033292Y004785D01*
X033258Y004818D02*
X033364Y004713D01*
X033502Y004655D01*
X033652Y004655D01*
X033790Y004713D01*
X033896Y004818D01*
X033953Y004957D01*
X033953Y005106D01*
X033896Y005245D01*
X033790Y005350D01*
X033652Y005408D01*
X033502Y005408D01*
X033364Y005350D01*
X033258Y005245D01*
X033200Y005106D01*
X033200Y004957D01*
X033258Y004818D01*
X033206Y004943D02*
X033160Y004943D01*
X033165Y005102D02*
X033200Y005102D01*
X033273Y005260D02*
X033093Y005260D01*
X033576Y005736D02*
X033577Y005736D01*
X033576Y005894D02*
X033577Y005894D01*
X033576Y006053D02*
X033577Y006053D01*
X033576Y006211D02*
X033577Y006211D01*
X033576Y006370D02*
X033577Y006370D01*
X033797Y006370D02*
X034144Y006370D01*
X033997Y006211D02*
X033944Y006211D01*
X034364Y006211D02*
X034364Y006211D01*
X034364Y006053D02*
X034364Y006053D01*
X034364Y005894D02*
X034364Y005894D01*
X034364Y005736D02*
X034364Y005736D01*
X034055Y005736D02*
X033885Y005736D01*
X034151Y005350D02*
X034045Y005245D01*
X033988Y005106D01*
X033988Y004957D01*
X034045Y004818D01*
X034151Y004713D01*
X034289Y004655D01*
X034439Y004655D01*
X034577Y004713D01*
X034683Y004818D01*
X034740Y004957D01*
X034740Y005106D01*
X034683Y005245D01*
X034577Y005350D01*
X034439Y005408D01*
X034289Y005408D01*
X034151Y005350D01*
X034061Y005260D02*
X033880Y005260D01*
X033953Y005102D02*
X033988Y005102D01*
X033993Y004943D02*
X033947Y004943D01*
X033862Y004785D02*
X034079Y004785D01*
X034649Y004785D02*
X034866Y004785D01*
X034781Y004943D02*
X034735Y004943D01*
X034740Y005102D02*
X034775Y005102D01*
X034848Y005260D02*
X034667Y005260D01*
X035151Y005031D02*
X035151Y004874D01*
X035427Y004598D01*
X036884Y004598D01*
X037223Y004626D02*
X039089Y004626D01*
X039089Y004785D02*
X037381Y004785D01*
X037540Y004943D02*
X039089Y004943D01*
X039089Y005102D02*
X037698Y005102D01*
X037734Y005260D02*
X039089Y005260D01*
X039089Y005419D02*
X037734Y005419D01*
X037734Y005577D02*
X039089Y005577D01*
X039089Y005736D02*
X037734Y005736D01*
X037734Y005894D02*
X039089Y005894D01*
X039089Y006053D02*
X037734Y006053D01*
X037734Y006211D02*
X039089Y006211D01*
X039089Y006370D02*
X037734Y006370D01*
X037734Y006529D02*
X039089Y006529D01*
X039089Y006687D02*
X037734Y006687D01*
X037734Y006846D02*
X039089Y006846D01*
X039089Y007004D02*
X037734Y007004D01*
X037734Y007163D02*
X039089Y007163D01*
X039089Y007321D02*
X037734Y007321D01*
X037734Y007480D02*
X039089Y007480D01*
X039089Y007638D02*
X037734Y007638D01*
X037734Y007797D02*
X039089Y007797D01*
X039089Y007955D02*
X037734Y007955D01*
X037734Y008114D02*
X039089Y008114D01*
X037294Y006370D02*
X036067Y006370D01*
X036014Y006392D02*
X036152Y006335D01*
X036258Y006229D01*
X036315Y006091D01*
X036315Y005941D01*
X036258Y005803D01*
X036152Y005697D01*
X036014Y005640D01*
X035864Y005640D01*
X035726Y005697D01*
X035620Y005803D01*
X035563Y005941D01*
X035563Y006091D01*
X035620Y006229D01*
X035726Y006335D01*
X035864Y006392D01*
X036014Y006392D01*
X035811Y006370D02*
X035279Y006370D01*
X035478Y006211D02*
X035613Y006211D01*
X035563Y006053D02*
X035528Y006053D01*
X035508Y005894D02*
X035582Y005894D01*
X035687Y005736D02*
X035404Y005736D01*
X034899Y005736D02*
X034673Y005736D01*
X034762Y005894D02*
X034795Y005894D01*
X034825Y006211D02*
X034731Y006211D01*
X034584Y006370D02*
X035024Y006370D01*
X035151Y006803D02*
X032789Y006803D01*
X032396Y006409D01*
X032396Y005701D01*
X032199Y005504D01*
X031096Y005504D01*
X030624Y005031D01*
X030427Y005031D01*
X030142Y004785D02*
X029925Y004785D01*
X029959Y004818D02*
X030016Y004957D01*
X030016Y005106D01*
X029959Y005245D01*
X029853Y005350D01*
X029715Y005408D01*
X029565Y005408D01*
X029427Y005350D01*
X029321Y005245D01*
X029263Y005106D01*
X029263Y004957D01*
X029321Y004818D01*
X029427Y004713D01*
X029565Y004655D01*
X029715Y004655D01*
X029853Y004713D01*
X029959Y004818D01*
X030010Y004943D02*
X030056Y004943D01*
X030051Y005102D02*
X030016Y005102D01*
X029943Y005260D02*
X030124Y005260D01*
X029853Y005697D02*
X029959Y005803D01*
X030016Y005941D01*
X030016Y006091D01*
X029959Y006229D01*
X029853Y006335D01*
X029715Y006392D01*
X029565Y006392D01*
X029427Y006335D01*
X029321Y006229D01*
X029263Y006091D01*
X029263Y005941D01*
X029321Y005803D01*
X029427Y005697D01*
X029565Y005640D01*
X029715Y005640D01*
X029853Y005697D01*
X029892Y005736D02*
X030175Y005736D01*
X030070Y005894D02*
X029997Y005894D01*
X030016Y006053D02*
X030051Y006053D01*
X030101Y006211D02*
X029966Y006211D01*
X029767Y006370D02*
X030299Y006370D01*
X030391Y006529D02*
X027363Y006529D01*
X027363Y006420D02*
X027281Y006338D01*
X026175Y006338D01*
X026282Y006294D01*
X026374Y006202D01*
X026424Y006081D01*
X026424Y005950D01*
X026374Y005830D01*
X026316Y005772D01*
X026316Y004532D01*
X027369Y003480D01*
X027418Y003480D01*
X027517Y003579D01*
X027625Y003623D01*
X027600Y003671D01*
X027580Y003733D01*
X027570Y003798D01*
X027570Y003830D01*
X027986Y003830D01*
X027986Y003831D01*
X027986Y004247D01*
X027953Y004247D01*
X027889Y004237D01*
X027826Y004216D01*
X027768Y004187D01*
X027715Y004148D01*
X027669Y004102D01*
X027630Y004049D01*
X027600Y003990D01*
X027580Y003928D01*
X027570Y003863D01*
X027570Y003831D01*
X027986Y003831D01*
X027986Y003831D01*
X027986Y004247D01*
X028019Y004247D01*
X028084Y004237D01*
X028146Y004216D01*
X028204Y004187D01*
X028223Y004173D01*
X028240Y004206D01*
X028279Y004259D01*
X028325Y004306D01*
X028378Y004344D01*
X028437Y004374D01*
X028499Y004394D01*
X028564Y004404D01*
X028596Y004404D01*
X028596Y003989D01*
X028597Y003989D01*
X028597Y004404D01*
X028629Y004404D01*
X028694Y004394D01*
X028756Y004374D01*
X028814Y004344D01*
X028868Y004306D01*
X028914Y004259D01*
X028952Y004206D01*
X028982Y004148D01*
X029002Y004086D01*
X029013Y004021D01*
X029013Y003988D01*
X028597Y003988D01*
X028597Y003988D01*
X029013Y003988D01*
X029013Y003982D01*
X029033Y003990D01*
X029183Y003990D01*
X029321Y003933D01*
X029427Y003827D01*
X029484Y003689D01*
X029484Y003549D01*
X030253Y002780D01*
X030253Y002598D01*
X030253Y002170D01*
X030518Y001905D01*
X036635Y001905D01*
X036900Y002170D01*
X036900Y002775D01*
X036388Y003287D01*
X036322Y003260D01*
X036408Y003224D01*
X036514Y003119D01*
X036571Y002980D01*
X036571Y002831D01*
X036514Y002692D01*
X036408Y002587D01*
X036270Y002529D01*
X036120Y002529D01*
X036059Y002554D01*
X036059Y002457D01*
X036002Y002318D01*
X035896Y002213D01*
X035758Y002155D01*
X035608Y002155D01*
X035470Y002213D01*
X035364Y002318D01*
X035326Y002410D01*
X035286Y002370D01*
X035148Y002313D01*
X034998Y002313D01*
X034860Y002370D01*
X034754Y002476D01*
X034697Y002614D01*
X034697Y002764D01*
X034746Y002884D01*
X034742Y002884D01*
X034604Y002941D01*
X034498Y003047D01*
X034441Y003185D01*
X034441Y003335D01*
X034498Y003473D01*
X034604Y003579D01*
X034711Y003623D01*
X034687Y003671D01*
X034667Y003733D01*
X034657Y003798D01*
X034657Y003830D01*
X035072Y003830D01*
X035072Y003831D01*
X034657Y003831D01*
X034657Y003863D01*
X034667Y003928D01*
X034687Y003990D01*
X034717Y004049D01*
X034755Y004102D01*
X034802Y004148D01*
X034855Y004187D01*
X034913Y004216D01*
X034975Y004237D01*
X035040Y004247D01*
X035073Y004247D01*
X035073Y003831D01*
X035073Y003833D02*
X035073Y003833D01*
X035073Y003992D02*
X035073Y003992D01*
X035073Y004150D02*
X035073Y004150D01*
X034805Y004150D02*
X028981Y004150D01*
X029013Y003992D02*
X034688Y003992D01*
X034657Y003833D02*
X029421Y003833D01*
X029484Y003675D02*
X031473Y003675D01*
X031522Y003695D02*
X031362Y003629D01*
X031239Y003506D01*
X031173Y003346D01*
X031173Y003173D01*
X031239Y003013D01*
X031362Y002891D01*
X031522Y002825D01*
X031695Y002825D01*
X031855Y002891D01*
X031977Y003013D01*
X032043Y003173D01*
X032043Y003346D01*
X031977Y003506D01*
X031855Y003629D01*
X031695Y003695D01*
X031522Y003695D01*
X031744Y003675D02*
X034686Y003675D01*
X034541Y003516D02*
X031967Y003516D01*
X032039Y003358D02*
X034450Y003358D01*
X034441Y003199D02*
X032043Y003199D01*
X031988Y003041D02*
X034504Y003041D01*
X034746Y002882D02*
X031834Y002882D01*
X031383Y002882D02*
X030151Y002882D01*
X030253Y002724D02*
X034697Y002724D01*
X034717Y002565D02*
X030253Y002565D01*
X030253Y002406D02*
X034823Y002406D01*
X035322Y002406D02*
X035328Y002406D01*
X035435Y002248D02*
X030253Y002248D01*
X030334Y002089D02*
X036820Y002089D01*
X036900Y002248D02*
X035931Y002248D01*
X036038Y002406D02*
X036900Y002406D01*
X036900Y002565D02*
X036356Y002565D01*
X036527Y002724D02*
X036900Y002724D01*
X036793Y002882D02*
X036571Y002882D01*
X036546Y003041D02*
X036634Y003041D01*
X036476Y003199D02*
X036433Y003199D01*
X036372Y003614D02*
X037120Y002866D01*
X037120Y002079D01*
X036726Y001685D01*
X030427Y001685D01*
X030033Y002079D01*
X030033Y002689D01*
X029108Y003614D01*
X028981Y003260D02*
X028895Y003224D01*
X028870Y003200D01*
X028875Y003227D01*
X028875Y003260D01*
X028875Y003293D01*
X028870Y003320D01*
X028895Y003295D01*
X028981Y003260D01*
X028875Y003260D02*
X028459Y003260D01*
X028459Y003260D01*
X028875Y003260D01*
X029108Y002906D02*
X029089Y002886D01*
X029089Y002118D01*
X028655Y001685D01*
X024915Y001685D01*
X024522Y001291D02*
X022199Y003614D01*
X022260Y003199D02*
X022303Y003199D01*
X022373Y003041D02*
X022461Y003041D01*
X022398Y002882D02*
X022620Y002882D01*
X022778Y002724D02*
X022353Y002724D01*
X022183Y002565D02*
X022937Y002565D01*
X023095Y002406D02*
X021865Y002406D01*
X021758Y002248D02*
X023254Y002248D01*
X023412Y002089D02*
X018616Y002089D01*
X018616Y001931D02*
X023571Y001931D01*
X023729Y001772D02*
X018616Y001772D01*
X018616Y001614D02*
X023888Y001614D01*
X024047Y001455D02*
X018616Y001455D01*
X018616Y001297D02*
X024205Y001297D01*
X024364Y001138D02*
X018616Y001138D01*
X018616Y000980D02*
X038670Y000980D01*
X038852Y001138D02*
X029404Y001138D01*
X029246Y001291D02*
X024522Y001291D01*
X026490Y002079D02*
X024128Y004441D01*
X024128Y006803D01*
X023706Y007480D02*
X018616Y007480D01*
X018616Y007638D02*
X023865Y007638D01*
X023967Y008204D02*
X023967Y008608D01*
X023583Y008608D01*
X023583Y008698D01*
X023967Y008698D01*
X023967Y009165D01*
X024328Y009165D01*
X024328Y008204D01*
X023967Y008204D01*
X023967Y008273D02*
X024328Y008273D01*
X024328Y008431D02*
X023967Y008431D01*
X023967Y008590D02*
X024328Y008590D01*
X024328Y008748D02*
X023967Y008748D01*
X023967Y008907D02*
X024328Y008907D01*
X024328Y009065D02*
X023967Y009065D01*
X023107Y009065D02*
X018616Y009065D01*
X018616Y008907D02*
X023107Y008907D01*
X023107Y008748D02*
X018616Y008748D01*
X018616Y008590D02*
X019407Y008590D01*
X019292Y008431D02*
X018616Y008431D01*
X018616Y008273D02*
X019272Y008273D01*
X019341Y008114D02*
X018616Y008114D01*
X018616Y007955D02*
X019653Y007955D01*
X019811Y007797D02*
X018616Y007797D01*
X018222Y007741D02*
X018222Y006151D01*
X018214Y006176D01*
X018185Y006234D01*
X018146Y006287D01*
X018100Y006333D01*
X018047Y006372D01*
X017988Y006401D01*
X017926Y006422D01*
X017861Y006432D01*
X017829Y006432D01*
X017829Y006016D01*
X017828Y006016D01*
X017828Y006016D01*
X017457Y006016D01*
X017042Y006016D01*
X017042Y006016D01*
X017041Y006016D02*
X017041Y006016D01*
X017041Y006432D01*
X017008Y006432D01*
X016944Y006422D01*
X016881Y006401D01*
X016823Y006372D01*
X016770Y006333D01*
X016724Y006287D01*
X016685Y006234D01*
X016656Y006176D01*
X016635Y006113D01*
X016630Y006080D01*
X016630Y006091D01*
X016573Y006229D01*
X016467Y006335D01*
X016329Y006392D01*
X016179Y006392D01*
X016041Y006335D01*
X015935Y006229D01*
X015878Y006091D01*
X015878Y005941D01*
X015935Y005803D01*
X016041Y005697D01*
X016179Y005640D01*
X016329Y005640D01*
X016467Y005697D01*
X016573Y005803D01*
X016630Y005941D01*
X016630Y005952D01*
X016635Y005918D01*
X016656Y005856D01*
X016685Y005798D01*
X016724Y005745D01*
X016770Y005698D01*
X016823Y005660D01*
X016881Y005630D01*
X016944Y005610D01*
X017008Y005600D01*
X017041Y005600D01*
X017041Y006015D01*
X017041Y006015D01*
X017041Y005600D01*
X017074Y005600D01*
X017139Y005610D01*
X017201Y005630D01*
X017259Y005660D01*
X017312Y005698D01*
X017359Y005745D01*
X017397Y005798D01*
X017427Y005856D01*
X017435Y005881D01*
X017443Y005856D01*
X017473Y005798D01*
X017511Y005745D01*
X017557Y005698D01*
X017611Y005660D01*
X017669Y005630D01*
X017731Y005610D01*
X017796Y005600D01*
X017828Y005600D01*
X017828Y006015D01*
X017829Y006015D01*
X017829Y005600D01*
X017861Y005600D01*
X017926Y005610D01*
X017988Y005630D01*
X018047Y005660D01*
X018100Y005698D01*
X018146Y005745D01*
X018185Y005798D01*
X018214Y005856D01*
X018222Y005881D01*
X018222Y000898D01*
X012090Y000898D01*
X011892Y001012D01*
X011644Y001260D01*
X011529Y001458D01*
X011529Y008605D01*
X011644Y008803D01*
X011892Y009051D01*
X012090Y009165D01*
X018222Y009165D01*
X018222Y008227D01*
X018131Y008449D01*
X017900Y008680D01*
X017598Y008805D01*
X017272Y008805D01*
X016970Y008680D01*
X016739Y008449D01*
X016614Y008147D01*
X016614Y007821D01*
X016739Y007519D01*
X016970Y007289D01*
X017272Y007164D01*
X017598Y007164D01*
X017900Y007289D01*
X018131Y007519D01*
X018222Y007741D01*
X018222Y007638D02*
X018180Y007638D01*
X018222Y007480D02*
X018091Y007480D01*
X018222Y007321D02*
X017932Y007321D01*
X018222Y007163D02*
X011529Y007163D01*
X011529Y007321D02*
X013788Y007321D01*
X013821Y007289D02*
X014122Y007164D01*
X014449Y007164D01*
X014750Y007289D01*
X014981Y007519D01*
X015106Y007821D01*
X015106Y008147D01*
X014981Y008449D01*
X014750Y008680D01*
X014449Y008805D01*
X014122Y008805D01*
X013821Y008680D01*
X013590Y008449D01*
X013465Y008147D01*
X013465Y007821D01*
X013590Y007519D01*
X013821Y007289D01*
X013629Y007480D02*
X011529Y007480D01*
X011529Y007638D02*
X013540Y007638D01*
X013475Y007797D02*
X011529Y007797D01*
X011529Y007955D02*
X013465Y007955D01*
X013465Y008114D02*
X011529Y008114D01*
X011529Y008273D02*
X013517Y008273D01*
X013582Y008431D02*
X011529Y008431D01*
X011529Y008590D02*
X013730Y008590D01*
X013986Y008748D02*
X011612Y008748D01*
X011747Y008907D02*
X018222Y008907D01*
X018222Y009065D02*
X011916Y009065D01*
X014585Y008748D02*
X017135Y008748D01*
X016880Y008590D02*
X014840Y008590D01*
X014988Y008431D02*
X016732Y008431D01*
X016666Y008273D02*
X015054Y008273D01*
X015106Y008114D02*
X016614Y008114D01*
X016614Y007955D02*
X015106Y007955D01*
X015096Y007797D02*
X016624Y007797D01*
X016690Y007638D02*
X015030Y007638D01*
X014941Y007480D02*
X016779Y007480D01*
X016937Y007321D02*
X014783Y007321D01*
X014754Y006392D02*
X014604Y006392D01*
X014466Y006335D01*
X014360Y006229D01*
X014303Y006091D01*
X014303Y005941D01*
X014360Y005803D01*
X014466Y005697D01*
X014604Y005640D01*
X014754Y005640D01*
X014892Y005697D01*
X014998Y005803D01*
X015055Y005941D01*
X015055Y006091D01*
X014998Y006229D01*
X014892Y006335D01*
X014754Y006392D01*
X014807Y006370D02*
X015339Y006370D01*
X015392Y006392D02*
X015253Y006335D01*
X015148Y006229D01*
X015090Y006091D01*
X015090Y005941D01*
X015148Y005803D01*
X015253Y005697D01*
X015392Y005640D01*
X015541Y005640D01*
X015680Y005697D01*
X015785Y005803D01*
X015843Y005941D01*
X015843Y006091D01*
X015785Y006229D01*
X015680Y006335D01*
X015541Y006392D01*
X015392Y006392D01*
X015594Y006370D02*
X016126Y006370D01*
X015928Y006211D02*
X015793Y006211D01*
X015843Y006053D02*
X015878Y006053D01*
X015897Y005894D02*
X015823Y005894D01*
X015719Y005736D02*
X016002Y005736D01*
X016506Y005736D02*
X016732Y005736D01*
X016643Y005894D02*
X016611Y005894D01*
X016580Y006211D02*
X016674Y006211D01*
X016821Y006370D02*
X016382Y006370D01*
X017041Y006370D02*
X017041Y006370D01*
X017041Y006432D02*
X017041Y006016D01*
X017042Y006016D02*
X017457Y006016D01*
X017828Y006016D01*
X017828Y006432D01*
X017796Y006432D01*
X017731Y006422D01*
X017669Y006401D01*
X017611Y006372D01*
X017557Y006333D01*
X017511Y006287D01*
X017473Y006234D01*
X017443Y006176D01*
X017435Y006151D01*
X017427Y006176D01*
X017397Y006234D01*
X017359Y006287D01*
X017312Y006333D01*
X017259Y006372D01*
X017201Y006401D01*
X017139Y006422D01*
X017074Y006432D01*
X017041Y006432D01*
X017041Y006211D02*
X017041Y006211D01*
X017041Y006053D02*
X017041Y006053D01*
X017041Y005894D02*
X017041Y005894D01*
X017041Y005736D02*
X017041Y005736D01*
X017350Y005736D02*
X017520Y005736D01*
X017828Y005736D02*
X017829Y005736D01*
X017828Y005894D02*
X017829Y005894D01*
X017828Y006053D02*
X017829Y006053D01*
X017828Y006211D02*
X017829Y006211D01*
X017828Y006370D02*
X017829Y006370D01*
X018049Y006370D02*
X018222Y006370D01*
X018222Y006211D02*
X018196Y006211D01*
X018222Y005736D02*
X018137Y005736D01*
X018222Y005577D02*
X011529Y005577D01*
X011529Y005419D02*
X018222Y005419D01*
X018222Y005260D02*
X018132Y005260D01*
X018148Y005245D02*
X018042Y005350D01*
X017904Y005408D01*
X017754Y005408D01*
X017616Y005350D01*
X017510Y005245D01*
X017452Y005106D01*
X017452Y004957D01*
X017510Y004818D01*
X017609Y004719D01*
X017609Y003745D01*
X017548Y003684D01*
X017522Y003695D01*
X017348Y003695D01*
X017188Y003629D01*
X017066Y003506D01*
X017000Y003346D01*
X017000Y003173D01*
X017066Y003013D01*
X017188Y002891D01*
X017348Y002825D01*
X017522Y002825D01*
X017681Y002891D01*
X017804Y003013D01*
X017870Y003173D01*
X017870Y003346D01*
X017859Y003373D01*
X017920Y003434D01*
X018049Y003562D01*
X018049Y004719D01*
X018148Y004818D01*
X018205Y004957D01*
X018205Y005106D01*
X018148Y005245D01*
X018205Y005102D02*
X018222Y005102D01*
X018222Y004943D02*
X018199Y004943D01*
X018222Y004785D02*
X018114Y004785D01*
X018049Y004626D02*
X018222Y004626D01*
X018222Y004468D02*
X018049Y004468D01*
X018049Y004309D02*
X018222Y004309D01*
X018222Y004150D02*
X018049Y004150D01*
X018049Y003992D02*
X018222Y003992D01*
X018222Y003833D02*
X018049Y003833D01*
X018049Y003675D02*
X018222Y003675D01*
X018222Y003516D02*
X018002Y003516D01*
X017866Y003358D02*
X018222Y003358D01*
X018222Y003199D02*
X017870Y003199D01*
X017815Y003041D02*
X018222Y003041D01*
X018222Y002882D02*
X017660Y002882D01*
X017435Y003260D02*
X017829Y003654D01*
X017829Y005031D01*
X017544Y004785D02*
X017326Y004785D01*
X017360Y004818D02*
X017417Y004957D01*
X017417Y005106D01*
X017360Y005245D01*
X017254Y005350D01*
X017116Y005408D01*
X016966Y005408D01*
X016828Y005350D01*
X016722Y005245D01*
X016665Y005106D01*
X016665Y004957D01*
X016722Y004818D01*
X016828Y004713D01*
X016966Y004655D01*
X017116Y004655D01*
X017254Y004713D01*
X017360Y004818D01*
X017412Y004943D02*
X017458Y004943D01*
X017452Y005102D02*
X017417Y005102D01*
X017344Y005260D02*
X017525Y005260D01*
X016738Y005260D02*
X016557Y005260D01*
X016573Y005245D02*
X016467Y005350D01*
X016329Y005408D01*
X016179Y005408D01*
X016041Y005350D01*
X015935Y005245D01*
X015878Y005106D01*
X015878Y004957D01*
X015935Y004818D01*
X016041Y004713D01*
X016179Y004655D01*
X016329Y004655D01*
X016467Y004713D01*
X016573Y004818D01*
X016630Y004957D01*
X016630Y005106D01*
X016573Y005245D01*
X016630Y005102D02*
X016665Y005102D01*
X016671Y004943D02*
X016624Y004943D01*
X016539Y004785D02*
X016756Y004785D01*
X015969Y004785D02*
X015752Y004785D01*
X015785Y004818D02*
X015843Y004957D01*
X015843Y005106D01*
X015785Y005245D01*
X015680Y005350D01*
X015541Y005408D01*
X015392Y005408D01*
X015253Y005350D01*
X015148Y005245D01*
X015090Y005106D01*
X015090Y004957D01*
X015148Y004818D01*
X015253Y004713D01*
X015392Y004655D01*
X015541Y004655D01*
X015680Y004713D01*
X015785Y004818D01*
X015837Y004943D02*
X015883Y004943D01*
X015878Y005102D02*
X015843Y005102D01*
X015770Y005260D02*
X015951Y005260D01*
X015163Y005260D02*
X014982Y005260D01*
X014998Y005245D02*
X014892Y005350D01*
X014754Y005408D01*
X014604Y005408D01*
X014466Y005350D01*
X014360Y005245D01*
X014303Y005106D01*
X014303Y004957D01*
X014321Y004913D01*
X014268Y004966D01*
X014268Y005106D01*
X014211Y005245D01*
X014105Y005350D01*
X013966Y005408D01*
X013817Y005408D01*
X013679Y005350D01*
X013573Y005245D01*
X013515Y005106D01*
X013515Y004957D01*
X013573Y004818D01*
X013679Y004713D01*
X013817Y004655D01*
X013957Y004655D01*
X014262Y004350D01*
X014277Y004335D01*
X014210Y004307D01*
X014104Y004201D01*
X014083Y004149D01*
X014031Y004187D01*
X013973Y004216D01*
X013910Y004237D01*
X013846Y004247D01*
X013813Y004247D01*
X013813Y003831D01*
X013813Y003831D01*
X013813Y004247D01*
X013780Y004247D01*
X013715Y004237D01*
X013653Y004216D01*
X013595Y004187D01*
X013542Y004148D01*
X013495Y004102D01*
X013457Y004049D01*
X013427Y003990D01*
X013407Y003928D01*
X013397Y003863D01*
X013397Y003831D01*
X013812Y003831D01*
X013812Y003830D01*
X013397Y003830D01*
X013397Y003798D01*
X013407Y003733D01*
X013427Y003671D01*
X013451Y003623D01*
X013344Y003579D01*
X013238Y003473D01*
X013181Y003335D01*
X013181Y003185D01*
X013238Y003047D01*
X013344Y002941D01*
X013482Y002884D01*
X013486Y002884D01*
X013437Y002764D01*
X013437Y002614D01*
X013494Y002476D01*
X013600Y002370D01*
X013738Y002313D01*
X013888Y002313D01*
X014026Y002370D01*
X014066Y002410D01*
X014104Y002318D01*
X014210Y002213D01*
X014348Y002155D01*
X014498Y002155D01*
X014636Y002213D01*
X014742Y002318D01*
X014799Y002457D01*
X014799Y002554D01*
X014860Y002529D01*
X015010Y002529D01*
X015148Y002587D01*
X015247Y002686D01*
X015597Y002686D01*
X015726Y002814D01*
X016080Y003169D01*
X016080Y003351D01*
X016080Y003745D01*
X015951Y003874D01*
X015164Y004661D01*
X014982Y004661D01*
X014767Y004661D01*
X014892Y004713D01*
X014998Y004818D01*
X015055Y004957D01*
X015055Y005106D01*
X014998Y005245D01*
X015055Y005102D02*
X015090Y005102D01*
X015096Y004943D02*
X015050Y004943D01*
X014964Y004785D02*
X015181Y004785D01*
X015199Y004626D02*
X017609Y004626D01*
X017609Y004468D02*
X015357Y004468D01*
X015516Y004309D02*
X017609Y004309D01*
X017609Y004150D02*
X015674Y004150D01*
X015833Y003992D02*
X017609Y003992D01*
X017609Y003833D02*
X015991Y003833D01*
X016080Y003675D02*
X017299Y003675D01*
X017076Y003516D02*
X016080Y003516D01*
X016080Y003358D02*
X017004Y003358D01*
X017000Y003199D02*
X016080Y003199D01*
X015952Y003041D02*
X017055Y003041D01*
X017209Y002882D02*
X015794Y002882D01*
X015635Y002724D02*
X018222Y002724D01*
X018222Y002565D02*
X015096Y002565D01*
X014779Y002406D02*
X018222Y002406D01*
X018222Y002248D02*
X014672Y002248D01*
X014175Y002248D02*
X011529Y002248D01*
X011529Y002406D02*
X013563Y002406D01*
X013457Y002565D02*
X011529Y002565D01*
X011529Y002724D02*
X013437Y002724D01*
X013486Y002882D02*
X011529Y002882D01*
X011529Y003041D02*
X013244Y003041D01*
X013181Y003199D02*
X011529Y003199D01*
X011529Y003358D02*
X013190Y003358D01*
X013281Y003516D02*
X011529Y003516D01*
X011529Y003675D02*
X013426Y003675D01*
X013397Y003833D02*
X011529Y003833D01*
X011529Y003992D02*
X013428Y003992D01*
X013545Y004150D02*
X011529Y004150D01*
X011529Y004309D02*
X014215Y004309D01*
X014144Y004468D02*
X011529Y004468D01*
X011529Y004626D02*
X013986Y004626D01*
X013606Y004785D02*
X013389Y004785D01*
X013423Y004818D02*
X013480Y004957D01*
X013480Y005106D01*
X013423Y005245D01*
X013317Y005350D01*
X013179Y005408D01*
X013029Y005408D01*
X012891Y005350D01*
X012785Y005245D01*
X012728Y005106D01*
X012728Y004957D01*
X012785Y004818D01*
X012891Y004713D01*
X013029Y004655D01*
X013179Y004655D01*
X013317Y004713D01*
X013423Y004818D01*
X013475Y004943D02*
X013521Y004943D01*
X013515Y005102D02*
X013480Y005102D01*
X013407Y005260D02*
X013588Y005260D01*
X013892Y005031D02*
X014482Y004441D01*
X015073Y004441D01*
X015860Y003654D01*
X015860Y003260D01*
X015506Y002906D01*
X014935Y002906D01*
X014068Y002406D02*
X014062Y002406D01*
X013813Y003833D02*
X013813Y003833D01*
X013813Y003992D02*
X013813Y003992D01*
X013813Y004150D02*
X013813Y004150D01*
X014081Y004150D02*
X014083Y004150D01*
X012819Y004785D02*
X012602Y004785D01*
X012636Y004818D02*
X012693Y004957D01*
X012693Y005106D01*
X012636Y005245D01*
X012530Y005350D01*
X012392Y005408D01*
X012242Y005408D01*
X012104Y005350D01*
X011998Y005245D01*
X011941Y005106D01*
X011941Y004957D01*
X011998Y004818D01*
X012104Y004713D01*
X012242Y004655D01*
X012392Y004655D01*
X012530Y004713D01*
X012636Y004818D01*
X012687Y004943D02*
X012734Y004943D01*
X012728Y005102D02*
X012693Y005102D01*
X012620Y005260D02*
X012801Y005260D01*
X013029Y005640D02*
X013179Y005640D01*
X013317Y005697D01*
X013423Y005803D01*
X013480Y005941D01*
X013480Y006091D01*
X013423Y006229D01*
X013317Y006335D01*
X013179Y006392D01*
X013029Y006392D01*
X012891Y006335D01*
X012785Y006229D01*
X012728Y006091D01*
X012728Y005941D01*
X012785Y005803D01*
X012891Y005697D01*
X013029Y005640D01*
X012852Y005736D02*
X012569Y005736D01*
X012530Y005697D02*
X012636Y005803D01*
X012693Y005941D01*
X012693Y006091D01*
X012636Y006229D01*
X012530Y006335D01*
X012392Y006392D01*
X012242Y006392D01*
X012104Y006335D01*
X011998Y006229D01*
X011941Y006091D01*
X011941Y005941D01*
X011998Y005803D01*
X012104Y005697D01*
X012242Y005640D01*
X012392Y005640D01*
X012530Y005697D01*
X012674Y005894D02*
X012747Y005894D01*
X012728Y006053D02*
X012693Y006053D01*
X012643Y006211D02*
X012778Y006211D01*
X012977Y006370D02*
X012445Y006370D01*
X012189Y006370D02*
X011529Y006370D01*
X011529Y006211D02*
X011991Y006211D01*
X011941Y006053D02*
X011529Y006053D01*
X011529Y005894D02*
X011960Y005894D01*
X012065Y005736D02*
X011529Y005736D01*
X011529Y005260D02*
X012014Y005260D01*
X011941Y005102D02*
X011529Y005102D01*
X011529Y004943D02*
X011946Y004943D01*
X012032Y004785D02*
X011529Y004785D01*
X013356Y005736D02*
X013639Y005736D01*
X013679Y005697D02*
X013573Y005803D01*
X013515Y005941D01*
X013515Y006091D01*
X013573Y006229D01*
X013679Y006335D01*
X013817Y006392D01*
X013966Y006392D01*
X014105Y006335D01*
X014211Y006229D01*
X014268Y006091D01*
X014268Y005941D01*
X014211Y005803D01*
X014105Y005697D01*
X013966Y005640D01*
X013817Y005640D01*
X013679Y005697D01*
X013535Y005894D02*
X013461Y005894D01*
X013480Y006053D02*
X013515Y006053D01*
X013566Y006211D02*
X013430Y006211D01*
X013232Y006370D02*
X013764Y006370D01*
X014019Y006370D02*
X014551Y006370D01*
X014353Y006211D02*
X014218Y006211D01*
X014268Y006053D02*
X014303Y006053D01*
X014322Y005894D02*
X014249Y005894D01*
X014144Y005736D02*
X014427Y005736D01*
X014931Y005736D02*
X015214Y005736D01*
X015109Y005894D02*
X015036Y005894D01*
X015055Y006053D02*
X015090Y006053D01*
X015140Y006211D02*
X015005Y006211D01*
X014376Y005260D02*
X014195Y005260D01*
X014268Y005102D02*
X014303Y005102D01*
X014291Y004943D02*
X014308Y004943D01*
X011529Y006529D02*
X018222Y006529D01*
X018222Y006687D02*
X011529Y006687D01*
X011529Y006846D02*
X018222Y006846D01*
X018222Y007004D02*
X011529Y007004D01*
X017262Y006370D02*
X017608Y006370D01*
X017461Y006211D02*
X017409Y006211D01*
X019656Y005736D02*
X023317Y005736D01*
X023317Y005894D02*
X019760Y005894D01*
X019780Y006053D02*
X023317Y006053D01*
X023317Y006211D02*
X019730Y006211D01*
X019707Y005260D02*
X023147Y005260D01*
X023147Y005102D02*
X019780Y005102D01*
X019774Y004943D02*
X023147Y004943D01*
X023058Y004785D02*
X019689Y004785D01*
X020582Y004102D02*
X020544Y004049D01*
X020514Y003990D01*
X020494Y003928D01*
X020483Y003863D01*
X020483Y003831D01*
X020899Y003831D01*
X020899Y004247D01*
X020867Y004247D01*
X020802Y004237D01*
X020740Y004216D01*
X020681Y004187D01*
X020628Y004148D01*
X020582Y004102D01*
X020631Y004150D02*
X018616Y004150D01*
X018616Y003992D02*
X020515Y003992D01*
X020483Y003833D02*
X018616Y003833D01*
X018616Y003675D02*
X020512Y003675D01*
X020368Y003516D02*
X018616Y003516D01*
X018616Y003358D02*
X020277Y003358D01*
X020267Y003199D02*
X018616Y003199D01*
X018616Y003041D02*
X020331Y003041D01*
X020572Y002882D02*
X018616Y002882D01*
X018616Y002724D02*
X020523Y002724D01*
X020544Y002565D02*
X018616Y002565D01*
X018616Y002406D02*
X020650Y002406D01*
X021149Y002406D02*
X021154Y002406D01*
X021261Y002248D02*
X018616Y002248D01*
X018222Y002089D02*
X011529Y002089D01*
X011529Y001931D02*
X018222Y001931D01*
X018222Y001772D02*
X011529Y001772D01*
X011529Y001614D02*
X018222Y001614D01*
X018222Y001455D02*
X011531Y001455D01*
X011623Y001297D02*
X018222Y001297D01*
X018222Y001138D02*
X011766Y001138D01*
X011948Y000980D02*
X018222Y000980D01*
X020899Y003833D02*
X020900Y003833D01*
X020899Y003992D02*
X020900Y003992D01*
X020899Y004150D02*
X020900Y004150D01*
X022473Y006370D02*
X023317Y006370D01*
X023317Y006529D02*
X022523Y006529D01*
X022523Y006687D02*
X023317Y006687D01*
X024522Y006016D02*
X024718Y005819D01*
X024718Y004953D01*
X026096Y004441D02*
X027277Y003260D01*
X027730Y003260D01*
X027455Y003516D02*
X027332Y003516D01*
X027174Y003675D02*
X027599Y003675D01*
X027570Y003833D02*
X027015Y003833D01*
X026856Y003992D02*
X027601Y003992D01*
X027718Y004150D02*
X026698Y004150D01*
X026539Y004309D02*
X028330Y004309D01*
X028596Y004309D02*
X028597Y004309D01*
X028596Y004150D02*
X028597Y004150D01*
X028596Y003992D02*
X028597Y003992D01*
X028863Y004309D02*
X035416Y004309D01*
X035247Y004468D02*
X026381Y004468D01*
X026316Y004626D02*
X026628Y004626D01*
X026606Y004649D02*
X026698Y004556D01*
X026818Y004507D01*
X026949Y004507D01*
X027070Y004556D01*
X027128Y004615D01*
X028564Y004615D01*
X028747Y004615D01*
X028787Y004655D01*
X028927Y004655D01*
X029065Y004713D01*
X029171Y004818D01*
X029228Y004957D01*
X029228Y005106D01*
X029171Y005245D01*
X029065Y005350D01*
X028927Y005408D01*
X028777Y005408D01*
X028639Y005350D01*
X028533Y005245D01*
X028476Y005106D01*
X028476Y005055D01*
X027128Y005055D01*
X027070Y005113D01*
X026949Y005163D01*
X026818Y005163D01*
X026698Y005113D01*
X026606Y005020D01*
X026556Y004900D01*
X026556Y004769D01*
X026606Y004649D01*
X026556Y004785D02*
X026316Y004785D01*
X026316Y004943D02*
X026574Y004943D01*
X026687Y005102D02*
X026316Y005102D01*
X026316Y005260D02*
X028549Y005260D01*
X028476Y005102D02*
X027081Y005102D01*
X026884Y004835D02*
X028655Y004835D01*
X028852Y005031D01*
X029137Y004785D02*
X029355Y004785D01*
X029269Y004943D02*
X029223Y004943D01*
X029228Y005102D02*
X029263Y005102D01*
X029336Y005260D02*
X029156Y005260D01*
X028927Y005640D02*
X028777Y005640D01*
X028639Y005697D01*
X028533Y005803D01*
X028476Y005941D01*
X028476Y006091D01*
X028533Y006229D01*
X028639Y006335D01*
X028777Y006392D01*
X028927Y006392D01*
X029065Y006335D01*
X029171Y006229D01*
X029228Y006091D01*
X029228Y005941D01*
X029171Y005803D01*
X029065Y005697D01*
X028927Y005640D01*
X029104Y005736D02*
X029388Y005736D01*
X029283Y005894D02*
X029209Y005894D01*
X029228Y006053D02*
X029263Y006053D01*
X029314Y006211D02*
X029178Y006211D01*
X028980Y006370D02*
X029512Y006370D01*
X029445Y006687D02*
X027363Y006687D01*
X027363Y006846D02*
X029286Y006846D01*
X029127Y007004D02*
X027363Y007004D01*
X027363Y007163D02*
X028969Y007163D01*
X029274Y007480D02*
X029377Y007480D01*
X029338Y007519D02*
X029569Y007289D01*
X029870Y007164D01*
X030197Y007164D01*
X030498Y007289D01*
X030729Y007519D01*
X030854Y007821D01*
X030854Y008147D01*
X030729Y008449D01*
X030498Y008680D01*
X030197Y008805D01*
X029870Y008805D01*
X029569Y008680D01*
X029338Y008449D01*
X029213Y008147D01*
X029213Y007821D01*
X029338Y007519D01*
X029288Y007638D02*
X029116Y007638D01*
X029223Y007797D02*
X028957Y007797D01*
X028798Y007955D02*
X029213Y007955D01*
X029213Y008114D02*
X028640Y008114D01*
X028459Y007984D02*
X019935Y007984D01*
X019600Y008319D01*
X019909Y008431D02*
X023107Y008431D01*
X023107Y008273D02*
X019958Y008273D01*
X019794Y008590D02*
X023107Y008590D01*
X025108Y008590D02*
X029478Y008590D01*
X029330Y008431D02*
X025108Y008431D01*
X025108Y008273D02*
X029265Y008273D01*
X029734Y008748D02*
X025108Y008748D01*
X025108Y008907D02*
X036033Y008907D01*
X035998Y008748D02*
X035058Y008748D01*
X034921Y008805D02*
X034595Y008805D01*
X034293Y008680D01*
X034062Y008449D01*
X033937Y008147D01*
X033937Y007821D01*
X034062Y007519D01*
X034293Y007289D01*
X034595Y007164D01*
X034921Y007164D01*
X035223Y007289D01*
X035453Y007519D01*
X035578Y007821D01*
X035578Y008147D01*
X035453Y008449D01*
X035223Y008680D01*
X034921Y008805D01*
X035313Y008590D02*
X035839Y008590D01*
X035719Y008431D02*
X035461Y008431D01*
X035526Y008273D02*
X035719Y008273D01*
X035719Y008114D02*
X035578Y008114D01*
X035578Y007955D02*
X035719Y007955D01*
X035719Y007797D02*
X035568Y007797D01*
X035503Y007638D02*
X035676Y007638D01*
X035517Y007480D02*
X035414Y007480D01*
X035359Y007321D02*
X035255Y007321D01*
X035200Y007163D02*
X029591Y007163D01*
X029536Y007321D02*
X029433Y007321D01*
X029640Y006803D02*
X028459Y007984D01*
X028493Y007638D02*
X026753Y007638D01*
X027070Y007475D02*
X027162Y007383D01*
X027209Y007268D01*
X027281Y007268D01*
X027363Y007186D01*
X027363Y006420D01*
X027313Y006370D02*
X028725Y006370D01*
X028526Y006211D02*
X026365Y006211D01*
X026424Y006053D02*
X028476Y006053D01*
X028495Y005894D02*
X026401Y005894D01*
X026316Y005736D02*
X028600Y005736D01*
X029640Y006803D02*
X030427Y006803D01*
X031214Y006016D01*
X031342Y006370D02*
X031874Y006370D01*
X031676Y006211D02*
X031541Y006211D01*
X031591Y006053D02*
X031626Y006053D01*
X031645Y005894D02*
X031571Y005894D01*
X031467Y005736D02*
X031750Y005736D01*
X031699Y005260D02*
X031518Y005260D01*
X031591Y005102D02*
X031626Y005102D01*
X031631Y004943D02*
X031585Y004943D01*
X031500Y004785D02*
X031717Y004785D01*
X030929Y004785D02*
X030712Y004785D01*
X030700Y005419D02*
X026316Y005419D01*
X026316Y005577D02*
X030859Y005577D01*
X030962Y005736D02*
X030679Y005736D01*
X030784Y005894D02*
X030858Y005894D01*
X030838Y006053D02*
X030803Y006053D01*
X031013Y006529D02*
X032204Y006529D01*
X032176Y006370D02*
X032130Y006370D01*
X032362Y006687D02*
X030854Y006687D01*
X030696Y006846D02*
X032521Y006846D01*
X032679Y007004D02*
X030537Y007004D01*
X030531Y007321D02*
X034260Y007321D01*
X034102Y007480D02*
X030689Y007480D01*
X030778Y007638D02*
X034013Y007638D01*
X033947Y007797D02*
X030844Y007797D01*
X030854Y007955D02*
X033937Y007955D01*
X033937Y008114D02*
X030854Y008114D01*
X030802Y008273D02*
X033989Y008273D01*
X034055Y008431D02*
X030736Y008431D01*
X030588Y008590D02*
X034203Y008590D01*
X034458Y008748D02*
X030333Y008748D01*
X034364Y006370D02*
X034364Y006370D01*
X035151Y006803D02*
X035939Y007591D01*
X035939Y008378D01*
X036333Y008772D01*
X036184Y009065D02*
X025108Y009065D01*
X026096Y006016D02*
X026096Y004441D01*
X027986Y004150D02*
X027986Y004150D01*
X027986Y003992D02*
X027986Y003992D01*
X027986Y003833D02*
X027986Y003833D01*
X028758Y004626D02*
X035088Y004626D01*
X035522Y004943D02*
X035568Y004943D01*
X035563Y005102D02*
X035528Y005102D01*
X035455Y005260D02*
X035636Y005260D01*
X036242Y005260D02*
X037234Y005260D01*
X037076Y005102D02*
X036315Y005102D01*
X036309Y004943D02*
X036917Y004943D01*
X037294Y005736D02*
X036191Y005736D01*
X036296Y005894D02*
X037294Y005894D01*
X037294Y006053D02*
X036315Y006053D01*
X036265Y006211D02*
X037294Y006211D01*
X036508Y003833D02*
X039089Y003833D01*
X039089Y003675D02*
X038830Y003675D01*
X038559Y003675D02*
X036622Y003675D01*
X036781Y003516D02*
X038336Y003516D01*
X038264Y003358D02*
X036939Y003358D01*
X037098Y003199D02*
X038260Y003199D01*
X038314Y003041D02*
X037257Y003041D01*
X037340Y002882D02*
X038469Y002882D01*
X038920Y002882D02*
X039089Y002882D01*
X039089Y002724D02*
X037340Y002724D01*
X037340Y002565D02*
X039089Y002565D01*
X039089Y002406D02*
X037340Y002406D01*
X037340Y002248D02*
X039089Y002248D01*
X039089Y002089D02*
X037340Y002089D01*
X037283Y001931D02*
X039089Y001931D01*
X039089Y001772D02*
X037125Y001772D01*
X036966Y001614D02*
X039089Y001614D01*
X039087Y001455D02*
X029721Y001455D01*
X029562Y001297D02*
X038995Y001297D01*
X036661Y001931D02*
X030492Y001931D01*
X030187Y001614D02*
X029879Y001614D01*
X030033Y002079D02*
X029246Y001291D01*
X028459Y002079D02*
X026490Y002079D01*
X028459Y002079D02*
X028596Y002217D01*
X028596Y002531D01*
X029676Y003358D02*
X031178Y003358D01*
X031173Y003199D02*
X029834Y003199D01*
X029993Y003041D02*
X031228Y003041D01*
X031249Y003516D02*
X029517Y003516D01*
X036195Y003614D02*
X036372Y003614D01*
X039054Y003516D02*
X039089Y003516D01*
X039075Y003041D02*
X039089Y003041D01*
X018222Y008273D02*
X018204Y008273D01*
X018222Y008431D02*
X018138Y008431D01*
X018222Y008590D02*
X017990Y008590D01*
X018222Y008748D02*
X017735Y008748D01*
D16*
X019600Y008319D03*
X020191Y005228D03*
X024128Y006803D03*
X024522Y006016D03*
X026096Y006016D03*
X026884Y007197D03*
X026884Y004835D03*
X024915Y001685D03*
X036333Y008772D03*
X037514Y008772D03*
X037120Y006016D03*
M02*
