%
M48
M72
T01C0.0236
T02C0.0315
T03C0.0394
T04C0.1181
%
T01
X19600Y8319
X20191Y5228
X24128Y6803
X24522Y6016
X26096Y6016
X26884Y7197
X26884Y4835
X24915Y1685
X36333Y8772
X37514Y8772
X37120Y6016
T02
X12317Y5031
X13104Y5031
X13892Y5031
X14679Y5031
X15466Y5031
X16254Y5031
X17041Y5031
X17829Y5031
X18616Y5031
X19403Y5031
X19403Y6016
X18616Y6016
X17829Y6016
X17041Y6016
X16254Y6016
X15466Y6016
X14679Y6016
X13892Y6016
X13104Y6016
X12317Y6016
X14423Y3988
X13813Y3831
X13557Y3260
X13813Y2689
X14423Y2531
X14935Y2906
X14285Y3260
X14935Y3614
X20644Y3260
X21372Y3260
X22022Y3614
X21510Y3988
X20900Y3831
X22022Y2906
X21510Y2531
X20900Y2689
X27730Y3260
X28459Y3260
X29108Y3614
X28596Y3988
X27986Y3831
X29108Y2906
X28596Y2531
X27986Y2689
X28852Y5031
X29640Y5031
X30427Y5031
X31214Y5031
X32002Y5031
X32789Y5031
X33577Y5031
X34364Y5031
X35151Y5031
X35939Y5031
X35939Y6016
X35151Y6016
X34364Y6016
X33577Y6016
X32789Y6016
X32002Y6016
X31214Y6016
X30427Y6016
X29640Y6016
X28852Y6016
X34817Y3260
X35073Y3831
X35683Y3988
X36195Y3614
X36195Y2906
X35683Y2531
X35073Y2689
X35545Y3260
T03
X38695Y3260
X38104Y6016
X31608Y3260
X24522Y3260
X17435Y3260
T04
X17435Y7984
X14285Y7984
X30033Y7984
X34758Y7984
M30
