%
M48
M72
T01C0.0236
T02C0.0315
T03C0.0394
T04C0.1181
%
T01
X19389Y7916
X23129Y5613
X23523Y6794
X25885Y5613
X26672Y4431
X26672Y6794
X19979Y4825
X24704Y1282
X36121Y8369
X37302Y8369
X36908Y5613
T02
X35727Y5613
X34940Y5613
X34152Y5613
X33365Y5613
X32578Y5613
X31790Y5613
X31003Y5613
X30215Y5613
X29428Y5613
X28641Y5613
X28641Y4628
X29428Y4628
X30215Y4628
X31003Y4628
X31790Y4628
X32578Y4628
X33365Y4628
X34152Y4628
X34940Y4628
X35727Y4628
X35471Y3585
X34861Y3428
X34605Y2857
X35334Y2857
X35983Y3211
X35983Y2502
X35471Y2128
X34861Y2286
X28897Y2502
X28385Y2128
X27774Y2286
X27519Y2857
X27774Y3428
X28385Y3585
X28897Y3211
X28247Y2857
X21810Y2502
X21298Y2128
X20688Y2286
X20432Y2857
X20688Y3428
X21298Y3585
X21810Y3211
X21160Y2857
T03
X24310Y2857
X31397Y2857
X37893Y5613
X38483Y2857
T04
X34546Y7581
X29822Y7581
M30
