%
M48
M72
T01C0.0236
T02C0.0315
T03C0.0394
T04C0.1181
%
T01
X26687Y8181
X31214Y6803
X31608Y6016
X33183Y6016
X33970Y7197
X33970Y4835
X32002Y1685
X27671Y2079
X43026Y6803
X44207Y6213
X44207Y5622
X44600Y8772
X43419Y8772
T02
X19403Y5031
X20191Y5031
X20978Y5031
X21766Y5031
X22553Y5031
X23340Y5031
X24128Y5031
X24915Y5031
X25703Y5031
X26490Y5031
X26490Y6016
X25703Y6016
X24915Y6016
X24128Y6016
X23340Y6016
X22553Y6016
X21766Y6016
X20978Y6016
X20191Y6016
X19403Y6016
X21510Y3988
X20900Y3831
X20644Y3260
X21372Y3260
X22022Y3614
X22022Y2906
X21510Y2531
X20900Y2689
X27730Y3260
X28459Y3260
X29108Y3614
X28596Y3988
X27986Y3831
X29108Y2906
X28596Y2531
X27986Y2689
X34817Y3260
X35073Y3831
X35683Y3988
X36195Y3614
X35545Y3260
X36195Y2906
X35683Y2531
X35073Y2689
X35939Y5031
X36726Y5031
X37514Y5031
X38301Y5031
X39089Y5031
X39876Y5031
X40663Y5031
X41451Y5031
X42238Y5031
X43026Y5031
X43026Y6016
X42238Y6016
X41451Y6016
X40663Y6016
X39876Y6016
X39089Y6016
X38301Y6016
X37514Y6016
X36726Y6016
X35939Y6016
X41903Y3260
X42159Y3831
X42770Y3988
X43281Y3614
X42632Y3260
X43281Y2906
X42770Y2531
X42159Y2689
T03
X38695Y3260
X45191Y6016
X45781Y3260
X31608Y3260
X24522Y3260
T04
X24522Y7984
X21372Y7984
X37120Y7984
X41844Y7984
M30
