G75*
G70*
%OFA0B0*%
%FSLAX24Y24*%
%IPPOS*%
%LPD*%
%AMOC8*
5,1,8,0,0,1.08239X$1,22.5*
%
%ADD10C,0.0030*%
%ADD11C,0.0010*%
%ADD12C,0.0050*%
%ADD13C,0.0020*%
%ADD14R,0.0374X0.0197*%
%ADD15C,0.0040*%
%ADD16C,0.0220*%
%ADD17R,0.0300X0.0180*%
D10*
X018052Y002091D02*
X018373Y002276D01*
X018435Y002169D02*
X018311Y002383D01*
X018221Y002046D02*
X018052Y002091D01*
X018228Y001910D02*
X018565Y001820D01*
X018588Y001904D01*
X018526Y002011D01*
X018442Y002033D01*
X018228Y001910D01*
X018205Y001826D01*
X018267Y001719D01*
X018352Y001696D01*
X018565Y001820D01*
X018519Y001653D02*
X018643Y001439D01*
X018390Y001507D01*
X018710Y001692D01*
X018703Y001334D02*
X018827Y001120D01*
X019048Y001107D02*
X018851Y000709D01*
X018727Y000922D02*
X019171Y000894D01*
X025108Y002145D02*
X025170Y002038D01*
X025254Y002015D01*
X025315Y001910D02*
X025652Y001820D01*
X025675Y001904D01*
X025613Y002011D01*
X025529Y002033D01*
X025315Y001910D01*
X025292Y001826D01*
X025354Y001719D01*
X025438Y001696D01*
X025652Y001820D01*
X025606Y001653D02*
X025729Y001439D01*
X025476Y001507D01*
X025797Y001692D01*
X025790Y001334D02*
X025913Y001120D01*
X025814Y000922D02*
X026258Y000894D01*
X026134Y001107D02*
X025937Y000709D01*
X025521Y002169D02*
X025184Y002260D01*
X025131Y002229D01*
X025108Y002145D01*
X025398Y002383D02*
X025521Y002169D01*
X032195Y002145D02*
X032256Y002038D01*
X032341Y002015D01*
X032401Y001910D02*
X032739Y001820D01*
X032761Y001904D01*
X032699Y002011D01*
X032615Y002033D01*
X032401Y001910D01*
X032379Y001826D01*
X032440Y001719D01*
X032525Y001696D01*
X032739Y001820D01*
X032692Y001653D02*
X032816Y001439D01*
X032563Y001507D01*
X032884Y001692D01*
X032877Y001334D02*
X033000Y001120D01*
X032900Y000922D02*
X033345Y000894D01*
X033221Y001107D02*
X033024Y000709D01*
X032554Y002139D02*
X032577Y002223D01*
X032515Y002330D01*
X032431Y002352D01*
X032378Y002321D01*
X032355Y002237D01*
X032386Y002184D01*
X032355Y002237D02*
X032271Y002260D01*
X032217Y002229D01*
X032195Y002145D01*
D11*
X037934Y004461D02*
X037959Y004436D01*
X038059Y004436D01*
X038084Y004461D01*
X038084Y004512D01*
X038059Y004537D01*
X038009Y004537D01*
X038009Y004487D01*
X037959Y004537D02*
X037934Y004512D01*
X037934Y004461D01*
X037934Y004584D02*
X038084Y004684D01*
X037934Y004684D01*
X037934Y004731D02*
X037934Y004806D01*
X037959Y004831D01*
X038059Y004831D01*
X038084Y004806D01*
X038084Y004731D01*
X037934Y004731D01*
X037934Y004584D02*
X038084Y004584D01*
X038084Y007192D02*
X037934Y007192D01*
X037934Y007267D01*
X037959Y007292D01*
X038009Y007292D01*
X038034Y007267D01*
X038034Y007192D01*
X038034Y007242D02*
X038084Y007292D01*
X038059Y007340D02*
X038084Y007365D01*
X038084Y007415D01*
X038059Y007440D01*
X038009Y007440D01*
X037984Y007415D01*
X037984Y007390D01*
X038009Y007340D01*
X037934Y007340D01*
X037934Y007440D01*
X036903Y007415D02*
X036878Y007440D01*
X036853Y007440D01*
X036828Y007415D01*
X036828Y007340D01*
X036878Y007340D01*
X036903Y007365D01*
X036903Y007415D01*
X036828Y007340D02*
X036778Y007390D01*
X036753Y007440D01*
X036778Y007292D02*
X036828Y007292D01*
X036853Y007267D01*
X036853Y007192D01*
X036903Y007192D02*
X036753Y007192D01*
X036753Y007267D01*
X036778Y007292D01*
X036853Y007242D02*
X036903Y007292D01*
X035722Y007292D02*
X035672Y007242D01*
X035672Y007267D02*
X035672Y007192D01*
X035722Y007192D02*
X035572Y007192D01*
X035572Y007267D01*
X035597Y007292D01*
X035647Y007292D01*
X035672Y007267D01*
X035722Y007340D02*
X035622Y007440D01*
X035597Y007440D01*
X035572Y007415D01*
X035572Y007365D01*
X035597Y007340D01*
X035722Y007340D02*
X035722Y007440D01*
X027848Y007340D02*
X027848Y007440D01*
X027848Y007390D02*
X027698Y007390D01*
X027748Y007340D01*
X027723Y007292D02*
X027698Y007267D01*
X027698Y007217D01*
X027723Y007192D01*
X027823Y007192D01*
X027848Y007217D01*
X027848Y007267D01*
X027823Y007292D01*
X026667Y007340D02*
X026667Y007440D01*
X026667Y007390D02*
X026517Y007390D01*
X026567Y007340D01*
X026517Y007292D02*
X026517Y007192D01*
X026667Y007192D01*
X026592Y007192D02*
X026592Y007242D01*
X025486Y007192D02*
X025336Y007192D01*
X025336Y007267D01*
X025361Y007292D01*
X025411Y007292D01*
X025436Y007267D01*
X025436Y007192D01*
X025436Y007242D02*
X025486Y007292D01*
X025486Y007340D02*
X025486Y007440D01*
X025486Y007390D02*
X025336Y007390D01*
X025386Y007340D01*
X024305Y007292D02*
X024255Y007242D01*
X024255Y007267D02*
X024255Y007192D01*
X024305Y007192D02*
X024155Y007192D01*
X024155Y007267D01*
X024180Y007292D01*
X024230Y007292D01*
X024255Y007267D01*
X024230Y007340D02*
X024230Y007440D01*
X024305Y007415D02*
X024155Y007415D01*
X024230Y007340D01*
X023124Y007365D02*
X023099Y007340D01*
X023124Y007365D02*
X023124Y007415D01*
X023099Y007440D01*
X023074Y007440D01*
X023049Y007415D01*
X023049Y007390D01*
X023049Y007415D02*
X023024Y007440D01*
X022999Y007440D01*
X022974Y007415D01*
X022974Y007365D01*
X022999Y007340D01*
X022999Y007292D02*
X023049Y007292D01*
X023074Y007267D01*
X023074Y007192D01*
X023124Y007192D02*
X022974Y007192D01*
X022974Y007267D01*
X022999Y007292D01*
X023074Y007242D02*
X023124Y007292D01*
X021943Y007292D02*
X021893Y007242D01*
X021893Y007267D02*
X021893Y007192D01*
X021943Y007192D02*
X021793Y007192D01*
X021793Y007267D01*
X021818Y007292D01*
X021868Y007292D01*
X021893Y007267D01*
X021893Y007340D02*
X021868Y007365D01*
X021868Y007415D01*
X021893Y007440D01*
X021918Y007440D01*
X021943Y007415D01*
X021943Y007365D01*
X021918Y007340D01*
X021893Y007340D01*
X021868Y007365D02*
X021843Y007340D01*
X021818Y007340D01*
X021793Y007365D01*
X021793Y007415D01*
X021818Y007440D01*
X021843Y007440D01*
X021868Y007415D01*
X020762Y007340D02*
X020737Y007340D01*
X020637Y007440D01*
X020611Y007440D01*
X020611Y007340D01*
X020637Y007292D02*
X020687Y007292D01*
X020712Y007267D01*
X020712Y007192D01*
X020762Y007192D02*
X020611Y007192D01*
X020611Y007267D01*
X020637Y007292D01*
X020712Y007242D02*
X020762Y007292D01*
X019581Y007292D02*
X019530Y007242D01*
X019530Y007267D02*
X019530Y007192D01*
X019581Y007192D02*
X019430Y007192D01*
X019430Y007267D01*
X019455Y007292D01*
X019505Y007292D01*
X019530Y007267D01*
X019480Y007340D02*
X019430Y007390D01*
X019581Y007390D01*
X019581Y007340D02*
X019581Y007440D01*
X019556Y007487D02*
X019455Y007587D01*
X019556Y007587D01*
X019581Y007562D01*
X019581Y007512D01*
X019556Y007487D01*
X019455Y007487D01*
X019430Y007512D01*
X019430Y007562D01*
X019455Y007587D01*
X018399Y007415D02*
X018374Y007440D01*
X018274Y007440D01*
X018249Y007415D01*
X018249Y007365D01*
X018274Y007340D01*
X018299Y007340D01*
X018324Y007365D01*
X018324Y007440D01*
X018399Y007415D02*
X018399Y007365D01*
X018374Y007340D01*
X018399Y007292D02*
X018349Y007242D01*
X018349Y007267D02*
X018349Y007192D01*
X018399Y007192D02*
X018249Y007192D01*
X018249Y007267D01*
X018274Y007292D01*
X018324Y007292D01*
X018349Y007267D01*
D12*
X019586Y005416D02*
X022735Y005416D01*
X023916Y003250D01*
X023916Y002463D01*
X022735Y000298D01*
X019586Y000298D01*
X018208Y002857D01*
X019586Y005416D01*
X020373Y005120D02*
X021948Y005120D01*
X021278Y004038D02*
X021160Y004038D01*
X021003Y003585D02*
X021005Y003619D01*
X021011Y003653D01*
X021021Y003686D01*
X021034Y003717D01*
X021052Y003747D01*
X021072Y003775D01*
X021096Y003800D01*
X021122Y003822D01*
X021150Y003840D01*
X021181Y003856D01*
X021213Y003868D01*
X021247Y003876D01*
X021281Y003880D01*
X021315Y003880D01*
X021349Y003876D01*
X021383Y003868D01*
X021415Y003856D01*
X021445Y003840D01*
X021474Y003822D01*
X021500Y003800D01*
X021524Y003775D01*
X021544Y003747D01*
X021562Y003717D01*
X021575Y003686D01*
X021585Y003653D01*
X021591Y003619D01*
X021593Y003585D01*
X021591Y003551D01*
X021585Y003517D01*
X021575Y003484D01*
X021562Y003453D01*
X021544Y003423D01*
X021524Y003395D01*
X021500Y003370D01*
X021474Y003348D01*
X021446Y003330D01*
X021415Y003314D01*
X021383Y003302D01*
X021349Y003294D01*
X021315Y003290D01*
X021281Y003290D01*
X021247Y003294D01*
X021213Y003302D01*
X021181Y003314D01*
X021150Y003330D01*
X021122Y003348D01*
X021096Y003370D01*
X021072Y003395D01*
X021052Y003423D01*
X021034Y003453D01*
X021021Y003484D01*
X021011Y003517D01*
X021005Y003551D01*
X021003Y003585D01*
X020393Y003428D02*
X020395Y003462D01*
X020401Y003496D01*
X020411Y003529D01*
X020424Y003560D01*
X020442Y003590D01*
X020462Y003618D01*
X020486Y003643D01*
X020512Y003665D01*
X020540Y003683D01*
X020571Y003699D01*
X020603Y003711D01*
X020637Y003719D01*
X020671Y003723D01*
X020705Y003723D01*
X020739Y003719D01*
X020773Y003711D01*
X020805Y003699D01*
X020835Y003683D01*
X020864Y003665D01*
X020890Y003643D01*
X020914Y003618D01*
X020934Y003590D01*
X020952Y003560D01*
X020965Y003529D01*
X020975Y003496D01*
X020981Y003462D01*
X020983Y003428D01*
X020981Y003394D01*
X020975Y003360D01*
X020965Y003327D01*
X020952Y003296D01*
X020934Y003266D01*
X020914Y003238D01*
X020890Y003213D01*
X020864Y003191D01*
X020836Y003173D01*
X020805Y003157D01*
X020773Y003145D01*
X020739Y003137D01*
X020705Y003133D01*
X020671Y003133D01*
X020637Y003137D01*
X020603Y003145D01*
X020571Y003157D01*
X020540Y003173D01*
X020512Y003191D01*
X020486Y003213D01*
X020462Y003238D01*
X020442Y003266D01*
X020424Y003296D01*
X020411Y003327D01*
X020401Y003360D01*
X020395Y003394D01*
X020393Y003428D01*
X020137Y002857D02*
X020139Y002891D01*
X020145Y002925D01*
X020155Y002958D01*
X020168Y002989D01*
X020186Y003019D01*
X020206Y003047D01*
X020230Y003072D01*
X020256Y003094D01*
X020284Y003112D01*
X020315Y003128D01*
X020347Y003140D01*
X020381Y003148D01*
X020415Y003152D01*
X020449Y003152D01*
X020483Y003148D01*
X020517Y003140D01*
X020549Y003128D01*
X020579Y003112D01*
X020608Y003094D01*
X020634Y003072D01*
X020658Y003047D01*
X020678Y003019D01*
X020696Y002989D01*
X020709Y002958D01*
X020719Y002925D01*
X020725Y002891D01*
X020727Y002857D01*
X020725Y002823D01*
X020719Y002789D01*
X020709Y002756D01*
X020696Y002725D01*
X020678Y002695D01*
X020658Y002667D01*
X020634Y002642D01*
X020608Y002620D01*
X020580Y002602D01*
X020549Y002586D01*
X020517Y002574D01*
X020483Y002566D01*
X020449Y002562D01*
X020415Y002562D01*
X020381Y002566D01*
X020347Y002574D01*
X020315Y002586D01*
X020284Y002602D01*
X020256Y002620D01*
X020230Y002642D01*
X020206Y002667D01*
X020186Y002695D01*
X020168Y002725D01*
X020155Y002756D01*
X020145Y002789D01*
X020139Y002823D01*
X020137Y002857D01*
X021948Y005120D02*
X022057Y005077D01*
X022163Y005028D01*
X022268Y004974D01*
X022369Y004915D01*
X022468Y004852D01*
X022563Y004783D01*
X022655Y004710D01*
X022743Y004633D01*
X022828Y004551D01*
X022908Y004466D01*
X022984Y004376D01*
X023056Y004283D01*
X023123Y004187D01*
X023185Y004087D01*
X023242Y003985D01*
X023295Y003880D01*
X023342Y003773D01*
X023384Y003663D01*
X023420Y003551D01*
X023451Y003438D01*
X023476Y003324D01*
X023496Y003208D01*
X023511Y003091D01*
X023519Y002974D01*
X023522Y002857D01*
X024034Y002345D02*
X024152Y002424D01*
X024192Y002266D01*
X024152Y002424D02*
X024034Y002109D01*
X023956Y002857D02*
X023958Y002894D01*
X023964Y002931D01*
X023973Y002966D01*
X023987Y003001D01*
X024003Y003034D01*
X024024Y003065D01*
X024047Y003094D01*
X024073Y003120D01*
X024102Y003143D01*
X024133Y003164D01*
X024166Y003180D01*
X024201Y003194D01*
X024236Y003203D01*
X024273Y003209D01*
X024310Y003211D01*
X024347Y003209D01*
X024384Y003203D01*
X024419Y003194D01*
X024454Y003180D01*
X024487Y003164D01*
X024518Y003143D01*
X024547Y003120D01*
X024573Y003094D01*
X024596Y003065D01*
X024617Y003034D01*
X024633Y003001D01*
X024647Y002966D01*
X024656Y002931D01*
X024662Y002894D01*
X024664Y002857D01*
X024662Y002820D01*
X024656Y002783D01*
X024647Y002748D01*
X024633Y002713D01*
X024617Y002680D01*
X024596Y002649D01*
X024573Y002620D01*
X024547Y002594D01*
X024518Y002571D01*
X024487Y002550D01*
X024454Y002534D01*
X024419Y002520D01*
X024384Y002511D01*
X024347Y002505D01*
X024310Y002503D01*
X024273Y002505D01*
X024236Y002511D01*
X024201Y002520D01*
X024166Y002534D01*
X024133Y002550D01*
X024102Y002571D01*
X024073Y002594D01*
X024047Y002620D01*
X024024Y002649D01*
X024003Y002680D01*
X023987Y002713D01*
X023973Y002748D01*
X023964Y002783D01*
X023958Y002820D01*
X023956Y002857D01*
X025294Y002857D02*
X026672Y000298D01*
X029822Y000298D01*
X031003Y002463D01*
X031003Y003250D01*
X029822Y005416D01*
X026672Y005416D01*
X025294Y002857D01*
X027224Y002857D02*
X027226Y002891D01*
X027232Y002925D01*
X027242Y002958D01*
X027255Y002989D01*
X027273Y003019D01*
X027293Y003047D01*
X027317Y003072D01*
X027343Y003094D01*
X027371Y003112D01*
X027402Y003128D01*
X027434Y003140D01*
X027468Y003148D01*
X027502Y003152D01*
X027536Y003152D01*
X027570Y003148D01*
X027604Y003140D01*
X027636Y003128D01*
X027666Y003112D01*
X027695Y003094D01*
X027721Y003072D01*
X027745Y003047D01*
X027765Y003019D01*
X027783Y002989D01*
X027796Y002958D01*
X027806Y002925D01*
X027812Y002891D01*
X027814Y002857D01*
X027812Y002823D01*
X027806Y002789D01*
X027796Y002756D01*
X027783Y002725D01*
X027765Y002695D01*
X027745Y002667D01*
X027721Y002642D01*
X027695Y002620D01*
X027667Y002602D01*
X027636Y002586D01*
X027604Y002574D01*
X027570Y002566D01*
X027536Y002562D01*
X027502Y002562D01*
X027468Y002566D01*
X027434Y002574D01*
X027402Y002586D01*
X027371Y002602D01*
X027343Y002620D01*
X027317Y002642D01*
X027293Y002667D01*
X027273Y002695D01*
X027255Y002725D01*
X027242Y002756D01*
X027232Y002789D01*
X027226Y002823D01*
X027224Y002857D01*
X027479Y003428D02*
X027481Y003462D01*
X027487Y003496D01*
X027497Y003529D01*
X027510Y003560D01*
X027528Y003590D01*
X027548Y003618D01*
X027572Y003643D01*
X027598Y003665D01*
X027626Y003683D01*
X027657Y003699D01*
X027689Y003711D01*
X027723Y003719D01*
X027757Y003723D01*
X027791Y003723D01*
X027825Y003719D01*
X027859Y003711D01*
X027891Y003699D01*
X027921Y003683D01*
X027950Y003665D01*
X027976Y003643D01*
X028000Y003618D01*
X028020Y003590D01*
X028038Y003560D01*
X028051Y003529D01*
X028061Y003496D01*
X028067Y003462D01*
X028069Y003428D01*
X028067Y003394D01*
X028061Y003360D01*
X028051Y003327D01*
X028038Y003296D01*
X028020Y003266D01*
X028000Y003238D01*
X027976Y003213D01*
X027950Y003191D01*
X027922Y003173D01*
X027891Y003157D01*
X027859Y003145D01*
X027825Y003137D01*
X027791Y003133D01*
X027757Y003133D01*
X027723Y003137D01*
X027689Y003145D01*
X027657Y003157D01*
X027626Y003173D01*
X027598Y003191D01*
X027572Y003213D01*
X027548Y003238D01*
X027528Y003266D01*
X027510Y003296D01*
X027497Y003327D01*
X027487Y003360D01*
X027481Y003394D01*
X027479Y003428D01*
X029035Y005120D02*
X029144Y005077D01*
X029250Y005028D01*
X029355Y004974D01*
X029456Y004915D01*
X029555Y004852D01*
X029650Y004783D01*
X029742Y004710D01*
X029830Y004633D01*
X029915Y004551D01*
X029995Y004466D01*
X030071Y004376D01*
X030143Y004283D01*
X030210Y004187D01*
X030272Y004087D01*
X030329Y003985D01*
X030382Y003880D01*
X030429Y003773D01*
X030471Y003663D01*
X030507Y003551D01*
X030538Y003438D01*
X030563Y003324D01*
X030583Y003208D01*
X030598Y003091D01*
X030606Y002974D01*
X030609Y002857D01*
X031121Y002345D02*
X031239Y002424D01*
X031278Y002266D01*
X031239Y002424D02*
X031121Y002109D01*
X031043Y002857D02*
X031045Y002894D01*
X031051Y002931D01*
X031060Y002966D01*
X031074Y003001D01*
X031090Y003034D01*
X031111Y003065D01*
X031134Y003094D01*
X031160Y003120D01*
X031189Y003143D01*
X031220Y003164D01*
X031253Y003180D01*
X031288Y003194D01*
X031323Y003203D01*
X031360Y003209D01*
X031397Y003211D01*
X031434Y003209D01*
X031471Y003203D01*
X031506Y003194D01*
X031541Y003180D01*
X031574Y003164D01*
X031605Y003143D01*
X031634Y003120D01*
X031660Y003094D01*
X031683Y003065D01*
X031704Y003034D01*
X031720Y003001D01*
X031734Y002966D01*
X031743Y002931D01*
X031749Y002894D01*
X031751Y002857D01*
X031749Y002820D01*
X031743Y002783D01*
X031734Y002748D01*
X031720Y002713D01*
X031704Y002680D01*
X031683Y002649D01*
X031660Y002620D01*
X031634Y002594D01*
X031605Y002571D01*
X031574Y002550D01*
X031541Y002534D01*
X031506Y002520D01*
X031471Y002511D01*
X031434Y002505D01*
X031397Y002503D01*
X031360Y002505D01*
X031323Y002511D01*
X031288Y002520D01*
X031253Y002534D01*
X031220Y002550D01*
X031189Y002571D01*
X031160Y002594D01*
X031134Y002620D01*
X031111Y002649D01*
X031090Y002680D01*
X031074Y002713D01*
X031060Y002748D01*
X031051Y002783D01*
X031045Y002820D01*
X031043Y002857D01*
X032381Y002857D02*
X033759Y000298D01*
X036908Y000298D01*
X038089Y002463D01*
X038089Y003250D01*
X036908Y005416D01*
X033759Y005416D01*
X032381Y002857D01*
X034310Y002857D02*
X034312Y002891D01*
X034318Y002925D01*
X034328Y002958D01*
X034341Y002989D01*
X034359Y003019D01*
X034379Y003047D01*
X034403Y003072D01*
X034429Y003094D01*
X034457Y003112D01*
X034488Y003128D01*
X034520Y003140D01*
X034554Y003148D01*
X034588Y003152D01*
X034622Y003152D01*
X034656Y003148D01*
X034690Y003140D01*
X034722Y003128D01*
X034752Y003112D01*
X034781Y003094D01*
X034807Y003072D01*
X034831Y003047D01*
X034851Y003019D01*
X034869Y002989D01*
X034882Y002958D01*
X034892Y002925D01*
X034898Y002891D01*
X034900Y002857D01*
X034898Y002823D01*
X034892Y002789D01*
X034882Y002756D01*
X034869Y002725D01*
X034851Y002695D01*
X034831Y002667D01*
X034807Y002642D01*
X034781Y002620D01*
X034753Y002602D01*
X034722Y002586D01*
X034690Y002574D01*
X034656Y002566D01*
X034622Y002562D01*
X034588Y002562D01*
X034554Y002566D01*
X034520Y002574D01*
X034488Y002586D01*
X034457Y002602D01*
X034429Y002620D01*
X034403Y002642D01*
X034379Y002667D01*
X034359Y002695D01*
X034341Y002725D01*
X034328Y002756D01*
X034318Y002789D01*
X034312Y002823D01*
X034310Y002857D01*
X034566Y003428D02*
X034568Y003462D01*
X034574Y003496D01*
X034584Y003529D01*
X034597Y003560D01*
X034615Y003590D01*
X034635Y003618D01*
X034659Y003643D01*
X034685Y003665D01*
X034713Y003683D01*
X034744Y003699D01*
X034776Y003711D01*
X034810Y003719D01*
X034844Y003723D01*
X034878Y003723D01*
X034912Y003719D01*
X034946Y003711D01*
X034978Y003699D01*
X035008Y003683D01*
X035037Y003665D01*
X035063Y003643D01*
X035087Y003618D01*
X035107Y003590D01*
X035125Y003560D01*
X035138Y003529D01*
X035148Y003496D01*
X035154Y003462D01*
X035156Y003428D01*
X035154Y003394D01*
X035148Y003360D01*
X035138Y003327D01*
X035125Y003296D01*
X035107Y003266D01*
X035087Y003238D01*
X035063Y003213D01*
X035037Y003191D01*
X035009Y003173D01*
X034978Y003157D01*
X034946Y003145D01*
X034912Y003137D01*
X034878Y003133D01*
X034844Y003133D01*
X034810Y003137D01*
X034776Y003145D01*
X034744Y003157D01*
X034713Y003173D01*
X034685Y003191D01*
X034659Y003213D01*
X034635Y003238D01*
X034615Y003266D01*
X034597Y003296D01*
X034584Y003327D01*
X034574Y003360D01*
X034568Y003394D01*
X034566Y003428D01*
X036121Y005120D02*
X036230Y005077D01*
X036336Y005028D01*
X036441Y004974D01*
X036542Y004915D01*
X036641Y004852D01*
X036736Y004783D01*
X036828Y004710D01*
X036916Y004633D01*
X037001Y004551D01*
X037081Y004466D01*
X037157Y004376D01*
X037229Y004283D01*
X037296Y004187D01*
X037358Y004087D01*
X037415Y003985D01*
X037468Y003880D01*
X037515Y003773D01*
X037557Y003663D01*
X037593Y003551D01*
X037624Y003438D01*
X037649Y003324D01*
X037669Y003208D01*
X037684Y003091D01*
X037692Y002974D01*
X037695Y002857D01*
X038208Y002345D02*
X038326Y002424D01*
X038365Y002266D01*
X038326Y002424D02*
X038208Y002109D01*
X038129Y002857D02*
X038131Y002894D01*
X038137Y002931D01*
X038146Y002966D01*
X038160Y003001D01*
X038176Y003034D01*
X038197Y003065D01*
X038220Y003094D01*
X038246Y003120D01*
X038275Y003143D01*
X038306Y003164D01*
X038339Y003180D01*
X038374Y003194D01*
X038409Y003203D01*
X038446Y003209D01*
X038483Y003211D01*
X038520Y003209D01*
X038557Y003203D01*
X038592Y003194D01*
X038627Y003180D01*
X038660Y003164D01*
X038691Y003143D01*
X038720Y003120D01*
X038746Y003094D01*
X038769Y003065D01*
X038790Y003034D01*
X038806Y003001D01*
X038820Y002966D01*
X038829Y002931D01*
X038835Y002894D01*
X038837Y002857D01*
X038835Y002820D01*
X038829Y002783D01*
X038820Y002748D01*
X038806Y002713D01*
X038790Y002680D01*
X038769Y002649D01*
X038746Y002620D01*
X038720Y002594D01*
X038691Y002571D01*
X038660Y002550D01*
X038627Y002534D01*
X038592Y002520D01*
X038557Y002511D01*
X038520Y002505D01*
X038483Y002503D01*
X038446Y002505D01*
X038409Y002511D01*
X038374Y002520D01*
X038339Y002534D01*
X038306Y002550D01*
X038275Y002571D01*
X038246Y002594D01*
X038220Y002620D01*
X038197Y002649D01*
X038176Y002680D01*
X038160Y002713D01*
X038146Y002748D01*
X038137Y002783D01*
X038131Y002820D01*
X038129Y002857D01*
X036495Y002994D02*
X036416Y002994D01*
X036416Y002995D02*
X036394Y002993D01*
X036373Y002988D01*
X036353Y002980D01*
X036335Y002969D01*
X036318Y002955D01*
X036304Y002938D01*
X036293Y002920D01*
X036285Y002900D01*
X036280Y002879D01*
X036278Y002857D01*
X036279Y002857D02*
X036281Y002834D01*
X036286Y002811D01*
X036295Y002789D01*
X036307Y002769D01*
X036322Y002751D01*
X036340Y002735D01*
X036360Y002723D01*
X036381Y002713D01*
X036404Y002707D01*
X036427Y002705D01*
X036450Y002706D01*
X036473Y002711D01*
X036495Y002719D01*
X035688Y002502D02*
X035690Y002536D01*
X035696Y002570D01*
X035706Y002603D01*
X035719Y002634D01*
X035737Y002664D01*
X035757Y002692D01*
X035781Y002717D01*
X035807Y002739D01*
X035835Y002757D01*
X035866Y002773D01*
X035898Y002785D01*
X035932Y002793D01*
X035966Y002797D01*
X036000Y002797D01*
X036034Y002793D01*
X036068Y002785D01*
X036100Y002773D01*
X036130Y002757D01*
X036159Y002739D01*
X036185Y002717D01*
X036209Y002692D01*
X036229Y002664D01*
X036247Y002634D01*
X036260Y002603D01*
X036270Y002570D01*
X036276Y002536D01*
X036278Y002502D01*
X036276Y002468D01*
X036270Y002434D01*
X036260Y002401D01*
X036247Y002370D01*
X036229Y002340D01*
X036209Y002312D01*
X036185Y002287D01*
X036159Y002265D01*
X036131Y002247D01*
X036100Y002231D01*
X036068Y002219D01*
X036034Y002211D01*
X036000Y002207D01*
X035966Y002207D01*
X035932Y002211D01*
X035898Y002219D01*
X035866Y002231D01*
X035835Y002247D01*
X035807Y002265D01*
X035781Y002287D01*
X035757Y002312D01*
X035737Y002340D01*
X035719Y002370D01*
X035706Y002401D01*
X035696Y002434D01*
X035690Y002468D01*
X035688Y002502D01*
X036495Y002719D02*
X036493Y002656D01*
X036487Y002593D01*
X036478Y002531D01*
X036465Y002469D01*
X036448Y002409D01*
X036427Y002349D01*
X036403Y002291D01*
X036376Y002234D01*
X036345Y002179D01*
X036310Y002127D01*
X036273Y002076D01*
X036233Y002027D01*
X036190Y001981D01*
X036144Y001938D01*
X036095Y001898D01*
X036044Y001861D01*
X035992Y001826D01*
X035937Y001795D01*
X035880Y001768D01*
X035822Y001744D01*
X035762Y001723D01*
X035702Y001706D01*
X035640Y001693D01*
X035578Y001684D01*
X035515Y001678D01*
X035452Y001676D01*
X035334Y001676D01*
X035176Y002128D02*
X035178Y002162D01*
X035184Y002196D01*
X035194Y002229D01*
X035207Y002260D01*
X035225Y002290D01*
X035245Y002318D01*
X035269Y002343D01*
X035295Y002365D01*
X035323Y002383D01*
X035354Y002399D01*
X035386Y002411D01*
X035420Y002419D01*
X035454Y002423D01*
X035488Y002423D01*
X035522Y002419D01*
X035556Y002411D01*
X035588Y002399D01*
X035618Y002383D01*
X035647Y002365D01*
X035673Y002343D01*
X035697Y002318D01*
X035717Y002290D01*
X035735Y002260D01*
X035748Y002229D01*
X035758Y002196D01*
X035764Y002162D01*
X035766Y002128D01*
X035764Y002094D01*
X035758Y002060D01*
X035748Y002027D01*
X035735Y001996D01*
X035717Y001966D01*
X035697Y001938D01*
X035673Y001913D01*
X035647Y001891D01*
X035619Y001873D01*
X035588Y001857D01*
X035556Y001845D01*
X035522Y001837D01*
X035488Y001833D01*
X035454Y001833D01*
X035420Y001837D01*
X035386Y001845D01*
X035354Y001857D01*
X035323Y001873D01*
X035295Y001891D01*
X035269Y001913D01*
X035245Y001938D01*
X035225Y001966D01*
X035207Y001996D01*
X035194Y002027D01*
X035184Y002060D01*
X035178Y002094D01*
X035176Y002128D01*
X034566Y002286D02*
X034568Y002320D01*
X034574Y002354D01*
X034584Y002387D01*
X034597Y002418D01*
X034615Y002448D01*
X034635Y002476D01*
X034659Y002501D01*
X034685Y002523D01*
X034713Y002541D01*
X034744Y002557D01*
X034776Y002569D01*
X034810Y002577D01*
X034844Y002581D01*
X034878Y002581D01*
X034912Y002577D01*
X034946Y002569D01*
X034978Y002557D01*
X035008Y002541D01*
X035037Y002523D01*
X035063Y002501D01*
X035087Y002476D01*
X035107Y002448D01*
X035125Y002418D01*
X035138Y002387D01*
X035148Y002354D01*
X035154Y002320D01*
X035156Y002286D01*
X035154Y002252D01*
X035148Y002218D01*
X035138Y002185D01*
X035125Y002154D01*
X035107Y002124D01*
X035087Y002096D01*
X035063Y002071D01*
X035037Y002049D01*
X035009Y002031D01*
X034978Y002015D01*
X034946Y002003D01*
X034912Y001995D01*
X034878Y001991D01*
X034844Y001991D01*
X034810Y001995D01*
X034776Y002003D01*
X034744Y002015D01*
X034713Y002031D01*
X034685Y002049D01*
X034659Y002071D01*
X034635Y002096D01*
X034615Y002124D01*
X034597Y002154D01*
X034584Y002185D01*
X034574Y002218D01*
X034568Y002252D01*
X034566Y002286D01*
X036121Y000594D02*
X036230Y000637D01*
X036336Y000686D01*
X036441Y000740D01*
X036542Y000799D01*
X036641Y000862D01*
X036736Y000931D01*
X036828Y001004D01*
X036916Y001081D01*
X037001Y001163D01*
X037081Y001248D01*
X037157Y001338D01*
X037229Y001431D01*
X037296Y001527D01*
X037358Y001627D01*
X037415Y001729D01*
X037468Y001834D01*
X037515Y001941D01*
X037557Y002051D01*
X037593Y002163D01*
X037624Y002276D01*
X037649Y002390D01*
X037669Y002506D01*
X037684Y002623D01*
X037692Y002740D01*
X037695Y002857D01*
X035688Y003211D02*
X035690Y003245D01*
X035696Y003279D01*
X035706Y003312D01*
X035719Y003343D01*
X035737Y003373D01*
X035757Y003401D01*
X035781Y003426D01*
X035807Y003448D01*
X035835Y003466D01*
X035866Y003482D01*
X035898Y003494D01*
X035932Y003502D01*
X035966Y003506D01*
X036000Y003506D01*
X036034Y003502D01*
X036068Y003494D01*
X036100Y003482D01*
X036130Y003466D01*
X036159Y003448D01*
X036185Y003426D01*
X036209Y003401D01*
X036229Y003373D01*
X036247Y003343D01*
X036260Y003312D01*
X036270Y003279D01*
X036276Y003245D01*
X036278Y003211D01*
X036276Y003177D01*
X036270Y003143D01*
X036260Y003110D01*
X036247Y003079D01*
X036229Y003049D01*
X036209Y003021D01*
X036185Y002996D01*
X036159Y002974D01*
X036131Y002956D01*
X036100Y002940D01*
X036068Y002928D01*
X036034Y002920D01*
X036000Y002916D01*
X035966Y002916D01*
X035932Y002920D01*
X035898Y002928D01*
X035866Y002940D01*
X035835Y002956D01*
X035807Y002974D01*
X035781Y002996D01*
X035757Y003021D01*
X035737Y003049D01*
X035719Y003079D01*
X035706Y003110D01*
X035696Y003143D01*
X035690Y003177D01*
X035688Y003211D01*
X036495Y002994D02*
X036493Y003057D01*
X036487Y003120D01*
X036478Y003182D01*
X036465Y003244D01*
X036448Y003304D01*
X036427Y003364D01*
X036403Y003422D01*
X036376Y003479D01*
X036345Y003534D01*
X036310Y003586D01*
X036273Y003637D01*
X036233Y003686D01*
X036190Y003732D01*
X036144Y003775D01*
X036095Y003815D01*
X036044Y003852D01*
X035992Y003887D01*
X035937Y003918D01*
X035880Y003945D01*
X035822Y003969D01*
X035762Y003990D01*
X035702Y004007D01*
X035640Y004020D01*
X035578Y004029D01*
X035515Y004035D01*
X035452Y004037D01*
X035452Y004038D02*
X035334Y004038D01*
X035176Y003585D02*
X035178Y003619D01*
X035184Y003653D01*
X035194Y003686D01*
X035207Y003717D01*
X035225Y003747D01*
X035245Y003775D01*
X035269Y003800D01*
X035295Y003822D01*
X035323Y003840D01*
X035354Y003856D01*
X035386Y003868D01*
X035420Y003876D01*
X035454Y003880D01*
X035488Y003880D01*
X035522Y003876D01*
X035556Y003868D01*
X035588Y003856D01*
X035618Y003840D01*
X035647Y003822D01*
X035673Y003800D01*
X035697Y003775D01*
X035717Y003747D01*
X035735Y003717D01*
X035748Y003686D01*
X035758Y003653D01*
X035764Y003619D01*
X035766Y003585D01*
X035764Y003551D01*
X035758Y003517D01*
X035748Y003484D01*
X035735Y003453D01*
X035717Y003423D01*
X035697Y003395D01*
X035673Y003370D01*
X035647Y003348D01*
X035619Y003330D01*
X035588Y003314D01*
X035556Y003302D01*
X035522Y003294D01*
X035488Y003290D01*
X035454Y003290D01*
X035420Y003294D01*
X035386Y003302D01*
X035354Y003314D01*
X035323Y003330D01*
X035295Y003348D01*
X035269Y003370D01*
X035245Y003395D01*
X035225Y003423D01*
X035207Y003453D01*
X035194Y003484D01*
X035184Y003517D01*
X035178Y003551D01*
X035176Y003585D01*
X035039Y002857D02*
X035041Y002891D01*
X035047Y002925D01*
X035057Y002958D01*
X035070Y002989D01*
X035088Y003019D01*
X035108Y003047D01*
X035132Y003072D01*
X035158Y003094D01*
X035186Y003112D01*
X035217Y003128D01*
X035249Y003140D01*
X035283Y003148D01*
X035317Y003152D01*
X035351Y003152D01*
X035385Y003148D01*
X035419Y003140D01*
X035451Y003128D01*
X035481Y003112D01*
X035510Y003094D01*
X035536Y003072D01*
X035560Y003047D01*
X035580Y003019D01*
X035598Y002989D01*
X035611Y002958D01*
X035621Y002925D01*
X035627Y002891D01*
X035629Y002857D01*
X035627Y002823D01*
X035621Y002789D01*
X035611Y002756D01*
X035598Y002725D01*
X035580Y002695D01*
X035560Y002667D01*
X035536Y002642D01*
X035510Y002620D01*
X035482Y002602D01*
X035451Y002586D01*
X035419Y002574D01*
X035385Y002566D01*
X035351Y002562D01*
X035317Y002562D01*
X035283Y002566D01*
X035249Y002574D01*
X035217Y002586D01*
X035186Y002602D01*
X035158Y002620D01*
X035132Y002642D01*
X035108Y002667D01*
X035088Y002695D01*
X035070Y002725D01*
X035057Y002756D01*
X035047Y002789D01*
X035041Y002823D01*
X035039Y002857D01*
X034153Y002857D02*
X034155Y002791D01*
X034160Y002725D01*
X034170Y002659D01*
X034183Y002594D01*
X034199Y002530D01*
X034219Y002467D01*
X034243Y002405D01*
X034270Y002345D01*
X034300Y002286D01*
X034334Y002229D01*
X034371Y002174D01*
X034411Y002121D01*
X034453Y002070D01*
X034499Y002022D01*
X034547Y001976D01*
X034598Y001934D01*
X034651Y001894D01*
X034706Y001857D01*
X034763Y001823D01*
X034822Y001793D01*
X034882Y001766D01*
X034944Y001742D01*
X035007Y001722D01*
X035071Y001706D01*
X035136Y001693D01*
X035202Y001683D01*
X035268Y001678D01*
X035334Y001676D01*
X036121Y000593D02*
X034546Y000593D01*
X034153Y002857D02*
X034155Y002923D01*
X034160Y002989D01*
X034170Y003055D01*
X034183Y003120D01*
X034199Y003184D01*
X034219Y003247D01*
X034243Y003309D01*
X034270Y003369D01*
X034300Y003428D01*
X034334Y003485D01*
X034371Y003540D01*
X034411Y003593D01*
X034453Y003644D01*
X034499Y003692D01*
X034547Y003738D01*
X034598Y003780D01*
X034651Y003820D01*
X034706Y003857D01*
X034763Y003891D01*
X034822Y003921D01*
X034882Y003948D01*
X034944Y003972D01*
X035007Y003992D01*
X035071Y004008D01*
X035136Y004021D01*
X035202Y004031D01*
X035268Y004036D01*
X035334Y004038D01*
X033759Y002857D02*
X033761Y002936D01*
X033767Y003015D01*
X033777Y003094D01*
X033791Y003172D01*
X033808Y003249D01*
X033830Y003325D01*
X033855Y003400D01*
X033885Y003473D01*
X033917Y003545D01*
X033954Y003616D01*
X033994Y003684D01*
X034037Y003750D01*
X034083Y003814D01*
X034133Y003876D01*
X034186Y003935D01*
X034241Y003991D01*
X034300Y004045D01*
X034361Y004095D01*
X034424Y004143D01*
X034490Y004187D01*
X034558Y004228D01*
X034628Y004265D01*
X034699Y004299D01*
X034773Y004329D01*
X034847Y004355D01*
X034923Y004377D01*
X035000Y004396D01*
X035078Y004411D01*
X035156Y004422D01*
X035235Y004429D01*
X035314Y004432D01*
X035393Y004431D01*
X035472Y004426D01*
X035551Y004417D01*
X035629Y004404D01*
X035706Y004387D01*
X035783Y004367D01*
X035858Y004342D01*
X035932Y004314D01*
X036005Y004282D01*
X036075Y004247D01*
X036144Y004208D01*
X036211Y004165D01*
X036276Y004119D01*
X036338Y004071D01*
X036398Y004019D01*
X036455Y003964D01*
X036509Y003906D01*
X036560Y003846D01*
X036608Y003783D01*
X036653Y003718D01*
X036695Y003650D01*
X036733Y003581D01*
X036767Y003510D01*
X036798Y003437D01*
X036826Y003362D01*
X036849Y003287D01*
X036869Y003210D01*
X036885Y003133D01*
X036897Y003054D01*
X036905Y002976D01*
X036909Y002897D01*
X036909Y002817D01*
X036905Y002738D01*
X036897Y002660D01*
X036885Y002581D01*
X036869Y002504D01*
X036849Y002427D01*
X036826Y002352D01*
X036798Y002277D01*
X036767Y002204D01*
X036733Y002133D01*
X036695Y002064D01*
X036653Y001996D01*
X036608Y001931D01*
X036560Y001868D01*
X036509Y001808D01*
X036455Y001750D01*
X036398Y001695D01*
X036338Y001643D01*
X036276Y001595D01*
X036211Y001549D01*
X036144Y001506D01*
X036075Y001467D01*
X036005Y001432D01*
X035932Y001400D01*
X035858Y001372D01*
X035783Y001347D01*
X035706Y001327D01*
X035629Y001310D01*
X035551Y001297D01*
X035472Y001288D01*
X035393Y001283D01*
X035314Y001282D01*
X035235Y001285D01*
X035156Y001292D01*
X035078Y001303D01*
X035000Y001318D01*
X034923Y001337D01*
X034847Y001359D01*
X034773Y001385D01*
X034699Y001415D01*
X034628Y001449D01*
X034558Y001486D01*
X034490Y001527D01*
X034424Y001571D01*
X034361Y001619D01*
X034300Y001669D01*
X034241Y001723D01*
X034186Y001779D01*
X034133Y001838D01*
X034083Y001900D01*
X034037Y001964D01*
X033994Y002030D01*
X033954Y002098D01*
X033917Y002169D01*
X033885Y002241D01*
X033855Y002314D01*
X033830Y002389D01*
X033808Y002465D01*
X033791Y002542D01*
X033777Y002620D01*
X033767Y002699D01*
X033761Y002778D01*
X033759Y002857D01*
X032972Y002857D02*
X032975Y002974D01*
X032983Y003091D01*
X032998Y003208D01*
X033018Y003324D01*
X033043Y003438D01*
X033074Y003551D01*
X033110Y003663D01*
X033152Y003773D01*
X033199Y003880D01*
X033252Y003985D01*
X033309Y004087D01*
X033371Y004187D01*
X033438Y004283D01*
X033510Y004376D01*
X033586Y004466D01*
X033666Y004551D01*
X033751Y004633D01*
X033839Y004710D01*
X033931Y004783D01*
X034026Y004852D01*
X034125Y004915D01*
X034226Y004974D01*
X034331Y005028D01*
X034437Y005077D01*
X034546Y005120D01*
X036121Y005120D01*
X032972Y002857D02*
X032975Y002740D01*
X032983Y002623D01*
X032998Y002506D01*
X033018Y002390D01*
X033043Y002276D01*
X033074Y002163D01*
X033110Y002051D01*
X033152Y001941D01*
X033199Y001834D01*
X033252Y001729D01*
X033309Y001627D01*
X033371Y001527D01*
X033438Y001431D01*
X033510Y001338D01*
X033586Y001248D01*
X033666Y001163D01*
X033751Y001081D01*
X033839Y001004D01*
X033931Y000931D01*
X034026Y000862D01*
X034125Y000799D01*
X034226Y000740D01*
X034331Y000686D01*
X034437Y000637D01*
X034546Y000594D01*
X029408Y002994D02*
X029330Y002994D01*
X029330Y002995D02*
X029308Y002993D01*
X029287Y002988D01*
X029267Y002980D01*
X029249Y002969D01*
X029232Y002955D01*
X029218Y002938D01*
X029207Y002920D01*
X029199Y002900D01*
X029194Y002879D01*
X029192Y002857D01*
X029194Y002834D01*
X029199Y002811D01*
X029208Y002789D01*
X029220Y002769D01*
X029235Y002751D01*
X029253Y002735D01*
X029273Y002723D01*
X029294Y002713D01*
X029317Y002707D01*
X029340Y002705D01*
X029363Y002706D01*
X029386Y002711D01*
X029408Y002719D01*
X028602Y002502D02*
X028604Y002536D01*
X028610Y002570D01*
X028620Y002603D01*
X028633Y002634D01*
X028651Y002664D01*
X028671Y002692D01*
X028695Y002717D01*
X028721Y002739D01*
X028749Y002757D01*
X028780Y002773D01*
X028812Y002785D01*
X028846Y002793D01*
X028880Y002797D01*
X028914Y002797D01*
X028948Y002793D01*
X028982Y002785D01*
X029014Y002773D01*
X029044Y002757D01*
X029073Y002739D01*
X029099Y002717D01*
X029123Y002692D01*
X029143Y002664D01*
X029161Y002634D01*
X029174Y002603D01*
X029184Y002570D01*
X029190Y002536D01*
X029192Y002502D01*
X029190Y002468D01*
X029184Y002434D01*
X029174Y002401D01*
X029161Y002370D01*
X029143Y002340D01*
X029123Y002312D01*
X029099Y002287D01*
X029073Y002265D01*
X029045Y002247D01*
X029014Y002231D01*
X028982Y002219D01*
X028948Y002211D01*
X028914Y002207D01*
X028880Y002207D01*
X028846Y002211D01*
X028812Y002219D01*
X028780Y002231D01*
X028749Y002247D01*
X028721Y002265D01*
X028695Y002287D01*
X028671Y002312D01*
X028651Y002340D01*
X028633Y002370D01*
X028620Y002401D01*
X028610Y002434D01*
X028604Y002468D01*
X028602Y002502D01*
X029408Y002719D02*
X029406Y002656D01*
X029400Y002593D01*
X029391Y002531D01*
X029378Y002469D01*
X029361Y002409D01*
X029340Y002349D01*
X029316Y002291D01*
X029289Y002234D01*
X029258Y002179D01*
X029223Y002127D01*
X029186Y002076D01*
X029146Y002027D01*
X029103Y001981D01*
X029057Y001938D01*
X029008Y001898D01*
X028957Y001861D01*
X028905Y001826D01*
X028850Y001795D01*
X028793Y001768D01*
X028735Y001744D01*
X028675Y001723D01*
X028615Y001706D01*
X028553Y001693D01*
X028491Y001684D01*
X028428Y001678D01*
X028365Y001676D01*
X028247Y001676D01*
X028090Y002128D02*
X028092Y002162D01*
X028098Y002196D01*
X028108Y002229D01*
X028121Y002260D01*
X028139Y002290D01*
X028159Y002318D01*
X028183Y002343D01*
X028209Y002365D01*
X028237Y002383D01*
X028268Y002399D01*
X028300Y002411D01*
X028334Y002419D01*
X028368Y002423D01*
X028402Y002423D01*
X028436Y002419D01*
X028470Y002411D01*
X028502Y002399D01*
X028532Y002383D01*
X028561Y002365D01*
X028587Y002343D01*
X028611Y002318D01*
X028631Y002290D01*
X028649Y002260D01*
X028662Y002229D01*
X028672Y002196D01*
X028678Y002162D01*
X028680Y002128D01*
X028678Y002094D01*
X028672Y002060D01*
X028662Y002027D01*
X028649Y001996D01*
X028631Y001966D01*
X028611Y001938D01*
X028587Y001913D01*
X028561Y001891D01*
X028533Y001873D01*
X028502Y001857D01*
X028470Y001845D01*
X028436Y001837D01*
X028402Y001833D01*
X028368Y001833D01*
X028334Y001837D01*
X028300Y001845D01*
X028268Y001857D01*
X028237Y001873D01*
X028209Y001891D01*
X028183Y001913D01*
X028159Y001938D01*
X028139Y001966D01*
X028121Y001996D01*
X028108Y002027D01*
X028098Y002060D01*
X028092Y002094D01*
X028090Y002128D01*
X027479Y002286D02*
X027481Y002320D01*
X027487Y002354D01*
X027497Y002387D01*
X027510Y002418D01*
X027528Y002448D01*
X027548Y002476D01*
X027572Y002501D01*
X027598Y002523D01*
X027626Y002541D01*
X027657Y002557D01*
X027689Y002569D01*
X027723Y002577D01*
X027757Y002581D01*
X027791Y002581D01*
X027825Y002577D01*
X027859Y002569D01*
X027891Y002557D01*
X027921Y002541D01*
X027950Y002523D01*
X027976Y002501D01*
X028000Y002476D01*
X028020Y002448D01*
X028038Y002418D01*
X028051Y002387D01*
X028061Y002354D01*
X028067Y002320D01*
X028069Y002286D01*
X028067Y002252D01*
X028061Y002218D01*
X028051Y002185D01*
X028038Y002154D01*
X028020Y002124D01*
X028000Y002096D01*
X027976Y002071D01*
X027950Y002049D01*
X027922Y002031D01*
X027891Y002015D01*
X027859Y002003D01*
X027825Y001995D01*
X027791Y001991D01*
X027757Y001991D01*
X027723Y001995D01*
X027689Y002003D01*
X027657Y002015D01*
X027626Y002031D01*
X027598Y002049D01*
X027572Y002071D01*
X027548Y002096D01*
X027528Y002124D01*
X027510Y002154D01*
X027497Y002185D01*
X027487Y002218D01*
X027481Y002252D01*
X027479Y002286D01*
X029035Y000594D02*
X029144Y000637D01*
X029250Y000686D01*
X029355Y000740D01*
X029456Y000799D01*
X029555Y000862D01*
X029650Y000931D01*
X029742Y001004D01*
X029830Y001081D01*
X029915Y001163D01*
X029995Y001248D01*
X030071Y001338D01*
X030143Y001431D01*
X030210Y001527D01*
X030272Y001627D01*
X030329Y001729D01*
X030382Y001834D01*
X030429Y001941D01*
X030471Y002051D01*
X030507Y002163D01*
X030538Y002276D01*
X030563Y002390D01*
X030583Y002506D01*
X030598Y002623D01*
X030606Y002740D01*
X030609Y002857D01*
X028602Y003211D02*
X028604Y003245D01*
X028610Y003279D01*
X028620Y003312D01*
X028633Y003343D01*
X028651Y003373D01*
X028671Y003401D01*
X028695Y003426D01*
X028721Y003448D01*
X028749Y003466D01*
X028780Y003482D01*
X028812Y003494D01*
X028846Y003502D01*
X028880Y003506D01*
X028914Y003506D01*
X028948Y003502D01*
X028982Y003494D01*
X029014Y003482D01*
X029044Y003466D01*
X029073Y003448D01*
X029099Y003426D01*
X029123Y003401D01*
X029143Y003373D01*
X029161Y003343D01*
X029174Y003312D01*
X029184Y003279D01*
X029190Y003245D01*
X029192Y003211D01*
X029190Y003177D01*
X029184Y003143D01*
X029174Y003110D01*
X029161Y003079D01*
X029143Y003049D01*
X029123Y003021D01*
X029099Y002996D01*
X029073Y002974D01*
X029045Y002956D01*
X029014Y002940D01*
X028982Y002928D01*
X028948Y002920D01*
X028914Y002916D01*
X028880Y002916D01*
X028846Y002920D01*
X028812Y002928D01*
X028780Y002940D01*
X028749Y002956D01*
X028721Y002974D01*
X028695Y002996D01*
X028671Y003021D01*
X028651Y003049D01*
X028633Y003079D01*
X028620Y003110D01*
X028610Y003143D01*
X028604Y003177D01*
X028602Y003211D01*
X029408Y002994D02*
X029406Y003057D01*
X029400Y003120D01*
X029391Y003182D01*
X029378Y003244D01*
X029361Y003304D01*
X029340Y003364D01*
X029316Y003422D01*
X029289Y003479D01*
X029258Y003534D01*
X029223Y003586D01*
X029186Y003637D01*
X029146Y003686D01*
X029103Y003732D01*
X029057Y003775D01*
X029008Y003815D01*
X028957Y003852D01*
X028905Y003887D01*
X028850Y003918D01*
X028793Y003945D01*
X028735Y003969D01*
X028675Y003990D01*
X028615Y004007D01*
X028553Y004020D01*
X028491Y004029D01*
X028428Y004035D01*
X028365Y004037D01*
X028365Y004038D02*
X028247Y004038D01*
X028090Y003585D02*
X028092Y003619D01*
X028098Y003653D01*
X028108Y003686D01*
X028121Y003717D01*
X028139Y003747D01*
X028159Y003775D01*
X028183Y003800D01*
X028209Y003822D01*
X028237Y003840D01*
X028268Y003856D01*
X028300Y003868D01*
X028334Y003876D01*
X028368Y003880D01*
X028402Y003880D01*
X028436Y003876D01*
X028470Y003868D01*
X028502Y003856D01*
X028532Y003840D01*
X028561Y003822D01*
X028587Y003800D01*
X028611Y003775D01*
X028631Y003747D01*
X028649Y003717D01*
X028662Y003686D01*
X028672Y003653D01*
X028678Y003619D01*
X028680Y003585D01*
X028678Y003551D01*
X028672Y003517D01*
X028662Y003484D01*
X028649Y003453D01*
X028631Y003423D01*
X028611Y003395D01*
X028587Y003370D01*
X028561Y003348D01*
X028533Y003330D01*
X028502Y003314D01*
X028470Y003302D01*
X028436Y003294D01*
X028402Y003290D01*
X028368Y003290D01*
X028334Y003294D01*
X028300Y003302D01*
X028268Y003314D01*
X028237Y003330D01*
X028209Y003348D01*
X028183Y003370D01*
X028159Y003395D01*
X028139Y003423D01*
X028121Y003453D01*
X028108Y003484D01*
X028098Y003517D01*
X028092Y003551D01*
X028090Y003585D01*
X027952Y002857D02*
X027954Y002891D01*
X027960Y002925D01*
X027970Y002958D01*
X027983Y002989D01*
X028001Y003019D01*
X028021Y003047D01*
X028045Y003072D01*
X028071Y003094D01*
X028099Y003112D01*
X028130Y003128D01*
X028162Y003140D01*
X028196Y003148D01*
X028230Y003152D01*
X028264Y003152D01*
X028298Y003148D01*
X028332Y003140D01*
X028364Y003128D01*
X028394Y003112D01*
X028423Y003094D01*
X028449Y003072D01*
X028473Y003047D01*
X028493Y003019D01*
X028511Y002989D01*
X028524Y002958D01*
X028534Y002925D01*
X028540Y002891D01*
X028542Y002857D01*
X028540Y002823D01*
X028534Y002789D01*
X028524Y002756D01*
X028511Y002725D01*
X028493Y002695D01*
X028473Y002667D01*
X028449Y002642D01*
X028423Y002620D01*
X028395Y002602D01*
X028364Y002586D01*
X028332Y002574D01*
X028298Y002566D01*
X028264Y002562D01*
X028230Y002562D01*
X028196Y002566D01*
X028162Y002574D01*
X028130Y002586D01*
X028099Y002602D01*
X028071Y002620D01*
X028045Y002642D01*
X028021Y002667D01*
X028001Y002695D01*
X027983Y002725D01*
X027970Y002756D01*
X027960Y002789D01*
X027954Y002823D01*
X027952Y002857D01*
X027066Y002857D02*
X027068Y002791D01*
X027073Y002725D01*
X027083Y002659D01*
X027096Y002594D01*
X027112Y002530D01*
X027132Y002467D01*
X027156Y002405D01*
X027183Y002345D01*
X027213Y002286D01*
X027247Y002229D01*
X027284Y002174D01*
X027324Y002121D01*
X027366Y002070D01*
X027412Y002022D01*
X027460Y001976D01*
X027511Y001934D01*
X027564Y001894D01*
X027619Y001857D01*
X027676Y001823D01*
X027735Y001793D01*
X027795Y001766D01*
X027857Y001742D01*
X027920Y001722D01*
X027984Y001706D01*
X028049Y001693D01*
X028115Y001683D01*
X028181Y001678D01*
X028247Y001676D01*
X029034Y000593D02*
X027460Y000593D01*
X027066Y002857D02*
X027068Y002923D01*
X027073Y002989D01*
X027083Y003055D01*
X027096Y003120D01*
X027112Y003184D01*
X027132Y003247D01*
X027156Y003309D01*
X027183Y003369D01*
X027213Y003428D01*
X027247Y003485D01*
X027284Y003540D01*
X027324Y003593D01*
X027366Y003644D01*
X027412Y003692D01*
X027460Y003738D01*
X027511Y003780D01*
X027564Y003820D01*
X027619Y003857D01*
X027676Y003891D01*
X027735Y003921D01*
X027795Y003948D01*
X027857Y003972D01*
X027920Y003992D01*
X027984Y004008D01*
X028049Y004021D01*
X028115Y004031D01*
X028181Y004036D01*
X028247Y004038D01*
X026672Y002857D02*
X026674Y002936D01*
X026680Y003015D01*
X026690Y003094D01*
X026704Y003172D01*
X026721Y003249D01*
X026743Y003325D01*
X026768Y003400D01*
X026798Y003473D01*
X026830Y003545D01*
X026867Y003616D01*
X026907Y003684D01*
X026950Y003750D01*
X026996Y003814D01*
X027046Y003876D01*
X027099Y003935D01*
X027154Y003991D01*
X027213Y004045D01*
X027274Y004095D01*
X027337Y004143D01*
X027403Y004187D01*
X027471Y004228D01*
X027541Y004265D01*
X027612Y004299D01*
X027686Y004329D01*
X027760Y004355D01*
X027836Y004377D01*
X027913Y004396D01*
X027991Y004411D01*
X028069Y004422D01*
X028148Y004429D01*
X028227Y004432D01*
X028306Y004431D01*
X028385Y004426D01*
X028464Y004417D01*
X028542Y004404D01*
X028619Y004387D01*
X028696Y004367D01*
X028771Y004342D01*
X028845Y004314D01*
X028918Y004282D01*
X028988Y004247D01*
X029057Y004208D01*
X029124Y004165D01*
X029189Y004119D01*
X029251Y004071D01*
X029311Y004019D01*
X029368Y003964D01*
X029422Y003906D01*
X029473Y003846D01*
X029521Y003783D01*
X029566Y003718D01*
X029608Y003650D01*
X029646Y003581D01*
X029680Y003510D01*
X029711Y003437D01*
X029739Y003362D01*
X029762Y003287D01*
X029782Y003210D01*
X029798Y003133D01*
X029810Y003054D01*
X029818Y002976D01*
X029822Y002897D01*
X029822Y002817D01*
X029818Y002738D01*
X029810Y002660D01*
X029798Y002581D01*
X029782Y002504D01*
X029762Y002427D01*
X029739Y002352D01*
X029711Y002277D01*
X029680Y002204D01*
X029646Y002133D01*
X029608Y002064D01*
X029566Y001996D01*
X029521Y001931D01*
X029473Y001868D01*
X029422Y001808D01*
X029368Y001750D01*
X029311Y001695D01*
X029251Y001643D01*
X029189Y001595D01*
X029124Y001549D01*
X029057Y001506D01*
X028988Y001467D01*
X028918Y001432D01*
X028845Y001400D01*
X028771Y001372D01*
X028696Y001347D01*
X028619Y001327D01*
X028542Y001310D01*
X028464Y001297D01*
X028385Y001288D01*
X028306Y001283D01*
X028227Y001282D01*
X028148Y001285D01*
X028069Y001292D01*
X027991Y001303D01*
X027913Y001318D01*
X027836Y001337D01*
X027760Y001359D01*
X027686Y001385D01*
X027612Y001415D01*
X027541Y001449D01*
X027471Y001486D01*
X027403Y001527D01*
X027337Y001571D01*
X027274Y001619D01*
X027213Y001669D01*
X027154Y001723D01*
X027099Y001779D01*
X027046Y001838D01*
X026996Y001900D01*
X026950Y001964D01*
X026907Y002030D01*
X026867Y002098D01*
X026830Y002169D01*
X026798Y002241D01*
X026768Y002314D01*
X026743Y002389D01*
X026721Y002465D01*
X026704Y002542D01*
X026690Y002620D01*
X026680Y002699D01*
X026674Y002778D01*
X026672Y002857D01*
X025885Y002857D02*
X025888Y002974D01*
X025896Y003091D01*
X025911Y003208D01*
X025931Y003324D01*
X025956Y003438D01*
X025987Y003551D01*
X026023Y003663D01*
X026065Y003773D01*
X026112Y003880D01*
X026165Y003985D01*
X026222Y004087D01*
X026284Y004187D01*
X026351Y004283D01*
X026423Y004376D01*
X026499Y004466D01*
X026579Y004551D01*
X026664Y004633D01*
X026752Y004710D01*
X026844Y004783D01*
X026939Y004852D01*
X027038Y004915D01*
X027139Y004974D01*
X027244Y005028D01*
X027350Y005077D01*
X027459Y005120D01*
X027460Y005120D02*
X029034Y005120D01*
X025885Y002857D02*
X025888Y002740D01*
X025896Y002623D01*
X025911Y002506D01*
X025931Y002390D01*
X025956Y002276D01*
X025987Y002163D01*
X026023Y002051D01*
X026065Y001941D01*
X026112Y001834D01*
X026165Y001729D01*
X026222Y001627D01*
X026284Y001527D01*
X026351Y001431D01*
X026423Y001338D01*
X026499Y001248D01*
X026579Y001163D01*
X026664Y001081D01*
X026752Y001004D01*
X026844Y000931D01*
X026939Y000862D01*
X027038Y000799D01*
X027139Y000740D01*
X027244Y000686D01*
X027350Y000637D01*
X027459Y000594D01*
X022322Y002994D02*
X022243Y002994D01*
X022243Y002995D02*
X022221Y002993D01*
X022200Y002988D01*
X022180Y002980D01*
X022162Y002969D01*
X022145Y002955D01*
X022131Y002938D01*
X022120Y002920D01*
X022112Y002900D01*
X022107Y002879D01*
X022105Y002857D01*
X022107Y002834D01*
X022112Y002811D01*
X022121Y002789D01*
X022133Y002769D01*
X022148Y002751D01*
X022166Y002735D01*
X022186Y002723D01*
X022207Y002713D01*
X022230Y002707D01*
X022253Y002705D01*
X022276Y002706D01*
X022299Y002711D01*
X022321Y002719D01*
X021515Y002502D02*
X021517Y002536D01*
X021523Y002570D01*
X021533Y002603D01*
X021546Y002634D01*
X021564Y002664D01*
X021584Y002692D01*
X021608Y002717D01*
X021634Y002739D01*
X021662Y002757D01*
X021693Y002773D01*
X021725Y002785D01*
X021759Y002793D01*
X021793Y002797D01*
X021827Y002797D01*
X021861Y002793D01*
X021895Y002785D01*
X021927Y002773D01*
X021957Y002757D01*
X021986Y002739D01*
X022012Y002717D01*
X022036Y002692D01*
X022056Y002664D01*
X022074Y002634D01*
X022087Y002603D01*
X022097Y002570D01*
X022103Y002536D01*
X022105Y002502D01*
X022103Y002468D01*
X022097Y002434D01*
X022087Y002401D01*
X022074Y002370D01*
X022056Y002340D01*
X022036Y002312D01*
X022012Y002287D01*
X021986Y002265D01*
X021958Y002247D01*
X021927Y002231D01*
X021895Y002219D01*
X021861Y002211D01*
X021827Y002207D01*
X021793Y002207D01*
X021759Y002211D01*
X021725Y002219D01*
X021693Y002231D01*
X021662Y002247D01*
X021634Y002265D01*
X021608Y002287D01*
X021584Y002312D01*
X021564Y002340D01*
X021546Y002370D01*
X021533Y002401D01*
X021523Y002434D01*
X021517Y002468D01*
X021515Y002502D01*
X022321Y002719D02*
X022319Y002656D01*
X022313Y002593D01*
X022304Y002531D01*
X022291Y002469D01*
X022274Y002409D01*
X022253Y002349D01*
X022229Y002291D01*
X022202Y002234D01*
X022171Y002179D01*
X022136Y002127D01*
X022099Y002076D01*
X022059Y002027D01*
X022016Y001981D01*
X021970Y001938D01*
X021921Y001898D01*
X021870Y001861D01*
X021818Y001826D01*
X021763Y001795D01*
X021706Y001768D01*
X021648Y001744D01*
X021588Y001723D01*
X021528Y001706D01*
X021466Y001693D01*
X021404Y001684D01*
X021341Y001678D01*
X021278Y001676D01*
X021160Y001676D01*
X021003Y002128D02*
X021005Y002162D01*
X021011Y002196D01*
X021021Y002229D01*
X021034Y002260D01*
X021052Y002290D01*
X021072Y002318D01*
X021096Y002343D01*
X021122Y002365D01*
X021150Y002383D01*
X021181Y002399D01*
X021213Y002411D01*
X021247Y002419D01*
X021281Y002423D01*
X021315Y002423D01*
X021349Y002419D01*
X021383Y002411D01*
X021415Y002399D01*
X021445Y002383D01*
X021474Y002365D01*
X021500Y002343D01*
X021524Y002318D01*
X021544Y002290D01*
X021562Y002260D01*
X021575Y002229D01*
X021585Y002196D01*
X021591Y002162D01*
X021593Y002128D01*
X021591Y002094D01*
X021585Y002060D01*
X021575Y002027D01*
X021562Y001996D01*
X021544Y001966D01*
X021524Y001938D01*
X021500Y001913D01*
X021474Y001891D01*
X021446Y001873D01*
X021415Y001857D01*
X021383Y001845D01*
X021349Y001837D01*
X021315Y001833D01*
X021281Y001833D01*
X021247Y001837D01*
X021213Y001845D01*
X021181Y001857D01*
X021150Y001873D01*
X021122Y001891D01*
X021096Y001913D01*
X021072Y001938D01*
X021052Y001966D01*
X021034Y001996D01*
X021021Y002027D01*
X021011Y002060D01*
X021005Y002094D01*
X021003Y002128D01*
X020393Y002286D02*
X020395Y002320D01*
X020401Y002354D01*
X020411Y002387D01*
X020424Y002418D01*
X020442Y002448D01*
X020462Y002476D01*
X020486Y002501D01*
X020512Y002523D01*
X020540Y002541D01*
X020571Y002557D01*
X020603Y002569D01*
X020637Y002577D01*
X020671Y002581D01*
X020705Y002581D01*
X020739Y002577D01*
X020773Y002569D01*
X020805Y002557D01*
X020835Y002541D01*
X020864Y002523D01*
X020890Y002501D01*
X020914Y002476D01*
X020934Y002448D01*
X020952Y002418D01*
X020965Y002387D01*
X020975Y002354D01*
X020981Y002320D01*
X020983Y002286D01*
X020981Y002252D01*
X020975Y002218D01*
X020965Y002185D01*
X020952Y002154D01*
X020934Y002124D01*
X020914Y002096D01*
X020890Y002071D01*
X020864Y002049D01*
X020836Y002031D01*
X020805Y002015D01*
X020773Y002003D01*
X020739Y001995D01*
X020705Y001991D01*
X020671Y001991D01*
X020637Y001995D01*
X020603Y002003D01*
X020571Y002015D01*
X020540Y002031D01*
X020512Y002049D01*
X020486Y002071D01*
X020462Y002096D01*
X020442Y002124D01*
X020424Y002154D01*
X020411Y002185D01*
X020401Y002218D01*
X020395Y002252D01*
X020393Y002286D01*
X021948Y000594D02*
X022057Y000637D01*
X022163Y000686D01*
X022268Y000740D01*
X022369Y000799D01*
X022468Y000862D01*
X022563Y000931D01*
X022655Y001004D01*
X022743Y001081D01*
X022828Y001163D01*
X022908Y001248D01*
X022984Y001338D01*
X023056Y001431D01*
X023123Y001527D01*
X023185Y001627D01*
X023242Y001729D01*
X023295Y001834D01*
X023342Y001941D01*
X023384Y002051D01*
X023420Y002163D01*
X023451Y002276D01*
X023476Y002390D01*
X023496Y002506D01*
X023511Y002623D01*
X023519Y002740D01*
X023522Y002857D01*
X021515Y003211D02*
X021517Y003245D01*
X021523Y003279D01*
X021533Y003312D01*
X021546Y003343D01*
X021564Y003373D01*
X021584Y003401D01*
X021608Y003426D01*
X021634Y003448D01*
X021662Y003466D01*
X021693Y003482D01*
X021725Y003494D01*
X021759Y003502D01*
X021793Y003506D01*
X021827Y003506D01*
X021861Y003502D01*
X021895Y003494D01*
X021927Y003482D01*
X021957Y003466D01*
X021986Y003448D01*
X022012Y003426D01*
X022036Y003401D01*
X022056Y003373D01*
X022074Y003343D01*
X022087Y003312D01*
X022097Y003279D01*
X022103Y003245D01*
X022105Y003211D01*
X022103Y003177D01*
X022097Y003143D01*
X022087Y003110D01*
X022074Y003079D01*
X022056Y003049D01*
X022036Y003021D01*
X022012Y002996D01*
X021986Y002974D01*
X021958Y002956D01*
X021927Y002940D01*
X021895Y002928D01*
X021861Y002920D01*
X021827Y002916D01*
X021793Y002916D01*
X021759Y002920D01*
X021725Y002928D01*
X021693Y002940D01*
X021662Y002956D01*
X021634Y002974D01*
X021608Y002996D01*
X021584Y003021D01*
X021564Y003049D01*
X021546Y003079D01*
X021533Y003110D01*
X021523Y003143D01*
X021517Y003177D01*
X021515Y003211D01*
X022321Y002994D02*
X022319Y003057D01*
X022313Y003120D01*
X022304Y003182D01*
X022291Y003244D01*
X022274Y003304D01*
X022253Y003364D01*
X022229Y003422D01*
X022202Y003479D01*
X022171Y003534D01*
X022136Y003586D01*
X022099Y003637D01*
X022059Y003686D01*
X022016Y003732D01*
X021970Y003775D01*
X021921Y003815D01*
X021870Y003852D01*
X021818Y003887D01*
X021763Y003918D01*
X021706Y003945D01*
X021648Y003969D01*
X021588Y003990D01*
X021528Y004007D01*
X021466Y004020D01*
X021404Y004029D01*
X021341Y004035D01*
X021278Y004037D01*
X020373Y005120D02*
X020264Y005077D01*
X020158Y005028D01*
X020053Y004974D01*
X019952Y004915D01*
X019853Y004852D01*
X019758Y004783D01*
X019666Y004710D01*
X019578Y004633D01*
X019493Y004551D01*
X019413Y004466D01*
X019337Y004376D01*
X019265Y004283D01*
X019198Y004187D01*
X019136Y004087D01*
X019079Y003985D01*
X019026Y003880D01*
X018979Y003773D01*
X018937Y003663D01*
X018901Y003551D01*
X018870Y003438D01*
X018845Y003324D01*
X018825Y003208D01*
X018810Y003091D01*
X018802Y002974D01*
X018799Y002857D01*
X020865Y002857D02*
X020867Y002891D01*
X020873Y002925D01*
X020883Y002958D01*
X020896Y002989D01*
X020914Y003019D01*
X020934Y003047D01*
X020958Y003072D01*
X020984Y003094D01*
X021012Y003112D01*
X021043Y003128D01*
X021075Y003140D01*
X021109Y003148D01*
X021143Y003152D01*
X021177Y003152D01*
X021211Y003148D01*
X021245Y003140D01*
X021277Y003128D01*
X021307Y003112D01*
X021336Y003094D01*
X021362Y003072D01*
X021386Y003047D01*
X021406Y003019D01*
X021424Y002989D01*
X021437Y002958D01*
X021447Y002925D01*
X021453Y002891D01*
X021455Y002857D01*
X021453Y002823D01*
X021447Y002789D01*
X021437Y002756D01*
X021424Y002725D01*
X021406Y002695D01*
X021386Y002667D01*
X021362Y002642D01*
X021336Y002620D01*
X021308Y002602D01*
X021277Y002586D01*
X021245Y002574D01*
X021211Y002566D01*
X021177Y002562D01*
X021143Y002562D01*
X021109Y002566D01*
X021075Y002574D01*
X021043Y002586D01*
X021012Y002602D01*
X020984Y002620D01*
X020958Y002642D01*
X020934Y002667D01*
X020914Y002695D01*
X020896Y002725D01*
X020883Y002756D01*
X020873Y002789D01*
X020867Y002823D01*
X020865Y002857D01*
X019979Y002857D02*
X019981Y002791D01*
X019986Y002725D01*
X019996Y002659D01*
X020009Y002594D01*
X020025Y002530D01*
X020045Y002467D01*
X020069Y002405D01*
X020096Y002345D01*
X020126Y002286D01*
X020160Y002229D01*
X020197Y002174D01*
X020237Y002121D01*
X020279Y002070D01*
X020325Y002022D01*
X020373Y001976D01*
X020424Y001934D01*
X020477Y001894D01*
X020532Y001857D01*
X020589Y001823D01*
X020648Y001793D01*
X020708Y001766D01*
X020770Y001742D01*
X020833Y001722D01*
X020897Y001706D01*
X020962Y001693D01*
X021028Y001683D01*
X021094Y001678D01*
X021160Y001676D01*
X020373Y000593D02*
X021948Y000593D01*
X020373Y000594D02*
X020264Y000637D01*
X020158Y000686D01*
X020053Y000740D01*
X019952Y000799D01*
X019853Y000862D01*
X019758Y000931D01*
X019666Y001004D01*
X019578Y001081D01*
X019493Y001163D01*
X019413Y001248D01*
X019337Y001338D01*
X019265Y001431D01*
X019198Y001527D01*
X019136Y001627D01*
X019079Y001729D01*
X019026Y001834D01*
X018979Y001941D01*
X018937Y002051D01*
X018901Y002163D01*
X018870Y002276D01*
X018845Y002390D01*
X018825Y002506D01*
X018810Y002623D01*
X018802Y002740D01*
X018799Y002857D01*
X019979Y002857D02*
X019981Y002923D01*
X019986Y002989D01*
X019996Y003055D01*
X020009Y003120D01*
X020025Y003184D01*
X020045Y003247D01*
X020069Y003309D01*
X020096Y003369D01*
X020126Y003428D01*
X020160Y003485D01*
X020197Y003540D01*
X020237Y003593D01*
X020279Y003644D01*
X020325Y003692D01*
X020373Y003738D01*
X020424Y003780D01*
X020477Y003820D01*
X020532Y003857D01*
X020589Y003891D01*
X020648Y003921D01*
X020708Y003948D01*
X020770Y003972D01*
X020833Y003992D01*
X020897Y004008D01*
X020962Y004021D01*
X021028Y004031D01*
X021094Y004036D01*
X021160Y004038D01*
X019585Y002857D02*
X019587Y002936D01*
X019593Y003015D01*
X019603Y003094D01*
X019617Y003172D01*
X019634Y003249D01*
X019656Y003325D01*
X019681Y003400D01*
X019711Y003473D01*
X019743Y003545D01*
X019780Y003616D01*
X019820Y003684D01*
X019863Y003750D01*
X019909Y003814D01*
X019959Y003876D01*
X020012Y003935D01*
X020067Y003991D01*
X020126Y004045D01*
X020187Y004095D01*
X020250Y004143D01*
X020316Y004187D01*
X020384Y004228D01*
X020454Y004265D01*
X020525Y004299D01*
X020599Y004329D01*
X020673Y004355D01*
X020749Y004377D01*
X020826Y004396D01*
X020904Y004411D01*
X020982Y004422D01*
X021061Y004429D01*
X021140Y004432D01*
X021219Y004431D01*
X021298Y004426D01*
X021377Y004417D01*
X021455Y004404D01*
X021532Y004387D01*
X021609Y004367D01*
X021684Y004342D01*
X021758Y004314D01*
X021831Y004282D01*
X021901Y004247D01*
X021970Y004208D01*
X022037Y004165D01*
X022102Y004119D01*
X022164Y004071D01*
X022224Y004019D01*
X022281Y003964D01*
X022335Y003906D01*
X022386Y003846D01*
X022434Y003783D01*
X022479Y003718D01*
X022521Y003650D01*
X022559Y003581D01*
X022593Y003510D01*
X022624Y003437D01*
X022652Y003362D01*
X022675Y003287D01*
X022695Y003210D01*
X022711Y003133D01*
X022723Y003054D01*
X022731Y002976D01*
X022735Y002897D01*
X022735Y002817D01*
X022731Y002738D01*
X022723Y002660D01*
X022711Y002581D01*
X022695Y002504D01*
X022675Y002427D01*
X022652Y002352D01*
X022624Y002277D01*
X022593Y002204D01*
X022559Y002133D01*
X022521Y002064D01*
X022479Y001996D01*
X022434Y001931D01*
X022386Y001868D01*
X022335Y001808D01*
X022281Y001750D01*
X022224Y001695D01*
X022164Y001643D01*
X022102Y001595D01*
X022037Y001549D01*
X021970Y001506D01*
X021901Y001467D01*
X021831Y001432D01*
X021758Y001400D01*
X021684Y001372D01*
X021609Y001347D01*
X021532Y001327D01*
X021455Y001310D01*
X021377Y001297D01*
X021298Y001288D01*
X021219Y001283D01*
X021140Y001282D01*
X021061Y001285D01*
X020982Y001292D01*
X020904Y001303D01*
X020826Y001318D01*
X020749Y001337D01*
X020673Y001359D01*
X020599Y001385D01*
X020525Y001415D01*
X020454Y001449D01*
X020384Y001486D01*
X020316Y001527D01*
X020250Y001571D01*
X020187Y001619D01*
X020126Y001669D01*
X020067Y001723D01*
X020012Y001779D01*
X019959Y001838D01*
X019909Y001900D01*
X019863Y001964D01*
X019820Y002030D01*
X019780Y002098D01*
X019743Y002169D01*
X019711Y002241D01*
X019681Y002314D01*
X019656Y002389D01*
X019634Y002465D01*
X019617Y002542D01*
X019603Y002620D01*
X019593Y002699D01*
X019587Y002778D01*
X019585Y002857D01*
D13*
X023347Y001044D02*
X023360Y000994D01*
X023392Y000975D01*
X023442Y000989D01*
X023479Y001052D01*
X023529Y001066D01*
X023560Y001047D01*
X023574Y000997D01*
X023537Y000934D01*
X023487Y000920D01*
X023347Y001044D02*
X023383Y001107D01*
X023433Y001121D01*
X023439Y001203D02*
X023629Y001093D01*
X023534Y001148D02*
X023607Y001275D01*
X023512Y001330D02*
X023703Y001220D01*
X023740Y001285D02*
X023776Y001348D01*
X023758Y001316D02*
X023567Y001426D01*
X023549Y001395D02*
X023586Y001458D01*
X023623Y001522D02*
X023813Y001412D01*
X023887Y001539D01*
X023924Y001604D02*
X023997Y001731D01*
X024034Y001795D02*
X023844Y001905D01*
X023899Y002000D01*
X023949Y002014D01*
X024076Y001940D01*
X024089Y001890D01*
X024034Y001795D01*
X023924Y001604D02*
X023733Y001714D01*
X023696Y001649D02*
X023623Y001522D01*
X023718Y001467D02*
X023755Y001531D01*
X030433Y001044D02*
X030447Y000994D01*
X030478Y000975D01*
X030528Y000989D01*
X030565Y001052D01*
X030615Y001066D01*
X030647Y001047D01*
X030661Y000997D01*
X030624Y000934D01*
X030574Y000920D01*
X030433Y001044D02*
X030470Y001107D01*
X030520Y001121D01*
X030525Y001203D02*
X030716Y001093D01*
X030621Y001148D02*
X030694Y001275D01*
X030599Y001330D02*
X030789Y001220D01*
X030826Y001285D02*
X030863Y001348D01*
X030845Y001316D02*
X030654Y001426D01*
X030636Y001395D02*
X030672Y001458D01*
X030709Y001522D02*
X030900Y001412D01*
X030973Y001539D01*
X031011Y001604D02*
X031084Y001731D01*
X031121Y001795D02*
X030930Y001905D01*
X030985Y002000D01*
X031036Y002014D01*
X031163Y001940D01*
X031176Y001890D01*
X031121Y001795D01*
X031011Y001604D02*
X030820Y001714D01*
X030783Y001649D02*
X030709Y001522D01*
X030805Y001467D02*
X030841Y001531D01*
X037520Y001044D02*
X037533Y000994D01*
X037565Y000975D01*
X037615Y000989D01*
X037652Y001052D01*
X037702Y001066D01*
X037734Y001047D01*
X037747Y000997D01*
X037710Y000934D01*
X037660Y000920D01*
X037520Y001044D02*
X037556Y001107D01*
X037607Y001121D01*
X037612Y001203D02*
X037803Y001093D01*
X037707Y001148D02*
X037781Y001275D01*
X037876Y001220D02*
X037685Y001330D01*
X037722Y001395D02*
X037759Y001458D01*
X037741Y001426D02*
X037931Y001316D01*
X037913Y001285D02*
X037950Y001348D01*
X037987Y001412D02*
X038060Y001539D01*
X038097Y001604D02*
X038171Y001731D01*
X038208Y001795D02*
X038017Y001905D01*
X038072Y002000D01*
X038122Y002014D01*
X038249Y001940D01*
X038263Y001890D01*
X038208Y001795D01*
X038097Y001604D02*
X037906Y001714D01*
X037869Y001649D02*
X037796Y001522D01*
X037987Y001412D01*
X037891Y001467D02*
X037928Y001531D01*
D14*
X038481Y007350D03*
X038481Y007810D03*
X037300Y007810D03*
X037300Y007350D03*
X036123Y007353D03*
X036123Y007813D03*
X028245Y007810D03*
X028245Y007350D03*
X027064Y007350D03*
X027064Y007810D03*
X025887Y007813D03*
X025887Y007353D03*
X024702Y007350D03*
X024702Y007810D03*
X023521Y007810D03*
X023520Y007350D03*
X022339Y007350D03*
X022339Y007810D03*
X021158Y007810D03*
X021158Y007350D03*
X019977Y007350D03*
X019977Y007810D03*
X018796Y007810D03*
X018796Y007350D03*
D15*
X018963Y007441D02*
X018963Y007721D01*
X018628Y007721D02*
X018628Y007441D01*
X019809Y007441D02*
X019809Y007721D01*
X020144Y007721D02*
X020144Y007441D01*
X020990Y007441D02*
X020990Y007721D01*
X021325Y007721D02*
X021325Y007441D01*
X022171Y007441D02*
X022171Y007721D01*
X022506Y007721D02*
X022506Y007441D01*
X023352Y007441D02*
X023352Y007721D01*
X023687Y007721D02*
X023687Y007441D01*
X024534Y007441D02*
X024534Y007721D01*
X024869Y007721D02*
X024869Y007441D01*
X025720Y007441D02*
X025720Y007721D01*
X026055Y007721D02*
X026055Y007441D01*
X026896Y007441D02*
X026896Y007721D01*
X027231Y007721D02*
X027231Y007441D01*
X028077Y007441D02*
X028077Y007721D01*
X028412Y007721D02*
X028412Y007441D01*
X035956Y007441D02*
X035956Y007721D01*
X036291Y007721D02*
X036291Y007441D01*
X037132Y007441D02*
X037132Y007721D01*
X037467Y007721D02*
X037467Y007441D01*
X038313Y007441D02*
X038313Y007721D01*
X038648Y007721D02*
X038648Y007441D01*
D16*
X028259Y007581D02*
X028235Y007581D01*
D17*
X025885Y007581D03*
X024704Y007581D03*
X023523Y007581D03*
X022341Y007581D03*
X021160Y007581D03*
X019979Y007581D03*
X018798Y007581D03*
X036121Y007581D03*
X037302Y007581D03*
X038483Y007581D03*
M02*
