G75*
G70*
%OFA0B0*%
%FSLAX24Y24*%
%IPPOS*%
%LPD*%
%AMOC8*
5,1,8,0,0,1.08239X$1,22.5*
%
%ADD10C,0.0030*%
%ADD11C,0.0010*%
%ADD12C,0.0050*%
%ADD13C,0.0020*%
%ADD14R,0.0374X0.0197*%
%ADD15C,0.0040*%
%ADD16C,0.0220*%
%ADD17R,0.0300X0.0180*%
D10*
X011177Y002494D02*
X011498Y002679D01*
X011560Y002573D02*
X011436Y002786D01*
X011346Y002449D02*
X011177Y002494D01*
X011361Y002175D02*
X011682Y002360D01*
X011744Y002254D02*
X011620Y002467D01*
X011530Y002130D02*
X011361Y002175D01*
X011515Y001910D02*
X011768Y001842D01*
X011644Y002056D01*
X011835Y002095D02*
X011515Y001910D01*
X011828Y001737D02*
X011952Y001523D01*
X012173Y001511D02*
X011976Y001112D01*
X011852Y001325D02*
X012296Y001297D01*
X018264Y002494D02*
X018585Y002679D01*
X018646Y002573D02*
X018523Y002786D01*
X018432Y002449D02*
X018264Y002494D01*
X018440Y002313D02*
X018777Y002223D01*
X018800Y002307D01*
X018738Y002414D01*
X018654Y002437D01*
X018440Y002313D01*
X018417Y002229D01*
X018479Y002122D01*
X018563Y002099D01*
X018777Y002223D01*
X018731Y002056D02*
X018854Y001842D01*
X018601Y001910D01*
X018922Y002095D01*
X018915Y001737D02*
X019038Y001523D01*
X018939Y001325D02*
X019383Y001297D01*
X019260Y001511D02*
X019062Y001112D01*
X025320Y002548D02*
X025381Y002441D01*
X025466Y002418D01*
X025526Y002313D02*
X025864Y002223D01*
X025886Y002307D01*
X025824Y002414D01*
X025740Y002437D01*
X025526Y002313D01*
X025504Y002229D01*
X025565Y002122D01*
X025650Y002099D01*
X025864Y002223D01*
X025817Y002056D02*
X025941Y001842D01*
X025688Y001910D01*
X026009Y002095D01*
X025733Y002573D02*
X025396Y002663D01*
X025342Y002632D01*
X025320Y002548D01*
X025609Y002786D02*
X025733Y002573D01*
X026002Y001737D02*
X026125Y001523D01*
X026025Y001325D02*
X026470Y001297D01*
X026346Y001511D02*
X026149Y001112D01*
X032406Y002548D02*
X032429Y002632D01*
X032482Y002663D01*
X032567Y002640D01*
X032589Y002725D01*
X032643Y002755D01*
X032727Y002733D01*
X032789Y002626D01*
X032766Y002542D01*
X032827Y002437D02*
X032911Y002414D01*
X032973Y002307D01*
X032950Y002223D01*
X032613Y002313D01*
X032827Y002437D01*
X032950Y002223D02*
X032736Y002099D01*
X032652Y002122D01*
X032590Y002229D01*
X032613Y002313D01*
X032552Y002418D02*
X032468Y002441D01*
X032406Y002548D01*
X032567Y002640D02*
X032597Y002587D01*
X033095Y002095D02*
X032775Y001910D01*
X033027Y001842D01*
X032904Y002056D01*
X033088Y001737D02*
X033212Y001523D01*
X033433Y001511D02*
X033235Y001112D01*
X033112Y001325D02*
X033556Y001297D01*
D11*
X038146Y004865D02*
X038171Y004840D01*
X038271Y004840D01*
X038296Y004865D01*
X038296Y004915D01*
X038271Y004940D01*
X038221Y004940D01*
X038221Y004890D01*
X038171Y004940D02*
X038146Y004915D01*
X038146Y004865D01*
X038146Y004987D02*
X038296Y005087D01*
X038146Y005087D01*
X038146Y005134D02*
X038146Y005209D01*
X038171Y005234D01*
X038271Y005234D01*
X038296Y005209D01*
X038296Y005134D01*
X038146Y005134D01*
X038146Y004987D02*
X038296Y004987D01*
X038296Y007596D02*
X038146Y007596D01*
X038146Y007671D01*
X038171Y007696D01*
X038221Y007696D01*
X038246Y007671D01*
X038246Y007596D01*
X038246Y007646D02*
X038296Y007696D01*
X038271Y007743D02*
X038296Y007768D01*
X038296Y007818D01*
X038271Y007843D01*
X038221Y007843D01*
X038196Y007818D01*
X038196Y007793D01*
X038221Y007743D01*
X038146Y007743D01*
X038146Y007843D01*
X037115Y007818D02*
X037115Y007768D01*
X037090Y007743D01*
X037040Y007743D01*
X037040Y007818D01*
X037065Y007843D01*
X037090Y007843D01*
X037115Y007818D01*
X037040Y007743D02*
X036990Y007793D01*
X036965Y007843D01*
X036990Y007696D02*
X037040Y007696D01*
X037065Y007671D01*
X037065Y007596D01*
X037065Y007646D02*
X037115Y007696D01*
X037115Y007596D02*
X036965Y007596D01*
X036965Y007671D01*
X036990Y007696D01*
X035934Y007696D02*
X035884Y007646D01*
X035884Y007671D02*
X035884Y007596D01*
X035934Y007596D02*
X035784Y007596D01*
X035784Y007671D01*
X035809Y007696D01*
X035859Y007696D01*
X035884Y007671D01*
X035934Y007743D02*
X035834Y007843D01*
X035809Y007843D01*
X035784Y007818D01*
X035784Y007768D01*
X035809Y007743D01*
X035934Y007743D02*
X035934Y007843D01*
X028060Y007743D02*
X028060Y007843D01*
X028060Y007793D02*
X027910Y007793D01*
X027960Y007743D01*
X027935Y007696D02*
X027910Y007671D01*
X027910Y007621D01*
X027935Y007596D01*
X028035Y007596D01*
X028060Y007621D01*
X028060Y007671D01*
X028035Y007696D01*
X026879Y007743D02*
X026879Y007843D01*
X026879Y007793D02*
X026729Y007793D01*
X026779Y007743D01*
X026729Y007696D02*
X026729Y007596D01*
X026879Y007596D01*
X026804Y007596D02*
X026804Y007646D01*
X025698Y007696D02*
X025648Y007646D01*
X025648Y007671D02*
X025648Y007596D01*
X025698Y007596D02*
X025548Y007596D01*
X025548Y007671D01*
X025573Y007696D01*
X025623Y007696D01*
X025648Y007671D01*
X025698Y007743D02*
X025698Y007843D01*
X025698Y007793D02*
X025548Y007793D01*
X025598Y007743D01*
X024517Y007696D02*
X024467Y007646D01*
X024467Y007671D02*
X024467Y007596D01*
X024517Y007596D02*
X024366Y007596D01*
X024366Y007671D01*
X024391Y007696D01*
X024442Y007696D01*
X024467Y007671D01*
X024442Y007743D02*
X024442Y007843D01*
X024517Y007818D02*
X024366Y007818D01*
X024442Y007743D01*
X023335Y007768D02*
X023310Y007743D01*
X023335Y007768D02*
X023335Y007818D01*
X023310Y007843D01*
X023285Y007843D01*
X023260Y007818D01*
X023260Y007793D01*
X023260Y007818D02*
X023235Y007843D01*
X023210Y007843D01*
X023185Y007818D01*
X023185Y007768D01*
X023210Y007743D01*
X023210Y007696D02*
X023260Y007696D01*
X023285Y007671D01*
X023285Y007596D01*
X023285Y007646D02*
X023335Y007696D01*
X023335Y007596D02*
X023185Y007596D01*
X023185Y007671D01*
X023210Y007696D01*
X022154Y007696D02*
X022104Y007646D01*
X022104Y007671D02*
X022104Y007596D01*
X022154Y007596D02*
X022004Y007596D01*
X022004Y007671D01*
X022029Y007696D01*
X022079Y007696D01*
X022104Y007671D01*
X022104Y007743D02*
X022079Y007768D01*
X022079Y007818D01*
X022104Y007843D01*
X022129Y007843D01*
X022154Y007818D01*
X022154Y007768D01*
X022129Y007743D01*
X022104Y007743D01*
X022079Y007768D02*
X022054Y007743D01*
X022029Y007743D01*
X022004Y007768D01*
X022004Y007818D01*
X022029Y007843D01*
X022054Y007843D01*
X022079Y007818D01*
X020973Y007743D02*
X020948Y007743D01*
X020848Y007843D01*
X020823Y007843D01*
X020823Y007743D01*
X020848Y007696D02*
X020898Y007696D01*
X020923Y007671D01*
X020923Y007596D01*
X020923Y007646D02*
X020973Y007696D01*
X020973Y007596D02*
X020823Y007596D01*
X020823Y007671D01*
X020848Y007696D01*
X019792Y007696D02*
X019742Y007646D01*
X019742Y007671D02*
X019742Y007596D01*
X019792Y007596D02*
X019642Y007596D01*
X019642Y007671D01*
X019667Y007696D01*
X019717Y007696D01*
X019742Y007671D01*
X019692Y007743D02*
X019642Y007793D01*
X019792Y007793D01*
X019792Y007743D02*
X019792Y007843D01*
X019767Y007890D02*
X019667Y007990D01*
X019767Y007990D01*
X019792Y007965D01*
X019792Y007915D01*
X019767Y007890D01*
X019667Y007890D01*
X019642Y007915D01*
X019642Y007965D01*
X019667Y007990D01*
X018611Y007818D02*
X018611Y007768D01*
X018586Y007743D01*
X018611Y007696D02*
X018561Y007646D01*
X018561Y007671D02*
X018561Y007596D01*
X018611Y007596D02*
X018461Y007596D01*
X018461Y007671D01*
X018486Y007696D01*
X018536Y007696D01*
X018561Y007671D01*
X018511Y007743D02*
X018536Y007768D01*
X018536Y007843D01*
X018486Y007843D02*
X018461Y007818D01*
X018461Y007768D01*
X018486Y007743D01*
X018511Y007743D01*
X018486Y007843D02*
X018586Y007843D01*
X018611Y007818D01*
X012706Y007743D02*
X012706Y007843D01*
X012706Y007890D02*
X012706Y007990D01*
X012706Y007940D02*
X012555Y007940D01*
X012605Y007890D01*
X012555Y007793D02*
X012706Y007793D01*
X012706Y007696D02*
X012656Y007646D01*
X012656Y007671D02*
X012656Y007596D01*
X012706Y007596D02*
X012555Y007596D01*
X012555Y007671D01*
X012580Y007696D01*
X012631Y007696D01*
X012656Y007671D01*
X012605Y007743D02*
X012555Y007793D01*
X011524Y007793D02*
X011374Y007793D01*
X011424Y007743D01*
X011399Y007696D02*
X011449Y007696D01*
X011474Y007671D01*
X011474Y007596D01*
X011474Y007646D02*
X011524Y007696D01*
X011524Y007743D02*
X011524Y007843D01*
X011524Y007890D02*
X011424Y007990D01*
X011399Y007990D01*
X011374Y007965D01*
X011374Y007915D01*
X011399Y007890D01*
X011524Y007890D02*
X011524Y007990D01*
X011399Y007696D02*
X011374Y007671D01*
X011374Y007596D01*
X011524Y007596D01*
D12*
X012711Y005819D02*
X015860Y005819D01*
X017041Y003654D01*
X017041Y002866D01*
X015860Y000701D01*
X012711Y000701D01*
X011333Y003260D01*
X012711Y005819D01*
X013498Y005524D02*
X015073Y005524D01*
X014403Y004441D02*
X014285Y004441D01*
X014128Y003988D02*
X014130Y004022D01*
X014136Y004056D01*
X014146Y004089D01*
X014159Y004120D01*
X014177Y004150D01*
X014197Y004178D01*
X014221Y004203D01*
X014247Y004225D01*
X014275Y004243D01*
X014306Y004259D01*
X014338Y004271D01*
X014372Y004279D01*
X014406Y004283D01*
X014440Y004283D01*
X014474Y004279D01*
X014508Y004271D01*
X014540Y004259D01*
X014570Y004243D01*
X014599Y004225D01*
X014625Y004203D01*
X014649Y004178D01*
X014669Y004150D01*
X014687Y004120D01*
X014700Y004089D01*
X014710Y004056D01*
X014716Y004022D01*
X014718Y003988D01*
X014716Y003954D01*
X014710Y003920D01*
X014700Y003887D01*
X014687Y003856D01*
X014669Y003826D01*
X014649Y003798D01*
X014625Y003773D01*
X014599Y003751D01*
X014571Y003733D01*
X014540Y003717D01*
X014508Y003705D01*
X014474Y003697D01*
X014440Y003693D01*
X014406Y003693D01*
X014372Y003697D01*
X014338Y003705D01*
X014306Y003717D01*
X014275Y003733D01*
X014247Y003751D01*
X014221Y003773D01*
X014197Y003798D01*
X014177Y003826D01*
X014159Y003856D01*
X014146Y003887D01*
X014136Y003920D01*
X014130Y003954D01*
X014128Y003988D01*
X013518Y003831D02*
X013520Y003865D01*
X013526Y003899D01*
X013536Y003932D01*
X013549Y003963D01*
X013567Y003993D01*
X013587Y004021D01*
X013611Y004046D01*
X013637Y004068D01*
X013665Y004086D01*
X013696Y004102D01*
X013728Y004114D01*
X013762Y004122D01*
X013796Y004126D01*
X013830Y004126D01*
X013864Y004122D01*
X013898Y004114D01*
X013930Y004102D01*
X013960Y004086D01*
X013989Y004068D01*
X014015Y004046D01*
X014039Y004021D01*
X014059Y003993D01*
X014077Y003963D01*
X014090Y003932D01*
X014100Y003899D01*
X014106Y003865D01*
X014108Y003831D01*
X014106Y003797D01*
X014100Y003763D01*
X014090Y003730D01*
X014077Y003699D01*
X014059Y003669D01*
X014039Y003641D01*
X014015Y003616D01*
X013989Y003594D01*
X013961Y003576D01*
X013930Y003560D01*
X013898Y003548D01*
X013864Y003540D01*
X013830Y003536D01*
X013796Y003536D01*
X013762Y003540D01*
X013728Y003548D01*
X013696Y003560D01*
X013665Y003576D01*
X013637Y003594D01*
X013611Y003616D01*
X013587Y003641D01*
X013567Y003669D01*
X013549Y003699D01*
X013536Y003730D01*
X013526Y003763D01*
X013520Y003797D01*
X013518Y003831D01*
X013262Y003260D02*
X013264Y003294D01*
X013270Y003328D01*
X013280Y003361D01*
X013293Y003392D01*
X013311Y003422D01*
X013331Y003450D01*
X013355Y003475D01*
X013381Y003497D01*
X013409Y003515D01*
X013440Y003531D01*
X013472Y003543D01*
X013506Y003551D01*
X013540Y003555D01*
X013574Y003555D01*
X013608Y003551D01*
X013642Y003543D01*
X013674Y003531D01*
X013704Y003515D01*
X013733Y003497D01*
X013759Y003475D01*
X013783Y003450D01*
X013803Y003422D01*
X013821Y003392D01*
X013834Y003361D01*
X013844Y003328D01*
X013850Y003294D01*
X013852Y003260D01*
X013850Y003226D01*
X013844Y003192D01*
X013834Y003159D01*
X013821Y003128D01*
X013803Y003098D01*
X013783Y003070D01*
X013759Y003045D01*
X013733Y003023D01*
X013705Y003005D01*
X013674Y002989D01*
X013642Y002977D01*
X013608Y002969D01*
X013574Y002965D01*
X013540Y002965D01*
X013506Y002969D01*
X013472Y002977D01*
X013440Y002989D01*
X013409Y003005D01*
X013381Y003023D01*
X013355Y003045D01*
X013331Y003070D01*
X013311Y003098D01*
X013293Y003128D01*
X013280Y003159D01*
X013270Y003192D01*
X013264Y003226D01*
X013262Y003260D01*
X013518Y002689D02*
X013520Y002723D01*
X013526Y002757D01*
X013536Y002790D01*
X013549Y002821D01*
X013567Y002851D01*
X013587Y002879D01*
X013611Y002904D01*
X013637Y002926D01*
X013665Y002944D01*
X013696Y002960D01*
X013728Y002972D01*
X013762Y002980D01*
X013796Y002984D01*
X013830Y002984D01*
X013864Y002980D01*
X013898Y002972D01*
X013930Y002960D01*
X013960Y002944D01*
X013989Y002926D01*
X014015Y002904D01*
X014039Y002879D01*
X014059Y002851D01*
X014077Y002821D01*
X014090Y002790D01*
X014100Y002757D01*
X014106Y002723D01*
X014108Y002689D01*
X014106Y002655D01*
X014100Y002621D01*
X014090Y002588D01*
X014077Y002557D01*
X014059Y002527D01*
X014039Y002499D01*
X014015Y002474D01*
X013989Y002452D01*
X013961Y002434D01*
X013930Y002418D01*
X013898Y002406D01*
X013864Y002398D01*
X013830Y002394D01*
X013796Y002394D01*
X013762Y002398D01*
X013728Y002406D01*
X013696Y002418D01*
X013665Y002434D01*
X013637Y002452D01*
X013611Y002474D01*
X013587Y002499D01*
X013567Y002527D01*
X013549Y002557D01*
X013536Y002588D01*
X013526Y002621D01*
X013520Y002655D01*
X013518Y002689D01*
X016647Y003260D02*
X016644Y003377D01*
X016636Y003494D01*
X016621Y003611D01*
X016601Y003727D01*
X016576Y003841D01*
X016545Y003954D01*
X016509Y004066D01*
X016467Y004176D01*
X016420Y004283D01*
X016367Y004388D01*
X016310Y004490D01*
X016248Y004590D01*
X016181Y004686D01*
X016109Y004779D01*
X016033Y004869D01*
X015953Y004954D01*
X015868Y005036D01*
X015780Y005113D01*
X015688Y005186D01*
X015593Y005255D01*
X015494Y005318D01*
X015393Y005377D01*
X015288Y005431D01*
X015182Y005480D01*
X015073Y005523D01*
X014640Y003614D02*
X014642Y003648D01*
X014648Y003682D01*
X014658Y003715D01*
X014671Y003746D01*
X014689Y003776D01*
X014709Y003804D01*
X014733Y003829D01*
X014759Y003851D01*
X014787Y003869D01*
X014818Y003885D01*
X014850Y003897D01*
X014884Y003905D01*
X014918Y003909D01*
X014952Y003909D01*
X014986Y003905D01*
X015020Y003897D01*
X015052Y003885D01*
X015082Y003869D01*
X015111Y003851D01*
X015137Y003829D01*
X015161Y003804D01*
X015181Y003776D01*
X015199Y003746D01*
X015212Y003715D01*
X015222Y003682D01*
X015228Y003648D01*
X015230Y003614D01*
X015228Y003580D01*
X015222Y003546D01*
X015212Y003513D01*
X015199Y003482D01*
X015181Y003452D01*
X015161Y003424D01*
X015137Y003399D01*
X015111Y003377D01*
X015083Y003359D01*
X015052Y003343D01*
X015020Y003331D01*
X014986Y003323D01*
X014952Y003319D01*
X014918Y003319D01*
X014884Y003323D01*
X014850Y003331D01*
X014818Y003343D01*
X014787Y003359D01*
X014759Y003377D01*
X014733Y003399D01*
X014709Y003424D01*
X014689Y003452D01*
X014671Y003482D01*
X014658Y003513D01*
X014648Y003546D01*
X014642Y003580D01*
X014640Y003614D01*
X015446Y003398D02*
X015444Y003461D01*
X015438Y003524D01*
X015429Y003586D01*
X015416Y003648D01*
X015399Y003708D01*
X015378Y003768D01*
X015354Y003826D01*
X015327Y003883D01*
X015296Y003938D01*
X015261Y003990D01*
X015224Y004041D01*
X015184Y004090D01*
X015141Y004136D01*
X015095Y004179D01*
X015046Y004219D01*
X014995Y004256D01*
X014943Y004291D01*
X014888Y004322D01*
X014831Y004349D01*
X014773Y004373D01*
X014713Y004394D01*
X014653Y004411D01*
X014591Y004424D01*
X014529Y004433D01*
X014466Y004439D01*
X014403Y004441D01*
X015368Y003398D02*
X015447Y003398D01*
X015230Y003260D02*
X015232Y003237D01*
X015237Y003214D01*
X015246Y003192D01*
X015258Y003172D01*
X015273Y003154D01*
X015291Y003138D01*
X015311Y003126D01*
X015332Y003116D01*
X015355Y003110D01*
X015378Y003108D01*
X015401Y003109D01*
X015424Y003114D01*
X015446Y003122D01*
X015230Y003260D02*
X015232Y003282D01*
X015237Y003303D01*
X015245Y003323D01*
X015256Y003341D01*
X015270Y003358D01*
X015287Y003372D01*
X015305Y003383D01*
X015325Y003391D01*
X015346Y003396D01*
X015368Y003398D01*
X014640Y002906D02*
X014642Y002940D01*
X014648Y002974D01*
X014658Y003007D01*
X014671Y003038D01*
X014689Y003068D01*
X014709Y003096D01*
X014733Y003121D01*
X014759Y003143D01*
X014787Y003161D01*
X014818Y003177D01*
X014850Y003189D01*
X014884Y003197D01*
X014918Y003201D01*
X014952Y003201D01*
X014986Y003197D01*
X015020Y003189D01*
X015052Y003177D01*
X015082Y003161D01*
X015111Y003143D01*
X015137Y003121D01*
X015161Y003096D01*
X015181Y003068D01*
X015199Y003038D01*
X015212Y003007D01*
X015222Y002974D01*
X015228Y002940D01*
X015230Y002906D01*
X015228Y002872D01*
X015222Y002838D01*
X015212Y002805D01*
X015199Y002774D01*
X015181Y002744D01*
X015161Y002716D01*
X015137Y002691D01*
X015111Y002669D01*
X015083Y002651D01*
X015052Y002635D01*
X015020Y002623D01*
X014986Y002615D01*
X014952Y002611D01*
X014918Y002611D01*
X014884Y002615D01*
X014850Y002623D01*
X014818Y002635D01*
X014787Y002651D01*
X014759Y002669D01*
X014733Y002691D01*
X014709Y002716D01*
X014689Y002744D01*
X014671Y002774D01*
X014658Y002805D01*
X014648Y002838D01*
X014642Y002872D01*
X014640Y002906D01*
X015446Y003122D02*
X015444Y003059D01*
X015438Y002996D01*
X015429Y002934D01*
X015416Y002872D01*
X015399Y002812D01*
X015378Y002752D01*
X015354Y002694D01*
X015327Y002637D01*
X015296Y002582D01*
X015261Y002530D01*
X015224Y002479D01*
X015184Y002430D01*
X015141Y002384D01*
X015095Y002341D01*
X015046Y002301D01*
X014995Y002264D01*
X014943Y002229D01*
X014888Y002198D01*
X014831Y002171D01*
X014773Y002147D01*
X014713Y002126D01*
X014653Y002109D01*
X014591Y002096D01*
X014529Y002087D01*
X014466Y002081D01*
X014403Y002079D01*
X014285Y002079D01*
X014128Y002531D02*
X014130Y002565D01*
X014136Y002599D01*
X014146Y002632D01*
X014159Y002663D01*
X014177Y002693D01*
X014197Y002721D01*
X014221Y002746D01*
X014247Y002768D01*
X014275Y002786D01*
X014306Y002802D01*
X014338Y002814D01*
X014372Y002822D01*
X014406Y002826D01*
X014440Y002826D01*
X014474Y002822D01*
X014508Y002814D01*
X014540Y002802D01*
X014570Y002786D01*
X014599Y002768D01*
X014625Y002746D01*
X014649Y002721D01*
X014669Y002693D01*
X014687Y002663D01*
X014700Y002632D01*
X014710Y002599D01*
X014716Y002565D01*
X014718Y002531D01*
X014716Y002497D01*
X014710Y002463D01*
X014700Y002430D01*
X014687Y002399D01*
X014669Y002369D01*
X014649Y002341D01*
X014625Y002316D01*
X014599Y002294D01*
X014571Y002276D01*
X014540Y002260D01*
X014508Y002248D01*
X014474Y002240D01*
X014440Y002236D01*
X014406Y002236D01*
X014372Y002240D01*
X014338Y002248D01*
X014306Y002260D01*
X014275Y002276D01*
X014247Y002294D01*
X014221Y002316D01*
X014197Y002341D01*
X014177Y002369D01*
X014159Y002399D01*
X014146Y002430D01*
X014136Y002463D01*
X014130Y002497D01*
X014128Y002531D01*
X015073Y000997D02*
X015182Y001040D01*
X015288Y001089D01*
X015393Y001143D01*
X015494Y001202D01*
X015593Y001265D01*
X015688Y001334D01*
X015780Y001407D01*
X015868Y001484D01*
X015953Y001566D01*
X016033Y001651D01*
X016109Y001741D01*
X016181Y001834D01*
X016248Y001930D01*
X016310Y002030D01*
X016367Y002132D01*
X016420Y002237D01*
X016467Y002344D01*
X016509Y002454D01*
X016545Y002566D01*
X016576Y002679D01*
X016601Y002793D01*
X016621Y002909D01*
X016636Y003026D01*
X016644Y003143D01*
X016647Y003260D01*
X017159Y002748D02*
X017277Y002827D01*
X017317Y002669D01*
X017277Y002827D02*
X017159Y002512D01*
X017081Y003260D02*
X017083Y003297D01*
X017089Y003334D01*
X017098Y003369D01*
X017112Y003404D01*
X017128Y003437D01*
X017149Y003468D01*
X017172Y003497D01*
X017198Y003523D01*
X017227Y003546D01*
X017258Y003567D01*
X017291Y003583D01*
X017326Y003597D01*
X017361Y003606D01*
X017398Y003612D01*
X017435Y003614D01*
X017472Y003612D01*
X017509Y003606D01*
X017544Y003597D01*
X017579Y003583D01*
X017612Y003567D01*
X017643Y003546D01*
X017672Y003523D01*
X017698Y003497D01*
X017721Y003468D01*
X017742Y003437D01*
X017758Y003404D01*
X017772Y003369D01*
X017781Y003334D01*
X017787Y003297D01*
X017789Y003260D01*
X017787Y003223D01*
X017781Y003186D01*
X017772Y003151D01*
X017758Y003116D01*
X017742Y003083D01*
X017721Y003052D01*
X017698Y003023D01*
X017672Y002997D01*
X017643Y002974D01*
X017612Y002953D01*
X017579Y002937D01*
X017544Y002923D01*
X017509Y002914D01*
X017472Y002908D01*
X017435Y002906D01*
X017398Y002908D01*
X017361Y002914D01*
X017326Y002923D01*
X017291Y002937D01*
X017258Y002953D01*
X017227Y002974D01*
X017198Y002997D01*
X017172Y003023D01*
X017149Y003052D01*
X017128Y003083D01*
X017112Y003116D01*
X017098Y003151D01*
X017089Y003186D01*
X017083Y003223D01*
X017081Y003260D01*
X018419Y003260D02*
X019797Y000701D01*
X022947Y000701D01*
X024128Y002866D01*
X024128Y003654D01*
X022947Y005819D01*
X019797Y005819D01*
X018419Y003260D01*
X020349Y003260D02*
X020351Y003294D01*
X020357Y003328D01*
X020367Y003361D01*
X020380Y003392D01*
X020398Y003422D01*
X020418Y003450D01*
X020442Y003475D01*
X020468Y003497D01*
X020496Y003515D01*
X020527Y003531D01*
X020559Y003543D01*
X020593Y003551D01*
X020627Y003555D01*
X020661Y003555D01*
X020695Y003551D01*
X020729Y003543D01*
X020761Y003531D01*
X020791Y003515D01*
X020820Y003497D01*
X020846Y003475D01*
X020870Y003450D01*
X020890Y003422D01*
X020908Y003392D01*
X020921Y003361D01*
X020931Y003328D01*
X020937Y003294D01*
X020939Y003260D01*
X020937Y003226D01*
X020931Y003192D01*
X020921Y003159D01*
X020908Y003128D01*
X020890Y003098D01*
X020870Y003070D01*
X020846Y003045D01*
X020820Y003023D01*
X020792Y003005D01*
X020761Y002989D01*
X020729Y002977D01*
X020695Y002969D01*
X020661Y002965D01*
X020627Y002965D01*
X020593Y002969D01*
X020559Y002977D01*
X020527Y002989D01*
X020496Y003005D01*
X020468Y003023D01*
X020442Y003045D01*
X020418Y003070D01*
X020398Y003098D01*
X020380Y003128D01*
X020367Y003159D01*
X020357Y003192D01*
X020351Y003226D01*
X020349Y003260D01*
X020605Y003831D02*
X020607Y003865D01*
X020613Y003899D01*
X020623Y003932D01*
X020636Y003963D01*
X020654Y003993D01*
X020674Y004021D01*
X020698Y004046D01*
X020724Y004068D01*
X020752Y004086D01*
X020783Y004102D01*
X020815Y004114D01*
X020849Y004122D01*
X020883Y004126D01*
X020917Y004126D01*
X020951Y004122D01*
X020985Y004114D01*
X021017Y004102D01*
X021047Y004086D01*
X021076Y004068D01*
X021102Y004046D01*
X021126Y004021D01*
X021146Y003993D01*
X021164Y003963D01*
X021177Y003932D01*
X021187Y003899D01*
X021193Y003865D01*
X021195Y003831D01*
X021193Y003797D01*
X021187Y003763D01*
X021177Y003730D01*
X021164Y003699D01*
X021146Y003669D01*
X021126Y003641D01*
X021102Y003616D01*
X021076Y003594D01*
X021048Y003576D01*
X021017Y003560D01*
X020985Y003548D01*
X020951Y003540D01*
X020917Y003536D01*
X020883Y003536D01*
X020849Y003540D01*
X020815Y003548D01*
X020783Y003560D01*
X020752Y003576D01*
X020724Y003594D01*
X020698Y003616D01*
X020674Y003641D01*
X020654Y003669D01*
X020636Y003699D01*
X020623Y003730D01*
X020613Y003763D01*
X020607Y003797D01*
X020605Y003831D01*
X022160Y005523D02*
X022269Y005480D01*
X022375Y005431D01*
X022480Y005377D01*
X022581Y005318D01*
X022680Y005255D01*
X022775Y005186D01*
X022867Y005113D01*
X022955Y005036D01*
X023040Y004954D01*
X023120Y004869D01*
X023196Y004779D01*
X023268Y004686D01*
X023335Y004590D01*
X023397Y004490D01*
X023454Y004388D01*
X023507Y004283D01*
X023554Y004176D01*
X023596Y004066D01*
X023632Y003954D01*
X023663Y003841D01*
X023688Y003727D01*
X023708Y003611D01*
X023723Y003494D01*
X023731Y003377D01*
X023734Y003260D01*
X024246Y002748D02*
X024364Y002827D01*
X024403Y002669D01*
X024364Y002827D02*
X024246Y002512D01*
X024168Y003260D02*
X024170Y003297D01*
X024176Y003334D01*
X024185Y003369D01*
X024199Y003404D01*
X024215Y003437D01*
X024236Y003468D01*
X024259Y003497D01*
X024285Y003523D01*
X024314Y003546D01*
X024345Y003567D01*
X024378Y003583D01*
X024413Y003597D01*
X024448Y003606D01*
X024485Y003612D01*
X024522Y003614D01*
X024559Y003612D01*
X024596Y003606D01*
X024631Y003597D01*
X024666Y003583D01*
X024699Y003567D01*
X024730Y003546D01*
X024759Y003523D01*
X024785Y003497D01*
X024808Y003468D01*
X024829Y003437D01*
X024845Y003404D01*
X024859Y003369D01*
X024868Y003334D01*
X024874Y003297D01*
X024876Y003260D01*
X024874Y003223D01*
X024868Y003186D01*
X024859Y003151D01*
X024845Y003116D01*
X024829Y003083D01*
X024808Y003052D01*
X024785Y003023D01*
X024759Y002997D01*
X024730Y002974D01*
X024699Y002953D01*
X024666Y002937D01*
X024631Y002923D01*
X024596Y002914D01*
X024559Y002908D01*
X024522Y002906D01*
X024485Y002908D01*
X024448Y002914D01*
X024413Y002923D01*
X024378Y002937D01*
X024345Y002953D01*
X024314Y002974D01*
X024285Y002997D01*
X024259Y003023D01*
X024236Y003052D01*
X024215Y003083D01*
X024199Y003116D01*
X024185Y003151D01*
X024176Y003186D01*
X024170Y003223D01*
X024168Y003260D01*
X025506Y003260D02*
X026884Y000701D01*
X030033Y000701D01*
X031214Y002866D01*
X031214Y003654D01*
X030033Y005819D01*
X026884Y005819D01*
X025506Y003260D01*
X027435Y003260D02*
X027437Y003294D01*
X027443Y003328D01*
X027453Y003361D01*
X027466Y003392D01*
X027484Y003422D01*
X027504Y003450D01*
X027528Y003475D01*
X027554Y003497D01*
X027582Y003515D01*
X027613Y003531D01*
X027645Y003543D01*
X027679Y003551D01*
X027713Y003555D01*
X027747Y003555D01*
X027781Y003551D01*
X027815Y003543D01*
X027847Y003531D01*
X027877Y003515D01*
X027906Y003497D01*
X027932Y003475D01*
X027956Y003450D01*
X027976Y003422D01*
X027994Y003392D01*
X028007Y003361D01*
X028017Y003328D01*
X028023Y003294D01*
X028025Y003260D01*
X028023Y003226D01*
X028017Y003192D01*
X028007Y003159D01*
X027994Y003128D01*
X027976Y003098D01*
X027956Y003070D01*
X027932Y003045D01*
X027906Y003023D01*
X027878Y003005D01*
X027847Y002989D01*
X027815Y002977D01*
X027781Y002969D01*
X027747Y002965D01*
X027713Y002965D01*
X027679Y002969D01*
X027645Y002977D01*
X027613Y002989D01*
X027582Y003005D01*
X027554Y003023D01*
X027528Y003045D01*
X027504Y003070D01*
X027484Y003098D01*
X027466Y003128D01*
X027453Y003159D01*
X027443Y003192D01*
X027437Y003226D01*
X027435Y003260D01*
X027691Y003831D02*
X027693Y003865D01*
X027699Y003899D01*
X027709Y003932D01*
X027722Y003963D01*
X027740Y003993D01*
X027760Y004021D01*
X027784Y004046D01*
X027810Y004068D01*
X027838Y004086D01*
X027869Y004102D01*
X027901Y004114D01*
X027935Y004122D01*
X027969Y004126D01*
X028003Y004126D01*
X028037Y004122D01*
X028071Y004114D01*
X028103Y004102D01*
X028133Y004086D01*
X028162Y004068D01*
X028188Y004046D01*
X028212Y004021D01*
X028232Y003993D01*
X028250Y003963D01*
X028263Y003932D01*
X028273Y003899D01*
X028279Y003865D01*
X028281Y003831D01*
X028279Y003797D01*
X028273Y003763D01*
X028263Y003730D01*
X028250Y003699D01*
X028232Y003669D01*
X028212Y003641D01*
X028188Y003616D01*
X028162Y003594D01*
X028134Y003576D01*
X028103Y003560D01*
X028071Y003548D01*
X028037Y003540D01*
X028003Y003536D01*
X027969Y003536D01*
X027935Y003540D01*
X027901Y003548D01*
X027869Y003560D01*
X027838Y003576D01*
X027810Y003594D01*
X027784Y003616D01*
X027760Y003641D01*
X027740Y003669D01*
X027722Y003699D01*
X027709Y003730D01*
X027699Y003763D01*
X027693Y003797D01*
X027691Y003831D01*
X029246Y005523D02*
X029355Y005480D01*
X029461Y005431D01*
X029566Y005377D01*
X029667Y005318D01*
X029766Y005255D01*
X029861Y005186D01*
X029953Y005113D01*
X030041Y005036D01*
X030126Y004954D01*
X030206Y004869D01*
X030282Y004779D01*
X030354Y004686D01*
X030421Y004590D01*
X030483Y004490D01*
X030540Y004388D01*
X030593Y004283D01*
X030640Y004176D01*
X030682Y004066D01*
X030718Y003954D01*
X030749Y003841D01*
X030774Y003727D01*
X030794Y003611D01*
X030809Y003494D01*
X030817Y003377D01*
X030820Y003260D01*
X031333Y002748D02*
X031451Y002827D01*
X031490Y002669D01*
X031451Y002827D02*
X031333Y002512D01*
X031254Y003260D02*
X031256Y003297D01*
X031262Y003334D01*
X031271Y003369D01*
X031285Y003404D01*
X031301Y003437D01*
X031322Y003468D01*
X031345Y003497D01*
X031371Y003523D01*
X031400Y003546D01*
X031431Y003567D01*
X031464Y003583D01*
X031499Y003597D01*
X031534Y003606D01*
X031571Y003612D01*
X031608Y003614D01*
X031645Y003612D01*
X031682Y003606D01*
X031717Y003597D01*
X031752Y003583D01*
X031785Y003567D01*
X031816Y003546D01*
X031845Y003523D01*
X031871Y003497D01*
X031894Y003468D01*
X031915Y003437D01*
X031931Y003404D01*
X031945Y003369D01*
X031954Y003334D01*
X031960Y003297D01*
X031962Y003260D01*
X031960Y003223D01*
X031954Y003186D01*
X031945Y003151D01*
X031931Y003116D01*
X031915Y003083D01*
X031894Y003052D01*
X031871Y003023D01*
X031845Y002997D01*
X031816Y002974D01*
X031785Y002953D01*
X031752Y002937D01*
X031717Y002923D01*
X031682Y002914D01*
X031645Y002908D01*
X031608Y002906D01*
X031571Y002908D01*
X031534Y002914D01*
X031499Y002923D01*
X031464Y002937D01*
X031431Y002953D01*
X031400Y002974D01*
X031371Y002997D01*
X031345Y003023D01*
X031322Y003052D01*
X031301Y003083D01*
X031285Y003116D01*
X031271Y003151D01*
X031262Y003186D01*
X031256Y003223D01*
X031254Y003260D01*
X032592Y003260D02*
X033970Y000701D01*
X037120Y000701D01*
X038301Y002866D01*
X038301Y003654D01*
X037120Y005819D01*
X033970Y005819D01*
X032592Y003260D01*
X034522Y003260D02*
X034524Y003294D01*
X034530Y003328D01*
X034540Y003361D01*
X034553Y003392D01*
X034571Y003422D01*
X034591Y003450D01*
X034615Y003475D01*
X034641Y003497D01*
X034669Y003515D01*
X034700Y003531D01*
X034732Y003543D01*
X034766Y003551D01*
X034800Y003555D01*
X034834Y003555D01*
X034868Y003551D01*
X034902Y003543D01*
X034934Y003531D01*
X034964Y003515D01*
X034993Y003497D01*
X035019Y003475D01*
X035043Y003450D01*
X035063Y003422D01*
X035081Y003392D01*
X035094Y003361D01*
X035104Y003328D01*
X035110Y003294D01*
X035112Y003260D01*
X035110Y003226D01*
X035104Y003192D01*
X035094Y003159D01*
X035081Y003128D01*
X035063Y003098D01*
X035043Y003070D01*
X035019Y003045D01*
X034993Y003023D01*
X034965Y003005D01*
X034934Y002989D01*
X034902Y002977D01*
X034868Y002969D01*
X034834Y002965D01*
X034800Y002965D01*
X034766Y002969D01*
X034732Y002977D01*
X034700Y002989D01*
X034669Y003005D01*
X034641Y003023D01*
X034615Y003045D01*
X034591Y003070D01*
X034571Y003098D01*
X034553Y003128D01*
X034540Y003159D01*
X034530Y003192D01*
X034524Y003226D01*
X034522Y003260D01*
X034778Y003831D02*
X034780Y003865D01*
X034786Y003899D01*
X034796Y003932D01*
X034809Y003963D01*
X034827Y003993D01*
X034847Y004021D01*
X034871Y004046D01*
X034897Y004068D01*
X034925Y004086D01*
X034956Y004102D01*
X034988Y004114D01*
X035022Y004122D01*
X035056Y004126D01*
X035090Y004126D01*
X035124Y004122D01*
X035158Y004114D01*
X035190Y004102D01*
X035220Y004086D01*
X035249Y004068D01*
X035275Y004046D01*
X035299Y004021D01*
X035319Y003993D01*
X035337Y003963D01*
X035350Y003932D01*
X035360Y003899D01*
X035366Y003865D01*
X035368Y003831D01*
X035366Y003797D01*
X035360Y003763D01*
X035350Y003730D01*
X035337Y003699D01*
X035319Y003669D01*
X035299Y003641D01*
X035275Y003616D01*
X035249Y003594D01*
X035221Y003576D01*
X035190Y003560D01*
X035158Y003548D01*
X035124Y003540D01*
X035090Y003536D01*
X035056Y003536D01*
X035022Y003540D01*
X034988Y003548D01*
X034956Y003560D01*
X034925Y003576D01*
X034897Y003594D01*
X034871Y003616D01*
X034847Y003641D01*
X034827Y003669D01*
X034809Y003699D01*
X034796Y003730D01*
X034786Y003763D01*
X034780Y003797D01*
X034778Y003831D01*
X036333Y005523D02*
X036442Y005480D01*
X036548Y005431D01*
X036653Y005377D01*
X036754Y005318D01*
X036853Y005255D01*
X036948Y005186D01*
X037040Y005113D01*
X037128Y005036D01*
X037213Y004954D01*
X037293Y004869D01*
X037369Y004779D01*
X037441Y004686D01*
X037508Y004590D01*
X037570Y004490D01*
X037627Y004388D01*
X037680Y004283D01*
X037727Y004176D01*
X037769Y004066D01*
X037805Y003954D01*
X037836Y003841D01*
X037861Y003727D01*
X037881Y003611D01*
X037896Y003494D01*
X037904Y003377D01*
X037907Y003260D01*
X038419Y002748D02*
X038537Y002827D01*
X038577Y002669D01*
X038537Y002827D02*
X038419Y002512D01*
X038341Y003260D02*
X038343Y003297D01*
X038349Y003334D01*
X038358Y003369D01*
X038372Y003404D01*
X038388Y003437D01*
X038409Y003468D01*
X038432Y003497D01*
X038458Y003523D01*
X038487Y003546D01*
X038518Y003567D01*
X038551Y003583D01*
X038586Y003597D01*
X038621Y003606D01*
X038658Y003612D01*
X038695Y003614D01*
X038732Y003612D01*
X038769Y003606D01*
X038804Y003597D01*
X038839Y003583D01*
X038872Y003567D01*
X038903Y003546D01*
X038932Y003523D01*
X038958Y003497D01*
X038981Y003468D01*
X039002Y003437D01*
X039018Y003404D01*
X039032Y003369D01*
X039041Y003334D01*
X039047Y003297D01*
X039049Y003260D01*
X039047Y003223D01*
X039041Y003186D01*
X039032Y003151D01*
X039018Y003116D01*
X039002Y003083D01*
X038981Y003052D01*
X038958Y003023D01*
X038932Y002997D01*
X038903Y002974D01*
X038872Y002953D01*
X038839Y002937D01*
X038804Y002923D01*
X038769Y002914D01*
X038732Y002908D01*
X038695Y002906D01*
X038658Y002908D01*
X038621Y002914D01*
X038586Y002923D01*
X038551Y002937D01*
X038518Y002953D01*
X038487Y002974D01*
X038458Y002997D01*
X038432Y003023D01*
X038409Y003052D01*
X038388Y003083D01*
X038372Y003116D01*
X038358Y003151D01*
X038349Y003186D01*
X038343Y003223D01*
X038341Y003260D01*
X036707Y003398D02*
X036628Y003398D01*
X036606Y003396D01*
X036585Y003391D01*
X036565Y003383D01*
X036547Y003372D01*
X036530Y003358D01*
X036516Y003341D01*
X036505Y003323D01*
X036497Y003303D01*
X036492Y003282D01*
X036490Y003260D01*
X036492Y003237D01*
X036497Y003214D01*
X036506Y003192D01*
X036518Y003172D01*
X036533Y003154D01*
X036551Y003138D01*
X036571Y003126D01*
X036592Y003116D01*
X036615Y003110D01*
X036638Y003108D01*
X036661Y003109D01*
X036684Y003114D01*
X036706Y003122D01*
X035900Y002906D02*
X035902Y002940D01*
X035908Y002974D01*
X035918Y003007D01*
X035931Y003038D01*
X035949Y003068D01*
X035969Y003096D01*
X035993Y003121D01*
X036019Y003143D01*
X036047Y003161D01*
X036078Y003177D01*
X036110Y003189D01*
X036144Y003197D01*
X036178Y003201D01*
X036212Y003201D01*
X036246Y003197D01*
X036280Y003189D01*
X036312Y003177D01*
X036342Y003161D01*
X036371Y003143D01*
X036397Y003121D01*
X036421Y003096D01*
X036441Y003068D01*
X036459Y003038D01*
X036472Y003007D01*
X036482Y002974D01*
X036488Y002940D01*
X036490Y002906D01*
X036488Y002872D01*
X036482Y002838D01*
X036472Y002805D01*
X036459Y002774D01*
X036441Y002744D01*
X036421Y002716D01*
X036397Y002691D01*
X036371Y002669D01*
X036343Y002651D01*
X036312Y002635D01*
X036280Y002623D01*
X036246Y002615D01*
X036212Y002611D01*
X036178Y002611D01*
X036144Y002615D01*
X036110Y002623D01*
X036078Y002635D01*
X036047Y002651D01*
X036019Y002669D01*
X035993Y002691D01*
X035969Y002716D01*
X035949Y002744D01*
X035931Y002774D01*
X035918Y002805D01*
X035908Y002838D01*
X035902Y002872D01*
X035900Y002906D01*
X036706Y003122D02*
X036704Y003059D01*
X036698Y002996D01*
X036689Y002934D01*
X036676Y002872D01*
X036659Y002812D01*
X036638Y002752D01*
X036614Y002694D01*
X036587Y002637D01*
X036556Y002582D01*
X036521Y002530D01*
X036484Y002479D01*
X036444Y002430D01*
X036401Y002384D01*
X036355Y002341D01*
X036306Y002301D01*
X036255Y002264D01*
X036203Y002229D01*
X036148Y002198D01*
X036091Y002171D01*
X036033Y002147D01*
X035973Y002126D01*
X035913Y002109D01*
X035851Y002096D01*
X035789Y002087D01*
X035726Y002081D01*
X035663Y002079D01*
X035545Y002079D01*
X035388Y002531D02*
X035390Y002565D01*
X035396Y002599D01*
X035406Y002632D01*
X035419Y002663D01*
X035437Y002693D01*
X035457Y002721D01*
X035481Y002746D01*
X035507Y002768D01*
X035535Y002786D01*
X035566Y002802D01*
X035598Y002814D01*
X035632Y002822D01*
X035666Y002826D01*
X035700Y002826D01*
X035734Y002822D01*
X035768Y002814D01*
X035800Y002802D01*
X035830Y002786D01*
X035859Y002768D01*
X035885Y002746D01*
X035909Y002721D01*
X035929Y002693D01*
X035947Y002663D01*
X035960Y002632D01*
X035970Y002599D01*
X035976Y002565D01*
X035978Y002531D01*
X035976Y002497D01*
X035970Y002463D01*
X035960Y002430D01*
X035947Y002399D01*
X035929Y002369D01*
X035909Y002341D01*
X035885Y002316D01*
X035859Y002294D01*
X035831Y002276D01*
X035800Y002260D01*
X035768Y002248D01*
X035734Y002240D01*
X035700Y002236D01*
X035666Y002236D01*
X035632Y002240D01*
X035598Y002248D01*
X035566Y002260D01*
X035535Y002276D01*
X035507Y002294D01*
X035481Y002316D01*
X035457Y002341D01*
X035437Y002369D01*
X035419Y002399D01*
X035406Y002430D01*
X035396Y002463D01*
X035390Y002497D01*
X035388Y002531D01*
X034778Y002689D02*
X034780Y002723D01*
X034786Y002757D01*
X034796Y002790D01*
X034809Y002821D01*
X034827Y002851D01*
X034847Y002879D01*
X034871Y002904D01*
X034897Y002926D01*
X034925Y002944D01*
X034956Y002960D01*
X034988Y002972D01*
X035022Y002980D01*
X035056Y002984D01*
X035090Y002984D01*
X035124Y002980D01*
X035158Y002972D01*
X035190Y002960D01*
X035220Y002944D01*
X035249Y002926D01*
X035275Y002904D01*
X035299Y002879D01*
X035319Y002851D01*
X035337Y002821D01*
X035350Y002790D01*
X035360Y002757D01*
X035366Y002723D01*
X035368Y002689D01*
X035366Y002655D01*
X035360Y002621D01*
X035350Y002588D01*
X035337Y002557D01*
X035319Y002527D01*
X035299Y002499D01*
X035275Y002474D01*
X035249Y002452D01*
X035221Y002434D01*
X035190Y002418D01*
X035158Y002406D01*
X035124Y002398D01*
X035090Y002394D01*
X035056Y002394D01*
X035022Y002398D01*
X034988Y002406D01*
X034956Y002418D01*
X034925Y002434D01*
X034897Y002452D01*
X034871Y002474D01*
X034847Y002499D01*
X034827Y002527D01*
X034809Y002557D01*
X034796Y002588D01*
X034786Y002621D01*
X034780Y002655D01*
X034778Y002689D01*
X036333Y000997D02*
X036442Y001040D01*
X036548Y001089D01*
X036653Y001143D01*
X036754Y001202D01*
X036853Y001265D01*
X036948Y001334D01*
X037040Y001407D01*
X037128Y001484D01*
X037213Y001566D01*
X037293Y001651D01*
X037369Y001741D01*
X037441Y001834D01*
X037508Y001930D01*
X037570Y002030D01*
X037627Y002132D01*
X037680Y002237D01*
X037727Y002344D01*
X037769Y002454D01*
X037805Y002566D01*
X037836Y002679D01*
X037861Y002793D01*
X037881Y002909D01*
X037896Y003026D01*
X037904Y003143D01*
X037907Y003260D01*
X035900Y003614D02*
X035902Y003648D01*
X035908Y003682D01*
X035918Y003715D01*
X035931Y003746D01*
X035949Y003776D01*
X035969Y003804D01*
X035993Y003829D01*
X036019Y003851D01*
X036047Y003869D01*
X036078Y003885D01*
X036110Y003897D01*
X036144Y003905D01*
X036178Y003909D01*
X036212Y003909D01*
X036246Y003905D01*
X036280Y003897D01*
X036312Y003885D01*
X036342Y003869D01*
X036371Y003851D01*
X036397Y003829D01*
X036421Y003804D01*
X036441Y003776D01*
X036459Y003746D01*
X036472Y003715D01*
X036482Y003682D01*
X036488Y003648D01*
X036490Y003614D01*
X036488Y003580D01*
X036482Y003546D01*
X036472Y003513D01*
X036459Y003482D01*
X036441Y003452D01*
X036421Y003424D01*
X036397Y003399D01*
X036371Y003377D01*
X036343Y003359D01*
X036312Y003343D01*
X036280Y003331D01*
X036246Y003323D01*
X036212Y003319D01*
X036178Y003319D01*
X036144Y003323D01*
X036110Y003331D01*
X036078Y003343D01*
X036047Y003359D01*
X036019Y003377D01*
X035993Y003399D01*
X035969Y003424D01*
X035949Y003452D01*
X035931Y003482D01*
X035918Y003513D01*
X035908Y003546D01*
X035902Y003580D01*
X035900Y003614D01*
X036706Y003398D02*
X036704Y003461D01*
X036698Y003524D01*
X036689Y003586D01*
X036676Y003648D01*
X036659Y003708D01*
X036638Y003768D01*
X036614Y003826D01*
X036587Y003883D01*
X036556Y003938D01*
X036521Y003990D01*
X036484Y004041D01*
X036444Y004090D01*
X036401Y004136D01*
X036355Y004179D01*
X036306Y004219D01*
X036255Y004256D01*
X036203Y004291D01*
X036148Y004322D01*
X036091Y004349D01*
X036033Y004373D01*
X035973Y004394D01*
X035913Y004411D01*
X035851Y004424D01*
X035789Y004433D01*
X035726Y004439D01*
X035663Y004441D01*
X035545Y004441D01*
X035388Y003988D02*
X035390Y004022D01*
X035396Y004056D01*
X035406Y004089D01*
X035419Y004120D01*
X035437Y004150D01*
X035457Y004178D01*
X035481Y004203D01*
X035507Y004225D01*
X035535Y004243D01*
X035566Y004259D01*
X035598Y004271D01*
X035632Y004279D01*
X035666Y004283D01*
X035700Y004283D01*
X035734Y004279D01*
X035768Y004271D01*
X035800Y004259D01*
X035830Y004243D01*
X035859Y004225D01*
X035885Y004203D01*
X035909Y004178D01*
X035929Y004150D01*
X035947Y004120D01*
X035960Y004089D01*
X035970Y004056D01*
X035976Y004022D01*
X035978Y003988D01*
X035976Y003954D01*
X035970Y003920D01*
X035960Y003887D01*
X035947Y003856D01*
X035929Y003826D01*
X035909Y003798D01*
X035885Y003773D01*
X035859Y003751D01*
X035831Y003733D01*
X035800Y003717D01*
X035768Y003705D01*
X035734Y003697D01*
X035700Y003693D01*
X035666Y003693D01*
X035632Y003697D01*
X035598Y003705D01*
X035566Y003717D01*
X035535Y003733D01*
X035507Y003751D01*
X035481Y003773D01*
X035457Y003798D01*
X035437Y003826D01*
X035419Y003856D01*
X035406Y003887D01*
X035396Y003920D01*
X035390Y003954D01*
X035388Y003988D01*
X035250Y003260D02*
X035252Y003294D01*
X035258Y003328D01*
X035268Y003361D01*
X035281Y003392D01*
X035299Y003422D01*
X035319Y003450D01*
X035343Y003475D01*
X035369Y003497D01*
X035397Y003515D01*
X035428Y003531D01*
X035460Y003543D01*
X035494Y003551D01*
X035528Y003555D01*
X035562Y003555D01*
X035596Y003551D01*
X035630Y003543D01*
X035662Y003531D01*
X035692Y003515D01*
X035721Y003497D01*
X035747Y003475D01*
X035771Y003450D01*
X035791Y003422D01*
X035809Y003392D01*
X035822Y003361D01*
X035832Y003328D01*
X035838Y003294D01*
X035840Y003260D01*
X035838Y003226D01*
X035832Y003192D01*
X035822Y003159D01*
X035809Y003128D01*
X035791Y003098D01*
X035771Y003070D01*
X035747Y003045D01*
X035721Y003023D01*
X035693Y003005D01*
X035662Y002989D01*
X035630Y002977D01*
X035596Y002969D01*
X035562Y002965D01*
X035528Y002965D01*
X035494Y002969D01*
X035460Y002977D01*
X035428Y002989D01*
X035397Y003005D01*
X035369Y003023D01*
X035343Y003045D01*
X035319Y003070D01*
X035299Y003098D01*
X035281Y003128D01*
X035268Y003159D01*
X035258Y003192D01*
X035252Y003226D01*
X035250Y003260D01*
X034364Y003260D02*
X034366Y003194D01*
X034371Y003128D01*
X034381Y003062D01*
X034394Y002997D01*
X034410Y002933D01*
X034430Y002870D01*
X034454Y002808D01*
X034481Y002748D01*
X034511Y002689D01*
X034545Y002632D01*
X034582Y002577D01*
X034622Y002524D01*
X034664Y002473D01*
X034710Y002425D01*
X034758Y002379D01*
X034809Y002337D01*
X034862Y002297D01*
X034917Y002260D01*
X034974Y002226D01*
X035033Y002196D01*
X035093Y002169D01*
X035155Y002145D01*
X035218Y002125D01*
X035282Y002109D01*
X035347Y002096D01*
X035413Y002086D01*
X035479Y002081D01*
X035545Y002079D01*
X034758Y000996D02*
X036333Y000996D01*
X033183Y003260D02*
X033186Y003377D01*
X033194Y003494D01*
X033209Y003611D01*
X033229Y003727D01*
X033254Y003841D01*
X033285Y003954D01*
X033321Y004066D01*
X033363Y004176D01*
X033410Y004283D01*
X033463Y004388D01*
X033520Y004490D01*
X033582Y004590D01*
X033649Y004686D01*
X033721Y004779D01*
X033797Y004869D01*
X033877Y004954D01*
X033962Y005036D01*
X034050Y005113D01*
X034142Y005186D01*
X034237Y005255D01*
X034336Y005318D01*
X034437Y005377D01*
X034542Y005431D01*
X034648Y005480D01*
X034757Y005523D01*
X034758Y005524D02*
X036333Y005524D01*
X033183Y003260D02*
X033186Y003143D01*
X033194Y003026D01*
X033209Y002909D01*
X033229Y002793D01*
X033254Y002679D01*
X033285Y002566D01*
X033321Y002454D01*
X033363Y002344D01*
X033410Y002237D01*
X033463Y002132D01*
X033520Y002030D01*
X033582Y001930D01*
X033649Y001834D01*
X033721Y001741D01*
X033797Y001651D01*
X033877Y001566D01*
X033962Y001484D01*
X034050Y001407D01*
X034142Y001334D01*
X034237Y001265D01*
X034336Y001202D01*
X034437Y001143D01*
X034542Y001089D01*
X034648Y001040D01*
X034757Y000997D01*
X034364Y003260D02*
X034366Y003326D01*
X034371Y003392D01*
X034381Y003458D01*
X034394Y003523D01*
X034410Y003587D01*
X034430Y003650D01*
X034454Y003712D01*
X034481Y003772D01*
X034511Y003831D01*
X034545Y003888D01*
X034582Y003943D01*
X034622Y003996D01*
X034664Y004047D01*
X034710Y004095D01*
X034758Y004141D01*
X034809Y004183D01*
X034862Y004223D01*
X034917Y004260D01*
X034974Y004294D01*
X035033Y004324D01*
X035093Y004351D01*
X035155Y004375D01*
X035218Y004395D01*
X035282Y004411D01*
X035347Y004424D01*
X035413Y004434D01*
X035479Y004439D01*
X035545Y004441D01*
X033970Y003260D02*
X033972Y003339D01*
X033978Y003418D01*
X033988Y003497D01*
X034002Y003575D01*
X034019Y003652D01*
X034041Y003728D01*
X034066Y003803D01*
X034096Y003876D01*
X034128Y003948D01*
X034165Y004019D01*
X034205Y004087D01*
X034248Y004153D01*
X034294Y004217D01*
X034344Y004279D01*
X034397Y004338D01*
X034452Y004394D01*
X034511Y004448D01*
X034572Y004498D01*
X034635Y004546D01*
X034701Y004590D01*
X034769Y004631D01*
X034839Y004668D01*
X034910Y004702D01*
X034984Y004732D01*
X035058Y004758D01*
X035134Y004780D01*
X035211Y004799D01*
X035289Y004814D01*
X035367Y004825D01*
X035446Y004832D01*
X035525Y004835D01*
X035604Y004834D01*
X035683Y004829D01*
X035762Y004820D01*
X035840Y004807D01*
X035917Y004790D01*
X035994Y004770D01*
X036069Y004745D01*
X036143Y004717D01*
X036216Y004685D01*
X036286Y004650D01*
X036355Y004611D01*
X036422Y004568D01*
X036487Y004522D01*
X036549Y004474D01*
X036609Y004422D01*
X036666Y004367D01*
X036720Y004309D01*
X036771Y004249D01*
X036819Y004186D01*
X036864Y004121D01*
X036906Y004053D01*
X036944Y003984D01*
X036978Y003913D01*
X037009Y003840D01*
X037037Y003765D01*
X037060Y003690D01*
X037080Y003613D01*
X037096Y003536D01*
X037108Y003457D01*
X037116Y003379D01*
X037120Y003300D01*
X037120Y003220D01*
X037116Y003141D01*
X037108Y003063D01*
X037096Y002984D01*
X037080Y002907D01*
X037060Y002830D01*
X037037Y002755D01*
X037009Y002680D01*
X036978Y002607D01*
X036944Y002536D01*
X036906Y002467D01*
X036864Y002399D01*
X036819Y002334D01*
X036771Y002271D01*
X036720Y002211D01*
X036666Y002153D01*
X036609Y002098D01*
X036549Y002046D01*
X036487Y001998D01*
X036422Y001952D01*
X036355Y001909D01*
X036286Y001870D01*
X036216Y001835D01*
X036143Y001803D01*
X036069Y001775D01*
X035994Y001750D01*
X035917Y001730D01*
X035840Y001713D01*
X035762Y001700D01*
X035683Y001691D01*
X035604Y001686D01*
X035525Y001685D01*
X035446Y001688D01*
X035367Y001695D01*
X035289Y001706D01*
X035211Y001721D01*
X035134Y001740D01*
X035058Y001762D01*
X034984Y001788D01*
X034910Y001818D01*
X034839Y001852D01*
X034769Y001889D01*
X034701Y001930D01*
X034635Y001974D01*
X034572Y002022D01*
X034511Y002072D01*
X034452Y002126D01*
X034397Y002182D01*
X034344Y002241D01*
X034294Y002303D01*
X034248Y002367D01*
X034205Y002433D01*
X034165Y002501D01*
X034128Y002572D01*
X034096Y002644D01*
X034066Y002717D01*
X034041Y002792D01*
X034019Y002868D01*
X034002Y002945D01*
X033988Y003023D01*
X033978Y003102D01*
X033972Y003181D01*
X033970Y003260D01*
X029620Y003398D02*
X029541Y003398D01*
X029519Y003396D01*
X029498Y003391D01*
X029478Y003383D01*
X029460Y003372D01*
X029443Y003358D01*
X029429Y003341D01*
X029418Y003323D01*
X029410Y003303D01*
X029405Y003282D01*
X029403Y003260D01*
X029404Y003260D02*
X029406Y003237D01*
X029411Y003214D01*
X029420Y003192D01*
X029432Y003172D01*
X029447Y003154D01*
X029465Y003138D01*
X029485Y003126D01*
X029506Y003116D01*
X029529Y003110D01*
X029552Y003108D01*
X029575Y003109D01*
X029598Y003114D01*
X029620Y003122D01*
X028813Y002906D02*
X028815Y002940D01*
X028821Y002974D01*
X028831Y003007D01*
X028844Y003038D01*
X028862Y003068D01*
X028882Y003096D01*
X028906Y003121D01*
X028932Y003143D01*
X028960Y003161D01*
X028991Y003177D01*
X029023Y003189D01*
X029057Y003197D01*
X029091Y003201D01*
X029125Y003201D01*
X029159Y003197D01*
X029193Y003189D01*
X029225Y003177D01*
X029255Y003161D01*
X029284Y003143D01*
X029310Y003121D01*
X029334Y003096D01*
X029354Y003068D01*
X029372Y003038D01*
X029385Y003007D01*
X029395Y002974D01*
X029401Y002940D01*
X029403Y002906D01*
X029401Y002872D01*
X029395Y002838D01*
X029385Y002805D01*
X029372Y002774D01*
X029354Y002744D01*
X029334Y002716D01*
X029310Y002691D01*
X029284Y002669D01*
X029256Y002651D01*
X029225Y002635D01*
X029193Y002623D01*
X029159Y002615D01*
X029125Y002611D01*
X029091Y002611D01*
X029057Y002615D01*
X029023Y002623D01*
X028991Y002635D01*
X028960Y002651D01*
X028932Y002669D01*
X028906Y002691D01*
X028882Y002716D01*
X028862Y002744D01*
X028844Y002774D01*
X028831Y002805D01*
X028821Y002838D01*
X028815Y002872D01*
X028813Y002906D01*
X029620Y003122D02*
X029618Y003059D01*
X029612Y002996D01*
X029603Y002934D01*
X029590Y002872D01*
X029573Y002812D01*
X029552Y002752D01*
X029528Y002694D01*
X029501Y002637D01*
X029470Y002582D01*
X029435Y002530D01*
X029398Y002479D01*
X029358Y002430D01*
X029315Y002384D01*
X029269Y002341D01*
X029220Y002301D01*
X029169Y002264D01*
X029117Y002229D01*
X029062Y002198D01*
X029005Y002171D01*
X028947Y002147D01*
X028887Y002126D01*
X028827Y002109D01*
X028765Y002096D01*
X028703Y002087D01*
X028640Y002081D01*
X028577Y002079D01*
X028459Y002079D01*
X028301Y002531D02*
X028303Y002565D01*
X028309Y002599D01*
X028319Y002632D01*
X028332Y002663D01*
X028350Y002693D01*
X028370Y002721D01*
X028394Y002746D01*
X028420Y002768D01*
X028448Y002786D01*
X028479Y002802D01*
X028511Y002814D01*
X028545Y002822D01*
X028579Y002826D01*
X028613Y002826D01*
X028647Y002822D01*
X028681Y002814D01*
X028713Y002802D01*
X028743Y002786D01*
X028772Y002768D01*
X028798Y002746D01*
X028822Y002721D01*
X028842Y002693D01*
X028860Y002663D01*
X028873Y002632D01*
X028883Y002599D01*
X028889Y002565D01*
X028891Y002531D01*
X028889Y002497D01*
X028883Y002463D01*
X028873Y002430D01*
X028860Y002399D01*
X028842Y002369D01*
X028822Y002341D01*
X028798Y002316D01*
X028772Y002294D01*
X028744Y002276D01*
X028713Y002260D01*
X028681Y002248D01*
X028647Y002240D01*
X028613Y002236D01*
X028579Y002236D01*
X028545Y002240D01*
X028511Y002248D01*
X028479Y002260D01*
X028448Y002276D01*
X028420Y002294D01*
X028394Y002316D01*
X028370Y002341D01*
X028350Y002369D01*
X028332Y002399D01*
X028319Y002430D01*
X028309Y002463D01*
X028303Y002497D01*
X028301Y002531D01*
X027691Y002689D02*
X027693Y002723D01*
X027699Y002757D01*
X027709Y002790D01*
X027722Y002821D01*
X027740Y002851D01*
X027760Y002879D01*
X027784Y002904D01*
X027810Y002926D01*
X027838Y002944D01*
X027869Y002960D01*
X027901Y002972D01*
X027935Y002980D01*
X027969Y002984D01*
X028003Y002984D01*
X028037Y002980D01*
X028071Y002972D01*
X028103Y002960D01*
X028133Y002944D01*
X028162Y002926D01*
X028188Y002904D01*
X028212Y002879D01*
X028232Y002851D01*
X028250Y002821D01*
X028263Y002790D01*
X028273Y002757D01*
X028279Y002723D01*
X028281Y002689D01*
X028279Y002655D01*
X028273Y002621D01*
X028263Y002588D01*
X028250Y002557D01*
X028232Y002527D01*
X028212Y002499D01*
X028188Y002474D01*
X028162Y002452D01*
X028134Y002434D01*
X028103Y002418D01*
X028071Y002406D01*
X028037Y002398D01*
X028003Y002394D01*
X027969Y002394D01*
X027935Y002398D01*
X027901Y002406D01*
X027869Y002418D01*
X027838Y002434D01*
X027810Y002452D01*
X027784Y002474D01*
X027760Y002499D01*
X027740Y002527D01*
X027722Y002557D01*
X027709Y002588D01*
X027699Y002621D01*
X027693Y002655D01*
X027691Y002689D01*
X029246Y000997D02*
X029355Y001040D01*
X029461Y001089D01*
X029566Y001143D01*
X029667Y001202D01*
X029766Y001265D01*
X029861Y001334D01*
X029953Y001407D01*
X030041Y001484D01*
X030126Y001566D01*
X030206Y001651D01*
X030282Y001741D01*
X030354Y001834D01*
X030421Y001930D01*
X030483Y002030D01*
X030540Y002132D01*
X030593Y002237D01*
X030640Y002344D01*
X030682Y002454D01*
X030718Y002566D01*
X030749Y002679D01*
X030774Y002793D01*
X030794Y002909D01*
X030809Y003026D01*
X030817Y003143D01*
X030820Y003260D01*
X028813Y003614D02*
X028815Y003648D01*
X028821Y003682D01*
X028831Y003715D01*
X028844Y003746D01*
X028862Y003776D01*
X028882Y003804D01*
X028906Y003829D01*
X028932Y003851D01*
X028960Y003869D01*
X028991Y003885D01*
X029023Y003897D01*
X029057Y003905D01*
X029091Y003909D01*
X029125Y003909D01*
X029159Y003905D01*
X029193Y003897D01*
X029225Y003885D01*
X029255Y003869D01*
X029284Y003851D01*
X029310Y003829D01*
X029334Y003804D01*
X029354Y003776D01*
X029372Y003746D01*
X029385Y003715D01*
X029395Y003682D01*
X029401Y003648D01*
X029403Y003614D01*
X029401Y003580D01*
X029395Y003546D01*
X029385Y003513D01*
X029372Y003482D01*
X029354Y003452D01*
X029334Y003424D01*
X029310Y003399D01*
X029284Y003377D01*
X029256Y003359D01*
X029225Y003343D01*
X029193Y003331D01*
X029159Y003323D01*
X029125Y003319D01*
X029091Y003319D01*
X029057Y003323D01*
X029023Y003331D01*
X028991Y003343D01*
X028960Y003359D01*
X028932Y003377D01*
X028906Y003399D01*
X028882Y003424D01*
X028862Y003452D01*
X028844Y003482D01*
X028831Y003513D01*
X028821Y003546D01*
X028815Y003580D01*
X028813Y003614D01*
X029620Y003398D02*
X029618Y003461D01*
X029612Y003524D01*
X029603Y003586D01*
X029590Y003648D01*
X029573Y003708D01*
X029552Y003768D01*
X029528Y003826D01*
X029501Y003883D01*
X029470Y003938D01*
X029435Y003990D01*
X029398Y004041D01*
X029358Y004090D01*
X029315Y004136D01*
X029269Y004179D01*
X029220Y004219D01*
X029169Y004256D01*
X029117Y004291D01*
X029062Y004322D01*
X029005Y004349D01*
X028947Y004373D01*
X028887Y004394D01*
X028827Y004411D01*
X028765Y004424D01*
X028703Y004433D01*
X028640Y004439D01*
X028577Y004441D01*
X028459Y004441D01*
X028301Y003988D02*
X028303Y004022D01*
X028309Y004056D01*
X028319Y004089D01*
X028332Y004120D01*
X028350Y004150D01*
X028370Y004178D01*
X028394Y004203D01*
X028420Y004225D01*
X028448Y004243D01*
X028479Y004259D01*
X028511Y004271D01*
X028545Y004279D01*
X028579Y004283D01*
X028613Y004283D01*
X028647Y004279D01*
X028681Y004271D01*
X028713Y004259D01*
X028743Y004243D01*
X028772Y004225D01*
X028798Y004203D01*
X028822Y004178D01*
X028842Y004150D01*
X028860Y004120D01*
X028873Y004089D01*
X028883Y004056D01*
X028889Y004022D01*
X028891Y003988D01*
X028889Y003954D01*
X028883Y003920D01*
X028873Y003887D01*
X028860Y003856D01*
X028842Y003826D01*
X028822Y003798D01*
X028798Y003773D01*
X028772Y003751D01*
X028744Y003733D01*
X028713Y003717D01*
X028681Y003705D01*
X028647Y003697D01*
X028613Y003693D01*
X028579Y003693D01*
X028545Y003697D01*
X028511Y003705D01*
X028479Y003717D01*
X028448Y003733D01*
X028420Y003751D01*
X028394Y003773D01*
X028370Y003798D01*
X028350Y003826D01*
X028332Y003856D01*
X028319Y003887D01*
X028309Y003920D01*
X028303Y003954D01*
X028301Y003988D01*
X028164Y003260D02*
X028166Y003294D01*
X028172Y003328D01*
X028182Y003361D01*
X028195Y003392D01*
X028213Y003422D01*
X028233Y003450D01*
X028257Y003475D01*
X028283Y003497D01*
X028311Y003515D01*
X028342Y003531D01*
X028374Y003543D01*
X028408Y003551D01*
X028442Y003555D01*
X028476Y003555D01*
X028510Y003551D01*
X028544Y003543D01*
X028576Y003531D01*
X028606Y003515D01*
X028635Y003497D01*
X028661Y003475D01*
X028685Y003450D01*
X028705Y003422D01*
X028723Y003392D01*
X028736Y003361D01*
X028746Y003328D01*
X028752Y003294D01*
X028754Y003260D01*
X028752Y003226D01*
X028746Y003192D01*
X028736Y003159D01*
X028723Y003128D01*
X028705Y003098D01*
X028685Y003070D01*
X028661Y003045D01*
X028635Y003023D01*
X028607Y003005D01*
X028576Y002989D01*
X028544Y002977D01*
X028510Y002969D01*
X028476Y002965D01*
X028442Y002965D01*
X028408Y002969D01*
X028374Y002977D01*
X028342Y002989D01*
X028311Y003005D01*
X028283Y003023D01*
X028257Y003045D01*
X028233Y003070D01*
X028213Y003098D01*
X028195Y003128D01*
X028182Y003159D01*
X028172Y003192D01*
X028166Y003226D01*
X028164Y003260D01*
X027278Y003260D02*
X027280Y003194D01*
X027285Y003128D01*
X027295Y003062D01*
X027308Y002997D01*
X027324Y002933D01*
X027344Y002870D01*
X027368Y002808D01*
X027395Y002748D01*
X027425Y002689D01*
X027459Y002632D01*
X027496Y002577D01*
X027536Y002524D01*
X027578Y002473D01*
X027624Y002425D01*
X027672Y002379D01*
X027723Y002337D01*
X027776Y002297D01*
X027831Y002260D01*
X027888Y002226D01*
X027947Y002196D01*
X028007Y002169D01*
X028069Y002145D01*
X028132Y002125D01*
X028196Y002109D01*
X028261Y002096D01*
X028327Y002086D01*
X028393Y002081D01*
X028459Y002079D01*
X029246Y000996D02*
X027671Y000996D01*
X027278Y003260D02*
X027280Y003326D01*
X027285Y003392D01*
X027295Y003458D01*
X027308Y003523D01*
X027324Y003587D01*
X027344Y003650D01*
X027368Y003712D01*
X027395Y003772D01*
X027425Y003831D01*
X027459Y003888D01*
X027496Y003943D01*
X027536Y003996D01*
X027578Y004047D01*
X027624Y004095D01*
X027672Y004141D01*
X027723Y004183D01*
X027776Y004223D01*
X027831Y004260D01*
X027888Y004294D01*
X027947Y004324D01*
X028007Y004351D01*
X028069Y004375D01*
X028132Y004395D01*
X028196Y004411D01*
X028261Y004424D01*
X028327Y004434D01*
X028393Y004439D01*
X028459Y004441D01*
X029246Y005524D02*
X027671Y005524D01*
X026884Y003260D02*
X026886Y003339D01*
X026892Y003418D01*
X026902Y003497D01*
X026916Y003575D01*
X026933Y003652D01*
X026955Y003728D01*
X026980Y003803D01*
X027010Y003876D01*
X027042Y003948D01*
X027079Y004019D01*
X027119Y004087D01*
X027162Y004153D01*
X027208Y004217D01*
X027258Y004279D01*
X027311Y004338D01*
X027366Y004394D01*
X027425Y004448D01*
X027486Y004498D01*
X027549Y004546D01*
X027615Y004590D01*
X027683Y004631D01*
X027753Y004668D01*
X027824Y004702D01*
X027898Y004732D01*
X027972Y004758D01*
X028048Y004780D01*
X028125Y004799D01*
X028203Y004814D01*
X028281Y004825D01*
X028360Y004832D01*
X028439Y004835D01*
X028518Y004834D01*
X028597Y004829D01*
X028676Y004820D01*
X028754Y004807D01*
X028831Y004790D01*
X028908Y004770D01*
X028983Y004745D01*
X029057Y004717D01*
X029130Y004685D01*
X029200Y004650D01*
X029269Y004611D01*
X029336Y004568D01*
X029401Y004522D01*
X029463Y004474D01*
X029523Y004422D01*
X029580Y004367D01*
X029634Y004309D01*
X029685Y004249D01*
X029733Y004186D01*
X029778Y004121D01*
X029820Y004053D01*
X029858Y003984D01*
X029892Y003913D01*
X029923Y003840D01*
X029951Y003765D01*
X029974Y003690D01*
X029994Y003613D01*
X030010Y003536D01*
X030022Y003457D01*
X030030Y003379D01*
X030034Y003300D01*
X030034Y003220D01*
X030030Y003141D01*
X030022Y003063D01*
X030010Y002984D01*
X029994Y002907D01*
X029974Y002830D01*
X029951Y002755D01*
X029923Y002680D01*
X029892Y002607D01*
X029858Y002536D01*
X029820Y002467D01*
X029778Y002399D01*
X029733Y002334D01*
X029685Y002271D01*
X029634Y002211D01*
X029580Y002153D01*
X029523Y002098D01*
X029463Y002046D01*
X029401Y001998D01*
X029336Y001952D01*
X029269Y001909D01*
X029200Y001870D01*
X029130Y001835D01*
X029057Y001803D01*
X028983Y001775D01*
X028908Y001750D01*
X028831Y001730D01*
X028754Y001713D01*
X028676Y001700D01*
X028597Y001691D01*
X028518Y001686D01*
X028439Y001685D01*
X028360Y001688D01*
X028281Y001695D01*
X028203Y001706D01*
X028125Y001721D01*
X028048Y001740D01*
X027972Y001762D01*
X027898Y001788D01*
X027824Y001818D01*
X027753Y001852D01*
X027683Y001889D01*
X027615Y001930D01*
X027549Y001974D01*
X027486Y002022D01*
X027425Y002072D01*
X027366Y002126D01*
X027311Y002182D01*
X027258Y002241D01*
X027208Y002303D01*
X027162Y002367D01*
X027119Y002433D01*
X027079Y002501D01*
X027042Y002572D01*
X027010Y002644D01*
X026980Y002717D01*
X026955Y002792D01*
X026933Y002868D01*
X026916Y002945D01*
X026902Y003023D01*
X026892Y003102D01*
X026886Y003181D01*
X026884Y003260D01*
X026097Y003260D02*
X026100Y003377D01*
X026108Y003494D01*
X026123Y003611D01*
X026143Y003727D01*
X026168Y003841D01*
X026199Y003954D01*
X026235Y004066D01*
X026277Y004176D01*
X026324Y004283D01*
X026377Y004388D01*
X026434Y004490D01*
X026496Y004590D01*
X026563Y004686D01*
X026635Y004779D01*
X026711Y004869D01*
X026791Y004954D01*
X026876Y005036D01*
X026964Y005113D01*
X027056Y005186D01*
X027151Y005255D01*
X027250Y005318D01*
X027351Y005377D01*
X027456Y005431D01*
X027562Y005480D01*
X027671Y005523D01*
X026097Y003260D02*
X026100Y003143D01*
X026108Y003026D01*
X026123Y002909D01*
X026143Y002793D01*
X026168Y002679D01*
X026199Y002566D01*
X026235Y002454D01*
X026277Y002344D01*
X026324Y002237D01*
X026377Y002132D01*
X026434Y002030D01*
X026496Y001930D01*
X026563Y001834D01*
X026635Y001741D01*
X026711Y001651D01*
X026791Y001566D01*
X026876Y001484D01*
X026964Y001407D01*
X027056Y001334D01*
X027151Y001265D01*
X027250Y001202D01*
X027351Y001143D01*
X027456Y001089D01*
X027562Y001040D01*
X027671Y000997D01*
X022533Y003398D02*
X022455Y003398D01*
X022433Y003396D01*
X022412Y003391D01*
X022392Y003383D01*
X022374Y003372D01*
X022357Y003358D01*
X022343Y003341D01*
X022332Y003323D01*
X022324Y003303D01*
X022319Y003282D01*
X022317Y003260D01*
X022319Y003237D01*
X022324Y003214D01*
X022333Y003192D01*
X022345Y003172D01*
X022360Y003154D01*
X022378Y003138D01*
X022398Y003126D01*
X022419Y003116D01*
X022442Y003110D01*
X022465Y003108D01*
X022488Y003109D01*
X022511Y003114D01*
X022533Y003122D01*
X021727Y002906D02*
X021729Y002940D01*
X021735Y002974D01*
X021745Y003007D01*
X021758Y003038D01*
X021776Y003068D01*
X021796Y003096D01*
X021820Y003121D01*
X021846Y003143D01*
X021874Y003161D01*
X021905Y003177D01*
X021937Y003189D01*
X021971Y003197D01*
X022005Y003201D01*
X022039Y003201D01*
X022073Y003197D01*
X022107Y003189D01*
X022139Y003177D01*
X022169Y003161D01*
X022198Y003143D01*
X022224Y003121D01*
X022248Y003096D01*
X022268Y003068D01*
X022286Y003038D01*
X022299Y003007D01*
X022309Y002974D01*
X022315Y002940D01*
X022317Y002906D01*
X022315Y002872D01*
X022309Y002838D01*
X022299Y002805D01*
X022286Y002774D01*
X022268Y002744D01*
X022248Y002716D01*
X022224Y002691D01*
X022198Y002669D01*
X022170Y002651D01*
X022139Y002635D01*
X022107Y002623D01*
X022073Y002615D01*
X022039Y002611D01*
X022005Y002611D01*
X021971Y002615D01*
X021937Y002623D01*
X021905Y002635D01*
X021874Y002651D01*
X021846Y002669D01*
X021820Y002691D01*
X021796Y002716D01*
X021776Y002744D01*
X021758Y002774D01*
X021745Y002805D01*
X021735Y002838D01*
X021729Y002872D01*
X021727Y002906D01*
X022533Y003122D02*
X022531Y003059D01*
X022525Y002996D01*
X022516Y002934D01*
X022503Y002872D01*
X022486Y002812D01*
X022465Y002752D01*
X022441Y002694D01*
X022414Y002637D01*
X022383Y002582D01*
X022348Y002530D01*
X022311Y002479D01*
X022271Y002430D01*
X022228Y002384D01*
X022182Y002341D01*
X022133Y002301D01*
X022082Y002264D01*
X022030Y002229D01*
X021975Y002198D01*
X021918Y002171D01*
X021860Y002147D01*
X021800Y002126D01*
X021740Y002109D01*
X021678Y002096D01*
X021616Y002087D01*
X021553Y002081D01*
X021490Y002079D01*
X021372Y002079D01*
X021215Y002531D02*
X021217Y002565D01*
X021223Y002599D01*
X021233Y002632D01*
X021246Y002663D01*
X021264Y002693D01*
X021284Y002721D01*
X021308Y002746D01*
X021334Y002768D01*
X021362Y002786D01*
X021393Y002802D01*
X021425Y002814D01*
X021459Y002822D01*
X021493Y002826D01*
X021527Y002826D01*
X021561Y002822D01*
X021595Y002814D01*
X021627Y002802D01*
X021657Y002786D01*
X021686Y002768D01*
X021712Y002746D01*
X021736Y002721D01*
X021756Y002693D01*
X021774Y002663D01*
X021787Y002632D01*
X021797Y002599D01*
X021803Y002565D01*
X021805Y002531D01*
X021803Y002497D01*
X021797Y002463D01*
X021787Y002430D01*
X021774Y002399D01*
X021756Y002369D01*
X021736Y002341D01*
X021712Y002316D01*
X021686Y002294D01*
X021658Y002276D01*
X021627Y002260D01*
X021595Y002248D01*
X021561Y002240D01*
X021527Y002236D01*
X021493Y002236D01*
X021459Y002240D01*
X021425Y002248D01*
X021393Y002260D01*
X021362Y002276D01*
X021334Y002294D01*
X021308Y002316D01*
X021284Y002341D01*
X021264Y002369D01*
X021246Y002399D01*
X021233Y002430D01*
X021223Y002463D01*
X021217Y002497D01*
X021215Y002531D01*
X020605Y002689D02*
X020607Y002723D01*
X020613Y002757D01*
X020623Y002790D01*
X020636Y002821D01*
X020654Y002851D01*
X020674Y002879D01*
X020698Y002904D01*
X020724Y002926D01*
X020752Y002944D01*
X020783Y002960D01*
X020815Y002972D01*
X020849Y002980D01*
X020883Y002984D01*
X020917Y002984D01*
X020951Y002980D01*
X020985Y002972D01*
X021017Y002960D01*
X021047Y002944D01*
X021076Y002926D01*
X021102Y002904D01*
X021126Y002879D01*
X021146Y002851D01*
X021164Y002821D01*
X021177Y002790D01*
X021187Y002757D01*
X021193Y002723D01*
X021195Y002689D01*
X021193Y002655D01*
X021187Y002621D01*
X021177Y002588D01*
X021164Y002557D01*
X021146Y002527D01*
X021126Y002499D01*
X021102Y002474D01*
X021076Y002452D01*
X021048Y002434D01*
X021017Y002418D01*
X020985Y002406D01*
X020951Y002398D01*
X020917Y002394D01*
X020883Y002394D01*
X020849Y002398D01*
X020815Y002406D01*
X020783Y002418D01*
X020752Y002434D01*
X020724Y002452D01*
X020698Y002474D01*
X020674Y002499D01*
X020654Y002527D01*
X020636Y002557D01*
X020623Y002588D01*
X020613Y002621D01*
X020607Y002655D01*
X020605Y002689D01*
X022160Y000997D02*
X022269Y001040D01*
X022375Y001089D01*
X022480Y001143D01*
X022581Y001202D01*
X022680Y001265D01*
X022775Y001334D01*
X022867Y001407D01*
X022955Y001484D01*
X023040Y001566D01*
X023120Y001651D01*
X023196Y001741D01*
X023268Y001834D01*
X023335Y001930D01*
X023397Y002030D01*
X023454Y002132D01*
X023507Y002237D01*
X023554Y002344D01*
X023596Y002454D01*
X023632Y002566D01*
X023663Y002679D01*
X023688Y002793D01*
X023708Y002909D01*
X023723Y003026D01*
X023731Y003143D01*
X023734Y003260D01*
X021727Y003614D02*
X021729Y003648D01*
X021735Y003682D01*
X021745Y003715D01*
X021758Y003746D01*
X021776Y003776D01*
X021796Y003804D01*
X021820Y003829D01*
X021846Y003851D01*
X021874Y003869D01*
X021905Y003885D01*
X021937Y003897D01*
X021971Y003905D01*
X022005Y003909D01*
X022039Y003909D01*
X022073Y003905D01*
X022107Y003897D01*
X022139Y003885D01*
X022169Y003869D01*
X022198Y003851D01*
X022224Y003829D01*
X022248Y003804D01*
X022268Y003776D01*
X022286Y003746D01*
X022299Y003715D01*
X022309Y003682D01*
X022315Y003648D01*
X022317Y003614D01*
X022315Y003580D01*
X022309Y003546D01*
X022299Y003513D01*
X022286Y003482D01*
X022268Y003452D01*
X022248Y003424D01*
X022224Y003399D01*
X022198Y003377D01*
X022170Y003359D01*
X022139Y003343D01*
X022107Y003331D01*
X022073Y003323D01*
X022039Y003319D01*
X022005Y003319D01*
X021971Y003323D01*
X021937Y003331D01*
X021905Y003343D01*
X021874Y003359D01*
X021846Y003377D01*
X021820Y003399D01*
X021796Y003424D01*
X021776Y003452D01*
X021758Y003482D01*
X021745Y003513D01*
X021735Y003546D01*
X021729Y003580D01*
X021727Y003614D01*
X022533Y003398D02*
X022531Y003461D01*
X022525Y003524D01*
X022516Y003586D01*
X022503Y003648D01*
X022486Y003708D01*
X022465Y003768D01*
X022441Y003826D01*
X022414Y003883D01*
X022383Y003938D01*
X022348Y003990D01*
X022311Y004041D01*
X022271Y004090D01*
X022228Y004136D01*
X022182Y004179D01*
X022133Y004219D01*
X022082Y004256D01*
X022030Y004291D01*
X021975Y004322D01*
X021918Y004349D01*
X021860Y004373D01*
X021800Y004394D01*
X021740Y004411D01*
X021678Y004424D01*
X021616Y004433D01*
X021553Y004439D01*
X021490Y004441D01*
X021372Y004441D01*
X021215Y003988D02*
X021217Y004022D01*
X021223Y004056D01*
X021233Y004089D01*
X021246Y004120D01*
X021264Y004150D01*
X021284Y004178D01*
X021308Y004203D01*
X021334Y004225D01*
X021362Y004243D01*
X021393Y004259D01*
X021425Y004271D01*
X021459Y004279D01*
X021493Y004283D01*
X021527Y004283D01*
X021561Y004279D01*
X021595Y004271D01*
X021627Y004259D01*
X021657Y004243D01*
X021686Y004225D01*
X021712Y004203D01*
X021736Y004178D01*
X021756Y004150D01*
X021774Y004120D01*
X021787Y004089D01*
X021797Y004056D01*
X021803Y004022D01*
X021805Y003988D01*
X021803Y003954D01*
X021797Y003920D01*
X021787Y003887D01*
X021774Y003856D01*
X021756Y003826D01*
X021736Y003798D01*
X021712Y003773D01*
X021686Y003751D01*
X021658Y003733D01*
X021627Y003717D01*
X021595Y003705D01*
X021561Y003697D01*
X021527Y003693D01*
X021493Y003693D01*
X021459Y003697D01*
X021425Y003705D01*
X021393Y003717D01*
X021362Y003733D01*
X021334Y003751D01*
X021308Y003773D01*
X021284Y003798D01*
X021264Y003826D01*
X021246Y003856D01*
X021233Y003887D01*
X021223Y003920D01*
X021217Y003954D01*
X021215Y003988D01*
X021077Y003260D02*
X021079Y003294D01*
X021085Y003328D01*
X021095Y003361D01*
X021108Y003392D01*
X021126Y003422D01*
X021146Y003450D01*
X021170Y003475D01*
X021196Y003497D01*
X021224Y003515D01*
X021255Y003531D01*
X021287Y003543D01*
X021321Y003551D01*
X021355Y003555D01*
X021389Y003555D01*
X021423Y003551D01*
X021457Y003543D01*
X021489Y003531D01*
X021519Y003515D01*
X021548Y003497D01*
X021574Y003475D01*
X021598Y003450D01*
X021618Y003422D01*
X021636Y003392D01*
X021649Y003361D01*
X021659Y003328D01*
X021665Y003294D01*
X021667Y003260D01*
X021665Y003226D01*
X021659Y003192D01*
X021649Y003159D01*
X021636Y003128D01*
X021618Y003098D01*
X021598Y003070D01*
X021574Y003045D01*
X021548Y003023D01*
X021520Y003005D01*
X021489Y002989D01*
X021457Y002977D01*
X021423Y002969D01*
X021389Y002965D01*
X021355Y002965D01*
X021321Y002969D01*
X021287Y002977D01*
X021255Y002989D01*
X021224Y003005D01*
X021196Y003023D01*
X021170Y003045D01*
X021146Y003070D01*
X021126Y003098D01*
X021108Y003128D01*
X021095Y003159D01*
X021085Y003192D01*
X021079Y003226D01*
X021077Y003260D01*
X020191Y003260D02*
X020193Y003194D01*
X020198Y003128D01*
X020208Y003062D01*
X020221Y002997D01*
X020237Y002933D01*
X020257Y002870D01*
X020281Y002808D01*
X020308Y002748D01*
X020338Y002689D01*
X020372Y002632D01*
X020409Y002577D01*
X020449Y002524D01*
X020491Y002473D01*
X020537Y002425D01*
X020585Y002379D01*
X020636Y002337D01*
X020689Y002297D01*
X020744Y002260D01*
X020801Y002226D01*
X020860Y002196D01*
X020920Y002169D01*
X020982Y002145D01*
X021045Y002125D01*
X021109Y002109D01*
X021174Y002096D01*
X021240Y002086D01*
X021306Y002081D01*
X021372Y002079D01*
X022159Y000996D02*
X020585Y000996D01*
X020191Y003260D02*
X020193Y003326D01*
X020198Y003392D01*
X020208Y003458D01*
X020221Y003523D01*
X020237Y003587D01*
X020257Y003650D01*
X020281Y003712D01*
X020308Y003772D01*
X020338Y003831D01*
X020372Y003888D01*
X020409Y003943D01*
X020449Y003996D01*
X020491Y004047D01*
X020537Y004095D01*
X020585Y004141D01*
X020636Y004183D01*
X020689Y004223D01*
X020744Y004260D01*
X020801Y004294D01*
X020860Y004324D01*
X020920Y004351D01*
X020982Y004375D01*
X021045Y004395D01*
X021109Y004411D01*
X021174Y004424D01*
X021240Y004434D01*
X021306Y004439D01*
X021372Y004441D01*
X020585Y005524D02*
X022159Y005524D01*
X020584Y005523D02*
X020475Y005480D01*
X020369Y005431D01*
X020264Y005377D01*
X020163Y005318D01*
X020064Y005255D01*
X019969Y005186D01*
X019877Y005113D01*
X019789Y005036D01*
X019704Y004954D01*
X019624Y004869D01*
X019548Y004779D01*
X019476Y004686D01*
X019409Y004590D01*
X019347Y004490D01*
X019290Y004388D01*
X019237Y004283D01*
X019190Y004176D01*
X019148Y004066D01*
X019112Y003954D01*
X019081Y003841D01*
X019056Y003727D01*
X019036Y003611D01*
X019021Y003494D01*
X019013Y003377D01*
X019010Y003260D01*
X019797Y003260D02*
X019799Y003339D01*
X019805Y003418D01*
X019815Y003497D01*
X019829Y003575D01*
X019846Y003652D01*
X019868Y003728D01*
X019893Y003803D01*
X019923Y003876D01*
X019955Y003948D01*
X019992Y004019D01*
X020032Y004087D01*
X020075Y004153D01*
X020121Y004217D01*
X020171Y004279D01*
X020224Y004338D01*
X020279Y004394D01*
X020338Y004448D01*
X020399Y004498D01*
X020462Y004546D01*
X020528Y004590D01*
X020596Y004631D01*
X020666Y004668D01*
X020737Y004702D01*
X020811Y004732D01*
X020885Y004758D01*
X020961Y004780D01*
X021038Y004799D01*
X021116Y004814D01*
X021194Y004825D01*
X021273Y004832D01*
X021352Y004835D01*
X021431Y004834D01*
X021510Y004829D01*
X021589Y004820D01*
X021667Y004807D01*
X021744Y004790D01*
X021821Y004770D01*
X021896Y004745D01*
X021970Y004717D01*
X022043Y004685D01*
X022113Y004650D01*
X022182Y004611D01*
X022249Y004568D01*
X022314Y004522D01*
X022376Y004474D01*
X022436Y004422D01*
X022493Y004367D01*
X022547Y004309D01*
X022598Y004249D01*
X022646Y004186D01*
X022691Y004121D01*
X022733Y004053D01*
X022771Y003984D01*
X022805Y003913D01*
X022836Y003840D01*
X022864Y003765D01*
X022887Y003690D01*
X022907Y003613D01*
X022923Y003536D01*
X022935Y003457D01*
X022943Y003379D01*
X022947Y003300D01*
X022947Y003220D01*
X022943Y003141D01*
X022935Y003063D01*
X022923Y002984D01*
X022907Y002907D01*
X022887Y002830D01*
X022864Y002755D01*
X022836Y002680D01*
X022805Y002607D01*
X022771Y002536D01*
X022733Y002467D01*
X022691Y002399D01*
X022646Y002334D01*
X022598Y002271D01*
X022547Y002211D01*
X022493Y002153D01*
X022436Y002098D01*
X022376Y002046D01*
X022314Y001998D01*
X022249Y001952D01*
X022182Y001909D01*
X022113Y001870D01*
X022043Y001835D01*
X021970Y001803D01*
X021896Y001775D01*
X021821Y001750D01*
X021744Y001730D01*
X021667Y001713D01*
X021589Y001700D01*
X021510Y001691D01*
X021431Y001686D01*
X021352Y001685D01*
X021273Y001688D01*
X021194Y001695D01*
X021116Y001706D01*
X021038Y001721D01*
X020961Y001740D01*
X020885Y001762D01*
X020811Y001788D01*
X020737Y001818D01*
X020666Y001852D01*
X020596Y001889D01*
X020528Y001930D01*
X020462Y001974D01*
X020399Y002022D01*
X020338Y002072D01*
X020279Y002126D01*
X020224Y002182D01*
X020171Y002241D01*
X020121Y002303D01*
X020075Y002367D01*
X020032Y002433D01*
X019992Y002501D01*
X019955Y002572D01*
X019923Y002644D01*
X019893Y002717D01*
X019868Y002792D01*
X019846Y002868D01*
X019829Y002945D01*
X019815Y003023D01*
X019805Y003102D01*
X019799Y003181D01*
X019797Y003260D01*
X019010Y003260D02*
X019013Y003143D01*
X019021Y003026D01*
X019036Y002909D01*
X019056Y002793D01*
X019081Y002679D01*
X019112Y002566D01*
X019148Y002454D01*
X019190Y002344D01*
X019237Y002237D01*
X019290Y002132D01*
X019347Y002030D01*
X019409Y001930D01*
X019476Y001834D01*
X019548Y001741D01*
X019624Y001651D01*
X019704Y001566D01*
X019789Y001484D01*
X019877Y001407D01*
X019969Y001334D01*
X020064Y001265D01*
X020163Y001202D01*
X020264Y001143D01*
X020369Y001089D01*
X020475Y001040D01*
X020584Y000997D01*
X015073Y000996D02*
X013498Y000996D01*
X013990Y003260D02*
X013992Y003294D01*
X013998Y003328D01*
X014008Y003361D01*
X014021Y003392D01*
X014039Y003422D01*
X014059Y003450D01*
X014083Y003475D01*
X014109Y003497D01*
X014137Y003515D01*
X014168Y003531D01*
X014200Y003543D01*
X014234Y003551D01*
X014268Y003555D01*
X014302Y003555D01*
X014336Y003551D01*
X014370Y003543D01*
X014402Y003531D01*
X014432Y003515D01*
X014461Y003497D01*
X014487Y003475D01*
X014511Y003450D01*
X014531Y003422D01*
X014549Y003392D01*
X014562Y003361D01*
X014572Y003328D01*
X014578Y003294D01*
X014580Y003260D01*
X014578Y003226D01*
X014572Y003192D01*
X014562Y003159D01*
X014549Y003128D01*
X014531Y003098D01*
X014511Y003070D01*
X014487Y003045D01*
X014461Y003023D01*
X014433Y003005D01*
X014402Y002989D01*
X014370Y002977D01*
X014336Y002969D01*
X014302Y002965D01*
X014268Y002965D01*
X014234Y002969D01*
X014200Y002977D01*
X014168Y002989D01*
X014137Y003005D01*
X014109Y003023D01*
X014083Y003045D01*
X014059Y003070D01*
X014039Y003098D01*
X014021Y003128D01*
X014008Y003159D01*
X013998Y003192D01*
X013992Y003226D01*
X013990Y003260D01*
X013104Y003260D02*
X013106Y003194D01*
X013111Y003128D01*
X013121Y003062D01*
X013134Y002997D01*
X013150Y002933D01*
X013170Y002870D01*
X013194Y002808D01*
X013221Y002748D01*
X013251Y002689D01*
X013285Y002632D01*
X013322Y002577D01*
X013362Y002524D01*
X013404Y002473D01*
X013450Y002425D01*
X013498Y002379D01*
X013549Y002337D01*
X013602Y002297D01*
X013657Y002260D01*
X013714Y002226D01*
X013773Y002196D01*
X013833Y002169D01*
X013895Y002145D01*
X013958Y002125D01*
X014022Y002109D01*
X014087Y002096D01*
X014153Y002086D01*
X014219Y002081D01*
X014285Y002079D01*
X013104Y003260D02*
X013106Y003326D01*
X013111Y003392D01*
X013121Y003458D01*
X013134Y003523D01*
X013150Y003587D01*
X013170Y003650D01*
X013194Y003712D01*
X013221Y003772D01*
X013251Y003831D01*
X013285Y003888D01*
X013322Y003943D01*
X013362Y003996D01*
X013404Y004047D01*
X013450Y004095D01*
X013498Y004141D01*
X013549Y004183D01*
X013602Y004223D01*
X013657Y004260D01*
X013714Y004294D01*
X013773Y004324D01*
X013833Y004351D01*
X013895Y004375D01*
X013958Y004395D01*
X014022Y004411D01*
X014087Y004424D01*
X014153Y004434D01*
X014219Y004439D01*
X014285Y004441D01*
X012710Y003260D02*
X012712Y003339D01*
X012718Y003418D01*
X012728Y003497D01*
X012742Y003575D01*
X012759Y003652D01*
X012781Y003728D01*
X012806Y003803D01*
X012836Y003876D01*
X012868Y003948D01*
X012905Y004019D01*
X012945Y004087D01*
X012988Y004153D01*
X013034Y004217D01*
X013084Y004279D01*
X013137Y004338D01*
X013192Y004394D01*
X013251Y004448D01*
X013312Y004498D01*
X013375Y004546D01*
X013441Y004590D01*
X013509Y004631D01*
X013579Y004668D01*
X013650Y004702D01*
X013724Y004732D01*
X013798Y004758D01*
X013874Y004780D01*
X013951Y004799D01*
X014029Y004814D01*
X014107Y004825D01*
X014186Y004832D01*
X014265Y004835D01*
X014344Y004834D01*
X014423Y004829D01*
X014502Y004820D01*
X014580Y004807D01*
X014657Y004790D01*
X014734Y004770D01*
X014809Y004745D01*
X014883Y004717D01*
X014956Y004685D01*
X015026Y004650D01*
X015095Y004611D01*
X015162Y004568D01*
X015227Y004522D01*
X015289Y004474D01*
X015349Y004422D01*
X015406Y004367D01*
X015460Y004309D01*
X015511Y004249D01*
X015559Y004186D01*
X015604Y004121D01*
X015646Y004053D01*
X015684Y003984D01*
X015718Y003913D01*
X015749Y003840D01*
X015777Y003765D01*
X015800Y003690D01*
X015820Y003613D01*
X015836Y003536D01*
X015848Y003457D01*
X015856Y003379D01*
X015860Y003300D01*
X015860Y003220D01*
X015856Y003141D01*
X015848Y003063D01*
X015836Y002984D01*
X015820Y002907D01*
X015800Y002830D01*
X015777Y002755D01*
X015749Y002680D01*
X015718Y002607D01*
X015684Y002536D01*
X015646Y002467D01*
X015604Y002399D01*
X015559Y002334D01*
X015511Y002271D01*
X015460Y002211D01*
X015406Y002153D01*
X015349Y002098D01*
X015289Y002046D01*
X015227Y001998D01*
X015162Y001952D01*
X015095Y001909D01*
X015026Y001870D01*
X014956Y001835D01*
X014883Y001803D01*
X014809Y001775D01*
X014734Y001750D01*
X014657Y001730D01*
X014580Y001713D01*
X014502Y001700D01*
X014423Y001691D01*
X014344Y001686D01*
X014265Y001685D01*
X014186Y001688D01*
X014107Y001695D01*
X014029Y001706D01*
X013951Y001721D01*
X013874Y001740D01*
X013798Y001762D01*
X013724Y001788D01*
X013650Y001818D01*
X013579Y001852D01*
X013509Y001889D01*
X013441Y001930D01*
X013375Y001974D01*
X013312Y002022D01*
X013251Y002072D01*
X013192Y002126D01*
X013137Y002182D01*
X013084Y002241D01*
X013034Y002303D01*
X012988Y002367D01*
X012945Y002433D01*
X012905Y002501D01*
X012868Y002572D01*
X012836Y002644D01*
X012806Y002717D01*
X012781Y002792D01*
X012759Y002868D01*
X012742Y002945D01*
X012728Y003023D01*
X012718Y003102D01*
X012712Y003181D01*
X012710Y003260D01*
X011924Y003260D02*
X011927Y003377D01*
X011935Y003494D01*
X011950Y003611D01*
X011970Y003727D01*
X011995Y003841D01*
X012026Y003954D01*
X012062Y004066D01*
X012104Y004176D01*
X012151Y004283D01*
X012204Y004388D01*
X012261Y004490D01*
X012323Y004590D01*
X012390Y004686D01*
X012462Y004779D01*
X012538Y004869D01*
X012618Y004954D01*
X012703Y005036D01*
X012791Y005113D01*
X012883Y005186D01*
X012978Y005255D01*
X013077Y005318D01*
X013178Y005377D01*
X013283Y005431D01*
X013389Y005480D01*
X013498Y005523D01*
X011924Y003260D02*
X011927Y003143D01*
X011935Y003026D01*
X011950Y002909D01*
X011970Y002793D01*
X011995Y002679D01*
X012026Y002566D01*
X012062Y002454D01*
X012104Y002344D01*
X012151Y002237D01*
X012204Y002132D01*
X012261Y002030D01*
X012323Y001930D01*
X012390Y001834D01*
X012462Y001741D01*
X012538Y001651D01*
X012618Y001566D01*
X012703Y001484D01*
X012791Y001407D01*
X012883Y001334D01*
X012978Y001265D01*
X013077Y001202D01*
X013178Y001143D01*
X013283Y001089D01*
X013389Y001040D01*
X013498Y000997D01*
D13*
X016472Y001447D02*
X016485Y001397D01*
X016517Y001378D01*
X016567Y001392D01*
X016604Y001455D01*
X016654Y001469D01*
X016685Y001450D01*
X016699Y001400D01*
X016662Y001337D01*
X016612Y001323D01*
X016472Y001447D02*
X016508Y001510D01*
X016558Y001524D01*
X016564Y001606D02*
X016754Y001496D01*
X016659Y001551D02*
X016732Y001678D01*
X016637Y001734D02*
X016828Y001623D01*
X016865Y001688D02*
X016902Y001751D01*
X016883Y001719D02*
X016693Y001830D01*
X016711Y001861D02*
X016674Y001798D01*
X016748Y001925D02*
X016939Y001815D01*
X017012Y001942D01*
X017049Y002007D02*
X016858Y002117D01*
X016821Y002052D02*
X016748Y001925D01*
X016843Y001870D02*
X016880Y001934D01*
X017049Y002007D02*
X017122Y002134D01*
X017159Y002198D02*
X017214Y002293D01*
X017201Y002343D01*
X017074Y002417D01*
X017024Y002403D01*
X016969Y002308D01*
X017159Y002198D01*
X023558Y001447D02*
X023572Y001397D01*
X023603Y001378D01*
X023654Y001392D01*
X023690Y001455D01*
X023740Y001469D01*
X023772Y001450D01*
X023786Y001400D01*
X023749Y001337D01*
X023699Y001323D01*
X023558Y001447D02*
X023595Y001510D01*
X023645Y001524D01*
X023650Y001606D02*
X023841Y001496D01*
X023746Y001551D02*
X023819Y001678D01*
X023914Y001623D02*
X023724Y001734D01*
X023761Y001798D02*
X023797Y001861D01*
X023779Y001830D02*
X023970Y001719D01*
X023951Y001688D02*
X023988Y001751D01*
X024025Y001815D02*
X024099Y001942D01*
X024136Y002007D02*
X024209Y002134D01*
X024246Y002198D02*
X024301Y002293D01*
X024288Y002343D01*
X024161Y002417D01*
X024110Y002403D01*
X024055Y002308D01*
X024246Y002198D01*
X024136Y002007D02*
X023945Y002117D01*
X023908Y002052D02*
X023834Y001925D01*
X024025Y001815D01*
X023930Y001870D02*
X023966Y001934D01*
X030645Y001447D02*
X030658Y001397D01*
X030690Y001378D01*
X030740Y001392D01*
X030777Y001455D01*
X030827Y001469D01*
X030859Y001450D01*
X030872Y001400D01*
X030835Y001337D01*
X030785Y001323D01*
X030645Y001447D02*
X030681Y001510D01*
X030732Y001524D01*
X030737Y001606D02*
X030928Y001496D01*
X030832Y001551D02*
X030906Y001678D01*
X031001Y001623D02*
X030810Y001734D01*
X030847Y001798D02*
X030884Y001861D01*
X030866Y001830D02*
X031056Y001719D01*
X031038Y001688D02*
X031075Y001751D01*
X031112Y001815D02*
X031185Y001942D01*
X031222Y002007D02*
X031296Y002134D01*
X031333Y002198D02*
X031388Y002293D01*
X031374Y002343D01*
X031247Y002417D01*
X031197Y002403D01*
X031142Y002308D01*
X031333Y002198D01*
X031222Y002007D02*
X031032Y002117D01*
X030994Y002052D02*
X030921Y001925D01*
X031112Y001815D01*
X031016Y001870D02*
X031053Y001934D01*
X037731Y001447D02*
X037745Y001397D01*
X037777Y001378D01*
X037827Y001392D01*
X037863Y001455D01*
X037914Y001469D01*
X037945Y001450D01*
X037959Y001400D01*
X037922Y001337D01*
X037872Y001323D01*
X037731Y001447D02*
X037768Y001510D01*
X037818Y001524D01*
X037824Y001606D02*
X038014Y001496D01*
X037919Y001551D02*
X037992Y001678D01*
X037897Y001734D02*
X038088Y001623D01*
X038125Y001688D02*
X038161Y001751D01*
X038143Y001719D02*
X037952Y001830D01*
X037934Y001798D02*
X037971Y001861D01*
X038008Y001925D02*
X038198Y001815D01*
X038272Y001942D01*
X038309Y002007D02*
X038382Y002134D01*
X038419Y002198D02*
X038229Y002308D01*
X038284Y002403D01*
X038334Y002417D01*
X038461Y002343D01*
X038474Y002293D01*
X038419Y002198D01*
X038309Y002007D02*
X038118Y002117D01*
X038081Y002052D02*
X038008Y001925D01*
X038103Y001870D02*
X038140Y001934D01*
D14*
X038693Y007753D03*
X038693Y008213D03*
X037512Y008213D03*
X037512Y007753D03*
X036335Y007756D03*
X036335Y008216D03*
X028457Y008213D03*
X028457Y007753D03*
X027275Y007753D03*
X027275Y008213D03*
X026098Y008216D03*
X026098Y007756D03*
X024913Y007753D03*
X024913Y008213D03*
X023732Y008213D03*
X023732Y007753D03*
X022551Y007753D03*
X022551Y008213D03*
X021370Y008213D03*
X021370Y007753D03*
X020189Y007753D03*
X020189Y008213D03*
X019008Y008213D03*
X019008Y007753D03*
X013102Y007753D03*
X013102Y008213D03*
X011921Y008213D03*
X011921Y007753D03*
D15*
X012088Y007844D02*
X012088Y008124D01*
X011753Y008124D02*
X011753Y007844D01*
X012934Y007844D02*
X012934Y008124D01*
X013269Y008124D02*
X013269Y007844D01*
X018840Y007844D02*
X018840Y008124D01*
X019175Y008124D02*
X019175Y007844D01*
X020021Y007844D02*
X020021Y008124D01*
X020356Y008124D02*
X020356Y007844D01*
X021202Y007844D02*
X021202Y008124D01*
X021537Y008124D02*
X021537Y007844D01*
X022383Y007844D02*
X022383Y008124D01*
X022718Y008124D02*
X022718Y007844D01*
X023564Y007844D02*
X023564Y008124D01*
X023899Y008124D02*
X023899Y007844D01*
X024745Y007844D02*
X024745Y008124D01*
X025080Y008124D02*
X025080Y007844D01*
X025931Y007844D02*
X025931Y008124D01*
X026266Y008124D02*
X026266Y007844D01*
X027107Y007844D02*
X027107Y008124D01*
X027442Y008124D02*
X027442Y007844D01*
X028289Y007844D02*
X028289Y008124D01*
X028624Y008124D02*
X028624Y007844D01*
X036168Y007844D02*
X036168Y008124D01*
X036503Y008124D02*
X036503Y007844D01*
X037344Y007844D02*
X037344Y008124D01*
X037679Y008124D02*
X037679Y007844D01*
X038525Y007844D02*
X038525Y008124D01*
X038860Y008124D02*
X038860Y007844D01*
D16*
X028471Y007984D02*
X028447Y007984D01*
D17*
X026096Y007984D03*
X024915Y007984D03*
X023734Y007984D03*
X022553Y007984D03*
X021372Y007984D03*
X020191Y007984D03*
X019010Y007984D03*
X013104Y007984D03*
X011923Y007984D03*
X036333Y007984D03*
X037514Y007984D03*
X038695Y007984D03*
M02*
