G75*
G70*
%OFA0B0*%
%FSLAX24Y24*%
%IPPOS*%
%LPD*%
%AMOC8*
5,1,8,0,0,1.08239X$1,22.5*
%
%ADD10C,0.0030*%
%ADD11C,0.0010*%
%ADD12C,0.0050*%
%ADD13C,0.0020*%
%ADD14R,0.0374X0.0197*%
%ADD15C,0.0040*%
%ADD16C,0.0220*%
%ADD17R,0.0300X0.0180*%
%ADD18R,0.0197X0.0374*%
%ADD19R,0.0180X0.0300*%
D10*
X018264Y002494D02*
X018585Y002679D01*
X018646Y002573D02*
X018523Y002786D01*
X018432Y002449D02*
X018264Y002494D01*
X018448Y002175D02*
X018769Y002360D01*
X018830Y002254D02*
X018707Y002467D01*
X018617Y002130D02*
X018448Y002175D01*
X018601Y001910D02*
X018854Y001842D01*
X018731Y002056D01*
X018922Y002095D02*
X018601Y001910D01*
X018915Y001737D02*
X019038Y001523D01*
X018939Y001325D02*
X019383Y001297D01*
X019260Y001511D02*
X019062Y001112D01*
X025350Y002494D02*
X025671Y002679D01*
X025733Y002573D02*
X025609Y002786D01*
X025519Y002449D02*
X025350Y002494D01*
X025526Y002313D02*
X025864Y002223D01*
X025886Y002307D01*
X025824Y002414D01*
X025740Y002437D01*
X025526Y002313D01*
X025504Y002229D01*
X025565Y002122D01*
X025650Y002099D01*
X025864Y002223D01*
X025817Y002056D02*
X025941Y001842D01*
X025688Y001910D01*
X026009Y002095D01*
X026002Y001737D02*
X026125Y001523D01*
X026025Y001325D02*
X026470Y001297D01*
X026346Y001511D02*
X026149Y001112D01*
X032406Y002548D02*
X032468Y002441D01*
X032552Y002418D01*
X032613Y002313D02*
X032950Y002223D01*
X032973Y002307D01*
X032911Y002414D01*
X032827Y002437D01*
X032613Y002313D01*
X032590Y002229D01*
X032652Y002122D01*
X032736Y002099D01*
X032950Y002223D01*
X032904Y002056D02*
X033027Y001842D01*
X032775Y001910D01*
X033095Y002095D01*
X032819Y002573D02*
X032482Y002663D01*
X032429Y002632D01*
X032406Y002548D01*
X032696Y002786D02*
X032819Y002573D01*
X033088Y001737D02*
X033212Y001523D01*
X033433Y001511D02*
X033235Y001112D01*
X033112Y001325D02*
X033556Y001297D01*
X039493Y002548D02*
X039515Y002632D01*
X039569Y002663D01*
X039653Y002640D01*
X039676Y002725D01*
X039729Y002755D01*
X039814Y002733D01*
X039875Y002626D01*
X039853Y002542D01*
X039913Y002437D02*
X039998Y002414D01*
X040059Y002307D01*
X040037Y002223D01*
X039700Y002313D01*
X039913Y002437D01*
X039700Y002313D02*
X039677Y002229D01*
X039739Y002122D01*
X039823Y002099D01*
X040037Y002223D01*
X039991Y002056D02*
X040114Y001842D01*
X039861Y001910D01*
X040182Y002095D01*
X039684Y002587D02*
X039653Y002640D01*
X039493Y002548D02*
X039555Y002441D01*
X039639Y002418D01*
X040175Y001737D02*
X040298Y001523D01*
X040199Y001325D02*
X040643Y001297D01*
X040519Y001511D02*
X040322Y001112D01*
D11*
X045233Y004865D02*
X045258Y004840D01*
X045358Y004840D01*
X045383Y004865D01*
X045383Y004915D01*
X045358Y004940D01*
X045308Y004940D01*
X045308Y004890D01*
X045258Y004940D02*
X045233Y004915D01*
X045233Y004865D01*
X045233Y004987D02*
X045383Y005087D01*
X045233Y005087D01*
X045233Y005134D02*
X045233Y005209D01*
X045258Y005234D01*
X045358Y005234D01*
X045383Y005209D01*
X045383Y005134D01*
X045233Y005134D01*
X045233Y004987D02*
X045383Y004987D01*
X044975Y007202D02*
X044925Y007202D01*
X044900Y007227D01*
X044853Y007202D02*
X044753Y007202D01*
X044705Y007202D02*
X044655Y007252D01*
X044680Y007252D02*
X044605Y007252D01*
X044605Y007202D02*
X044605Y007352D01*
X044680Y007352D01*
X044705Y007327D01*
X044705Y007277D01*
X044680Y007252D01*
X044753Y007302D02*
X044803Y007352D01*
X044803Y007202D01*
X044900Y007327D02*
X044925Y007352D01*
X044975Y007352D01*
X045000Y007327D01*
X045000Y007302D01*
X044975Y007277D01*
X045000Y007252D01*
X045000Y007227D01*
X044975Y007202D01*
X044975Y007277D02*
X044950Y007277D01*
X045233Y007596D02*
X045233Y007671D01*
X045258Y007696D01*
X045308Y007696D01*
X045333Y007671D01*
X045333Y007596D01*
X045333Y007646D02*
X045383Y007696D01*
X045358Y007743D02*
X045383Y007768D01*
X045383Y007818D01*
X045358Y007843D01*
X045308Y007843D01*
X045283Y007818D01*
X045283Y007793D01*
X045308Y007743D01*
X045233Y007743D01*
X045233Y007843D01*
X045233Y007596D02*
X045383Y007596D01*
X044202Y007596D02*
X044051Y007596D01*
X044051Y007671D01*
X044077Y007696D01*
X044127Y007696D01*
X044152Y007671D01*
X044152Y007596D01*
X044152Y007646D02*
X044202Y007696D01*
X044177Y007743D02*
X044202Y007768D01*
X044202Y007818D01*
X044177Y007843D01*
X044152Y007843D01*
X044127Y007818D01*
X044127Y007743D01*
X044177Y007743D01*
X044127Y007743D02*
X044077Y007793D01*
X044051Y007843D01*
X043794Y007352D02*
X043819Y007327D01*
X043719Y007227D01*
X043744Y007202D01*
X043794Y007202D01*
X043819Y007227D01*
X043819Y007327D01*
X043794Y007352D02*
X043744Y007352D01*
X043719Y007327D01*
X043719Y007227D01*
X043672Y007202D02*
X043572Y007202D01*
X043524Y007202D02*
X043474Y007252D01*
X043499Y007252D02*
X043424Y007252D01*
X043424Y007202D02*
X043424Y007352D01*
X043499Y007352D01*
X043524Y007327D01*
X043524Y007277D01*
X043499Y007252D01*
X043572Y007302D02*
X043622Y007352D01*
X043622Y007202D01*
X043021Y007596D02*
X042870Y007596D01*
X042870Y007671D01*
X042895Y007696D01*
X042945Y007696D01*
X042970Y007671D01*
X042970Y007596D01*
X042970Y007671D01*
X042945Y007696D01*
X042895Y007696D01*
X042870Y007671D01*
X042870Y007596D01*
X043021Y007596D01*
X042970Y007646D02*
X043021Y007696D01*
X042970Y007646D01*
X043021Y007743D02*
X042920Y007843D01*
X042895Y007843D01*
X042870Y007818D01*
X042870Y007768D01*
X042895Y007743D01*
X042870Y007768D01*
X042870Y007818D01*
X042895Y007843D01*
X042920Y007843D01*
X043021Y007743D01*
X043021Y007843D01*
X043021Y007743D01*
X035146Y007743D02*
X035146Y007843D01*
X035146Y007793D02*
X034996Y007793D01*
X035046Y007743D01*
X035021Y007696D02*
X034996Y007671D01*
X034996Y007621D01*
X035021Y007596D01*
X035121Y007596D01*
X035146Y007621D01*
X035146Y007671D01*
X035121Y007696D01*
X033965Y007743D02*
X033965Y007843D01*
X033965Y007793D02*
X033815Y007793D01*
X033865Y007743D01*
X033815Y007696D02*
X033815Y007596D01*
X033965Y007596D01*
X033890Y007596D02*
X033890Y007646D01*
X032784Y007696D02*
X032734Y007646D01*
X032734Y007671D02*
X032734Y007596D01*
X032784Y007596D02*
X032634Y007596D01*
X032634Y007671D01*
X032659Y007696D01*
X032709Y007696D01*
X032734Y007671D01*
X032684Y007743D02*
X032634Y007793D01*
X032784Y007793D01*
X032784Y007743D02*
X032784Y007843D01*
X031603Y007818D02*
X031453Y007818D01*
X031528Y007743D01*
X031528Y007843D01*
X031528Y007696D02*
X031553Y007671D01*
X031553Y007596D01*
X031553Y007646D02*
X031603Y007696D01*
X031528Y007696D02*
X031478Y007696D01*
X031453Y007671D01*
X031453Y007596D01*
X031603Y007596D01*
X030422Y007596D02*
X030272Y007596D01*
X030272Y007671D01*
X030297Y007696D01*
X030347Y007696D01*
X030372Y007671D01*
X030372Y007596D01*
X030372Y007646D02*
X030422Y007696D01*
X030397Y007743D02*
X030422Y007768D01*
X030422Y007818D01*
X030397Y007843D01*
X030372Y007843D01*
X030347Y007818D01*
X030347Y007793D01*
X030347Y007818D02*
X030322Y007843D01*
X030297Y007843D01*
X030272Y007818D01*
X030272Y007768D01*
X030297Y007743D01*
X029241Y007768D02*
X029216Y007743D01*
X029191Y007743D01*
X029166Y007768D01*
X029166Y007818D01*
X029191Y007843D01*
X029216Y007843D01*
X029241Y007818D01*
X029241Y007768D01*
X029241Y007696D02*
X029191Y007646D01*
X029191Y007671D02*
X029191Y007596D01*
X029241Y007596D02*
X029091Y007596D01*
X029091Y007671D01*
X029116Y007696D01*
X029166Y007696D01*
X029191Y007671D01*
X029141Y007743D02*
X029116Y007743D01*
X029091Y007768D01*
X029091Y007818D01*
X029116Y007843D01*
X029141Y007843D01*
X029166Y007818D01*
X029166Y007768D02*
X029141Y007743D01*
X028060Y007743D02*
X028035Y007743D01*
X027935Y007843D01*
X027910Y007843D01*
X027910Y007743D01*
X027935Y007696D02*
X027985Y007696D01*
X028010Y007671D01*
X028010Y007596D01*
X028010Y007646D02*
X028060Y007696D01*
X028060Y007596D02*
X027910Y007596D01*
X027910Y007671D01*
X027935Y007696D01*
X026879Y007696D02*
X026829Y007646D01*
X026829Y007671D02*
X026829Y007596D01*
X026879Y007596D02*
X026729Y007596D01*
X026729Y007671D01*
X026754Y007696D01*
X026804Y007696D01*
X026829Y007671D01*
X026854Y007743D02*
X026879Y007768D01*
X026879Y007818D01*
X026854Y007843D01*
X026754Y007843D01*
X026729Y007818D01*
X026729Y007768D01*
X026754Y007743D01*
X026779Y007743D01*
X026804Y007768D01*
X026804Y007843D01*
X019792Y007743D02*
X019792Y007843D01*
X019792Y007890D02*
X019792Y007990D01*
X019792Y007940D02*
X019642Y007940D01*
X019692Y007890D01*
X019642Y007793D02*
X019792Y007793D01*
X019792Y007696D02*
X019742Y007646D01*
X019742Y007671D02*
X019742Y007596D01*
X019792Y007596D02*
X019642Y007596D01*
X019642Y007671D01*
X019667Y007696D01*
X019717Y007696D01*
X019742Y007671D01*
X019692Y007743D02*
X019642Y007793D01*
X018611Y007793D02*
X018461Y007793D01*
X018511Y007743D01*
X018536Y007696D02*
X018561Y007671D01*
X018561Y007596D01*
X018561Y007646D02*
X018611Y007696D01*
X018611Y007743D02*
X018611Y007843D01*
X018611Y007890D02*
X018511Y007990D01*
X018486Y007990D01*
X018461Y007965D01*
X018461Y007915D01*
X018486Y007890D01*
X018611Y007890D02*
X018611Y007990D01*
X018536Y007696D02*
X018486Y007696D01*
X018461Y007671D01*
X018461Y007596D01*
X018611Y007596D01*
D12*
X019797Y005819D02*
X022947Y005819D01*
X024128Y003654D01*
X024128Y002866D01*
X022947Y000701D01*
X019797Y000701D01*
X018419Y003260D01*
X019797Y005819D01*
X020585Y005524D02*
X022159Y005524D01*
X021490Y004441D02*
X021372Y004441D01*
X021215Y003988D02*
X021217Y004022D01*
X021223Y004056D01*
X021233Y004089D01*
X021246Y004120D01*
X021264Y004150D01*
X021284Y004178D01*
X021308Y004203D01*
X021334Y004225D01*
X021362Y004243D01*
X021393Y004259D01*
X021425Y004271D01*
X021459Y004279D01*
X021493Y004283D01*
X021527Y004283D01*
X021561Y004279D01*
X021595Y004271D01*
X021627Y004259D01*
X021657Y004243D01*
X021686Y004225D01*
X021712Y004203D01*
X021736Y004178D01*
X021756Y004150D01*
X021774Y004120D01*
X021787Y004089D01*
X021797Y004056D01*
X021803Y004022D01*
X021805Y003988D01*
X021803Y003954D01*
X021797Y003920D01*
X021787Y003887D01*
X021774Y003856D01*
X021756Y003826D01*
X021736Y003798D01*
X021712Y003773D01*
X021686Y003751D01*
X021658Y003733D01*
X021627Y003717D01*
X021595Y003705D01*
X021561Y003697D01*
X021527Y003693D01*
X021493Y003693D01*
X021459Y003697D01*
X021425Y003705D01*
X021393Y003717D01*
X021362Y003733D01*
X021334Y003751D01*
X021308Y003773D01*
X021284Y003798D01*
X021264Y003826D01*
X021246Y003856D01*
X021233Y003887D01*
X021223Y003920D01*
X021217Y003954D01*
X021215Y003988D01*
X020605Y003831D02*
X020607Y003865D01*
X020613Y003899D01*
X020623Y003932D01*
X020636Y003963D01*
X020654Y003993D01*
X020674Y004021D01*
X020698Y004046D01*
X020724Y004068D01*
X020752Y004086D01*
X020783Y004102D01*
X020815Y004114D01*
X020849Y004122D01*
X020883Y004126D01*
X020917Y004126D01*
X020951Y004122D01*
X020985Y004114D01*
X021017Y004102D01*
X021047Y004086D01*
X021076Y004068D01*
X021102Y004046D01*
X021126Y004021D01*
X021146Y003993D01*
X021164Y003963D01*
X021177Y003932D01*
X021187Y003899D01*
X021193Y003865D01*
X021195Y003831D01*
X021193Y003797D01*
X021187Y003763D01*
X021177Y003730D01*
X021164Y003699D01*
X021146Y003669D01*
X021126Y003641D01*
X021102Y003616D01*
X021076Y003594D01*
X021048Y003576D01*
X021017Y003560D01*
X020985Y003548D01*
X020951Y003540D01*
X020917Y003536D01*
X020883Y003536D01*
X020849Y003540D01*
X020815Y003548D01*
X020783Y003560D01*
X020752Y003576D01*
X020724Y003594D01*
X020698Y003616D01*
X020674Y003641D01*
X020654Y003669D01*
X020636Y003699D01*
X020623Y003730D01*
X020613Y003763D01*
X020607Y003797D01*
X020605Y003831D01*
X020349Y003260D02*
X020351Y003294D01*
X020357Y003328D01*
X020367Y003361D01*
X020380Y003392D01*
X020398Y003422D01*
X020418Y003450D01*
X020442Y003475D01*
X020468Y003497D01*
X020496Y003515D01*
X020527Y003531D01*
X020559Y003543D01*
X020593Y003551D01*
X020627Y003555D01*
X020661Y003555D01*
X020695Y003551D01*
X020729Y003543D01*
X020761Y003531D01*
X020791Y003515D01*
X020820Y003497D01*
X020846Y003475D01*
X020870Y003450D01*
X020890Y003422D01*
X020908Y003392D01*
X020921Y003361D01*
X020931Y003328D01*
X020937Y003294D01*
X020939Y003260D01*
X020937Y003226D01*
X020931Y003192D01*
X020921Y003159D01*
X020908Y003128D01*
X020890Y003098D01*
X020870Y003070D01*
X020846Y003045D01*
X020820Y003023D01*
X020792Y003005D01*
X020761Y002989D01*
X020729Y002977D01*
X020695Y002969D01*
X020661Y002965D01*
X020627Y002965D01*
X020593Y002969D01*
X020559Y002977D01*
X020527Y002989D01*
X020496Y003005D01*
X020468Y003023D01*
X020442Y003045D01*
X020418Y003070D01*
X020398Y003098D01*
X020380Y003128D01*
X020367Y003159D01*
X020357Y003192D01*
X020351Y003226D01*
X020349Y003260D01*
X020605Y002689D02*
X020607Y002723D01*
X020613Y002757D01*
X020623Y002790D01*
X020636Y002821D01*
X020654Y002851D01*
X020674Y002879D01*
X020698Y002904D01*
X020724Y002926D01*
X020752Y002944D01*
X020783Y002960D01*
X020815Y002972D01*
X020849Y002980D01*
X020883Y002984D01*
X020917Y002984D01*
X020951Y002980D01*
X020985Y002972D01*
X021017Y002960D01*
X021047Y002944D01*
X021076Y002926D01*
X021102Y002904D01*
X021126Y002879D01*
X021146Y002851D01*
X021164Y002821D01*
X021177Y002790D01*
X021187Y002757D01*
X021193Y002723D01*
X021195Y002689D01*
X021193Y002655D01*
X021187Y002621D01*
X021177Y002588D01*
X021164Y002557D01*
X021146Y002527D01*
X021126Y002499D01*
X021102Y002474D01*
X021076Y002452D01*
X021048Y002434D01*
X021017Y002418D01*
X020985Y002406D01*
X020951Y002398D01*
X020917Y002394D01*
X020883Y002394D01*
X020849Y002398D01*
X020815Y002406D01*
X020783Y002418D01*
X020752Y002434D01*
X020724Y002452D01*
X020698Y002474D01*
X020674Y002499D01*
X020654Y002527D01*
X020636Y002557D01*
X020623Y002588D01*
X020613Y002621D01*
X020607Y002655D01*
X020605Y002689D01*
X023734Y003260D02*
X023731Y003377D01*
X023723Y003494D01*
X023708Y003611D01*
X023688Y003727D01*
X023663Y003841D01*
X023632Y003954D01*
X023596Y004066D01*
X023554Y004176D01*
X023507Y004283D01*
X023454Y004388D01*
X023397Y004490D01*
X023335Y004590D01*
X023268Y004686D01*
X023196Y004779D01*
X023120Y004869D01*
X023040Y004954D01*
X022955Y005036D01*
X022867Y005113D01*
X022775Y005186D01*
X022680Y005255D01*
X022581Y005318D01*
X022480Y005377D01*
X022375Y005431D01*
X022269Y005480D01*
X022160Y005523D01*
X021727Y003614D02*
X021729Y003648D01*
X021735Y003682D01*
X021745Y003715D01*
X021758Y003746D01*
X021776Y003776D01*
X021796Y003804D01*
X021820Y003829D01*
X021846Y003851D01*
X021874Y003869D01*
X021905Y003885D01*
X021937Y003897D01*
X021971Y003905D01*
X022005Y003909D01*
X022039Y003909D01*
X022073Y003905D01*
X022107Y003897D01*
X022139Y003885D01*
X022169Y003869D01*
X022198Y003851D01*
X022224Y003829D01*
X022248Y003804D01*
X022268Y003776D01*
X022286Y003746D01*
X022299Y003715D01*
X022309Y003682D01*
X022315Y003648D01*
X022317Y003614D01*
X022315Y003580D01*
X022309Y003546D01*
X022299Y003513D01*
X022286Y003482D01*
X022268Y003452D01*
X022248Y003424D01*
X022224Y003399D01*
X022198Y003377D01*
X022170Y003359D01*
X022139Y003343D01*
X022107Y003331D01*
X022073Y003323D01*
X022039Y003319D01*
X022005Y003319D01*
X021971Y003323D01*
X021937Y003331D01*
X021905Y003343D01*
X021874Y003359D01*
X021846Y003377D01*
X021820Y003399D01*
X021796Y003424D01*
X021776Y003452D01*
X021758Y003482D01*
X021745Y003513D01*
X021735Y003546D01*
X021729Y003580D01*
X021727Y003614D01*
X022533Y003398D02*
X022531Y003461D01*
X022525Y003524D01*
X022516Y003586D01*
X022503Y003648D01*
X022486Y003708D01*
X022465Y003768D01*
X022441Y003826D01*
X022414Y003883D01*
X022383Y003938D01*
X022348Y003990D01*
X022311Y004041D01*
X022271Y004090D01*
X022228Y004136D01*
X022182Y004179D01*
X022133Y004219D01*
X022082Y004256D01*
X022030Y004291D01*
X021975Y004322D01*
X021918Y004349D01*
X021860Y004373D01*
X021800Y004394D01*
X021740Y004411D01*
X021678Y004424D01*
X021616Y004433D01*
X021553Y004439D01*
X021490Y004441D01*
X022455Y003398D02*
X022533Y003398D01*
X022317Y003260D02*
X022319Y003237D01*
X022324Y003214D01*
X022333Y003192D01*
X022345Y003172D01*
X022360Y003154D01*
X022378Y003138D01*
X022398Y003126D01*
X022419Y003116D01*
X022442Y003110D01*
X022465Y003108D01*
X022488Y003109D01*
X022511Y003114D01*
X022533Y003122D01*
X022317Y003260D02*
X022319Y003282D01*
X022324Y003303D01*
X022332Y003323D01*
X022343Y003341D01*
X022357Y003358D01*
X022374Y003372D01*
X022392Y003383D01*
X022412Y003391D01*
X022433Y003396D01*
X022455Y003398D01*
X021727Y002906D02*
X021729Y002940D01*
X021735Y002974D01*
X021745Y003007D01*
X021758Y003038D01*
X021776Y003068D01*
X021796Y003096D01*
X021820Y003121D01*
X021846Y003143D01*
X021874Y003161D01*
X021905Y003177D01*
X021937Y003189D01*
X021971Y003197D01*
X022005Y003201D01*
X022039Y003201D01*
X022073Y003197D01*
X022107Y003189D01*
X022139Y003177D01*
X022169Y003161D01*
X022198Y003143D01*
X022224Y003121D01*
X022248Y003096D01*
X022268Y003068D01*
X022286Y003038D01*
X022299Y003007D01*
X022309Y002974D01*
X022315Y002940D01*
X022317Y002906D01*
X022315Y002872D01*
X022309Y002838D01*
X022299Y002805D01*
X022286Y002774D01*
X022268Y002744D01*
X022248Y002716D01*
X022224Y002691D01*
X022198Y002669D01*
X022170Y002651D01*
X022139Y002635D01*
X022107Y002623D01*
X022073Y002615D01*
X022039Y002611D01*
X022005Y002611D01*
X021971Y002615D01*
X021937Y002623D01*
X021905Y002635D01*
X021874Y002651D01*
X021846Y002669D01*
X021820Y002691D01*
X021796Y002716D01*
X021776Y002744D01*
X021758Y002774D01*
X021745Y002805D01*
X021735Y002838D01*
X021729Y002872D01*
X021727Y002906D01*
X022533Y003122D02*
X022531Y003059D01*
X022525Y002996D01*
X022516Y002934D01*
X022503Y002872D01*
X022486Y002812D01*
X022465Y002752D01*
X022441Y002694D01*
X022414Y002637D01*
X022383Y002582D01*
X022348Y002530D01*
X022311Y002479D01*
X022271Y002430D01*
X022228Y002384D01*
X022182Y002341D01*
X022133Y002301D01*
X022082Y002264D01*
X022030Y002229D01*
X021975Y002198D01*
X021918Y002171D01*
X021860Y002147D01*
X021800Y002126D01*
X021740Y002109D01*
X021678Y002096D01*
X021616Y002087D01*
X021553Y002081D01*
X021490Y002079D01*
X021372Y002079D01*
X021215Y002531D02*
X021217Y002565D01*
X021223Y002599D01*
X021233Y002632D01*
X021246Y002663D01*
X021264Y002693D01*
X021284Y002721D01*
X021308Y002746D01*
X021334Y002768D01*
X021362Y002786D01*
X021393Y002802D01*
X021425Y002814D01*
X021459Y002822D01*
X021493Y002826D01*
X021527Y002826D01*
X021561Y002822D01*
X021595Y002814D01*
X021627Y002802D01*
X021657Y002786D01*
X021686Y002768D01*
X021712Y002746D01*
X021736Y002721D01*
X021756Y002693D01*
X021774Y002663D01*
X021787Y002632D01*
X021797Y002599D01*
X021803Y002565D01*
X021805Y002531D01*
X021803Y002497D01*
X021797Y002463D01*
X021787Y002430D01*
X021774Y002399D01*
X021756Y002369D01*
X021736Y002341D01*
X021712Y002316D01*
X021686Y002294D01*
X021658Y002276D01*
X021627Y002260D01*
X021595Y002248D01*
X021561Y002240D01*
X021527Y002236D01*
X021493Y002236D01*
X021459Y002240D01*
X021425Y002248D01*
X021393Y002260D01*
X021362Y002276D01*
X021334Y002294D01*
X021308Y002316D01*
X021284Y002341D01*
X021264Y002369D01*
X021246Y002399D01*
X021233Y002430D01*
X021223Y002463D01*
X021217Y002497D01*
X021215Y002531D01*
X022160Y000997D02*
X022269Y001040D01*
X022375Y001089D01*
X022480Y001143D01*
X022581Y001202D01*
X022680Y001265D01*
X022775Y001334D01*
X022867Y001407D01*
X022955Y001484D01*
X023040Y001566D01*
X023120Y001651D01*
X023196Y001741D01*
X023268Y001834D01*
X023335Y001930D01*
X023397Y002030D01*
X023454Y002132D01*
X023507Y002237D01*
X023554Y002344D01*
X023596Y002454D01*
X023632Y002566D01*
X023663Y002679D01*
X023688Y002793D01*
X023708Y002909D01*
X023723Y003026D01*
X023731Y003143D01*
X023734Y003260D01*
X024246Y002748D02*
X024364Y002827D01*
X024403Y002669D01*
X024364Y002827D02*
X024246Y002512D01*
X024168Y003260D02*
X024170Y003297D01*
X024176Y003334D01*
X024185Y003369D01*
X024199Y003404D01*
X024215Y003437D01*
X024236Y003468D01*
X024259Y003497D01*
X024285Y003523D01*
X024314Y003546D01*
X024345Y003567D01*
X024378Y003583D01*
X024413Y003597D01*
X024448Y003606D01*
X024485Y003612D01*
X024522Y003614D01*
X024559Y003612D01*
X024596Y003606D01*
X024631Y003597D01*
X024666Y003583D01*
X024699Y003567D01*
X024730Y003546D01*
X024759Y003523D01*
X024785Y003497D01*
X024808Y003468D01*
X024829Y003437D01*
X024845Y003404D01*
X024859Y003369D01*
X024868Y003334D01*
X024874Y003297D01*
X024876Y003260D01*
X024874Y003223D01*
X024868Y003186D01*
X024859Y003151D01*
X024845Y003116D01*
X024829Y003083D01*
X024808Y003052D01*
X024785Y003023D01*
X024759Y002997D01*
X024730Y002974D01*
X024699Y002953D01*
X024666Y002937D01*
X024631Y002923D01*
X024596Y002914D01*
X024559Y002908D01*
X024522Y002906D01*
X024485Y002908D01*
X024448Y002914D01*
X024413Y002923D01*
X024378Y002937D01*
X024345Y002953D01*
X024314Y002974D01*
X024285Y002997D01*
X024259Y003023D01*
X024236Y003052D01*
X024215Y003083D01*
X024199Y003116D01*
X024185Y003151D01*
X024176Y003186D01*
X024170Y003223D01*
X024168Y003260D01*
X025506Y003260D02*
X026884Y000701D01*
X030033Y000701D01*
X031214Y002866D01*
X031214Y003654D01*
X030033Y005819D01*
X026884Y005819D01*
X025506Y003260D01*
X027435Y003260D02*
X027437Y003294D01*
X027443Y003328D01*
X027453Y003361D01*
X027466Y003392D01*
X027484Y003422D01*
X027504Y003450D01*
X027528Y003475D01*
X027554Y003497D01*
X027582Y003515D01*
X027613Y003531D01*
X027645Y003543D01*
X027679Y003551D01*
X027713Y003555D01*
X027747Y003555D01*
X027781Y003551D01*
X027815Y003543D01*
X027847Y003531D01*
X027877Y003515D01*
X027906Y003497D01*
X027932Y003475D01*
X027956Y003450D01*
X027976Y003422D01*
X027994Y003392D01*
X028007Y003361D01*
X028017Y003328D01*
X028023Y003294D01*
X028025Y003260D01*
X028023Y003226D01*
X028017Y003192D01*
X028007Y003159D01*
X027994Y003128D01*
X027976Y003098D01*
X027956Y003070D01*
X027932Y003045D01*
X027906Y003023D01*
X027878Y003005D01*
X027847Y002989D01*
X027815Y002977D01*
X027781Y002969D01*
X027747Y002965D01*
X027713Y002965D01*
X027679Y002969D01*
X027645Y002977D01*
X027613Y002989D01*
X027582Y003005D01*
X027554Y003023D01*
X027528Y003045D01*
X027504Y003070D01*
X027484Y003098D01*
X027466Y003128D01*
X027453Y003159D01*
X027443Y003192D01*
X027437Y003226D01*
X027435Y003260D01*
X027691Y003831D02*
X027693Y003865D01*
X027699Y003899D01*
X027709Y003932D01*
X027722Y003963D01*
X027740Y003993D01*
X027760Y004021D01*
X027784Y004046D01*
X027810Y004068D01*
X027838Y004086D01*
X027869Y004102D01*
X027901Y004114D01*
X027935Y004122D01*
X027969Y004126D01*
X028003Y004126D01*
X028037Y004122D01*
X028071Y004114D01*
X028103Y004102D01*
X028133Y004086D01*
X028162Y004068D01*
X028188Y004046D01*
X028212Y004021D01*
X028232Y003993D01*
X028250Y003963D01*
X028263Y003932D01*
X028273Y003899D01*
X028279Y003865D01*
X028281Y003831D01*
X028279Y003797D01*
X028273Y003763D01*
X028263Y003730D01*
X028250Y003699D01*
X028232Y003669D01*
X028212Y003641D01*
X028188Y003616D01*
X028162Y003594D01*
X028134Y003576D01*
X028103Y003560D01*
X028071Y003548D01*
X028037Y003540D01*
X028003Y003536D01*
X027969Y003536D01*
X027935Y003540D01*
X027901Y003548D01*
X027869Y003560D01*
X027838Y003576D01*
X027810Y003594D01*
X027784Y003616D01*
X027760Y003641D01*
X027740Y003669D01*
X027722Y003699D01*
X027709Y003730D01*
X027699Y003763D01*
X027693Y003797D01*
X027691Y003831D01*
X029246Y005523D02*
X029355Y005480D01*
X029461Y005431D01*
X029566Y005377D01*
X029667Y005318D01*
X029766Y005255D01*
X029861Y005186D01*
X029953Y005113D01*
X030041Y005036D01*
X030126Y004954D01*
X030206Y004869D01*
X030282Y004779D01*
X030354Y004686D01*
X030421Y004590D01*
X030483Y004490D01*
X030540Y004388D01*
X030593Y004283D01*
X030640Y004176D01*
X030682Y004066D01*
X030718Y003954D01*
X030749Y003841D01*
X030774Y003727D01*
X030794Y003611D01*
X030809Y003494D01*
X030817Y003377D01*
X030820Y003260D01*
X031254Y003260D02*
X031256Y003297D01*
X031262Y003334D01*
X031271Y003369D01*
X031285Y003404D01*
X031301Y003437D01*
X031322Y003468D01*
X031345Y003497D01*
X031371Y003523D01*
X031400Y003546D01*
X031431Y003567D01*
X031464Y003583D01*
X031499Y003597D01*
X031534Y003606D01*
X031571Y003612D01*
X031608Y003614D01*
X031645Y003612D01*
X031682Y003606D01*
X031717Y003597D01*
X031752Y003583D01*
X031785Y003567D01*
X031816Y003546D01*
X031845Y003523D01*
X031871Y003497D01*
X031894Y003468D01*
X031915Y003437D01*
X031931Y003404D01*
X031945Y003369D01*
X031954Y003334D01*
X031960Y003297D01*
X031962Y003260D01*
X031960Y003223D01*
X031954Y003186D01*
X031945Y003151D01*
X031931Y003116D01*
X031915Y003083D01*
X031894Y003052D01*
X031871Y003023D01*
X031845Y002997D01*
X031816Y002974D01*
X031785Y002953D01*
X031752Y002937D01*
X031717Y002923D01*
X031682Y002914D01*
X031645Y002908D01*
X031608Y002906D01*
X031571Y002908D01*
X031534Y002914D01*
X031499Y002923D01*
X031464Y002937D01*
X031431Y002953D01*
X031400Y002974D01*
X031371Y002997D01*
X031345Y003023D01*
X031322Y003052D01*
X031301Y003083D01*
X031285Y003116D01*
X031271Y003151D01*
X031262Y003186D01*
X031256Y003223D01*
X031254Y003260D01*
X031451Y002827D02*
X031490Y002669D01*
X031451Y002827D02*
X031333Y002748D01*
X031451Y002827D02*
X031333Y002512D01*
X032592Y003260D02*
X033970Y000701D01*
X037120Y000701D01*
X038301Y002866D01*
X038301Y003654D01*
X037120Y005819D01*
X033970Y005819D01*
X032592Y003260D01*
X034522Y003260D02*
X034524Y003294D01*
X034530Y003328D01*
X034540Y003361D01*
X034553Y003392D01*
X034571Y003422D01*
X034591Y003450D01*
X034615Y003475D01*
X034641Y003497D01*
X034669Y003515D01*
X034700Y003531D01*
X034732Y003543D01*
X034766Y003551D01*
X034800Y003555D01*
X034834Y003555D01*
X034868Y003551D01*
X034902Y003543D01*
X034934Y003531D01*
X034964Y003515D01*
X034993Y003497D01*
X035019Y003475D01*
X035043Y003450D01*
X035063Y003422D01*
X035081Y003392D01*
X035094Y003361D01*
X035104Y003328D01*
X035110Y003294D01*
X035112Y003260D01*
X035110Y003226D01*
X035104Y003192D01*
X035094Y003159D01*
X035081Y003128D01*
X035063Y003098D01*
X035043Y003070D01*
X035019Y003045D01*
X034993Y003023D01*
X034965Y003005D01*
X034934Y002989D01*
X034902Y002977D01*
X034868Y002969D01*
X034834Y002965D01*
X034800Y002965D01*
X034766Y002969D01*
X034732Y002977D01*
X034700Y002989D01*
X034669Y003005D01*
X034641Y003023D01*
X034615Y003045D01*
X034591Y003070D01*
X034571Y003098D01*
X034553Y003128D01*
X034540Y003159D01*
X034530Y003192D01*
X034524Y003226D01*
X034522Y003260D01*
X034778Y003831D02*
X034780Y003865D01*
X034786Y003899D01*
X034796Y003932D01*
X034809Y003963D01*
X034827Y003993D01*
X034847Y004021D01*
X034871Y004046D01*
X034897Y004068D01*
X034925Y004086D01*
X034956Y004102D01*
X034988Y004114D01*
X035022Y004122D01*
X035056Y004126D01*
X035090Y004126D01*
X035124Y004122D01*
X035158Y004114D01*
X035190Y004102D01*
X035220Y004086D01*
X035249Y004068D01*
X035275Y004046D01*
X035299Y004021D01*
X035319Y003993D01*
X035337Y003963D01*
X035350Y003932D01*
X035360Y003899D01*
X035366Y003865D01*
X035368Y003831D01*
X035366Y003797D01*
X035360Y003763D01*
X035350Y003730D01*
X035337Y003699D01*
X035319Y003669D01*
X035299Y003641D01*
X035275Y003616D01*
X035249Y003594D01*
X035221Y003576D01*
X035190Y003560D01*
X035158Y003548D01*
X035124Y003540D01*
X035090Y003536D01*
X035056Y003536D01*
X035022Y003540D01*
X034988Y003548D01*
X034956Y003560D01*
X034925Y003576D01*
X034897Y003594D01*
X034871Y003616D01*
X034847Y003641D01*
X034827Y003669D01*
X034809Y003699D01*
X034796Y003730D01*
X034786Y003763D01*
X034780Y003797D01*
X034778Y003831D01*
X036333Y005523D02*
X036442Y005480D01*
X036548Y005431D01*
X036653Y005377D01*
X036754Y005318D01*
X036853Y005255D01*
X036948Y005186D01*
X037040Y005113D01*
X037128Y005036D01*
X037213Y004954D01*
X037293Y004869D01*
X037369Y004779D01*
X037441Y004686D01*
X037508Y004590D01*
X037570Y004490D01*
X037627Y004388D01*
X037680Y004283D01*
X037727Y004176D01*
X037769Y004066D01*
X037805Y003954D01*
X037836Y003841D01*
X037861Y003727D01*
X037881Y003611D01*
X037896Y003494D01*
X037904Y003377D01*
X037907Y003260D01*
X038341Y003260D02*
X038343Y003297D01*
X038349Y003334D01*
X038358Y003369D01*
X038372Y003404D01*
X038388Y003437D01*
X038409Y003468D01*
X038432Y003497D01*
X038458Y003523D01*
X038487Y003546D01*
X038518Y003567D01*
X038551Y003583D01*
X038586Y003597D01*
X038621Y003606D01*
X038658Y003612D01*
X038695Y003614D01*
X038732Y003612D01*
X038769Y003606D01*
X038804Y003597D01*
X038839Y003583D01*
X038872Y003567D01*
X038903Y003546D01*
X038932Y003523D01*
X038958Y003497D01*
X038981Y003468D01*
X039002Y003437D01*
X039018Y003404D01*
X039032Y003369D01*
X039041Y003334D01*
X039047Y003297D01*
X039049Y003260D01*
X039047Y003223D01*
X039041Y003186D01*
X039032Y003151D01*
X039018Y003116D01*
X039002Y003083D01*
X038981Y003052D01*
X038958Y003023D01*
X038932Y002997D01*
X038903Y002974D01*
X038872Y002953D01*
X038839Y002937D01*
X038804Y002923D01*
X038769Y002914D01*
X038732Y002908D01*
X038695Y002906D01*
X038658Y002908D01*
X038621Y002914D01*
X038586Y002923D01*
X038551Y002937D01*
X038518Y002953D01*
X038487Y002974D01*
X038458Y002997D01*
X038432Y003023D01*
X038409Y003052D01*
X038388Y003083D01*
X038372Y003116D01*
X038358Y003151D01*
X038349Y003186D01*
X038343Y003223D01*
X038341Y003260D01*
X038537Y002827D02*
X038577Y002669D01*
X038537Y002827D02*
X038419Y002748D01*
X038537Y002827D02*
X038419Y002512D01*
X039679Y003260D02*
X041057Y000701D01*
X044207Y000701D01*
X045388Y002866D01*
X045388Y003654D01*
X044207Y005819D01*
X041057Y005819D01*
X039679Y003260D01*
X041608Y003260D02*
X041610Y003294D01*
X041616Y003328D01*
X041626Y003361D01*
X041639Y003392D01*
X041657Y003422D01*
X041677Y003450D01*
X041701Y003475D01*
X041727Y003497D01*
X041755Y003515D01*
X041786Y003531D01*
X041818Y003543D01*
X041852Y003551D01*
X041886Y003555D01*
X041920Y003555D01*
X041954Y003551D01*
X041988Y003543D01*
X042020Y003531D01*
X042050Y003515D01*
X042079Y003497D01*
X042105Y003475D01*
X042129Y003450D01*
X042149Y003422D01*
X042167Y003392D01*
X042180Y003361D01*
X042190Y003328D01*
X042196Y003294D01*
X042198Y003260D01*
X042196Y003226D01*
X042190Y003192D01*
X042180Y003159D01*
X042167Y003128D01*
X042149Y003098D01*
X042129Y003070D01*
X042105Y003045D01*
X042079Y003023D01*
X042051Y003005D01*
X042020Y002989D01*
X041988Y002977D01*
X041954Y002969D01*
X041920Y002965D01*
X041886Y002965D01*
X041852Y002969D01*
X041818Y002977D01*
X041786Y002989D01*
X041755Y003005D01*
X041727Y003023D01*
X041701Y003045D01*
X041677Y003070D01*
X041657Y003098D01*
X041639Y003128D01*
X041626Y003159D01*
X041616Y003192D01*
X041610Y003226D01*
X041608Y003260D01*
X041864Y003831D02*
X041866Y003865D01*
X041872Y003899D01*
X041882Y003932D01*
X041895Y003963D01*
X041913Y003993D01*
X041933Y004021D01*
X041957Y004046D01*
X041983Y004068D01*
X042011Y004086D01*
X042042Y004102D01*
X042074Y004114D01*
X042108Y004122D01*
X042142Y004126D01*
X042176Y004126D01*
X042210Y004122D01*
X042244Y004114D01*
X042276Y004102D01*
X042306Y004086D01*
X042335Y004068D01*
X042361Y004046D01*
X042385Y004021D01*
X042405Y003993D01*
X042423Y003963D01*
X042436Y003932D01*
X042446Y003899D01*
X042452Y003865D01*
X042454Y003831D01*
X042452Y003797D01*
X042446Y003763D01*
X042436Y003730D01*
X042423Y003699D01*
X042405Y003669D01*
X042385Y003641D01*
X042361Y003616D01*
X042335Y003594D01*
X042307Y003576D01*
X042276Y003560D01*
X042244Y003548D01*
X042210Y003540D01*
X042176Y003536D01*
X042142Y003536D01*
X042108Y003540D01*
X042074Y003548D01*
X042042Y003560D01*
X042011Y003576D01*
X041983Y003594D01*
X041957Y003616D01*
X041933Y003641D01*
X041913Y003669D01*
X041895Y003699D01*
X041882Y003730D01*
X041872Y003763D01*
X041866Y003797D01*
X041864Y003831D01*
X043420Y005523D02*
X043529Y005480D01*
X043635Y005431D01*
X043740Y005377D01*
X043841Y005318D01*
X043940Y005255D01*
X044035Y005186D01*
X044127Y005113D01*
X044215Y005036D01*
X044300Y004954D01*
X044380Y004869D01*
X044456Y004779D01*
X044528Y004686D01*
X044595Y004590D01*
X044657Y004490D01*
X044714Y004388D01*
X044767Y004283D01*
X044814Y004176D01*
X044856Y004066D01*
X044892Y003954D01*
X044923Y003841D01*
X044948Y003727D01*
X044968Y003611D01*
X044983Y003494D01*
X044991Y003377D01*
X044994Y003260D01*
X045506Y002748D02*
X045624Y002827D01*
X045663Y002669D01*
X045624Y002827D02*
X045506Y002512D01*
X045427Y003260D02*
X045429Y003297D01*
X045435Y003334D01*
X045444Y003369D01*
X045458Y003404D01*
X045474Y003437D01*
X045495Y003468D01*
X045518Y003497D01*
X045544Y003523D01*
X045573Y003546D01*
X045604Y003567D01*
X045637Y003583D01*
X045672Y003597D01*
X045707Y003606D01*
X045744Y003612D01*
X045781Y003614D01*
X045818Y003612D01*
X045855Y003606D01*
X045890Y003597D01*
X045925Y003583D01*
X045958Y003567D01*
X045989Y003546D01*
X046018Y003523D01*
X046044Y003497D01*
X046067Y003468D01*
X046088Y003437D01*
X046104Y003404D01*
X046118Y003369D01*
X046127Y003334D01*
X046133Y003297D01*
X046135Y003260D01*
X046133Y003223D01*
X046127Y003186D01*
X046118Y003151D01*
X046104Y003116D01*
X046088Y003083D01*
X046067Y003052D01*
X046044Y003023D01*
X046018Y002997D01*
X045989Y002974D01*
X045958Y002953D01*
X045925Y002937D01*
X045890Y002923D01*
X045855Y002914D01*
X045818Y002908D01*
X045781Y002906D01*
X045744Y002908D01*
X045707Y002914D01*
X045672Y002923D01*
X045637Y002937D01*
X045604Y002953D01*
X045573Y002974D01*
X045544Y002997D01*
X045518Y003023D01*
X045495Y003052D01*
X045474Y003083D01*
X045458Y003116D01*
X045444Y003151D01*
X045435Y003186D01*
X045429Y003223D01*
X045427Y003260D01*
X043793Y003398D02*
X043714Y003398D01*
X043692Y003396D01*
X043671Y003391D01*
X043651Y003383D01*
X043633Y003372D01*
X043616Y003358D01*
X043602Y003341D01*
X043591Y003323D01*
X043583Y003303D01*
X043578Y003282D01*
X043576Y003260D01*
X043577Y003260D02*
X043579Y003237D01*
X043584Y003214D01*
X043593Y003192D01*
X043605Y003172D01*
X043620Y003154D01*
X043638Y003138D01*
X043658Y003126D01*
X043679Y003116D01*
X043702Y003110D01*
X043725Y003108D01*
X043748Y003109D01*
X043771Y003114D01*
X043793Y003122D01*
X042986Y002906D02*
X042988Y002940D01*
X042994Y002974D01*
X043004Y003007D01*
X043017Y003038D01*
X043035Y003068D01*
X043055Y003096D01*
X043079Y003121D01*
X043105Y003143D01*
X043133Y003161D01*
X043164Y003177D01*
X043196Y003189D01*
X043230Y003197D01*
X043264Y003201D01*
X043298Y003201D01*
X043332Y003197D01*
X043366Y003189D01*
X043398Y003177D01*
X043428Y003161D01*
X043457Y003143D01*
X043483Y003121D01*
X043507Y003096D01*
X043527Y003068D01*
X043545Y003038D01*
X043558Y003007D01*
X043568Y002974D01*
X043574Y002940D01*
X043576Y002906D01*
X043574Y002872D01*
X043568Y002838D01*
X043558Y002805D01*
X043545Y002774D01*
X043527Y002744D01*
X043507Y002716D01*
X043483Y002691D01*
X043457Y002669D01*
X043429Y002651D01*
X043398Y002635D01*
X043366Y002623D01*
X043332Y002615D01*
X043298Y002611D01*
X043264Y002611D01*
X043230Y002615D01*
X043196Y002623D01*
X043164Y002635D01*
X043133Y002651D01*
X043105Y002669D01*
X043079Y002691D01*
X043055Y002716D01*
X043035Y002744D01*
X043017Y002774D01*
X043004Y002805D01*
X042994Y002838D01*
X042988Y002872D01*
X042986Y002906D01*
X043793Y003122D02*
X043791Y003059D01*
X043785Y002996D01*
X043776Y002934D01*
X043763Y002872D01*
X043746Y002812D01*
X043725Y002752D01*
X043701Y002694D01*
X043674Y002637D01*
X043643Y002582D01*
X043608Y002530D01*
X043571Y002479D01*
X043531Y002430D01*
X043488Y002384D01*
X043442Y002341D01*
X043393Y002301D01*
X043342Y002264D01*
X043290Y002229D01*
X043235Y002198D01*
X043178Y002171D01*
X043120Y002147D01*
X043060Y002126D01*
X043000Y002109D01*
X042938Y002096D01*
X042876Y002087D01*
X042813Y002081D01*
X042750Y002079D01*
X042632Y002079D01*
X042475Y002531D02*
X042477Y002565D01*
X042483Y002599D01*
X042493Y002632D01*
X042506Y002663D01*
X042524Y002693D01*
X042544Y002721D01*
X042568Y002746D01*
X042594Y002768D01*
X042622Y002786D01*
X042653Y002802D01*
X042685Y002814D01*
X042719Y002822D01*
X042753Y002826D01*
X042787Y002826D01*
X042821Y002822D01*
X042855Y002814D01*
X042887Y002802D01*
X042917Y002786D01*
X042946Y002768D01*
X042972Y002746D01*
X042996Y002721D01*
X043016Y002693D01*
X043034Y002663D01*
X043047Y002632D01*
X043057Y002599D01*
X043063Y002565D01*
X043065Y002531D01*
X043063Y002497D01*
X043057Y002463D01*
X043047Y002430D01*
X043034Y002399D01*
X043016Y002369D01*
X042996Y002341D01*
X042972Y002316D01*
X042946Y002294D01*
X042918Y002276D01*
X042887Y002260D01*
X042855Y002248D01*
X042821Y002240D01*
X042787Y002236D01*
X042753Y002236D01*
X042719Y002240D01*
X042685Y002248D01*
X042653Y002260D01*
X042622Y002276D01*
X042594Y002294D01*
X042568Y002316D01*
X042544Y002341D01*
X042524Y002369D01*
X042506Y002399D01*
X042493Y002430D01*
X042483Y002463D01*
X042477Y002497D01*
X042475Y002531D01*
X041864Y002689D02*
X041866Y002723D01*
X041872Y002757D01*
X041882Y002790D01*
X041895Y002821D01*
X041913Y002851D01*
X041933Y002879D01*
X041957Y002904D01*
X041983Y002926D01*
X042011Y002944D01*
X042042Y002960D01*
X042074Y002972D01*
X042108Y002980D01*
X042142Y002984D01*
X042176Y002984D01*
X042210Y002980D01*
X042244Y002972D01*
X042276Y002960D01*
X042306Y002944D01*
X042335Y002926D01*
X042361Y002904D01*
X042385Y002879D01*
X042405Y002851D01*
X042423Y002821D01*
X042436Y002790D01*
X042446Y002757D01*
X042452Y002723D01*
X042454Y002689D01*
X042452Y002655D01*
X042446Y002621D01*
X042436Y002588D01*
X042423Y002557D01*
X042405Y002527D01*
X042385Y002499D01*
X042361Y002474D01*
X042335Y002452D01*
X042307Y002434D01*
X042276Y002418D01*
X042244Y002406D01*
X042210Y002398D01*
X042176Y002394D01*
X042142Y002394D01*
X042108Y002398D01*
X042074Y002406D01*
X042042Y002418D01*
X042011Y002434D01*
X041983Y002452D01*
X041957Y002474D01*
X041933Y002499D01*
X041913Y002527D01*
X041895Y002557D01*
X041882Y002588D01*
X041872Y002621D01*
X041866Y002655D01*
X041864Y002689D01*
X043420Y000997D02*
X043529Y001040D01*
X043635Y001089D01*
X043740Y001143D01*
X043841Y001202D01*
X043940Y001265D01*
X044035Y001334D01*
X044127Y001407D01*
X044215Y001484D01*
X044300Y001566D01*
X044380Y001651D01*
X044456Y001741D01*
X044528Y001834D01*
X044595Y001930D01*
X044657Y002030D01*
X044714Y002132D01*
X044767Y002237D01*
X044814Y002344D01*
X044856Y002454D01*
X044892Y002566D01*
X044923Y002679D01*
X044948Y002793D01*
X044968Y002909D01*
X044983Y003026D01*
X044991Y003143D01*
X044994Y003260D01*
X042986Y003614D02*
X042988Y003648D01*
X042994Y003682D01*
X043004Y003715D01*
X043017Y003746D01*
X043035Y003776D01*
X043055Y003804D01*
X043079Y003829D01*
X043105Y003851D01*
X043133Y003869D01*
X043164Y003885D01*
X043196Y003897D01*
X043230Y003905D01*
X043264Y003909D01*
X043298Y003909D01*
X043332Y003905D01*
X043366Y003897D01*
X043398Y003885D01*
X043428Y003869D01*
X043457Y003851D01*
X043483Y003829D01*
X043507Y003804D01*
X043527Y003776D01*
X043545Y003746D01*
X043558Y003715D01*
X043568Y003682D01*
X043574Y003648D01*
X043576Y003614D01*
X043574Y003580D01*
X043568Y003546D01*
X043558Y003513D01*
X043545Y003482D01*
X043527Y003452D01*
X043507Y003424D01*
X043483Y003399D01*
X043457Y003377D01*
X043429Y003359D01*
X043398Y003343D01*
X043366Y003331D01*
X043332Y003323D01*
X043298Y003319D01*
X043264Y003319D01*
X043230Y003323D01*
X043196Y003331D01*
X043164Y003343D01*
X043133Y003359D01*
X043105Y003377D01*
X043079Y003399D01*
X043055Y003424D01*
X043035Y003452D01*
X043017Y003482D01*
X043004Y003513D01*
X042994Y003546D01*
X042988Y003580D01*
X042986Y003614D01*
X043793Y003398D02*
X043791Y003461D01*
X043785Y003524D01*
X043776Y003586D01*
X043763Y003648D01*
X043746Y003708D01*
X043725Y003768D01*
X043701Y003826D01*
X043674Y003883D01*
X043643Y003938D01*
X043608Y003990D01*
X043571Y004041D01*
X043531Y004090D01*
X043488Y004136D01*
X043442Y004179D01*
X043393Y004219D01*
X043342Y004256D01*
X043290Y004291D01*
X043235Y004322D01*
X043178Y004349D01*
X043120Y004373D01*
X043060Y004394D01*
X043000Y004411D01*
X042938Y004424D01*
X042876Y004433D01*
X042813Y004439D01*
X042750Y004441D01*
X042632Y004441D01*
X042475Y003988D02*
X042477Y004022D01*
X042483Y004056D01*
X042493Y004089D01*
X042506Y004120D01*
X042524Y004150D01*
X042544Y004178D01*
X042568Y004203D01*
X042594Y004225D01*
X042622Y004243D01*
X042653Y004259D01*
X042685Y004271D01*
X042719Y004279D01*
X042753Y004283D01*
X042787Y004283D01*
X042821Y004279D01*
X042855Y004271D01*
X042887Y004259D01*
X042917Y004243D01*
X042946Y004225D01*
X042972Y004203D01*
X042996Y004178D01*
X043016Y004150D01*
X043034Y004120D01*
X043047Y004089D01*
X043057Y004056D01*
X043063Y004022D01*
X043065Y003988D01*
X043063Y003954D01*
X043057Y003920D01*
X043047Y003887D01*
X043034Y003856D01*
X043016Y003826D01*
X042996Y003798D01*
X042972Y003773D01*
X042946Y003751D01*
X042918Y003733D01*
X042887Y003717D01*
X042855Y003705D01*
X042821Y003697D01*
X042787Y003693D01*
X042753Y003693D01*
X042719Y003697D01*
X042685Y003705D01*
X042653Y003717D01*
X042622Y003733D01*
X042594Y003751D01*
X042568Y003773D01*
X042544Y003798D01*
X042524Y003826D01*
X042506Y003856D01*
X042493Y003887D01*
X042483Y003920D01*
X042477Y003954D01*
X042475Y003988D01*
X042337Y003260D02*
X042339Y003294D01*
X042345Y003328D01*
X042355Y003361D01*
X042368Y003392D01*
X042386Y003422D01*
X042406Y003450D01*
X042430Y003475D01*
X042456Y003497D01*
X042484Y003515D01*
X042515Y003531D01*
X042547Y003543D01*
X042581Y003551D01*
X042615Y003555D01*
X042649Y003555D01*
X042683Y003551D01*
X042717Y003543D01*
X042749Y003531D01*
X042779Y003515D01*
X042808Y003497D01*
X042834Y003475D01*
X042858Y003450D01*
X042878Y003422D01*
X042896Y003392D01*
X042909Y003361D01*
X042919Y003328D01*
X042925Y003294D01*
X042927Y003260D01*
X042925Y003226D01*
X042919Y003192D01*
X042909Y003159D01*
X042896Y003128D01*
X042878Y003098D01*
X042858Y003070D01*
X042834Y003045D01*
X042808Y003023D01*
X042780Y003005D01*
X042749Y002989D01*
X042717Y002977D01*
X042683Y002969D01*
X042649Y002965D01*
X042615Y002965D01*
X042581Y002969D01*
X042547Y002977D01*
X042515Y002989D01*
X042484Y003005D01*
X042456Y003023D01*
X042430Y003045D01*
X042406Y003070D01*
X042386Y003098D01*
X042368Y003128D01*
X042355Y003159D01*
X042345Y003192D01*
X042339Y003226D01*
X042337Y003260D01*
X041451Y003260D02*
X041453Y003194D01*
X041458Y003128D01*
X041468Y003062D01*
X041481Y002997D01*
X041497Y002933D01*
X041517Y002870D01*
X041541Y002808D01*
X041568Y002748D01*
X041598Y002689D01*
X041632Y002632D01*
X041669Y002577D01*
X041709Y002524D01*
X041751Y002473D01*
X041797Y002425D01*
X041845Y002379D01*
X041896Y002337D01*
X041949Y002297D01*
X042004Y002260D01*
X042061Y002226D01*
X042120Y002196D01*
X042180Y002169D01*
X042242Y002145D01*
X042305Y002125D01*
X042369Y002109D01*
X042434Y002096D01*
X042500Y002086D01*
X042566Y002081D01*
X042632Y002079D01*
X043419Y000996D02*
X041844Y000996D01*
X041451Y003260D02*
X041453Y003326D01*
X041458Y003392D01*
X041468Y003458D01*
X041481Y003523D01*
X041497Y003587D01*
X041517Y003650D01*
X041541Y003712D01*
X041568Y003772D01*
X041598Y003831D01*
X041632Y003888D01*
X041669Y003943D01*
X041709Y003996D01*
X041751Y004047D01*
X041797Y004095D01*
X041845Y004141D01*
X041896Y004183D01*
X041949Y004223D01*
X042004Y004260D01*
X042061Y004294D01*
X042120Y004324D01*
X042180Y004351D01*
X042242Y004375D01*
X042305Y004395D01*
X042369Y004411D01*
X042434Y004424D01*
X042500Y004434D01*
X042566Y004439D01*
X042632Y004441D01*
X043419Y005524D02*
X041844Y005524D01*
X041057Y003260D02*
X041059Y003339D01*
X041065Y003418D01*
X041075Y003497D01*
X041089Y003575D01*
X041106Y003652D01*
X041128Y003728D01*
X041153Y003803D01*
X041183Y003876D01*
X041215Y003948D01*
X041252Y004019D01*
X041292Y004087D01*
X041335Y004153D01*
X041381Y004217D01*
X041431Y004279D01*
X041484Y004338D01*
X041539Y004394D01*
X041598Y004448D01*
X041659Y004498D01*
X041722Y004546D01*
X041788Y004590D01*
X041856Y004631D01*
X041926Y004668D01*
X041997Y004702D01*
X042071Y004732D01*
X042145Y004758D01*
X042221Y004780D01*
X042298Y004799D01*
X042376Y004814D01*
X042454Y004825D01*
X042533Y004832D01*
X042612Y004835D01*
X042691Y004834D01*
X042770Y004829D01*
X042849Y004820D01*
X042927Y004807D01*
X043004Y004790D01*
X043081Y004770D01*
X043156Y004745D01*
X043230Y004717D01*
X043303Y004685D01*
X043373Y004650D01*
X043442Y004611D01*
X043509Y004568D01*
X043574Y004522D01*
X043636Y004474D01*
X043696Y004422D01*
X043753Y004367D01*
X043807Y004309D01*
X043858Y004249D01*
X043906Y004186D01*
X043951Y004121D01*
X043993Y004053D01*
X044031Y003984D01*
X044065Y003913D01*
X044096Y003840D01*
X044124Y003765D01*
X044147Y003690D01*
X044167Y003613D01*
X044183Y003536D01*
X044195Y003457D01*
X044203Y003379D01*
X044207Y003300D01*
X044207Y003220D01*
X044203Y003141D01*
X044195Y003063D01*
X044183Y002984D01*
X044167Y002907D01*
X044147Y002830D01*
X044124Y002755D01*
X044096Y002680D01*
X044065Y002607D01*
X044031Y002536D01*
X043993Y002467D01*
X043951Y002399D01*
X043906Y002334D01*
X043858Y002271D01*
X043807Y002211D01*
X043753Y002153D01*
X043696Y002098D01*
X043636Y002046D01*
X043574Y001998D01*
X043509Y001952D01*
X043442Y001909D01*
X043373Y001870D01*
X043303Y001835D01*
X043230Y001803D01*
X043156Y001775D01*
X043081Y001750D01*
X043004Y001730D01*
X042927Y001713D01*
X042849Y001700D01*
X042770Y001691D01*
X042691Y001686D01*
X042612Y001685D01*
X042533Y001688D01*
X042454Y001695D01*
X042376Y001706D01*
X042298Y001721D01*
X042221Y001740D01*
X042145Y001762D01*
X042071Y001788D01*
X041997Y001818D01*
X041926Y001852D01*
X041856Y001889D01*
X041788Y001930D01*
X041722Y001974D01*
X041659Y002022D01*
X041598Y002072D01*
X041539Y002126D01*
X041484Y002182D01*
X041431Y002241D01*
X041381Y002303D01*
X041335Y002367D01*
X041292Y002433D01*
X041252Y002501D01*
X041215Y002572D01*
X041183Y002644D01*
X041153Y002717D01*
X041128Y002792D01*
X041106Y002868D01*
X041089Y002945D01*
X041075Y003023D01*
X041065Y003102D01*
X041059Y003181D01*
X041057Y003260D01*
X040270Y003260D02*
X040273Y003377D01*
X040281Y003494D01*
X040296Y003611D01*
X040316Y003727D01*
X040341Y003841D01*
X040372Y003954D01*
X040408Y004066D01*
X040450Y004176D01*
X040497Y004283D01*
X040550Y004388D01*
X040607Y004490D01*
X040669Y004590D01*
X040736Y004686D01*
X040808Y004779D01*
X040884Y004869D01*
X040964Y004954D01*
X041049Y005036D01*
X041137Y005113D01*
X041229Y005186D01*
X041324Y005255D01*
X041423Y005318D01*
X041524Y005377D01*
X041629Y005431D01*
X041735Y005480D01*
X041844Y005523D01*
X040270Y003260D02*
X040273Y003143D01*
X040281Y003026D01*
X040296Y002909D01*
X040316Y002793D01*
X040341Y002679D01*
X040372Y002566D01*
X040408Y002454D01*
X040450Y002344D01*
X040497Y002237D01*
X040550Y002132D01*
X040607Y002030D01*
X040669Y001930D01*
X040736Y001834D01*
X040808Y001741D01*
X040884Y001651D01*
X040964Y001566D01*
X041049Y001484D01*
X041137Y001407D01*
X041229Y001334D01*
X041324Y001265D01*
X041423Y001202D01*
X041524Y001143D01*
X041629Y001089D01*
X041735Y001040D01*
X041844Y000997D01*
X036707Y003398D02*
X036628Y003398D01*
X036606Y003396D01*
X036585Y003391D01*
X036565Y003383D01*
X036547Y003372D01*
X036530Y003358D01*
X036516Y003341D01*
X036505Y003323D01*
X036497Y003303D01*
X036492Y003282D01*
X036490Y003260D01*
X036492Y003237D01*
X036497Y003214D01*
X036506Y003192D01*
X036518Y003172D01*
X036533Y003154D01*
X036551Y003138D01*
X036571Y003126D01*
X036592Y003116D01*
X036615Y003110D01*
X036638Y003108D01*
X036661Y003109D01*
X036684Y003114D01*
X036706Y003122D01*
X035900Y002906D02*
X035902Y002940D01*
X035908Y002974D01*
X035918Y003007D01*
X035931Y003038D01*
X035949Y003068D01*
X035969Y003096D01*
X035993Y003121D01*
X036019Y003143D01*
X036047Y003161D01*
X036078Y003177D01*
X036110Y003189D01*
X036144Y003197D01*
X036178Y003201D01*
X036212Y003201D01*
X036246Y003197D01*
X036280Y003189D01*
X036312Y003177D01*
X036342Y003161D01*
X036371Y003143D01*
X036397Y003121D01*
X036421Y003096D01*
X036441Y003068D01*
X036459Y003038D01*
X036472Y003007D01*
X036482Y002974D01*
X036488Y002940D01*
X036490Y002906D01*
X036488Y002872D01*
X036482Y002838D01*
X036472Y002805D01*
X036459Y002774D01*
X036441Y002744D01*
X036421Y002716D01*
X036397Y002691D01*
X036371Y002669D01*
X036343Y002651D01*
X036312Y002635D01*
X036280Y002623D01*
X036246Y002615D01*
X036212Y002611D01*
X036178Y002611D01*
X036144Y002615D01*
X036110Y002623D01*
X036078Y002635D01*
X036047Y002651D01*
X036019Y002669D01*
X035993Y002691D01*
X035969Y002716D01*
X035949Y002744D01*
X035931Y002774D01*
X035918Y002805D01*
X035908Y002838D01*
X035902Y002872D01*
X035900Y002906D01*
X036706Y003122D02*
X036704Y003059D01*
X036698Y002996D01*
X036689Y002934D01*
X036676Y002872D01*
X036659Y002812D01*
X036638Y002752D01*
X036614Y002694D01*
X036587Y002637D01*
X036556Y002582D01*
X036521Y002530D01*
X036484Y002479D01*
X036444Y002430D01*
X036401Y002384D01*
X036355Y002341D01*
X036306Y002301D01*
X036255Y002264D01*
X036203Y002229D01*
X036148Y002198D01*
X036091Y002171D01*
X036033Y002147D01*
X035973Y002126D01*
X035913Y002109D01*
X035851Y002096D01*
X035789Y002087D01*
X035726Y002081D01*
X035663Y002079D01*
X035545Y002079D01*
X035388Y002531D02*
X035390Y002565D01*
X035396Y002599D01*
X035406Y002632D01*
X035419Y002663D01*
X035437Y002693D01*
X035457Y002721D01*
X035481Y002746D01*
X035507Y002768D01*
X035535Y002786D01*
X035566Y002802D01*
X035598Y002814D01*
X035632Y002822D01*
X035666Y002826D01*
X035700Y002826D01*
X035734Y002822D01*
X035768Y002814D01*
X035800Y002802D01*
X035830Y002786D01*
X035859Y002768D01*
X035885Y002746D01*
X035909Y002721D01*
X035929Y002693D01*
X035947Y002663D01*
X035960Y002632D01*
X035970Y002599D01*
X035976Y002565D01*
X035978Y002531D01*
X035976Y002497D01*
X035970Y002463D01*
X035960Y002430D01*
X035947Y002399D01*
X035929Y002369D01*
X035909Y002341D01*
X035885Y002316D01*
X035859Y002294D01*
X035831Y002276D01*
X035800Y002260D01*
X035768Y002248D01*
X035734Y002240D01*
X035700Y002236D01*
X035666Y002236D01*
X035632Y002240D01*
X035598Y002248D01*
X035566Y002260D01*
X035535Y002276D01*
X035507Y002294D01*
X035481Y002316D01*
X035457Y002341D01*
X035437Y002369D01*
X035419Y002399D01*
X035406Y002430D01*
X035396Y002463D01*
X035390Y002497D01*
X035388Y002531D01*
X034778Y002689D02*
X034780Y002723D01*
X034786Y002757D01*
X034796Y002790D01*
X034809Y002821D01*
X034827Y002851D01*
X034847Y002879D01*
X034871Y002904D01*
X034897Y002926D01*
X034925Y002944D01*
X034956Y002960D01*
X034988Y002972D01*
X035022Y002980D01*
X035056Y002984D01*
X035090Y002984D01*
X035124Y002980D01*
X035158Y002972D01*
X035190Y002960D01*
X035220Y002944D01*
X035249Y002926D01*
X035275Y002904D01*
X035299Y002879D01*
X035319Y002851D01*
X035337Y002821D01*
X035350Y002790D01*
X035360Y002757D01*
X035366Y002723D01*
X035368Y002689D01*
X035366Y002655D01*
X035360Y002621D01*
X035350Y002588D01*
X035337Y002557D01*
X035319Y002527D01*
X035299Y002499D01*
X035275Y002474D01*
X035249Y002452D01*
X035221Y002434D01*
X035190Y002418D01*
X035158Y002406D01*
X035124Y002398D01*
X035090Y002394D01*
X035056Y002394D01*
X035022Y002398D01*
X034988Y002406D01*
X034956Y002418D01*
X034925Y002434D01*
X034897Y002452D01*
X034871Y002474D01*
X034847Y002499D01*
X034827Y002527D01*
X034809Y002557D01*
X034796Y002588D01*
X034786Y002621D01*
X034780Y002655D01*
X034778Y002689D01*
X036333Y000997D02*
X036442Y001040D01*
X036548Y001089D01*
X036653Y001143D01*
X036754Y001202D01*
X036853Y001265D01*
X036948Y001334D01*
X037040Y001407D01*
X037128Y001484D01*
X037213Y001566D01*
X037293Y001651D01*
X037369Y001741D01*
X037441Y001834D01*
X037508Y001930D01*
X037570Y002030D01*
X037627Y002132D01*
X037680Y002237D01*
X037727Y002344D01*
X037769Y002454D01*
X037805Y002566D01*
X037836Y002679D01*
X037861Y002793D01*
X037881Y002909D01*
X037896Y003026D01*
X037904Y003143D01*
X037907Y003260D01*
X035900Y003614D02*
X035902Y003648D01*
X035908Y003682D01*
X035918Y003715D01*
X035931Y003746D01*
X035949Y003776D01*
X035969Y003804D01*
X035993Y003829D01*
X036019Y003851D01*
X036047Y003869D01*
X036078Y003885D01*
X036110Y003897D01*
X036144Y003905D01*
X036178Y003909D01*
X036212Y003909D01*
X036246Y003905D01*
X036280Y003897D01*
X036312Y003885D01*
X036342Y003869D01*
X036371Y003851D01*
X036397Y003829D01*
X036421Y003804D01*
X036441Y003776D01*
X036459Y003746D01*
X036472Y003715D01*
X036482Y003682D01*
X036488Y003648D01*
X036490Y003614D01*
X036488Y003580D01*
X036482Y003546D01*
X036472Y003513D01*
X036459Y003482D01*
X036441Y003452D01*
X036421Y003424D01*
X036397Y003399D01*
X036371Y003377D01*
X036343Y003359D01*
X036312Y003343D01*
X036280Y003331D01*
X036246Y003323D01*
X036212Y003319D01*
X036178Y003319D01*
X036144Y003323D01*
X036110Y003331D01*
X036078Y003343D01*
X036047Y003359D01*
X036019Y003377D01*
X035993Y003399D01*
X035969Y003424D01*
X035949Y003452D01*
X035931Y003482D01*
X035918Y003513D01*
X035908Y003546D01*
X035902Y003580D01*
X035900Y003614D01*
X036706Y003398D02*
X036704Y003461D01*
X036698Y003524D01*
X036689Y003586D01*
X036676Y003648D01*
X036659Y003708D01*
X036638Y003768D01*
X036614Y003826D01*
X036587Y003883D01*
X036556Y003938D01*
X036521Y003990D01*
X036484Y004041D01*
X036444Y004090D01*
X036401Y004136D01*
X036355Y004179D01*
X036306Y004219D01*
X036255Y004256D01*
X036203Y004291D01*
X036148Y004322D01*
X036091Y004349D01*
X036033Y004373D01*
X035973Y004394D01*
X035913Y004411D01*
X035851Y004424D01*
X035789Y004433D01*
X035726Y004439D01*
X035663Y004441D01*
X035545Y004441D01*
X035388Y003988D02*
X035390Y004022D01*
X035396Y004056D01*
X035406Y004089D01*
X035419Y004120D01*
X035437Y004150D01*
X035457Y004178D01*
X035481Y004203D01*
X035507Y004225D01*
X035535Y004243D01*
X035566Y004259D01*
X035598Y004271D01*
X035632Y004279D01*
X035666Y004283D01*
X035700Y004283D01*
X035734Y004279D01*
X035768Y004271D01*
X035800Y004259D01*
X035830Y004243D01*
X035859Y004225D01*
X035885Y004203D01*
X035909Y004178D01*
X035929Y004150D01*
X035947Y004120D01*
X035960Y004089D01*
X035970Y004056D01*
X035976Y004022D01*
X035978Y003988D01*
X035976Y003954D01*
X035970Y003920D01*
X035960Y003887D01*
X035947Y003856D01*
X035929Y003826D01*
X035909Y003798D01*
X035885Y003773D01*
X035859Y003751D01*
X035831Y003733D01*
X035800Y003717D01*
X035768Y003705D01*
X035734Y003697D01*
X035700Y003693D01*
X035666Y003693D01*
X035632Y003697D01*
X035598Y003705D01*
X035566Y003717D01*
X035535Y003733D01*
X035507Y003751D01*
X035481Y003773D01*
X035457Y003798D01*
X035437Y003826D01*
X035419Y003856D01*
X035406Y003887D01*
X035396Y003920D01*
X035390Y003954D01*
X035388Y003988D01*
X035250Y003260D02*
X035252Y003294D01*
X035258Y003328D01*
X035268Y003361D01*
X035281Y003392D01*
X035299Y003422D01*
X035319Y003450D01*
X035343Y003475D01*
X035369Y003497D01*
X035397Y003515D01*
X035428Y003531D01*
X035460Y003543D01*
X035494Y003551D01*
X035528Y003555D01*
X035562Y003555D01*
X035596Y003551D01*
X035630Y003543D01*
X035662Y003531D01*
X035692Y003515D01*
X035721Y003497D01*
X035747Y003475D01*
X035771Y003450D01*
X035791Y003422D01*
X035809Y003392D01*
X035822Y003361D01*
X035832Y003328D01*
X035838Y003294D01*
X035840Y003260D01*
X035838Y003226D01*
X035832Y003192D01*
X035822Y003159D01*
X035809Y003128D01*
X035791Y003098D01*
X035771Y003070D01*
X035747Y003045D01*
X035721Y003023D01*
X035693Y003005D01*
X035662Y002989D01*
X035630Y002977D01*
X035596Y002969D01*
X035562Y002965D01*
X035528Y002965D01*
X035494Y002969D01*
X035460Y002977D01*
X035428Y002989D01*
X035397Y003005D01*
X035369Y003023D01*
X035343Y003045D01*
X035319Y003070D01*
X035299Y003098D01*
X035281Y003128D01*
X035268Y003159D01*
X035258Y003192D01*
X035252Y003226D01*
X035250Y003260D01*
X034364Y003260D02*
X034366Y003194D01*
X034371Y003128D01*
X034381Y003062D01*
X034394Y002997D01*
X034410Y002933D01*
X034430Y002870D01*
X034454Y002808D01*
X034481Y002748D01*
X034511Y002689D01*
X034545Y002632D01*
X034582Y002577D01*
X034622Y002524D01*
X034664Y002473D01*
X034710Y002425D01*
X034758Y002379D01*
X034809Y002337D01*
X034862Y002297D01*
X034917Y002260D01*
X034974Y002226D01*
X035033Y002196D01*
X035093Y002169D01*
X035155Y002145D01*
X035218Y002125D01*
X035282Y002109D01*
X035347Y002096D01*
X035413Y002086D01*
X035479Y002081D01*
X035545Y002079D01*
X034758Y000996D02*
X036333Y000996D01*
X033183Y003260D02*
X033186Y003377D01*
X033194Y003494D01*
X033209Y003611D01*
X033229Y003727D01*
X033254Y003841D01*
X033285Y003954D01*
X033321Y004066D01*
X033363Y004176D01*
X033410Y004283D01*
X033463Y004388D01*
X033520Y004490D01*
X033582Y004590D01*
X033649Y004686D01*
X033721Y004779D01*
X033797Y004869D01*
X033877Y004954D01*
X033962Y005036D01*
X034050Y005113D01*
X034142Y005186D01*
X034237Y005255D01*
X034336Y005318D01*
X034437Y005377D01*
X034542Y005431D01*
X034648Y005480D01*
X034757Y005523D01*
X034758Y005524D02*
X036333Y005524D01*
X033183Y003260D02*
X033186Y003143D01*
X033194Y003026D01*
X033209Y002909D01*
X033229Y002793D01*
X033254Y002679D01*
X033285Y002566D01*
X033321Y002454D01*
X033363Y002344D01*
X033410Y002237D01*
X033463Y002132D01*
X033520Y002030D01*
X033582Y001930D01*
X033649Y001834D01*
X033721Y001741D01*
X033797Y001651D01*
X033877Y001566D01*
X033962Y001484D01*
X034050Y001407D01*
X034142Y001334D01*
X034237Y001265D01*
X034336Y001202D01*
X034437Y001143D01*
X034542Y001089D01*
X034648Y001040D01*
X034757Y000997D01*
X034364Y003260D02*
X034366Y003326D01*
X034371Y003392D01*
X034381Y003458D01*
X034394Y003523D01*
X034410Y003587D01*
X034430Y003650D01*
X034454Y003712D01*
X034481Y003772D01*
X034511Y003831D01*
X034545Y003888D01*
X034582Y003943D01*
X034622Y003996D01*
X034664Y004047D01*
X034710Y004095D01*
X034758Y004141D01*
X034809Y004183D01*
X034862Y004223D01*
X034917Y004260D01*
X034974Y004294D01*
X035033Y004324D01*
X035093Y004351D01*
X035155Y004375D01*
X035218Y004395D01*
X035282Y004411D01*
X035347Y004424D01*
X035413Y004434D01*
X035479Y004439D01*
X035545Y004441D01*
X033970Y003260D02*
X033972Y003339D01*
X033978Y003418D01*
X033988Y003497D01*
X034002Y003575D01*
X034019Y003652D01*
X034041Y003728D01*
X034066Y003803D01*
X034096Y003876D01*
X034128Y003948D01*
X034165Y004019D01*
X034205Y004087D01*
X034248Y004153D01*
X034294Y004217D01*
X034344Y004279D01*
X034397Y004338D01*
X034452Y004394D01*
X034511Y004448D01*
X034572Y004498D01*
X034635Y004546D01*
X034701Y004590D01*
X034769Y004631D01*
X034839Y004668D01*
X034910Y004702D01*
X034984Y004732D01*
X035058Y004758D01*
X035134Y004780D01*
X035211Y004799D01*
X035289Y004814D01*
X035367Y004825D01*
X035446Y004832D01*
X035525Y004835D01*
X035604Y004834D01*
X035683Y004829D01*
X035762Y004820D01*
X035840Y004807D01*
X035917Y004790D01*
X035994Y004770D01*
X036069Y004745D01*
X036143Y004717D01*
X036216Y004685D01*
X036286Y004650D01*
X036355Y004611D01*
X036422Y004568D01*
X036487Y004522D01*
X036549Y004474D01*
X036609Y004422D01*
X036666Y004367D01*
X036720Y004309D01*
X036771Y004249D01*
X036819Y004186D01*
X036864Y004121D01*
X036906Y004053D01*
X036944Y003984D01*
X036978Y003913D01*
X037009Y003840D01*
X037037Y003765D01*
X037060Y003690D01*
X037080Y003613D01*
X037096Y003536D01*
X037108Y003457D01*
X037116Y003379D01*
X037120Y003300D01*
X037120Y003220D01*
X037116Y003141D01*
X037108Y003063D01*
X037096Y002984D01*
X037080Y002907D01*
X037060Y002830D01*
X037037Y002755D01*
X037009Y002680D01*
X036978Y002607D01*
X036944Y002536D01*
X036906Y002467D01*
X036864Y002399D01*
X036819Y002334D01*
X036771Y002271D01*
X036720Y002211D01*
X036666Y002153D01*
X036609Y002098D01*
X036549Y002046D01*
X036487Y001998D01*
X036422Y001952D01*
X036355Y001909D01*
X036286Y001870D01*
X036216Y001835D01*
X036143Y001803D01*
X036069Y001775D01*
X035994Y001750D01*
X035917Y001730D01*
X035840Y001713D01*
X035762Y001700D01*
X035683Y001691D01*
X035604Y001686D01*
X035525Y001685D01*
X035446Y001688D01*
X035367Y001695D01*
X035289Y001706D01*
X035211Y001721D01*
X035134Y001740D01*
X035058Y001762D01*
X034984Y001788D01*
X034910Y001818D01*
X034839Y001852D01*
X034769Y001889D01*
X034701Y001930D01*
X034635Y001974D01*
X034572Y002022D01*
X034511Y002072D01*
X034452Y002126D01*
X034397Y002182D01*
X034344Y002241D01*
X034294Y002303D01*
X034248Y002367D01*
X034205Y002433D01*
X034165Y002501D01*
X034128Y002572D01*
X034096Y002644D01*
X034066Y002717D01*
X034041Y002792D01*
X034019Y002868D01*
X034002Y002945D01*
X033988Y003023D01*
X033978Y003102D01*
X033972Y003181D01*
X033970Y003260D01*
X029620Y003398D02*
X029541Y003398D01*
X029519Y003396D01*
X029498Y003391D01*
X029478Y003383D01*
X029460Y003372D01*
X029443Y003358D01*
X029429Y003341D01*
X029418Y003323D01*
X029410Y003303D01*
X029405Y003282D01*
X029403Y003260D01*
X029404Y003260D02*
X029406Y003237D01*
X029411Y003214D01*
X029420Y003192D01*
X029432Y003172D01*
X029447Y003154D01*
X029465Y003138D01*
X029485Y003126D01*
X029506Y003116D01*
X029529Y003110D01*
X029552Y003108D01*
X029575Y003109D01*
X029598Y003114D01*
X029620Y003122D01*
X028813Y002906D02*
X028815Y002940D01*
X028821Y002974D01*
X028831Y003007D01*
X028844Y003038D01*
X028862Y003068D01*
X028882Y003096D01*
X028906Y003121D01*
X028932Y003143D01*
X028960Y003161D01*
X028991Y003177D01*
X029023Y003189D01*
X029057Y003197D01*
X029091Y003201D01*
X029125Y003201D01*
X029159Y003197D01*
X029193Y003189D01*
X029225Y003177D01*
X029255Y003161D01*
X029284Y003143D01*
X029310Y003121D01*
X029334Y003096D01*
X029354Y003068D01*
X029372Y003038D01*
X029385Y003007D01*
X029395Y002974D01*
X029401Y002940D01*
X029403Y002906D01*
X029401Y002872D01*
X029395Y002838D01*
X029385Y002805D01*
X029372Y002774D01*
X029354Y002744D01*
X029334Y002716D01*
X029310Y002691D01*
X029284Y002669D01*
X029256Y002651D01*
X029225Y002635D01*
X029193Y002623D01*
X029159Y002615D01*
X029125Y002611D01*
X029091Y002611D01*
X029057Y002615D01*
X029023Y002623D01*
X028991Y002635D01*
X028960Y002651D01*
X028932Y002669D01*
X028906Y002691D01*
X028882Y002716D01*
X028862Y002744D01*
X028844Y002774D01*
X028831Y002805D01*
X028821Y002838D01*
X028815Y002872D01*
X028813Y002906D01*
X029620Y003122D02*
X029618Y003059D01*
X029612Y002996D01*
X029603Y002934D01*
X029590Y002872D01*
X029573Y002812D01*
X029552Y002752D01*
X029528Y002694D01*
X029501Y002637D01*
X029470Y002582D01*
X029435Y002530D01*
X029398Y002479D01*
X029358Y002430D01*
X029315Y002384D01*
X029269Y002341D01*
X029220Y002301D01*
X029169Y002264D01*
X029117Y002229D01*
X029062Y002198D01*
X029005Y002171D01*
X028947Y002147D01*
X028887Y002126D01*
X028827Y002109D01*
X028765Y002096D01*
X028703Y002087D01*
X028640Y002081D01*
X028577Y002079D01*
X028459Y002079D01*
X028301Y002531D02*
X028303Y002565D01*
X028309Y002599D01*
X028319Y002632D01*
X028332Y002663D01*
X028350Y002693D01*
X028370Y002721D01*
X028394Y002746D01*
X028420Y002768D01*
X028448Y002786D01*
X028479Y002802D01*
X028511Y002814D01*
X028545Y002822D01*
X028579Y002826D01*
X028613Y002826D01*
X028647Y002822D01*
X028681Y002814D01*
X028713Y002802D01*
X028743Y002786D01*
X028772Y002768D01*
X028798Y002746D01*
X028822Y002721D01*
X028842Y002693D01*
X028860Y002663D01*
X028873Y002632D01*
X028883Y002599D01*
X028889Y002565D01*
X028891Y002531D01*
X028889Y002497D01*
X028883Y002463D01*
X028873Y002430D01*
X028860Y002399D01*
X028842Y002369D01*
X028822Y002341D01*
X028798Y002316D01*
X028772Y002294D01*
X028744Y002276D01*
X028713Y002260D01*
X028681Y002248D01*
X028647Y002240D01*
X028613Y002236D01*
X028579Y002236D01*
X028545Y002240D01*
X028511Y002248D01*
X028479Y002260D01*
X028448Y002276D01*
X028420Y002294D01*
X028394Y002316D01*
X028370Y002341D01*
X028350Y002369D01*
X028332Y002399D01*
X028319Y002430D01*
X028309Y002463D01*
X028303Y002497D01*
X028301Y002531D01*
X027691Y002689D02*
X027693Y002723D01*
X027699Y002757D01*
X027709Y002790D01*
X027722Y002821D01*
X027740Y002851D01*
X027760Y002879D01*
X027784Y002904D01*
X027810Y002926D01*
X027838Y002944D01*
X027869Y002960D01*
X027901Y002972D01*
X027935Y002980D01*
X027969Y002984D01*
X028003Y002984D01*
X028037Y002980D01*
X028071Y002972D01*
X028103Y002960D01*
X028133Y002944D01*
X028162Y002926D01*
X028188Y002904D01*
X028212Y002879D01*
X028232Y002851D01*
X028250Y002821D01*
X028263Y002790D01*
X028273Y002757D01*
X028279Y002723D01*
X028281Y002689D01*
X028279Y002655D01*
X028273Y002621D01*
X028263Y002588D01*
X028250Y002557D01*
X028232Y002527D01*
X028212Y002499D01*
X028188Y002474D01*
X028162Y002452D01*
X028134Y002434D01*
X028103Y002418D01*
X028071Y002406D01*
X028037Y002398D01*
X028003Y002394D01*
X027969Y002394D01*
X027935Y002398D01*
X027901Y002406D01*
X027869Y002418D01*
X027838Y002434D01*
X027810Y002452D01*
X027784Y002474D01*
X027760Y002499D01*
X027740Y002527D01*
X027722Y002557D01*
X027709Y002588D01*
X027699Y002621D01*
X027693Y002655D01*
X027691Y002689D01*
X029246Y000997D02*
X029355Y001040D01*
X029461Y001089D01*
X029566Y001143D01*
X029667Y001202D01*
X029766Y001265D01*
X029861Y001334D01*
X029953Y001407D01*
X030041Y001484D01*
X030126Y001566D01*
X030206Y001651D01*
X030282Y001741D01*
X030354Y001834D01*
X030421Y001930D01*
X030483Y002030D01*
X030540Y002132D01*
X030593Y002237D01*
X030640Y002344D01*
X030682Y002454D01*
X030718Y002566D01*
X030749Y002679D01*
X030774Y002793D01*
X030794Y002909D01*
X030809Y003026D01*
X030817Y003143D01*
X030820Y003260D01*
X028813Y003614D02*
X028815Y003648D01*
X028821Y003682D01*
X028831Y003715D01*
X028844Y003746D01*
X028862Y003776D01*
X028882Y003804D01*
X028906Y003829D01*
X028932Y003851D01*
X028960Y003869D01*
X028991Y003885D01*
X029023Y003897D01*
X029057Y003905D01*
X029091Y003909D01*
X029125Y003909D01*
X029159Y003905D01*
X029193Y003897D01*
X029225Y003885D01*
X029255Y003869D01*
X029284Y003851D01*
X029310Y003829D01*
X029334Y003804D01*
X029354Y003776D01*
X029372Y003746D01*
X029385Y003715D01*
X029395Y003682D01*
X029401Y003648D01*
X029403Y003614D01*
X029401Y003580D01*
X029395Y003546D01*
X029385Y003513D01*
X029372Y003482D01*
X029354Y003452D01*
X029334Y003424D01*
X029310Y003399D01*
X029284Y003377D01*
X029256Y003359D01*
X029225Y003343D01*
X029193Y003331D01*
X029159Y003323D01*
X029125Y003319D01*
X029091Y003319D01*
X029057Y003323D01*
X029023Y003331D01*
X028991Y003343D01*
X028960Y003359D01*
X028932Y003377D01*
X028906Y003399D01*
X028882Y003424D01*
X028862Y003452D01*
X028844Y003482D01*
X028831Y003513D01*
X028821Y003546D01*
X028815Y003580D01*
X028813Y003614D01*
X029620Y003398D02*
X029618Y003461D01*
X029612Y003524D01*
X029603Y003586D01*
X029590Y003648D01*
X029573Y003708D01*
X029552Y003768D01*
X029528Y003826D01*
X029501Y003883D01*
X029470Y003938D01*
X029435Y003990D01*
X029398Y004041D01*
X029358Y004090D01*
X029315Y004136D01*
X029269Y004179D01*
X029220Y004219D01*
X029169Y004256D01*
X029117Y004291D01*
X029062Y004322D01*
X029005Y004349D01*
X028947Y004373D01*
X028887Y004394D01*
X028827Y004411D01*
X028765Y004424D01*
X028703Y004433D01*
X028640Y004439D01*
X028577Y004441D01*
X028459Y004441D01*
X028301Y003988D02*
X028303Y004022D01*
X028309Y004056D01*
X028319Y004089D01*
X028332Y004120D01*
X028350Y004150D01*
X028370Y004178D01*
X028394Y004203D01*
X028420Y004225D01*
X028448Y004243D01*
X028479Y004259D01*
X028511Y004271D01*
X028545Y004279D01*
X028579Y004283D01*
X028613Y004283D01*
X028647Y004279D01*
X028681Y004271D01*
X028713Y004259D01*
X028743Y004243D01*
X028772Y004225D01*
X028798Y004203D01*
X028822Y004178D01*
X028842Y004150D01*
X028860Y004120D01*
X028873Y004089D01*
X028883Y004056D01*
X028889Y004022D01*
X028891Y003988D01*
X028889Y003954D01*
X028883Y003920D01*
X028873Y003887D01*
X028860Y003856D01*
X028842Y003826D01*
X028822Y003798D01*
X028798Y003773D01*
X028772Y003751D01*
X028744Y003733D01*
X028713Y003717D01*
X028681Y003705D01*
X028647Y003697D01*
X028613Y003693D01*
X028579Y003693D01*
X028545Y003697D01*
X028511Y003705D01*
X028479Y003717D01*
X028448Y003733D01*
X028420Y003751D01*
X028394Y003773D01*
X028370Y003798D01*
X028350Y003826D01*
X028332Y003856D01*
X028319Y003887D01*
X028309Y003920D01*
X028303Y003954D01*
X028301Y003988D01*
X028164Y003260D02*
X028166Y003294D01*
X028172Y003328D01*
X028182Y003361D01*
X028195Y003392D01*
X028213Y003422D01*
X028233Y003450D01*
X028257Y003475D01*
X028283Y003497D01*
X028311Y003515D01*
X028342Y003531D01*
X028374Y003543D01*
X028408Y003551D01*
X028442Y003555D01*
X028476Y003555D01*
X028510Y003551D01*
X028544Y003543D01*
X028576Y003531D01*
X028606Y003515D01*
X028635Y003497D01*
X028661Y003475D01*
X028685Y003450D01*
X028705Y003422D01*
X028723Y003392D01*
X028736Y003361D01*
X028746Y003328D01*
X028752Y003294D01*
X028754Y003260D01*
X028752Y003226D01*
X028746Y003192D01*
X028736Y003159D01*
X028723Y003128D01*
X028705Y003098D01*
X028685Y003070D01*
X028661Y003045D01*
X028635Y003023D01*
X028607Y003005D01*
X028576Y002989D01*
X028544Y002977D01*
X028510Y002969D01*
X028476Y002965D01*
X028442Y002965D01*
X028408Y002969D01*
X028374Y002977D01*
X028342Y002989D01*
X028311Y003005D01*
X028283Y003023D01*
X028257Y003045D01*
X028233Y003070D01*
X028213Y003098D01*
X028195Y003128D01*
X028182Y003159D01*
X028172Y003192D01*
X028166Y003226D01*
X028164Y003260D01*
X027278Y003260D02*
X027280Y003194D01*
X027285Y003128D01*
X027295Y003062D01*
X027308Y002997D01*
X027324Y002933D01*
X027344Y002870D01*
X027368Y002808D01*
X027395Y002748D01*
X027425Y002689D01*
X027459Y002632D01*
X027496Y002577D01*
X027536Y002524D01*
X027578Y002473D01*
X027624Y002425D01*
X027672Y002379D01*
X027723Y002337D01*
X027776Y002297D01*
X027831Y002260D01*
X027888Y002226D01*
X027947Y002196D01*
X028007Y002169D01*
X028069Y002145D01*
X028132Y002125D01*
X028196Y002109D01*
X028261Y002096D01*
X028327Y002086D01*
X028393Y002081D01*
X028459Y002079D01*
X029246Y000996D02*
X027671Y000996D01*
X027278Y003260D02*
X027280Y003326D01*
X027285Y003392D01*
X027295Y003458D01*
X027308Y003523D01*
X027324Y003587D01*
X027344Y003650D01*
X027368Y003712D01*
X027395Y003772D01*
X027425Y003831D01*
X027459Y003888D01*
X027496Y003943D01*
X027536Y003996D01*
X027578Y004047D01*
X027624Y004095D01*
X027672Y004141D01*
X027723Y004183D01*
X027776Y004223D01*
X027831Y004260D01*
X027888Y004294D01*
X027947Y004324D01*
X028007Y004351D01*
X028069Y004375D01*
X028132Y004395D01*
X028196Y004411D01*
X028261Y004424D01*
X028327Y004434D01*
X028393Y004439D01*
X028459Y004441D01*
X029246Y005524D02*
X027671Y005524D01*
X026884Y003260D02*
X026886Y003339D01*
X026892Y003418D01*
X026902Y003497D01*
X026916Y003575D01*
X026933Y003652D01*
X026955Y003728D01*
X026980Y003803D01*
X027010Y003876D01*
X027042Y003948D01*
X027079Y004019D01*
X027119Y004087D01*
X027162Y004153D01*
X027208Y004217D01*
X027258Y004279D01*
X027311Y004338D01*
X027366Y004394D01*
X027425Y004448D01*
X027486Y004498D01*
X027549Y004546D01*
X027615Y004590D01*
X027683Y004631D01*
X027753Y004668D01*
X027824Y004702D01*
X027898Y004732D01*
X027972Y004758D01*
X028048Y004780D01*
X028125Y004799D01*
X028203Y004814D01*
X028281Y004825D01*
X028360Y004832D01*
X028439Y004835D01*
X028518Y004834D01*
X028597Y004829D01*
X028676Y004820D01*
X028754Y004807D01*
X028831Y004790D01*
X028908Y004770D01*
X028983Y004745D01*
X029057Y004717D01*
X029130Y004685D01*
X029200Y004650D01*
X029269Y004611D01*
X029336Y004568D01*
X029401Y004522D01*
X029463Y004474D01*
X029523Y004422D01*
X029580Y004367D01*
X029634Y004309D01*
X029685Y004249D01*
X029733Y004186D01*
X029778Y004121D01*
X029820Y004053D01*
X029858Y003984D01*
X029892Y003913D01*
X029923Y003840D01*
X029951Y003765D01*
X029974Y003690D01*
X029994Y003613D01*
X030010Y003536D01*
X030022Y003457D01*
X030030Y003379D01*
X030034Y003300D01*
X030034Y003220D01*
X030030Y003141D01*
X030022Y003063D01*
X030010Y002984D01*
X029994Y002907D01*
X029974Y002830D01*
X029951Y002755D01*
X029923Y002680D01*
X029892Y002607D01*
X029858Y002536D01*
X029820Y002467D01*
X029778Y002399D01*
X029733Y002334D01*
X029685Y002271D01*
X029634Y002211D01*
X029580Y002153D01*
X029523Y002098D01*
X029463Y002046D01*
X029401Y001998D01*
X029336Y001952D01*
X029269Y001909D01*
X029200Y001870D01*
X029130Y001835D01*
X029057Y001803D01*
X028983Y001775D01*
X028908Y001750D01*
X028831Y001730D01*
X028754Y001713D01*
X028676Y001700D01*
X028597Y001691D01*
X028518Y001686D01*
X028439Y001685D01*
X028360Y001688D01*
X028281Y001695D01*
X028203Y001706D01*
X028125Y001721D01*
X028048Y001740D01*
X027972Y001762D01*
X027898Y001788D01*
X027824Y001818D01*
X027753Y001852D01*
X027683Y001889D01*
X027615Y001930D01*
X027549Y001974D01*
X027486Y002022D01*
X027425Y002072D01*
X027366Y002126D01*
X027311Y002182D01*
X027258Y002241D01*
X027208Y002303D01*
X027162Y002367D01*
X027119Y002433D01*
X027079Y002501D01*
X027042Y002572D01*
X027010Y002644D01*
X026980Y002717D01*
X026955Y002792D01*
X026933Y002868D01*
X026916Y002945D01*
X026902Y003023D01*
X026892Y003102D01*
X026886Y003181D01*
X026884Y003260D01*
X026097Y003260D02*
X026100Y003377D01*
X026108Y003494D01*
X026123Y003611D01*
X026143Y003727D01*
X026168Y003841D01*
X026199Y003954D01*
X026235Y004066D01*
X026277Y004176D01*
X026324Y004283D01*
X026377Y004388D01*
X026434Y004490D01*
X026496Y004590D01*
X026563Y004686D01*
X026635Y004779D01*
X026711Y004869D01*
X026791Y004954D01*
X026876Y005036D01*
X026964Y005113D01*
X027056Y005186D01*
X027151Y005255D01*
X027250Y005318D01*
X027351Y005377D01*
X027456Y005431D01*
X027562Y005480D01*
X027671Y005523D01*
X026097Y003260D02*
X026100Y003143D01*
X026108Y003026D01*
X026123Y002909D01*
X026143Y002793D01*
X026168Y002679D01*
X026199Y002566D01*
X026235Y002454D01*
X026277Y002344D01*
X026324Y002237D01*
X026377Y002132D01*
X026434Y002030D01*
X026496Y001930D01*
X026563Y001834D01*
X026635Y001741D01*
X026711Y001651D01*
X026791Y001566D01*
X026876Y001484D01*
X026964Y001407D01*
X027056Y001334D01*
X027151Y001265D01*
X027250Y001202D01*
X027351Y001143D01*
X027456Y001089D01*
X027562Y001040D01*
X027671Y000997D01*
X022159Y000996D02*
X020585Y000996D01*
X021077Y003260D02*
X021079Y003294D01*
X021085Y003328D01*
X021095Y003361D01*
X021108Y003392D01*
X021126Y003422D01*
X021146Y003450D01*
X021170Y003475D01*
X021196Y003497D01*
X021224Y003515D01*
X021255Y003531D01*
X021287Y003543D01*
X021321Y003551D01*
X021355Y003555D01*
X021389Y003555D01*
X021423Y003551D01*
X021457Y003543D01*
X021489Y003531D01*
X021519Y003515D01*
X021548Y003497D01*
X021574Y003475D01*
X021598Y003450D01*
X021618Y003422D01*
X021636Y003392D01*
X021649Y003361D01*
X021659Y003328D01*
X021665Y003294D01*
X021667Y003260D01*
X021665Y003226D01*
X021659Y003192D01*
X021649Y003159D01*
X021636Y003128D01*
X021618Y003098D01*
X021598Y003070D01*
X021574Y003045D01*
X021548Y003023D01*
X021520Y003005D01*
X021489Y002989D01*
X021457Y002977D01*
X021423Y002969D01*
X021389Y002965D01*
X021355Y002965D01*
X021321Y002969D01*
X021287Y002977D01*
X021255Y002989D01*
X021224Y003005D01*
X021196Y003023D01*
X021170Y003045D01*
X021146Y003070D01*
X021126Y003098D01*
X021108Y003128D01*
X021095Y003159D01*
X021085Y003192D01*
X021079Y003226D01*
X021077Y003260D01*
X020191Y003260D02*
X020193Y003194D01*
X020198Y003128D01*
X020208Y003062D01*
X020221Y002997D01*
X020237Y002933D01*
X020257Y002870D01*
X020281Y002808D01*
X020308Y002748D01*
X020338Y002689D01*
X020372Y002632D01*
X020409Y002577D01*
X020449Y002524D01*
X020491Y002473D01*
X020537Y002425D01*
X020585Y002379D01*
X020636Y002337D01*
X020689Y002297D01*
X020744Y002260D01*
X020801Y002226D01*
X020860Y002196D01*
X020920Y002169D01*
X020982Y002145D01*
X021045Y002125D01*
X021109Y002109D01*
X021174Y002096D01*
X021240Y002086D01*
X021306Y002081D01*
X021372Y002079D01*
X020191Y003260D02*
X020193Y003326D01*
X020198Y003392D01*
X020208Y003458D01*
X020221Y003523D01*
X020237Y003587D01*
X020257Y003650D01*
X020281Y003712D01*
X020308Y003772D01*
X020338Y003831D01*
X020372Y003888D01*
X020409Y003943D01*
X020449Y003996D01*
X020491Y004047D01*
X020537Y004095D01*
X020585Y004141D01*
X020636Y004183D01*
X020689Y004223D01*
X020744Y004260D01*
X020801Y004294D01*
X020860Y004324D01*
X020920Y004351D01*
X020982Y004375D01*
X021045Y004395D01*
X021109Y004411D01*
X021174Y004424D01*
X021240Y004434D01*
X021306Y004439D01*
X021372Y004441D01*
X019797Y003260D02*
X019799Y003339D01*
X019805Y003418D01*
X019815Y003497D01*
X019829Y003575D01*
X019846Y003652D01*
X019868Y003728D01*
X019893Y003803D01*
X019923Y003876D01*
X019955Y003948D01*
X019992Y004019D01*
X020032Y004087D01*
X020075Y004153D01*
X020121Y004217D01*
X020171Y004279D01*
X020224Y004338D01*
X020279Y004394D01*
X020338Y004448D01*
X020399Y004498D01*
X020462Y004546D01*
X020528Y004590D01*
X020596Y004631D01*
X020666Y004668D01*
X020737Y004702D01*
X020811Y004732D01*
X020885Y004758D01*
X020961Y004780D01*
X021038Y004799D01*
X021116Y004814D01*
X021194Y004825D01*
X021273Y004832D01*
X021352Y004835D01*
X021431Y004834D01*
X021510Y004829D01*
X021589Y004820D01*
X021667Y004807D01*
X021744Y004790D01*
X021821Y004770D01*
X021896Y004745D01*
X021970Y004717D01*
X022043Y004685D01*
X022113Y004650D01*
X022182Y004611D01*
X022249Y004568D01*
X022314Y004522D01*
X022376Y004474D01*
X022436Y004422D01*
X022493Y004367D01*
X022547Y004309D01*
X022598Y004249D01*
X022646Y004186D01*
X022691Y004121D01*
X022733Y004053D01*
X022771Y003984D01*
X022805Y003913D01*
X022836Y003840D01*
X022864Y003765D01*
X022887Y003690D01*
X022907Y003613D01*
X022923Y003536D01*
X022935Y003457D01*
X022943Y003379D01*
X022947Y003300D01*
X022947Y003220D01*
X022943Y003141D01*
X022935Y003063D01*
X022923Y002984D01*
X022907Y002907D01*
X022887Y002830D01*
X022864Y002755D01*
X022836Y002680D01*
X022805Y002607D01*
X022771Y002536D01*
X022733Y002467D01*
X022691Y002399D01*
X022646Y002334D01*
X022598Y002271D01*
X022547Y002211D01*
X022493Y002153D01*
X022436Y002098D01*
X022376Y002046D01*
X022314Y001998D01*
X022249Y001952D01*
X022182Y001909D01*
X022113Y001870D01*
X022043Y001835D01*
X021970Y001803D01*
X021896Y001775D01*
X021821Y001750D01*
X021744Y001730D01*
X021667Y001713D01*
X021589Y001700D01*
X021510Y001691D01*
X021431Y001686D01*
X021352Y001685D01*
X021273Y001688D01*
X021194Y001695D01*
X021116Y001706D01*
X021038Y001721D01*
X020961Y001740D01*
X020885Y001762D01*
X020811Y001788D01*
X020737Y001818D01*
X020666Y001852D01*
X020596Y001889D01*
X020528Y001930D01*
X020462Y001974D01*
X020399Y002022D01*
X020338Y002072D01*
X020279Y002126D01*
X020224Y002182D01*
X020171Y002241D01*
X020121Y002303D01*
X020075Y002367D01*
X020032Y002433D01*
X019992Y002501D01*
X019955Y002572D01*
X019923Y002644D01*
X019893Y002717D01*
X019868Y002792D01*
X019846Y002868D01*
X019829Y002945D01*
X019815Y003023D01*
X019805Y003102D01*
X019799Y003181D01*
X019797Y003260D01*
X019010Y003260D02*
X019013Y003377D01*
X019021Y003494D01*
X019036Y003611D01*
X019056Y003727D01*
X019081Y003841D01*
X019112Y003954D01*
X019148Y004066D01*
X019190Y004176D01*
X019237Y004283D01*
X019290Y004388D01*
X019347Y004490D01*
X019409Y004590D01*
X019476Y004686D01*
X019548Y004779D01*
X019624Y004869D01*
X019704Y004954D01*
X019789Y005036D01*
X019877Y005113D01*
X019969Y005186D01*
X020064Y005255D01*
X020163Y005318D01*
X020264Y005377D01*
X020369Y005431D01*
X020475Y005480D01*
X020584Y005523D01*
X019010Y003260D02*
X019013Y003143D01*
X019021Y003026D01*
X019036Y002909D01*
X019056Y002793D01*
X019081Y002679D01*
X019112Y002566D01*
X019148Y002454D01*
X019190Y002344D01*
X019237Y002237D01*
X019290Y002132D01*
X019347Y002030D01*
X019409Y001930D01*
X019476Y001834D01*
X019548Y001741D01*
X019624Y001651D01*
X019704Y001566D01*
X019789Y001484D01*
X019877Y001407D01*
X019969Y001334D01*
X020064Y001265D01*
X020163Y001202D01*
X020264Y001143D01*
X020369Y001089D01*
X020475Y001040D01*
X020584Y000997D01*
D13*
X023558Y001447D02*
X023572Y001397D01*
X023603Y001378D01*
X023654Y001392D01*
X023690Y001455D01*
X023740Y001469D01*
X023772Y001450D01*
X023786Y001400D01*
X023749Y001337D01*
X023699Y001323D01*
X023558Y001447D02*
X023595Y001510D01*
X023645Y001524D01*
X023650Y001606D02*
X023841Y001496D01*
X023746Y001551D02*
X023819Y001678D01*
X023914Y001623D02*
X023724Y001734D01*
X023761Y001798D02*
X023797Y001861D01*
X023779Y001830D02*
X023970Y001719D01*
X023951Y001688D02*
X023988Y001751D01*
X024025Y001815D02*
X024099Y001942D01*
X024136Y002007D02*
X024209Y002134D01*
X024246Y002198D02*
X024301Y002293D01*
X024288Y002343D01*
X024161Y002417D01*
X024110Y002403D01*
X024055Y002308D01*
X024246Y002198D01*
X024136Y002007D02*
X023945Y002117D01*
X023908Y002052D02*
X023834Y001925D01*
X024025Y001815D01*
X023930Y001870D02*
X023966Y001934D01*
X030645Y001447D02*
X030658Y001397D01*
X030690Y001378D01*
X030740Y001392D01*
X030777Y001455D01*
X030827Y001469D01*
X030859Y001450D01*
X030872Y001400D01*
X030835Y001337D01*
X030785Y001323D01*
X030645Y001447D02*
X030681Y001510D01*
X030732Y001524D01*
X030737Y001606D02*
X030928Y001496D01*
X030832Y001551D02*
X030906Y001678D01*
X031001Y001623D02*
X030810Y001734D01*
X030847Y001798D02*
X030884Y001861D01*
X030866Y001830D02*
X031056Y001719D01*
X031038Y001688D02*
X031075Y001751D01*
X031112Y001815D02*
X031185Y001942D01*
X031222Y002007D02*
X031296Y002134D01*
X031333Y002198D02*
X031388Y002293D01*
X031374Y002343D01*
X031247Y002417D01*
X031197Y002403D01*
X031142Y002308D01*
X031333Y002198D01*
X031222Y002007D02*
X031032Y002117D01*
X030994Y002052D02*
X030921Y001925D01*
X031112Y001815D01*
X031016Y001870D02*
X031053Y001934D01*
X037731Y001447D02*
X037745Y001397D01*
X037777Y001378D01*
X037827Y001392D01*
X037863Y001455D01*
X037914Y001469D01*
X037945Y001450D01*
X037959Y001400D01*
X037922Y001337D01*
X037872Y001323D01*
X037731Y001447D02*
X037768Y001510D01*
X037818Y001524D01*
X037824Y001606D02*
X038014Y001496D01*
X037919Y001551D02*
X037992Y001678D01*
X037897Y001734D02*
X038088Y001623D01*
X038125Y001688D02*
X038161Y001751D01*
X038143Y001719D02*
X037952Y001830D01*
X037934Y001798D02*
X037971Y001861D01*
X038008Y001925D02*
X038198Y001815D01*
X038272Y001942D01*
X038309Y002007D02*
X038118Y002117D01*
X038081Y002052D02*
X038008Y001925D01*
X038103Y001870D02*
X038140Y001934D01*
X038309Y002007D02*
X038382Y002134D01*
X038419Y002198D02*
X038474Y002293D01*
X038461Y002343D01*
X038334Y002417D01*
X038284Y002403D01*
X038229Y002308D01*
X038419Y002198D01*
X044818Y001447D02*
X044831Y001397D01*
X044863Y001378D01*
X044913Y001392D01*
X044950Y001455D01*
X045000Y001469D01*
X045032Y001450D01*
X045045Y001400D01*
X045009Y001337D01*
X044959Y001323D01*
X044818Y001447D02*
X044855Y001510D01*
X044905Y001524D01*
X044910Y001606D02*
X045101Y001496D01*
X045005Y001551D02*
X045079Y001678D01*
X045174Y001623D02*
X044984Y001734D01*
X045021Y001798D02*
X045057Y001861D01*
X045039Y001830D02*
X045230Y001719D01*
X045211Y001688D02*
X045248Y001751D01*
X045285Y001815D02*
X045094Y001925D01*
X045168Y002052D01*
X045205Y002117D02*
X045395Y002007D01*
X045469Y002134D01*
X045506Y002198D02*
X045561Y002293D01*
X045547Y002343D01*
X045420Y002417D01*
X045370Y002403D01*
X045315Y002308D01*
X045506Y002198D01*
X045358Y001942D02*
X045285Y001815D01*
X045190Y001870D02*
X045226Y001934D01*
D14*
X045779Y007753D03*
X045779Y008213D03*
X044598Y008213D03*
X044598Y007753D03*
X043421Y007756D03*
X043421Y008216D03*
X035543Y008213D03*
X035543Y007753D03*
X034362Y007753D03*
X034362Y008213D03*
X033185Y008216D03*
X033185Y007756D03*
X032000Y007753D03*
X032000Y008213D03*
X030819Y008213D03*
X030819Y007753D03*
X029638Y007753D03*
X029638Y008213D03*
X028457Y008213D03*
X028457Y007753D03*
X027275Y007753D03*
X027275Y008213D03*
X020189Y008213D03*
X020189Y007753D03*
X019008Y007753D03*
X019008Y008213D03*
D15*
X019175Y008124D02*
X019175Y007844D01*
X018840Y007844D02*
X018840Y008124D01*
X020021Y008124D02*
X020021Y007844D01*
X020356Y007844D02*
X020356Y008124D01*
X027107Y008124D02*
X027107Y007844D01*
X027442Y007844D02*
X027442Y008124D01*
X028289Y008124D02*
X028289Y007844D01*
X028624Y007844D02*
X028624Y008124D01*
X029470Y008124D02*
X029470Y007844D01*
X029805Y007844D02*
X029805Y008124D01*
X030651Y008124D02*
X030651Y007844D01*
X030986Y007844D02*
X030986Y008124D01*
X031832Y008124D02*
X031832Y007844D01*
X032167Y007844D02*
X032167Y008124D01*
X033018Y008124D02*
X033018Y007844D01*
X033353Y007844D02*
X033353Y008124D01*
X034194Y008124D02*
X034194Y007844D01*
X034529Y007844D02*
X034529Y008124D01*
X035375Y008124D02*
X035375Y007844D01*
X035710Y007844D02*
X035710Y008124D01*
X043254Y008124D02*
X043254Y007844D01*
X043589Y007844D02*
X043589Y008124D01*
X044430Y008124D02*
X044430Y007844D01*
X044765Y007844D02*
X044765Y008124D01*
X045611Y008124D02*
X045611Y007844D01*
X045946Y007844D02*
X045946Y008124D01*
X045134Y006968D02*
X044854Y006968D01*
X044854Y006633D02*
X045134Y006633D01*
X043953Y006638D02*
X043673Y006638D01*
X043673Y006973D02*
X043953Y006973D01*
D16*
X035557Y007984D02*
X035533Y007984D01*
D17*
X033183Y007984D03*
X032002Y007984D03*
X030821Y007984D03*
X029640Y007984D03*
X028459Y007984D03*
X027277Y007984D03*
X020191Y007984D03*
X019010Y007984D03*
X043419Y007984D03*
X044600Y007984D03*
X045781Y007984D03*
D18*
X045226Y006801D03*
X044766Y006801D03*
X044041Y006805D03*
X043581Y006805D03*
D19*
X043813Y006803D03*
X044994Y006803D03*
M02*
