G75*
G70*
%OFA0B0*%
%FSLAX24Y24*%
%IPPOS*%
%LPD*%
%AMOC8*
5,1,8,0,0,1.08239X$1,22.5*
%
%ADD10C,0.0000*%
%ADD11C,0.0472*%
%ADD12C,0.0591*%
%ADD13R,0.0394X0.0433*%
%ADD14C,0.0376*%
%ADD15C,0.0160*%
D10*
X011136Y002079D02*
X011136Y007984D01*
X011138Y008061D01*
X011144Y008138D01*
X011153Y008215D01*
X011166Y008291D01*
X011183Y008367D01*
X011204Y008441D01*
X011228Y008515D01*
X011256Y008587D01*
X011287Y008657D01*
X011322Y008726D01*
X011360Y008794D01*
X011401Y008859D01*
X011446Y008922D01*
X011494Y008983D01*
X011544Y009042D01*
X011597Y009098D01*
X011653Y009151D01*
X011712Y009201D01*
X011773Y009249D01*
X011836Y009294D01*
X011901Y009335D01*
X011969Y009373D01*
X012038Y009408D01*
X012108Y009439D01*
X012180Y009467D01*
X012254Y009491D01*
X012328Y009512D01*
X012404Y009529D01*
X012480Y009542D01*
X012557Y009551D01*
X012634Y009557D01*
X012711Y009559D01*
X037907Y009559D01*
X037984Y009557D01*
X038061Y009551D01*
X038138Y009542D01*
X038214Y009529D01*
X038290Y009512D01*
X038364Y009491D01*
X038438Y009467D01*
X038510Y009439D01*
X038580Y009408D01*
X038649Y009373D01*
X038717Y009335D01*
X038782Y009294D01*
X038845Y009249D01*
X038906Y009201D01*
X038965Y009151D01*
X039021Y009098D01*
X039074Y009042D01*
X039124Y008983D01*
X039172Y008922D01*
X039217Y008859D01*
X039258Y008794D01*
X039296Y008726D01*
X039331Y008657D01*
X039362Y008587D01*
X039390Y008515D01*
X039414Y008441D01*
X039435Y008367D01*
X039452Y008291D01*
X039465Y008215D01*
X039474Y008138D01*
X039480Y008061D01*
X039482Y007984D01*
X039482Y002079D01*
X039480Y002002D01*
X039474Y001925D01*
X039465Y001848D01*
X039452Y001772D01*
X039435Y001696D01*
X039414Y001622D01*
X039390Y001548D01*
X039362Y001476D01*
X039331Y001406D01*
X039296Y001337D01*
X039258Y001269D01*
X039217Y001204D01*
X039172Y001141D01*
X039124Y001080D01*
X039074Y001021D01*
X039021Y000965D01*
X038965Y000912D01*
X038906Y000862D01*
X038845Y000814D01*
X038782Y000769D01*
X038717Y000728D01*
X038649Y000690D01*
X038580Y000655D01*
X038510Y000624D01*
X038438Y000596D01*
X038364Y000572D01*
X038290Y000551D01*
X038214Y000534D01*
X038138Y000521D01*
X038061Y000512D01*
X037984Y000506D01*
X037907Y000504D01*
X012711Y000504D01*
X012634Y000506D01*
X012557Y000512D01*
X012480Y000521D01*
X012404Y000534D01*
X012328Y000551D01*
X012254Y000572D01*
X012180Y000596D01*
X012108Y000624D01*
X012038Y000655D01*
X011969Y000690D01*
X011901Y000728D01*
X011836Y000769D01*
X011773Y000814D01*
X011712Y000862D01*
X011653Y000912D01*
X011597Y000965D01*
X011544Y001021D01*
X011494Y001080D01*
X011446Y001141D01*
X011401Y001204D01*
X011360Y001269D01*
X011322Y001337D01*
X011287Y001406D01*
X011256Y001476D01*
X011228Y001548D01*
X011204Y001622D01*
X011183Y001696D01*
X011166Y001772D01*
X011153Y001848D01*
X011144Y001925D01*
X011138Y002002D01*
X011136Y002079D01*
X013694Y007984D02*
X013696Y008032D01*
X013702Y008080D01*
X013712Y008127D01*
X013725Y008173D01*
X013743Y008218D01*
X013763Y008262D01*
X013788Y008304D01*
X013816Y008343D01*
X013846Y008380D01*
X013880Y008414D01*
X013917Y008446D01*
X013955Y008475D01*
X013996Y008500D01*
X014039Y008522D01*
X014084Y008540D01*
X014130Y008554D01*
X014177Y008565D01*
X014225Y008572D01*
X014273Y008575D01*
X014321Y008574D01*
X014369Y008569D01*
X014417Y008560D01*
X014463Y008548D01*
X014508Y008531D01*
X014552Y008511D01*
X014594Y008488D01*
X014634Y008461D01*
X014672Y008431D01*
X014707Y008398D01*
X014739Y008362D01*
X014769Y008324D01*
X014795Y008283D01*
X014817Y008240D01*
X014837Y008196D01*
X014852Y008151D01*
X014864Y008104D01*
X014872Y008056D01*
X014876Y008008D01*
X014876Y007960D01*
X014872Y007912D01*
X014864Y007864D01*
X014852Y007817D01*
X014837Y007772D01*
X014817Y007728D01*
X014795Y007685D01*
X014769Y007644D01*
X014739Y007606D01*
X014707Y007570D01*
X014672Y007537D01*
X014634Y007507D01*
X014594Y007480D01*
X014552Y007457D01*
X014508Y007437D01*
X014463Y007420D01*
X014417Y007408D01*
X014369Y007399D01*
X014321Y007394D01*
X014273Y007393D01*
X014225Y007396D01*
X014177Y007403D01*
X014130Y007414D01*
X014084Y007428D01*
X014039Y007446D01*
X013996Y007468D01*
X013955Y007493D01*
X013917Y007522D01*
X013880Y007554D01*
X013846Y007588D01*
X013816Y007625D01*
X013788Y007664D01*
X013763Y007706D01*
X013743Y007750D01*
X013725Y007795D01*
X013712Y007841D01*
X013702Y007888D01*
X013696Y007936D01*
X013694Y007984D01*
X016844Y007984D02*
X016846Y008032D01*
X016852Y008080D01*
X016862Y008127D01*
X016875Y008173D01*
X016893Y008218D01*
X016913Y008262D01*
X016938Y008304D01*
X016966Y008343D01*
X016996Y008380D01*
X017030Y008414D01*
X017067Y008446D01*
X017105Y008475D01*
X017146Y008500D01*
X017189Y008522D01*
X017234Y008540D01*
X017280Y008554D01*
X017327Y008565D01*
X017375Y008572D01*
X017423Y008575D01*
X017471Y008574D01*
X017519Y008569D01*
X017567Y008560D01*
X017613Y008548D01*
X017658Y008531D01*
X017702Y008511D01*
X017744Y008488D01*
X017784Y008461D01*
X017822Y008431D01*
X017857Y008398D01*
X017889Y008362D01*
X017919Y008324D01*
X017945Y008283D01*
X017967Y008240D01*
X017987Y008196D01*
X018002Y008151D01*
X018014Y008104D01*
X018022Y008056D01*
X018026Y008008D01*
X018026Y007960D01*
X018022Y007912D01*
X018014Y007864D01*
X018002Y007817D01*
X017987Y007772D01*
X017967Y007728D01*
X017945Y007685D01*
X017919Y007644D01*
X017889Y007606D01*
X017857Y007570D01*
X017822Y007537D01*
X017784Y007507D01*
X017744Y007480D01*
X017702Y007457D01*
X017658Y007437D01*
X017613Y007420D01*
X017567Y007408D01*
X017519Y007399D01*
X017471Y007394D01*
X017423Y007393D01*
X017375Y007396D01*
X017327Y007403D01*
X017280Y007414D01*
X017234Y007428D01*
X017189Y007446D01*
X017146Y007468D01*
X017105Y007493D01*
X017067Y007522D01*
X017030Y007554D01*
X016996Y007588D01*
X016966Y007625D01*
X016938Y007664D01*
X016913Y007706D01*
X016893Y007750D01*
X016875Y007795D01*
X016862Y007841D01*
X016852Y007888D01*
X016846Y007936D01*
X016844Y007984D01*
X029442Y007984D02*
X029444Y008032D01*
X029450Y008080D01*
X029460Y008127D01*
X029473Y008173D01*
X029491Y008218D01*
X029511Y008262D01*
X029536Y008304D01*
X029564Y008343D01*
X029594Y008380D01*
X029628Y008414D01*
X029665Y008446D01*
X029703Y008475D01*
X029744Y008500D01*
X029787Y008522D01*
X029832Y008540D01*
X029878Y008554D01*
X029925Y008565D01*
X029973Y008572D01*
X030021Y008575D01*
X030069Y008574D01*
X030117Y008569D01*
X030165Y008560D01*
X030211Y008548D01*
X030256Y008531D01*
X030300Y008511D01*
X030342Y008488D01*
X030382Y008461D01*
X030420Y008431D01*
X030455Y008398D01*
X030487Y008362D01*
X030517Y008324D01*
X030543Y008283D01*
X030565Y008240D01*
X030585Y008196D01*
X030600Y008151D01*
X030612Y008104D01*
X030620Y008056D01*
X030624Y008008D01*
X030624Y007960D01*
X030620Y007912D01*
X030612Y007864D01*
X030600Y007817D01*
X030585Y007772D01*
X030565Y007728D01*
X030543Y007685D01*
X030517Y007644D01*
X030487Y007606D01*
X030455Y007570D01*
X030420Y007537D01*
X030382Y007507D01*
X030342Y007480D01*
X030300Y007457D01*
X030256Y007437D01*
X030211Y007420D01*
X030165Y007408D01*
X030117Y007399D01*
X030069Y007394D01*
X030021Y007393D01*
X029973Y007396D01*
X029925Y007403D01*
X029878Y007414D01*
X029832Y007428D01*
X029787Y007446D01*
X029744Y007468D01*
X029703Y007493D01*
X029665Y007522D01*
X029628Y007554D01*
X029594Y007588D01*
X029564Y007625D01*
X029536Y007664D01*
X029511Y007706D01*
X029491Y007750D01*
X029473Y007795D01*
X029460Y007841D01*
X029450Y007888D01*
X029444Y007936D01*
X029442Y007984D01*
X034167Y007984D02*
X034169Y008032D01*
X034175Y008080D01*
X034185Y008127D01*
X034198Y008173D01*
X034216Y008218D01*
X034236Y008262D01*
X034261Y008304D01*
X034289Y008343D01*
X034319Y008380D01*
X034353Y008414D01*
X034390Y008446D01*
X034428Y008475D01*
X034469Y008500D01*
X034512Y008522D01*
X034557Y008540D01*
X034603Y008554D01*
X034650Y008565D01*
X034698Y008572D01*
X034746Y008575D01*
X034794Y008574D01*
X034842Y008569D01*
X034890Y008560D01*
X034936Y008548D01*
X034981Y008531D01*
X035025Y008511D01*
X035067Y008488D01*
X035107Y008461D01*
X035145Y008431D01*
X035180Y008398D01*
X035212Y008362D01*
X035242Y008324D01*
X035268Y008283D01*
X035290Y008240D01*
X035310Y008196D01*
X035325Y008151D01*
X035337Y008104D01*
X035345Y008056D01*
X035349Y008008D01*
X035349Y007960D01*
X035345Y007912D01*
X035337Y007864D01*
X035325Y007817D01*
X035310Y007772D01*
X035290Y007728D01*
X035268Y007685D01*
X035242Y007644D01*
X035212Y007606D01*
X035180Y007570D01*
X035145Y007537D01*
X035107Y007507D01*
X035067Y007480D01*
X035025Y007457D01*
X034981Y007437D01*
X034936Y007420D01*
X034890Y007408D01*
X034842Y007399D01*
X034794Y007394D01*
X034746Y007393D01*
X034698Y007396D01*
X034650Y007403D01*
X034603Y007414D01*
X034557Y007428D01*
X034512Y007446D01*
X034469Y007468D01*
X034428Y007493D01*
X034390Y007522D01*
X034353Y007554D01*
X034319Y007588D01*
X034289Y007625D01*
X034261Y007664D01*
X034236Y007706D01*
X034216Y007750D01*
X034198Y007795D01*
X034185Y007841D01*
X034175Y007888D01*
X034169Y007936D01*
X034167Y007984D01*
D11*
X034364Y006016D03*
X033577Y006016D03*
X032789Y006016D03*
X032002Y006016D03*
X031214Y006016D03*
X030427Y006016D03*
X029640Y006016D03*
X028852Y006016D03*
X028852Y005031D03*
X029640Y005031D03*
X030427Y005031D03*
X031214Y005031D03*
X032002Y005031D03*
X032789Y005031D03*
X033577Y005031D03*
X034364Y005031D03*
X035151Y005031D03*
X035939Y005031D03*
X035939Y006016D03*
X035151Y006016D03*
X035683Y003988D03*
X035073Y003831D03*
X034817Y003260D03*
X035073Y002689D03*
X035683Y002531D03*
X036195Y002906D03*
X036195Y003614D03*
X035545Y003260D03*
X029108Y002906D03*
X028596Y002531D03*
X027986Y002689D03*
X027730Y003260D03*
X028459Y003260D03*
X029108Y003614D03*
X028596Y003988D03*
X027986Y003831D03*
X022022Y003614D03*
X021510Y003988D03*
X020900Y003831D03*
X020644Y003260D03*
X021372Y003260D03*
X022022Y002906D03*
X021510Y002531D03*
X020900Y002689D03*
X019403Y005031D03*
X018616Y005031D03*
X017829Y005031D03*
X017041Y005031D03*
X016254Y005031D03*
X015466Y005031D03*
X014679Y005031D03*
X013892Y005031D03*
X013104Y005031D03*
X012317Y005031D03*
X012317Y006016D03*
X013104Y006016D03*
X013892Y006016D03*
X014679Y006016D03*
X015466Y006016D03*
X016254Y006016D03*
X017041Y006016D03*
X017829Y006016D03*
X018616Y006016D03*
X019403Y006016D03*
X014935Y003614D03*
X014285Y003260D03*
X014935Y002906D03*
X014423Y002531D03*
X013813Y002689D03*
X013557Y003260D03*
X013813Y003831D03*
X014423Y003988D03*
D12*
X017435Y003260D03*
X024522Y003260D03*
X031608Y003260D03*
X038104Y006016D03*
X038695Y003260D03*
D13*
X038695Y007650D03*
X038695Y008319D03*
X037514Y008319D03*
X037514Y007650D03*
X036333Y007650D03*
X036333Y008319D03*
X028459Y008319D03*
X028459Y007650D03*
X027277Y007650D03*
X027277Y008319D03*
X026096Y008319D03*
X026096Y007650D03*
X024915Y007650D03*
X024915Y008319D03*
X023734Y008319D03*
X023734Y007650D03*
X022553Y007650D03*
X022553Y008319D03*
X021372Y008319D03*
X021372Y007650D03*
X020191Y007650D03*
X020191Y008319D03*
X019010Y008319D03*
X019010Y007650D03*
X013104Y007650D03*
X013104Y008319D03*
X011923Y008319D03*
X011923Y007650D03*
D14*
X019600Y008319D03*
X020191Y005228D03*
X024128Y006803D03*
X024522Y006016D03*
X026096Y006016D03*
X026884Y007197D03*
X026884Y004835D03*
X024915Y001685D03*
X036333Y008772D03*
X037514Y008772D03*
X037120Y006016D03*
D15*
X036946Y006053D02*
X038475Y006053D01*
X038475Y006211D02*
X036946Y006211D01*
X036946Y006370D02*
X038475Y006370D01*
X038475Y006529D02*
X036946Y006529D01*
X036946Y006687D02*
X038475Y006687D01*
X038475Y006846D02*
X036946Y006846D01*
X036946Y007004D02*
X038475Y007004D01*
X038475Y007163D02*
X036946Y007163D01*
X036946Y007165D02*
X036946Y007347D01*
X036669Y007624D01*
X036669Y007924D01*
X036609Y007984D01*
X036669Y008044D01*
X036669Y008593D01*
X036630Y008633D01*
X036661Y008706D01*
X036661Y008837D01*
X036611Y008957D01*
X036518Y009050D01*
X036398Y009100D01*
X036267Y009100D01*
X036147Y009050D01*
X036054Y008957D01*
X036004Y008837D01*
X036004Y008706D01*
X036035Y008633D01*
X035996Y008593D01*
X035996Y008044D01*
X036056Y007984D01*
X035996Y007924D01*
X035996Y007375D01*
X036078Y007293D01*
X036378Y007293D01*
X036506Y007165D01*
X036506Y005713D01*
X036146Y005353D01*
X036014Y005408D01*
X035864Y005408D01*
X035726Y005350D01*
X035620Y005245D01*
X035563Y005106D01*
X035563Y004957D01*
X035618Y004824D01*
X035454Y004661D01*
X035240Y004661D01*
X035365Y004713D01*
X035470Y004818D01*
X035528Y004957D01*
X035528Y005106D01*
X035470Y005245D01*
X035365Y005350D01*
X035226Y005408D01*
X035077Y005408D01*
X034938Y005350D01*
X034833Y005245D01*
X034775Y005106D01*
X034775Y004957D01*
X034833Y004818D01*
X034938Y004713D01*
X035063Y004661D01*
X034667Y004661D01*
X034538Y004532D01*
X033750Y003745D01*
X033750Y003562D01*
X033750Y002775D01*
X033879Y002646D01*
X034273Y002252D01*
X034455Y002252D01*
X034947Y002252D01*
X035008Y002313D01*
X035148Y002313D01*
X035286Y002370D01*
X035326Y002410D01*
X035364Y002318D01*
X035470Y002213D01*
X035511Y002196D01*
X035719Y001988D01*
X035848Y001859D01*
X036241Y001859D01*
X036424Y001859D01*
X038786Y004221D01*
X038915Y004350D01*
X038915Y007293D01*
X038950Y007293D01*
X039032Y007375D01*
X039032Y007924D01*
X038971Y007984D01*
X039032Y008044D01*
X039032Y008593D01*
X038950Y008675D01*
X038440Y008675D01*
X038358Y008593D01*
X038358Y008539D01*
X037851Y008539D01*
X037851Y008593D01*
X037811Y008633D01*
X037842Y008706D01*
X037842Y008837D01*
X037792Y008957D01*
X037700Y009050D01*
X037579Y009100D01*
X037448Y009100D01*
X037328Y009050D01*
X037236Y008957D01*
X037186Y008837D01*
X037186Y008706D01*
X037216Y008633D01*
X037177Y008593D01*
X037177Y008044D01*
X037209Y008012D01*
X037206Y008010D01*
X037173Y007977D01*
X037149Y007936D01*
X037137Y007890D01*
X037137Y007668D01*
X037495Y007668D01*
X037495Y007631D01*
X037137Y007631D01*
X037137Y007409D01*
X037149Y007364D01*
X037173Y007323D01*
X037206Y007289D01*
X037247Y007265D01*
X037293Y007253D01*
X037495Y007253D01*
X037495Y007631D01*
X037532Y007631D01*
X037532Y007253D01*
X037734Y007253D01*
X037780Y007265D01*
X037821Y007289D01*
X037855Y007323D01*
X037878Y007364D01*
X037891Y007409D01*
X037891Y007631D01*
X037532Y007631D01*
X037532Y007668D01*
X037891Y007668D01*
X037891Y007890D01*
X037878Y007936D01*
X037855Y007977D01*
X037821Y008010D01*
X037818Y008012D01*
X037851Y008044D01*
X037851Y008099D01*
X038358Y008099D01*
X038358Y008044D01*
X038418Y007984D01*
X038358Y007924D01*
X038358Y007375D01*
X038440Y007293D01*
X038475Y007293D01*
X038475Y004532D01*
X036241Y002299D01*
X036030Y002299D01*
X036004Y002324D01*
X036059Y002457D01*
X036059Y002554D01*
X036120Y002529D01*
X036270Y002529D01*
X036408Y002587D01*
X036514Y002692D01*
X036571Y002831D01*
X036571Y002980D01*
X036514Y003119D01*
X036408Y003224D01*
X036322Y003260D01*
X036408Y003295D01*
X036514Y003401D01*
X036571Y003539D01*
X036571Y003689D01*
X036514Y003827D01*
X036408Y003933D01*
X036270Y003990D01*
X036120Y003990D01*
X036099Y003982D01*
X036099Y003988D01*
X035683Y003988D01*
X035683Y003988D01*
X036099Y003988D01*
X036099Y004021D01*
X036089Y004086D01*
X036069Y004148D01*
X036039Y004206D01*
X036000Y004259D01*
X035954Y004306D01*
X035901Y004344D01*
X035843Y004374D01*
X035802Y004387D01*
X036030Y004615D01*
X036111Y004696D01*
X036152Y004713D01*
X036258Y004818D01*
X036275Y004859D01*
X036817Y005402D01*
X036946Y005531D01*
X036946Y007165D01*
X036946Y007321D02*
X037174Y007321D01*
X037137Y007480D02*
X036813Y007480D01*
X036669Y007638D02*
X037495Y007638D01*
X037532Y007638D02*
X038358Y007638D01*
X038358Y007480D02*
X037891Y007480D01*
X037853Y007321D02*
X038412Y007321D01*
X038695Y007650D02*
X038695Y004441D01*
X036333Y002079D01*
X035939Y002079D01*
X035683Y002335D01*
X035683Y002531D01*
X036038Y002406D02*
X036349Y002406D01*
X036356Y002565D02*
X036508Y002565D01*
X036527Y002724D02*
X036666Y002724D01*
X036571Y002882D02*
X036825Y002882D01*
X036983Y003041D02*
X036546Y003041D01*
X036433Y003199D02*
X037142Y003199D01*
X037300Y003358D02*
X036470Y003358D01*
X036561Y003516D02*
X037459Y003516D01*
X037618Y003675D02*
X036571Y003675D01*
X036508Y003833D02*
X037776Y003833D01*
X037935Y003992D02*
X036099Y003992D01*
X036067Y004150D02*
X038093Y004150D01*
X038252Y004309D02*
X035950Y004309D01*
X035883Y004468D02*
X038410Y004468D01*
X038475Y004626D02*
X036041Y004626D01*
X035939Y004835D02*
X035939Y005031D01*
X036136Y005031D01*
X036726Y005622D01*
X036726Y007256D01*
X036333Y007650D01*
X035996Y007638D02*
X035503Y007638D01*
X035453Y007519D02*
X035223Y007289D01*
X034921Y007164D01*
X034595Y007164D01*
X034293Y007289D01*
X034062Y007519D01*
X033937Y007821D01*
X033937Y008147D01*
X034062Y008449D01*
X034293Y008680D01*
X034595Y008805D01*
X034921Y008805D01*
X035223Y008680D01*
X035453Y008449D01*
X035578Y008147D01*
X035578Y007821D01*
X035453Y007519D01*
X035414Y007480D02*
X035996Y007480D01*
X036049Y007321D02*
X035255Y007321D01*
X035568Y007797D02*
X035996Y007797D01*
X036027Y007955D02*
X035578Y007955D01*
X035578Y008114D02*
X035996Y008114D01*
X035996Y008273D02*
X035526Y008273D01*
X035461Y008431D02*
X035996Y008431D01*
X035996Y008590D02*
X035313Y008590D01*
X035058Y008748D02*
X036004Y008748D01*
X036033Y008907D02*
X032572Y008907D01*
X032730Y008748D02*
X034458Y008748D01*
X034203Y008590D02*
X032889Y008590D01*
X033047Y008431D02*
X034055Y008431D01*
X033989Y008273D02*
X033206Y008273D01*
X033364Y008114D02*
X033937Y008114D01*
X033937Y007955D02*
X033523Y007955D01*
X033681Y007797D02*
X033947Y007797D01*
X034013Y007638D02*
X033840Y007638D01*
X033998Y007480D02*
X034102Y007480D01*
X034157Y007321D02*
X034260Y007321D01*
X034316Y007163D02*
X036506Y007163D01*
X036506Y007004D02*
X035261Y007004D01*
X035243Y007023D02*
X034455Y007023D01*
X032313Y009165D01*
X038528Y009165D01*
X038726Y009051D01*
X038974Y008803D01*
X039089Y008605D01*
X039089Y003447D01*
X039064Y003506D01*
X038941Y003629D01*
X038781Y003695D01*
X038608Y003695D01*
X038448Y003629D01*
X038326Y003506D01*
X038260Y003346D01*
X038260Y003173D01*
X038271Y003147D01*
X036635Y001511D01*
X032093Y001511D01*
X031828Y001776D01*
X031828Y002880D01*
X031855Y002891D01*
X031977Y003013D01*
X031988Y003040D01*
X032501Y003040D01*
X032684Y003040D01*
X034299Y004655D01*
X034439Y004655D01*
X034577Y004713D01*
X034683Y004818D01*
X034740Y004957D01*
X034740Y005106D01*
X034683Y005245D01*
X034577Y005350D01*
X034439Y005408D01*
X034289Y005408D01*
X034151Y005350D01*
X034045Y005245D01*
X033988Y005106D01*
X033988Y004966D01*
X033935Y004913D01*
X033953Y004957D01*
X033953Y005106D01*
X033896Y005245D01*
X033790Y005350D01*
X033652Y005408D01*
X033502Y005408D01*
X033364Y005350D01*
X033258Y005245D01*
X033200Y005106D01*
X033200Y004957D01*
X033258Y004818D01*
X033364Y004713D01*
X033502Y004655D01*
X033652Y004655D01*
X033695Y004673D01*
X032501Y003480D01*
X031988Y003480D01*
X031977Y003506D01*
X031855Y003629D01*
X031695Y003695D01*
X031567Y003695D01*
X032093Y004221D01*
X032487Y004221D01*
X032616Y004350D01*
X032880Y004615D01*
X032880Y004615D01*
X032961Y004696D01*
X033002Y004713D01*
X033108Y004818D01*
X033165Y004957D01*
X033165Y005106D01*
X033108Y005245D01*
X033002Y005350D01*
X032864Y005408D01*
X032714Y005408D01*
X032576Y005350D01*
X032470Y005245D01*
X032413Y005106D01*
X032413Y004957D01*
X032468Y004824D01*
X032304Y004661D01*
X032139Y004661D01*
X032174Y004696D01*
X032215Y004713D01*
X032321Y004818D01*
X032378Y004957D01*
X032378Y005106D01*
X032321Y005245D01*
X032215Y005350D01*
X032077Y005408D01*
X031927Y005408D01*
X031828Y005367D01*
X031828Y005516D01*
X031828Y005681D01*
X031927Y005640D01*
X032077Y005640D01*
X032215Y005697D01*
X032321Y005803D01*
X032378Y005941D01*
X032378Y006091D01*
X032321Y006229D01*
X032215Y006335D01*
X032077Y006392D01*
X031927Y006392D01*
X031828Y006351D01*
X031828Y006501D01*
X031699Y006629D01*
X031306Y007023D01*
X031123Y007023D01*
X029731Y007023D01*
X029013Y007741D01*
X028884Y007870D01*
X028795Y007870D01*
X028795Y007924D01*
X028763Y007957D01*
X028766Y007958D01*
X028799Y007992D01*
X028823Y008033D01*
X028835Y008079D01*
X028835Y008300D01*
X028477Y008300D01*
X028477Y008337D01*
X028835Y008337D01*
X028835Y008559D01*
X028823Y008605D01*
X028799Y008646D01*
X028766Y008679D01*
X028725Y008703D01*
X028679Y008715D01*
X028477Y008715D01*
X028477Y008338D01*
X028440Y008338D01*
X028440Y008715D01*
X028238Y008715D01*
X028192Y008703D01*
X028151Y008679D01*
X028118Y008646D01*
X028094Y008605D01*
X028082Y008559D01*
X028082Y008337D01*
X028440Y008337D01*
X028440Y008300D01*
X028082Y008300D01*
X028082Y008079D01*
X028094Y008033D01*
X028118Y007992D01*
X028151Y007958D01*
X028154Y007957D01*
X028122Y007924D01*
X028122Y007870D01*
X027614Y007870D01*
X027614Y007924D01*
X027554Y007984D01*
X027614Y008044D01*
X027614Y008593D01*
X027532Y008675D01*
X027023Y008675D01*
X026941Y008593D01*
X026941Y008352D01*
X026793Y008204D01*
X026664Y008075D01*
X026664Y008063D01*
X026433Y008293D01*
X026433Y008593D01*
X026351Y008675D01*
X025841Y008675D01*
X025760Y008593D01*
X025760Y008044D01*
X025820Y007984D01*
X025760Y007924D01*
X025760Y007375D01*
X025841Y007293D01*
X025876Y007293D01*
X025876Y006260D01*
X025818Y006202D01*
X025768Y006081D01*
X025768Y005950D01*
X025818Y005830D01*
X025911Y005738D01*
X026031Y005688D01*
X026162Y005688D01*
X026282Y005738D01*
X026374Y005830D01*
X026424Y005950D01*
X026424Y006081D01*
X026374Y006202D01*
X026316Y006260D01*
X026316Y006272D01*
X026399Y006189D01*
X026793Y005796D01*
X026975Y005796D01*
X027580Y005796D01*
X028092Y005284D01*
X028274Y005284D01*
X028573Y005284D01*
X028533Y005245D01*
X028476Y005106D01*
X028476Y004957D01*
X028533Y004818D01*
X028639Y004713D01*
X028764Y004661D01*
X028550Y004661D01*
X027762Y005448D01*
X027580Y005448D01*
X026187Y005448D01*
X025529Y006107D01*
X025529Y008016D01*
X025400Y008145D01*
X025252Y008293D01*
X025252Y008593D01*
X025170Y008675D01*
X024660Y008675D01*
X024578Y008593D01*
X024578Y008539D01*
X024071Y008539D01*
X024071Y008593D01*
X023989Y008675D01*
X023479Y008675D01*
X023397Y008593D01*
X023397Y008044D01*
X023457Y007984D01*
X023397Y007924D01*
X023397Y007375D01*
X023479Y007293D01*
X023514Y007293D01*
X023514Y007288D01*
X023514Y007106D01*
X023800Y006820D01*
X023800Y006738D01*
X023850Y006617D01*
X023942Y006525D01*
X024063Y006475D01*
X024193Y006475D01*
X024314Y006525D01*
X024406Y006617D01*
X024456Y006738D01*
X024456Y006868D01*
X024406Y006989D01*
X024314Y007081D01*
X024193Y007131D01*
X024111Y007131D01*
X023954Y007288D01*
X023954Y007293D01*
X023989Y007293D01*
X024071Y007375D01*
X024071Y007924D01*
X024011Y007984D01*
X024071Y008044D01*
X024071Y008099D01*
X024578Y008099D01*
X024578Y008044D01*
X024611Y008012D01*
X024608Y008010D01*
X024574Y007977D01*
X024551Y007936D01*
X024538Y007890D01*
X024538Y007668D01*
X024897Y007668D01*
X024897Y007631D01*
X024934Y007631D01*
X024934Y007253D01*
X025089Y007253D01*
X025089Y006107D01*
X025089Y005925D01*
X025876Y005137D01*
X025959Y005055D01*
X020493Y005055D01*
X020365Y004926D01*
X019577Y004138D01*
X019577Y003956D01*
X019577Y003169D01*
X019706Y003040D01*
X020277Y002469D01*
X020459Y002469D01*
X020587Y002469D01*
X020686Y002370D01*
X020825Y002313D01*
X020974Y002313D01*
X021113Y002370D01*
X021153Y002410D01*
X021191Y002318D01*
X021246Y002264D01*
X020887Y001905D01*
X019888Y001905D01*
X019230Y002564D01*
X019230Y004696D01*
X019329Y004655D01*
X019478Y004655D01*
X019617Y004713D01*
X019722Y004818D01*
X019780Y004957D01*
X019780Y005106D01*
X019722Y005245D01*
X019617Y005350D01*
X019478Y005408D01*
X019329Y005408D01*
X019230Y005367D01*
X019230Y005681D01*
X019329Y005640D01*
X019478Y005640D01*
X019617Y005697D01*
X019722Y005803D01*
X019780Y005941D01*
X019780Y006091D01*
X019722Y006229D01*
X019617Y006335D01*
X019478Y006392D01*
X019329Y006392D01*
X019230Y006351D01*
X019230Y007293D01*
X019265Y007293D01*
X019347Y007375D01*
X019347Y007924D01*
X019286Y007984D01*
X019347Y008044D01*
X019347Y008099D01*
X019356Y008099D01*
X019414Y008041D01*
X019535Y007991D01*
X019666Y007991D01*
X019786Y008041D01*
X019844Y008099D01*
X019854Y008099D01*
X019854Y008044D01*
X019886Y008012D01*
X019883Y008010D01*
X019850Y007977D01*
X019826Y007936D01*
X019814Y007890D01*
X019814Y007668D01*
X020172Y007668D01*
X020172Y007631D01*
X019814Y007631D01*
X019814Y007409D01*
X019826Y007364D01*
X019850Y007323D01*
X019883Y007289D01*
X019925Y007265D01*
X019970Y007253D01*
X020172Y007253D01*
X020172Y007631D01*
X020209Y007631D01*
X020209Y007253D01*
X020411Y007253D01*
X020457Y007265D01*
X020498Y007289D01*
X020532Y007323D01*
X020555Y007364D01*
X020568Y007409D01*
X020568Y007631D01*
X020210Y007631D01*
X020210Y007668D01*
X020568Y007668D01*
X020568Y007890D01*
X020555Y007936D01*
X020532Y007977D01*
X020498Y008010D01*
X020495Y008012D01*
X020528Y008044D01*
X020528Y008593D01*
X020446Y008675D01*
X019936Y008675D01*
X019854Y008593D01*
X019854Y008539D01*
X019844Y008539D01*
X019786Y008597D01*
X019666Y008647D01*
X019535Y008647D01*
X019414Y008597D01*
X019356Y008539D01*
X019347Y008539D01*
X019347Y008593D01*
X019265Y008675D01*
X018755Y008675D01*
X018673Y008593D01*
X018673Y008044D01*
X018733Y007984D01*
X018673Y007924D01*
X018673Y007375D01*
X018755Y007293D01*
X018790Y007293D01*
X018790Y006351D01*
X018691Y006392D01*
X018616Y006392D01*
X018616Y009165D01*
X023088Y009165D01*
X022598Y008675D01*
X022298Y008675D01*
X022216Y008593D01*
X022216Y008539D01*
X021709Y008539D01*
X021709Y008593D01*
X021627Y008675D01*
X021117Y008675D01*
X021035Y008593D01*
X021035Y008044D01*
X021095Y007984D01*
X021035Y007924D01*
X021035Y007375D01*
X021117Y007293D01*
X021152Y007293D01*
X021152Y006712D01*
X021281Y006583D01*
X022068Y005796D01*
X022250Y005796D01*
X024278Y005796D01*
X024336Y005738D01*
X024456Y005688D01*
X024587Y005688D01*
X024707Y005738D01*
X024800Y005830D01*
X024850Y005950D01*
X024850Y006081D01*
X024800Y006202D01*
X024707Y006294D01*
X024587Y006344D01*
X024456Y006344D01*
X024336Y006294D01*
X024278Y006236D01*
X022250Y006236D01*
X021592Y006894D01*
X021592Y007293D01*
X021627Y007293D01*
X021709Y007375D01*
X021709Y007924D01*
X021649Y007984D01*
X021709Y008044D01*
X021709Y008099D01*
X022216Y008099D01*
X022216Y008044D01*
X022249Y008012D01*
X022246Y008010D01*
X022212Y007977D01*
X022189Y007936D01*
X022176Y007890D01*
X022176Y007668D01*
X022534Y007668D01*
X022534Y007631D01*
X022176Y007631D01*
X022176Y007409D01*
X022189Y007364D01*
X022212Y007323D01*
X022246Y007289D01*
X022287Y007265D01*
X022332Y007253D01*
X022535Y007253D01*
X022535Y007631D01*
X022571Y007631D01*
X022571Y007253D01*
X022774Y007253D01*
X022819Y007265D01*
X022860Y007289D01*
X022894Y007323D01*
X022918Y007364D01*
X022930Y007409D01*
X022930Y007631D01*
X022572Y007631D01*
X022572Y007668D01*
X022930Y007668D01*
X022930Y007890D01*
X022918Y007936D01*
X022894Y007977D01*
X022860Y008010D01*
X022857Y008012D01*
X022890Y008044D01*
X022890Y008345D01*
X023491Y008945D01*
X031911Y008945D01*
X034273Y006583D01*
X034455Y006583D01*
X035060Y006583D01*
X035270Y006374D01*
X035226Y006392D01*
X035077Y006392D01*
X034938Y006335D01*
X034833Y006229D01*
X034775Y006091D01*
X034775Y006080D01*
X034770Y006113D01*
X034750Y006176D01*
X034720Y006234D01*
X034682Y006287D01*
X034635Y006333D01*
X034582Y006372D01*
X034524Y006401D01*
X034462Y006422D01*
X034397Y006432D01*
X034364Y006432D01*
X034331Y006432D01*
X034267Y006422D01*
X034204Y006401D01*
X034146Y006372D01*
X034093Y006333D01*
X034047Y006287D01*
X034008Y006234D01*
X033978Y006176D01*
X033970Y006151D01*
X033962Y006176D01*
X033933Y006234D01*
X033894Y006287D01*
X033848Y006333D01*
X033795Y006372D01*
X033736Y006401D01*
X033674Y006422D01*
X033609Y006432D01*
X033577Y006432D01*
X033577Y006016D01*
X033948Y006016D01*
X034364Y006016D01*
X034364Y006432D01*
X034364Y006016D01*
X034364Y006016D01*
X034364Y006016D01*
X033993Y006016D01*
X033577Y006016D01*
X033577Y006016D01*
X033576Y006016D01*
X033576Y006432D01*
X033544Y006432D01*
X033479Y006422D01*
X033417Y006401D01*
X033359Y006372D01*
X033306Y006333D01*
X033259Y006287D01*
X033221Y006234D01*
X033191Y006176D01*
X033171Y006113D01*
X033165Y006080D01*
X033165Y006091D01*
X033108Y006229D01*
X033002Y006335D01*
X032864Y006392D01*
X032714Y006392D01*
X032576Y006335D01*
X032470Y006229D01*
X032413Y006091D01*
X032413Y005941D01*
X032470Y005803D01*
X032576Y005697D01*
X032714Y005640D01*
X032864Y005640D01*
X033002Y005697D01*
X033108Y005803D01*
X033165Y005941D01*
X033165Y005952D01*
X033171Y005918D01*
X033191Y005856D01*
X033221Y005798D01*
X033259Y005745D01*
X033306Y005698D01*
X033359Y005660D01*
X033417Y005630D01*
X033479Y005610D01*
X033544Y005600D01*
X033576Y005600D01*
X033576Y006015D01*
X033577Y006015D01*
X033577Y005600D01*
X033609Y005600D01*
X033674Y005610D01*
X033736Y005630D01*
X033795Y005660D01*
X033848Y005698D01*
X033894Y005745D01*
X033933Y005798D01*
X033962Y005856D01*
X033970Y005881D01*
X033978Y005856D01*
X034008Y005798D01*
X034047Y005745D01*
X034093Y005698D01*
X034146Y005660D01*
X034204Y005630D01*
X034267Y005610D01*
X034331Y005600D01*
X034364Y005600D01*
X034364Y006015D01*
X034364Y006015D01*
X034364Y005600D01*
X034397Y005600D01*
X034462Y005610D01*
X034524Y005630D01*
X034582Y005660D01*
X034635Y005698D01*
X034682Y005745D01*
X034720Y005798D01*
X034750Y005856D01*
X034770Y005918D01*
X034775Y005951D01*
X034775Y005941D01*
X034833Y005803D01*
X034938Y005697D01*
X035077Y005640D01*
X035226Y005640D01*
X035365Y005697D01*
X035470Y005803D01*
X035528Y005941D01*
X035528Y006091D01*
X035510Y006134D01*
X035563Y006081D01*
X035563Y005941D01*
X035620Y005803D01*
X035726Y005697D01*
X035864Y005640D01*
X036014Y005640D01*
X036152Y005697D01*
X036258Y005803D01*
X036315Y005941D01*
X036315Y006091D01*
X036258Y006229D01*
X036152Y006335D01*
X036014Y006392D01*
X035874Y006392D01*
X035371Y006894D01*
X035243Y007023D01*
X035151Y006803D02*
X034364Y006803D01*
X032002Y009165D01*
X023400Y009165D01*
X022553Y008319D01*
X021372Y008319D01*
X021035Y008273D02*
X020528Y008273D01*
X020528Y008431D02*
X021035Y008431D01*
X021035Y008590D02*
X020528Y008590D01*
X019854Y008590D02*
X019794Y008590D01*
X019407Y008590D02*
X019347Y008590D01*
X018673Y008590D02*
X018616Y008590D01*
X018616Y008748D02*
X022671Y008748D01*
X022830Y008907D02*
X018616Y008907D01*
X018616Y009065D02*
X022988Y009065D01*
X023293Y008748D02*
X029734Y008748D01*
X029870Y008805D02*
X029569Y008680D01*
X029338Y008449D01*
X029213Y008147D01*
X029213Y007821D01*
X029338Y007519D01*
X029569Y007289D01*
X029870Y007164D01*
X030197Y007164D01*
X030498Y007289D01*
X030729Y007519D01*
X030854Y007821D01*
X030854Y008147D01*
X030729Y008449D01*
X030498Y008680D01*
X030197Y008805D01*
X029870Y008805D01*
X029478Y008590D02*
X028827Y008590D01*
X028835Y008431D02*
X029330Y008431D01*
X029265Y008273D02*
X028835Y008273D01*
X028835Y008114D02*
X029213Y008114D01*
X029213Y007955D02*
X028764Y007955D01*
X028957Y007797D02*
X029223Y007797D01*
X029288Y007638D02*
X029115Y007638D01*
X029013Y007741D02*
X029013Y007741D01*
X028793Y007650D02*
X029640Y006803D01*
X031214Y006803D01*
X031608Y006409D01*
X031608Y005425D01*
X031214Y005031D01*
X031828Y005419D02*
X036212Y005419D01*
X036371Y005577D02*
X031828Y005577D01*
X032254Y005736D02*
X032537Y005736D01*
X032432Y005894D02*
X032359Y005894D01*
X032378Y006053D02*
X032413Y006053D01*
X032463Y006211D02*
X032328Y006211D01*
X032130Y006370D02*
X032662Y006370D01*
X032917Y006370D02*
X033356Y006370D01*
X033209Y006211D02*
X033115Y006211D01*
X033146Y005894D02*
X033178Y005894D01*
X033268Y005736D02*
X033041Y005736D01*
X033576Y005736D02*
X033577Y005736D01*
X033576Y005894D02*
X033577Y005894D01*
X033576Y006053D02*
X033577Y006053D01*
X033576Y006211D02*
X033577Y006211D01*
X033576Y006370D02*
X033577Y006370D01*
X033797Y006370D02*
X034144Y006370D01*
X033997Y006211D02*
X033944Y006211D01*
X034364Y006211D02*
X034364Y006211D01*
X034364Y006053D02*
X034364Y006053D01*
X034364Y005894D02*
X034364Y005894D01*
X034364Y005736D02*
X034364Y005736D01*
X034055Y005736D02*
X033885Y005736D01*
X033880Y005260D02*
X034061Y005260D01*
X033988Y005102D02*
X033953Y005102D01*
X033947Y004943D02*
X033965Y004943D01*
X034364Y005031D02*
X032592Y003260D01*
X031608Y003260D01*
X031608Y001685D01*
X032002Y001291D01*
X036726Y001291D01*
X038695Y003260D01*
X038260Y003199D02*
X037764Y003199D01*
X037606Y003041D02*
X038165Y003041D01*
X038006Y002882D02*
X037447Y002882D01*
X037289Y002724D02*
X037847Y002724D01*
X037689Y002565D02*
X037130Y002565D01*
X036971Y002406D02*
X037530Y002406D01*
X037372Y002248D02*
X036813Y002248D01*
X036654Y002089D02*
X037213Y002089D01*
X037055Y001931D02*
X036496Y001931D01*
X036738Y001614D02*
X031991Y001614D01*
X031832Y001772D02*
X036896Y001772D01*
X035776Y001931D02*
X031828Y001931D01*
X031828Y002089D02*
X035617Y002089D01*
X035435Y002248D02*
X031828Y002248D01*
X031828Y002406D02*
X034119Y002406D01*
X033960Y002565D02*
X031828Y002565D01*
X031828Y002724D02*
X033802Y002724D01*
X033750Y002882D02*
X031834Y002882D01*
X031388Y002880D02*
X031388Y001776D01*
X030730Y001118D01*
X026581Y001118D01*
X024788Y002911D01*
X024891Y003013D01*
X024957Y003173D01*
X024957Y003346D01*
X024891Y003506D01*
X024768Y003629D01*
X024608Y003695D01*
X024435Y003695D01*
X024275Y003629D01*
X024153Y003506D01*
X024086Y003346D01*
X024086Y003173D01*
X024153Y003013D01*
X024275Y002891D01*
X024302Y002880D01*
X024302Y002775D01*
X026179Y000898D01*
X018616Y000898D01*
X018616Y004655D01*
X018691Y004655D01*
X018790Y004696D01*
X018790Y002381D01*
X018919Y002252D01*
X019706Y001465D01*
X019888Y001465D01*
X021069Y001465D01*
X021198Y001594D01*
X021730Y002125D01*
X021730Y002219D01*
X021829Y002318D01*
X021886Y002457D01*
X021886Y002554D01*
X021947Y002529D01*
X022096Y002529D01*
X022235Y002587D01*
X022334Y002686D01*
X023604Y002686D01*
X024587Y001702D01*
X024587Y001620D01*
X024637Y001499D01*
X024729Y001407D01*
X024850Y001357D01*
X024981Y001357D01*
X025101Y001407D01*
X025193Y001499D01*
X025243Y001620D01*
X025243Y001750D01*
X025193Y001871D01*
X025101Y001963D01*
X024981Y002013D01*
X024898Y002013D01*
X023786Y003125D01*
X023604Y003125D01*
X022334Y003125D01*
X022235Y003224D01*
X022149Y003260D01*
X022235Y003295D01*
X022340Y003401D01*
X022398Y003539D01*
X022398Y003689D01*
X022340Y003827D01*
X022235Y003933D01*
X022096Y003990D01*
X021947Y003990D01*
X021926Y003982D01*
X021926Y003988D01*
X021510Y003988D01*
X021510Y003988D01*
X021926Y003988D01*
X021926Y004021D01*
X021916Y004086D01*
X021895Y004148D01*
X021866Y004206D01*
X021827Y004259D01*
X021781Y004306D01*
X021728Y004344D01*
X021670Y004374D01*
X021607Y004394D01*
X021543Y004404D01*
X021510Y004404D01*
X021510Y003989D01*
X021510Y003989D01*
X021510Y004404D01*
X021477Y004404D01*
X021412Y004394D01*
X021350Y004374D01*
X021292Y004344D01*
X021239Y004306D01*
X021192Y004259D01*
X021154Y004206D01*
X021137Y004173D01*
X021118Y004187D01*
X021059Y004216D01*
X020997Y004237D01*
X020932Y004247D01*
X020900Y004247D01*
X020900Y003831D01*
X020899Y003831D01*
X020899Y003830D01*
X020483Y003830D01*
X020483Y003798D01*
X020494Y003733D01*
X020514Y003671D01*
X020538Y003623D01*
X020431Y003579D01*
X020325Y003473D01*
X020267Y003335D01*
X020267Y003185D01*
X020325Y003047D01*
X020431Y002941D01*
X020508Y002909D01*
X020459Y002909D01*
X020017Y003351D01*
X020017Y003956D01*
X020676Y004615D01*
X026640Y004615D01*
X026698Y004556D01*
X026818Y004507D01*
X026949Y004507D01*
X027070Y004556D01*
X027162Y004649D01*
X027212Y004769D01*
X027212Y004900D01*
X027167Y005008D01*
X027580Y005008D01*
X028239Y004350D01*
X028304Y004284D01*
X028279Y004259D01*
X028240Y004206D01*
X028223Y004173D01*
X028204Y004187D01*
X028146Y004216D01*
X028084Y004237D01*
X028019Y004247D01*
X027986Y004247D01*
X027953Y004247D01*
X027889Y004237D01*
X027826Y004216D01*
X027768Y004187D01*
X027715Y004148D01*
X027669Y004102D01*
X027630Y004049D01*
X027600Y003990D01*
X027580Y003928D01*
X027570Y003863D01*
X027570Y003831D01*
X027986Y003831D01*
X027986Y004247D01*
X027986Y003831D01*
X027986Y003831D01*
X027986Y003830D01*
X027570Y003830D01*
X027570Y003798D01*
X027580Y003733D01*
X027600Y003671D01*
X027625Y003623D01*
X027517Y003579D01*
X027411Y003473D01*
X027354Y003335D01*
X027354Y003195D01*
X027186Y003027D01*
X027057Y002898D01*
X027057Y002564D01*
X027057Y002381D01*
X027845Y001594D01*
X027974Y001465D01*
X029155Y001465D01*
X029337Y001465D01*
X031173Y003301D01*
X031173Y003173D01*
X031239Y003013D01*
X031362Y002891D01*
X031388Y002880D01*
X031383Y002882D02*
X030754Y002882D01*
X030596Y002724D02*
X031388Y002724D01*
X031388Y002565D02*
X030437Y002565D01*
X030278Y002406D02*
X031388Y002406D01*
X031388Y002248D02*
X030120Y002248D01*
X029961Y002089D02*
X031388Y002089D01*
X031388Y001931D02*
X029803Y001931D01*
X029644Y001772D02*
X031384Y001772D01*
X031226Y001614D02*
X029486Y001614D01*
X029246Y001685D02*
X032002Y004441D01*
X032396Y004441D01*
X032789Y004835D01*
X032789Y005031D01*
X033074Y004785D02*
X033292Y004785D01*
X033206Y004943D02*
X033160Y004943D01*
X033165Y005102D02*
X033200Y005102D01*
X033273Y005260D02*
X033093Y005260D01*
X032486Y005260D02*
X032305Y005260D01*
X032378Y005102D02*
X032413Y005102D01*
X032419Y004943D02*
X032372Y004943D01*
X032428Y004785D02*
X032287Y004785D01*
X032002Y004835D02*
X032002Y005031D01*
X032002Y004835D02*
X029246Y002079D01*
X028459Y002079D01*
X027986Y002551D01*
X027986Y002689D01*
X027730Y003260D02*
X027671Y003260D01*
X027730Y003260D02*
X027277Y002807D01*
X027277Y002472D01*
X028065Y001685D01*
X029246Y001685D01*
X027825Y001614D02*
X026085Y001614D01*
X025926Y001772D02*
X027666Y001772D01*
X027508Y001931D02*
X025768Y001931D01*
X025609Y002089D02*
X027349Y002089D01*
X027191Y002248D02*
X025451Y002248D01*
X025292Y002406D02*
X027057Y002406D01*
X027057Y002565D02*
X025134Y002565D01*
X024975Y002724D02*
X027057Y002724D01*
X027057Y002882D02*
X024817Y002882D01*
X024902Y003041D02*
X027200Y003041D01*
X027354Y003199D02*
X024957Y003199D01*
X024952Y003358D02*
X027364Y003358D01*
X027455Y003516D02*
X024881Y003516D01*
X024657Y003675D02*
X027599Y003675D01*
X027570Y003833D02*
X022334Y003833D01*
X022398Y003675D02*
X024386Y003675D01*
X024162Y003516D02*
X022388Y003516D01*
X022297Y003358D02*
X024091Y003358D01*
X024086Y003199D02*
X022260Y003199D01*
X022022Y002906D02*
X023695Y002906D01*
X024915Y001685D01*
X024681Y001455D02*
X018616Y001455D01*
X018616Y001297D02*
X025780Y001297D01*
X025621Y001455D02*
X025149Y001455D01*
X025241Y001614D02*
X025463Y001614D01*
X025304Y001772D02*
X025234Y001772D01*
X025146Y001931D02*
X025133Y001931D01*
X024987Y002089D02*
X024822Y002089D01*
X024829Y002248D02*
X024663Y002248D01*
X024670Y002406D02*
X024505Y002406D01*
X024512Y002565D02*
X024346Y002565D01*
X024353Y002724D02*
X024188Y002724D01*
X024296Y002882D02*
X024029Y002882D01*
X024141Y003041D02*
X023871Y003041D01*
X024522Y002866D02*
X024522Y003260D01*
X024522Y002866D02*
X026490Y000898D01*
X030821Y000898D01*
X031608Y001685D01*
X031067Y001455D02*
X026244Y001455D01*
X026402Y001297D02*
X030909Y001297D01*
X030750Y001138D02*
X026561Y001138D01*
X026097Y000980D02*
X018616Y000980D01*
X018616Y001138D02*
X025938Y001138D01*
X024590Y001614D02*
X021218Y001614D01*
X021377Y001772D02*
X024517Y001772D01*
X024358Y001931D02*
X021535Y001931D01*
X021694Y002089D02*
X024200Y002089D01*
X024041Y002248D02*
X021758Y002248D01*
X021865Y002406D02*
X023883Y002406D01*
X023724Y002565D02*
X022183Y002565D01*
X021510Y002531D02*
X021510Y002217D01*
X020978Y001685D01*
X019797Y001685D01*
X019010Y002472D01*
X019010Y007650D01*
X019347Y007638D02*
X020172Y007638D01*
X020210Y007638D02*
X021035Y007638D01*
X021035Y007480D02*
X020568Y007480D01*
X020531Y007321D02*
X021089Y007321D01*
X021152Y007163D02*
X019230Y007163D01*
X019230Y007004D02*
X021152Y007004D01*
X021152Y006846D02*
X019230Y006846D01*
X019230Y006687D02*
X021177Y006687D01*
X021335Y006529D02*
X019230Y006529D01*
X019230Y006370D02*
X019276Y006370D01*
X019531Y006370D02*
X021494Y006370D01*
X021652Y006211D02*
X019730Y006211D01*
X019780Y006053D02*
X021811Y006053D01*
X021970Y005894D02*
X019760Y005894D01*
X019656Y005736D02*
X024340Y005736D01*
X024522Y006016D02*
X022159Y006016D01*
X021372Y006803D01*
X021372Y007650D01*
X021709Y007638D02*
X022534Y007638D01*
X022572Y007638D02*
X023397Y007638D01*
X023397Y007480D02*
X022930Y007480D01*
X022893Y007321D02*
X023451Y007321D01*
X023514Y007163D02*
X021592Y007163D01*
X021592Y007004D02*
X023616Y007004D01*
X023774Y006846D02*
X021641Y006846D01*
X021799Y006687D02*
X023821Y006687D01*
X023938Y006529D02*
X021958Y006529D01*
X022116Y006370D02*
X025089Y006370D01*
X025089Y006211D02*
X024790Y006211D01*
X024850Y006053D02*
X025089Y006053D01*
X025119Y005894D02*
X024826Y005894D01*
X024703Y005736D02*
X025278Y005736D01*
X025436Y005577D02*
X019230Y005577D01*
X019230Y005419D02*
X025595Y005419D01*
X025753Y005260D02*
X019707Y005260D01*
X019780Y005102D02*
X025912Y005102D01*
X026096Y005228D02*
X027671Y005228D01*
X028459Y004441D01*
X029246Y004441D01*
X029640Y004835D01*
X029640Y005031D01*
X029925Y004785D02*
X030142Y004785D01*
X030108Y004818D02*
X030207Y004719D01*
X030207Y004532D01*
X029813Y004138D01*
X029813Y003956D01*
X029813Y003351D01*
X029588Y003125D01*
X029420Y003125D01*
X029321Y003224D01*
X029236Y003260D01*
X029321Y003295D01*
X029427Y003401D01*
X029484Y003539D01*
X029484Y003689D01*
X029427Y003827D01*
X029321Y003933D01*
X029183Y003990D01*
X029033Y003990D01*
X029013Y003982D01*
X029013Y003988D01*
X028597Y003988D01*
X028597Y003988D01*
X029013Y003988D01*
X029013Y004021D01*
X029002Y004086D01*
X028982Y004148D01*
X028952Y004206D01*
X028942Y004221D01*
X029155Y004221D01*
X029337Y004221D01*
X029731Y004615D01*
X029812Y004696D01*
X029853Y004713D01*
X029959Y004818D01*
X030016Y004957D01*
X030016Y005106D01*
X029998Y005149D01*
X030051Y005097D01*
X030051Y004957D01*
X030108Y004818D01*
X030056Y004943D02*
X030010Y004943D01*
X030016Y005102D02*
X030046Y005102D01*
X030427Y005031D02*
X029955Y005504D01*
X028183Y005504D01*
X027671Y006016D01*
X026884Y006016D01*
X026490Y006409D01*
X026490Y007925D01*
X026096Y008319D01*
X025760Y008273D02*
X025273Y008273D01*
X025252Y008431D02*
X025760Y008431D01*
X025760Y008590D02*
X025252Y008590D01*
X024578Y008590D02*
X024071Y008590D01*
X023397Y008590D02*
X023135Y008590D01*
X022976Y008431D02*
X023397Y008431D01*
X023397Y008273D02*
X022890Y008273D01*
X022890Y008114D02*
X023397Y008114D01*
X023429Y007955D02*
X022906Y007955D01*
X022930Y007797D02*
X023397Y007797D01*
X023734Y007650D02*
X023734Y007197D01*
X024128Y006803D01*
X024435Y006687D02*
X025089Y006687D01*
X025089Y006529D02*
X024317Y006529D01*
X024456Y006846D02*
X025089Y006846D01*
X025089Y007004D02*
X024391Y007004D01*
X024079Y007163D02*
X025089Y007163D01*
X024897Y007253D02*
X024897Y007631D01*
X024538Y007631D01*
X024538Y007409D01*
X024551Y007364D01*
X024574Y007323D01*
X024608Y007289D01*
X024649Y007265D01*
X024695Y007253D01*
X024897Y007253D01*
X024897Y007321D02*
X024934Y007321D01*
X024934Y007480D02*
X024897Y007480D01*
X024897Y007638D02*
X024071Y007638D01*
X024071Y007480D02*
X024538Y007480D01*
X024576Y007321D02*
X024017Y007321D01*
X024071Y007797D02*
X024538Y007797D01*
X024562Y007955D02*
X024040Y007955D01*
X023734Y008319D02*
X024915Y008319D01*
X025309Y007925D01*
X025309Y006016D01*
X026096Y005228D01*
X026058Y005577D02*
X027798Y005577D01*
X027792Y005419D02*
X027957Y005419D01*
X027950Y005260D02*
X028549Y005260D01*
X028476Y005102D02*
X028109Y005102D01*
X028267Y004943D02*
X028482Y004943D01*
X028426Y004785D02*
X028567Y004785D01*
X028121Y004468D02*
X020529Y004468D01*
X020370Y004309D02*
X021243Y004309D01*
X021510Y004309D02*
X021510Y004309D01*
X021510Y004150D02*
X021510Y004150D01*
X021510Y003992D02*
X021510Y003992D01*
X021776Y004309D02*
X028279Y004309D01*
X027986Y004150D02*
X027986Y004150D01*
X027986Y003992D02*
X027986Y003992D01*
X027986Y003833D02*
X027986Y003833D01*
X027986Y003831D02*
X028459Y003260D01*
X028875Y003260D01*
X028875Y003293D01*
X028870Y003320D01*
X028895Y003295D01*
X028981Y003260D01*
X028895Y003224D01*
X028870Y003200D01*
X028875Y003227D01*
X028875Y003260D01*
X028459Y003260D01*
X028459Y003260D01*
X029108Y002906D02*
X029679Y002906D01*
X030033Y003260D01*
X030033Y004047D01*
X030427Y004441D01*
X030427Y005031D01*
X030207Y004626D02*
X029742Y004626D01*
X029584Y004468D02*
X030143Y004468D01*
X029984Y004309D02*
X029425Y004309D01*
X029825Y004150D02*
X028981Y004150D01*
X029013Y003992D02*
X029813Y003992D01*
X029813Y003833D02*
X029421Y003833D01*
X029484Y003675D02*
X029813Y003675D01*
X029813Y003516D02*
X029475Y003516D01*
X029384Y003358D02*
X029813Y003358D01*
X029662Y003199D02*
X029346Y003199D01*
X030913Y003041D02*
X031228Y003041D01*
X031173Y003199D02*
X031071Y003199D01*
X031744Y003675D02*
X032696Y003675D01*
X032538Y003516D02*
X031967Y003516D01*
X031705Y003833D02*
X032855Y003833D01*
X033013Y003992D02*
X031864Y003992D01*
X032022Y004150D02*
X033172Y004150D01*
X033331Y004309D02*
X032575Y004309D01*
X032616Y004350D02*
X032616Y004350D01*
X032733Y004468D02*
X033489Y004468D01*
X033648Y004626D02*
X032892Y004626D01*
X033636Y003992D02*
X033998Y003992D01*
X034156Y004150D02*
X033794Y004150D01*
X033953Y004309D02*
X034315Y004309D01*
X034473Y004468D02*
X034111Y004468D01*
X034270Y004626D02*
X034632Y004626D01*
X034649Y004785D02*
X034866Y004785D01*
X034781Y004943D02*
X034735Y004943D01*
X034740Y005102D02*
X034775Y005102D01*
X034848Y005260D02*
X034667Y005260D01*
X034673Y005736D02*
X034899Y005736D01*
X034795Y005894D02*
X034762Y005894D01*
X034731Y006211D02*
X034825Y006211D01*
X035024Y006370D02*
X034584Y006370D01*
X034364Y006370D02*
X034364Y006370D01*
X034169Y006687D02*
X031642Y006687D01*
X031800Y006529D02*
X035115Y006529D01*
X035151Y006803D02*
X035939Y006016D01*
X036067Y006370D02*
X036506Y006370D01*
X036506Y006211D02*
X036265Y006211D01*
X036315Y006053D02*
X036506Y006053D01*
X036506Y005894D02*
X036296Y005894D01*
X036191Y005736D02*
X036506Y005736D01*
X036946Y005736D02*
X038475Y005736D01*
X038475Y005894D02*
X036946Y005894D01*
X036946Y005577D02*
X038475Y005577D01*
X038475Y005419D02*
X036834Y005419D01*
X036676Y005260D02*
X038475Y005260D01*
X038475Y005102D02*
X036517Y005102D01*
X036358Y004943D02*
X038475Y004943D01*
X038475Y004785D02*
X036224Y004785D01*
X035939Y004835D02*
X035545Y004441D01*
X034758Y004441D01*
X033970Y003654D01*
X033970Y002866D01*
X034364Y002472D01*
X034856Y002472D01*
X035073Y002689D01*
X034697Y002692D02*
X034455Y002692D01*
X034190Y002957D01*
X034190Y003562D01*
X034849Y004221D01*
X034927Y004221D01*
X034913Y004216D01*
X034855Y004187D01*
X034802Y004148D01*
X034755Y004102D01*
X034717Y004049D01*
X034687Y003990D01*
X034667Y003928D01*
X034657Y003863D01*
X034657Y003831D01*
X035072Y003831D01*
X035072Y003830D01*
X034657Y003830D01*
X034657Y003798D01*
X034667Y003733D01*
X034687Y003671D01*
X034711Y003623D01*
X034604Y003579D01*
X034498Y003473D01*
X034441Y003335D01*
X034441Y003185D01*
X034498Y003047D01*
X034604Y002941D01*
X034742Y002884D01*
X034746Y002884D01*
X034697Y002764D01*
X034697Y002692D01*
X034697Y002724D02*
X034424Y002724D01*
X034266Y002882D02*
X034746Y002882D01*
X034504Y003041D02*
X034190Y003041D01*
X034190Y003199D02*
X034441Y003199D01*
X034450Y003358D02*
X034190Y003358D01*
X034190Y003516D02*
X034541Y003516D01*
X034686Y003675D02*
X034303Y003675D01*
X034461Y003833D02*
X034657Y003833D01*
X034688Y003992D02*
X034620Y003992D01*
X034778Y004150D02*
X034805Y004150D01*
X033839Y003833D02*
X033477Y003833D01*
X033319Y003675D02*
X033750Y003675D01*
X033750Y003516D02*
X033160Y003516D01*
X033001Y003358D02*
X033750Y003358D01*
X033750Y003199D02*
X032843Y003199D01*
X032684Y003041D02*
X033750Y003041D01*
X035322Y002406D02*
X035328Y002406D01*
X037923Y003358D02*
X038264Y003358D01*
X038336Y003516D02*
X038081Y003516D01*
X038240Y003675D02*
X038559Y003675D01*
X038398Y003833D02*
X039089Y003833D01*
X039089Y003675D02*
X038830Y003675D01*
X039054Y003516D02*
X039089Y003516D01*
X039089Y003992D02*
X038557Y003992D01*
X038715Y004150D02*
X039089Y004150D01*
X039089Y004309D02*
X038874Y004309D01*
X038915Y004468D02*
X039089Y004468D01*
X039089Y004626D02*
X038915Y004626D01*
X038915Y004785D02*
X039089Y004785D01*
X039089Y004943D02*
X038915Y004943D01*
X038915Y005102D02*
X039089Y005102D01*
X039089Y005260D02*
X038915Y005260D01*
X038915Y005419D02*
X039089Y005419D01*
X039089Y005577D02*
X038915Y005577D01*
X038915Y005736D02*
X039089Y005736D01*
X039089Y005894D02*
X038915Y005894D01*
X038915Y006053D02*
X039089Y006053D01*
X039089Y006211D02*
X038915Y006211D01*
X038915Y006370D02*
X039089Y006370D01*
X039089Y006529D02*
X038915Y006529D01*
X038915Y006687D02*
X039089Y006687D01*
X039089Y006846D02*
X038915Y006846D01*
X038915Y007004D02*
X039089Y007004D01*
X039089Y007163D02*
X038915Y007163D01*
X038978Y007321D02*
X039089Y007321D01*
X039089Y007480D02*
X039032Y007480D01*
X039032Y007638D02*
X039089Y007638D01*
X039089Y007797D02*
X039032Y007797D01*
X039000Y007955D02*
X039089Y007955D01*
X039089Y008114D02*
X039032Y008114D01*
X039032Y008273D02*
X039089Y008273D01*
X039089Y008431D02*
X039032Y008431D01*
X039032Y008590D02*
X039089Y008590D01*
X039006Y008748D02*
X037842Y008748D01*
X037851Y008590D02*
X038358Y008590D01*
X038702Y009065D02*
X037662Y009065D01*
X037813Y008907D02*
X038870Y008907D01*
X038695Y008319D02*
X037514Y008319D01*
X037514Y008772D01*
X037215Y008907D02*
X036632Y008907D01*
X036661Y008748D02*
X037186Y008748D01*
X037177Y008590D02*
X036669Y008590D01*
X036669Y008431D02*
X037177Y008431D01*
X037177Y008273D02*
X036669Y008273D01*
X036669Y008114D02*
X037177Y008114D01*
X037161Y007955D02*
X036638Y007955D01*
X036669Y007797D02*
X037137Y007797D01*
X037495Y007480D02*
X037532Y007480D01*
X037532Y007321D02*
X037495Y007321D01*
X037891Y007797D02*
X038358Y007797D01*
X038389Y007955D02*
X037867Y007955D01*
X037365Y009065D02*
X036481Y009065D01*
X036184Y009065D02*
X032413Y009065D01*
X032108Y008748D02*
X030333Y008748D01*
X030588Y008590D02*
X032266Y008590D01*
X032425Y008431D02*
X030736Y008431D01*
X030802Y008273D02*
X032584Y008273D01*
X032742Y008114D02*
X030854Y008114D01*
X030854Y007955D02*
X032901Y007955D01*
X033059Y007797D02*
X030844Y007797D01*
X030778Y007638D02*
X033218Y007638D01*
X033376Y007480D02*
X030689Y007480D01*
X030531Y007321D02*
X033535Y007321D01*
X033693Y007163D02*
X029591Y007163D01*
X029536Y007321D02*
X029433Y007321D01*
X029377Y007480D02*
X029274Y007480D01*
X028793Y007650D02*
X028459Y007650D01*
X027277Y007650D01*
X027583Y007955D02*
X028153Y007955D01*
X028082Y008114D02*
X027614Y008114D01*
X027614Y008273D02*
X028082Y008273D01*
X028082Y008431D02*
X027614Y008431D01*
X027614Y008590D02*
X028090Y008590D01*
X028440Y008590D02*
X028477Y008590D01*
X028477Y008431D02*
X028440Y008431D01*
X027277Y008319D02*
X027218Y008319D01*
X026884Y007984D01*
X026884Y007197D01*
X026096Y007591D02*
X026096Y007650D01*
X026096Y006016D01*
X025791Y005894D02*
X025741Y005894D01*
X025768Y006053D02*
X025583Y006053D01*
X025529Y006211D02*
X025828Y006211D01*
X025876Y006370D02*
X025529Y006370D01*
X025529Y006529D02*
X025876Y006529D01*
X025876Y006687D02*
X025529Y006687D01*
X025529Y006846D02*
X025876Y006846D01*
X025876Y007004D02*
X025529Y007004D01*
X025529Y007163D02*
X025876Y007163D01*
X025813Y007321D02*
X025529Y007321D01*
X025529Y007480D02*
X025760Y007480D01*
X025760Y007638D02*
X025529Y007638D01*
X025529Y007797D02*
X025760Y007797D01*
X025791Y007955D02*
X025529Y007955D01*
X025431Y008114D02*
X025760Y008114D01*
X026454Y008273D02*
X026861Y008273D01*
X026941Y008431D02*
X026433Y008431D01*
X026433Y008590D02*
X026941Y008590D01*
X026702Y008114D02*
X026612Y008114D01*
X026377Y006211D02*
X026365Y006211D01*
X026399Y006189D02*
X026399Y006189D01*
X026424Y006053D02*
X026535Y006053D01*
X026401Y005894D02*
X026694Y005894D01*
X026278Y005736D02*
X027640Y005736D01*
X027645Y004943D02*
X027194Y004943D01*
X027212Y004785D02*
X027804Y004785D01*
X027962Y004626D02*
X027139Y004626D01*
X026884Y004835D02*
X020585Y004835D01*
X019797Y004047D01*
X019797Y003260D01*
X020368Y002689D01*
X020900Y002689D01*
X021149Y002406D02*
X021154Y002406D01*
X021230Y002248D02*
X019545Y002248D01*
X019387Y002406D02*
X020650Y002406D01*
X021072Y002089D02*
X019704Y002089D01*
X019862Y001931D02*
X020913Y001931D01*
X020181Y002565D02*
X019230Y002565D01*
X019230Y002724D02*
X020022Y002724D01*
X019864Y002882D02*
X019230Y002882D01*
X019230Y003041D02*
X019705Y003041D01*
X019577Y003199D02*
X019230Y003199D01*
X019230Y003358D02*
X019577Y003358D01*
X019577Y003516D02*
X019230Y003516D01*
X019230Y003675D02*
X019577Y003675D01*
X019577Y003833D02*
X019230Y003833D01*
X019230Y003992D02*
X019577Y003992D01*
X019589Y004150D02*
X019230Y004150D01*
X019230Y004309D02*
X019748Y004309D01*
X019906Y004468D02*
X019230Y004468D01*
X019230Y004626D02*
X020065Y004626D01*
X020223Y004785D02*
X019689Y004785D01*
X019774Y004943D02*
X020382Y004943D01*
X020740Y004216D02*
X020681Y004187D01*
X020628Y004148D01*
X020582Y004102D01*
X020544Y004049D01*
X020514Y003990D01*
X020494Y003928D01*
X020483Y003863D01*
X020483Y003831D01*
X020899Y003831D01*
X020899Y004247D01*
X020867Y004247D01*
X020802Y004237D01*
X020740Y004216D01*
X020631Y004150D02*
X020211Y004150D01*
X020053Y003992D02*
X020515Y003992D01*
X020483Y003833D02*
X020017Y003833D01*
X020017Y003675D02*
X020512Y003675D01*
X020368Y003516D02*
X020017Y003516D01*
X020017Y003358D02*
X020277Y003358D01*
X020267Y003199D02*
X020169Y003199D01*
X020327Y003041D02*
X020331Y003041D01*
X020899Y003833D02*
X020900Y003833D01*
X020899Y003992D02*
X020900Y003992D01*
X020899Y004150D02*
X020900Y004150D01*
X021894Y004150D02*
X027718Y004150D01*
X027601Y003992D02*
X021926Y003992D01*
X019082Y002089D02*
X018616Y002089D01*
X018616Y001931D02*
X019240Y001931D01*
X019399Y001772D02*
X018616Y001772D01*
X018616Y001614D02*
X019557Y001614D01*
X018923Y002248D02*
X018616Y002248D01*
X018616Y002406D02*
X018790Y002406D01*
X018790Y002565D02*
X018616Y002565D01*
X018616Y002724D02*
X018790Y002724D01*
X018790Y002882D02*
X018616Y002882D01*
X018616Y003041D02*
X018790Y003041D01*
X018790Y003199D02*
X018616Y003199D01*
X018616Y003358D02*
X018790Y003358D01*
X018790Y003516D02*
X018616Y003516D01*
X018616Y003675D02*
X018790Y003675D01*
X018790Y003833D02*
X018616Y003833D01*
X018616Y003992D02*
X018790Y003992D01*
X018790Y004150D02*
X018616Y004150D01*
X018616Y004309D02*
X018790Y004309D01*
X018790Y004468D02*
X018616Y004468D01*
X018616Y004626D02*
X018790Y004626D01*
X018222Y004626D02*
X016080Y004626D01*
X016080Y004696D02*
X016179Y004655D01*
X016329Y004655D01*
X016467Y004713D01*
X016573Y004818D01*
X016630Y004957D01*
X016630Y005106D01*
X016573Y005245D01*
X016467Y005350D01*
X016329Y005408D01*
X016179Y005408D01*
X016080Y005367D01*
X016080Y005681D01*
X016179Y005640D01*
X016329Y005640D01*
X016467Y005697D01*
X016573Y005803D01*
X016630Y005941D01*
X016630Y005952D01*
X016635Y005918D01*
X016656Y005856D01*
X016685Y005798D01*
X016724Y005745D01*
X016770Y005698D01*
X016823Y005660D01*
X016881Y005630D01*
X016944Y005610D01*
X017008Y005600D01*
X017041Y005600D01*
X017041Y006015D01*
X017041Y006015D01*
X017041Y005600D01*
X017074Y005600D01*
X017139Y005610D01*
X017201Y005630D01*
X017259Y005660D01*
X017312Y005698D01*
X017359Y005745D01*
X017397Y005798D01*
X017427Y005856D01*
X017435Y005881D01*
X017443Y005856D01*
X017473Y005798D01*
X017511Y005745D01*
X017557Y005698D01*
X017611Y005660D01*
X017669Y005630D01*
X017731Y005610D01*
X017796Y005600D01*
X017828Y005600D01*
X017828Y006015D01*
X017829Y006015D01*
X017829Y005600D01*
X017861Y005600D01*
X017926Y005610D01*
X017988Y005630D01*
X018047Y005660D01*
X018100Y005698D01*
X018146Y005745D01*
X018185Y005798D01*
X018214Y005856D01*
X018222Y005881D01*
X018222Y000898D01*
X012090Y000898D01*
X011892Y001012D01*
X011644Y001260D01*
X011529Y001458D01*
X011529Y008605D01*
X011644Y008803D01*
X011892Y009051D01*
X012090Y009165D01*
X018222Y009165D01*
X018222Y008227D01*
X018131Y008449D01*
X017900Y008680D01*
X017598Y008805D01*
X017272Y008805D01*
X016970Y008680D01*
X016739Y008449D01*
X016614Y008147D01*
X016614Y007821D01*
X016739Y007519D01*
X016970Y007289D01*
X017272Y007164D01*
X017598Y007164D01*
X017900Y007289D01*
X018131Y007519D01*
X018222Y007741D01*
X018222Y006151D01*
X018214Y006176D01*
X018185Y006234D01*
X018146Y006287D01*
X018100Y006333D01*
X018047Y006372D01*
X017988Y006401D01*
X017926Y006422D01*
X017861Y006432D01*
X017829Y006432D01*
X017829Y006016D01*
X017828Y006016D01*
X017828Y006016D01*
X017457Y006016D01*
X017042Y006016D01*
X017042Y006016D01*
X017041Y006016D02*
X017041Y006016D01*
X017041Y006432D01*
X017008Y006432D01*
X016944Y006422D01*
X016881Y006401D01*
X016823Y006372D01*
X016770Y006333D01*
X016724Y006287D01*
X016685Y006234D01*
X016656Y006176D01*
X016635Y006113D01*
X016630Y006080D01*
X016630Y006091D01*
X016573Y006229D01*
X016467Y006335D01*
X016329Y006392D01*
X016179Y006392D01*
X016080Y006351D01*
X016080Y006501D01*
X015951Y006629D01*
X015558Y007023D01*
X015375Y007023D01*
X014042Y007023D01*
X013441Y007624D01*
X013441Y007924D01*
X013381Y007984D01*
X013441Y008044D01*
X013441Y008593D01*
X013359Y008675D01*
X012849Y008675D01*
X012767Y008593D01*
X012767Y008539D01*
X012605Y008539D01*
X012423Y008539D01*
X012260Y008539D01*
X012260Y008593D01*
X012178Y008675D01*
X011668Y008675D01*
X011586Y008593D01*
X011586Y008044D01*
X011619Y008012D01*
X011616Y008010D01*
X011582Y007977D01*
X011559Y007936D01*
X011546Y007890D01*
X011546Y007668D01*
X011904Y007668D01*
X011904Y007631D01*
X011546Y007631D01*
X011546Y007409D01*
X011559Y007364D01*
X011582Y007323D01*
X011616Y007289D01*
X011657Y007265D01*
X011703Y007253D01*
X011905Y007253D01*
X011905Y007631D01*
X011942Y007631D01*
X011942Y007253D01*
X012062Y007253D01*
X011703Y006894D01*
X011703Y006712D01*
X011703Y005334D01*
X011832Y005205D01*
X011941Y005097D01*
X011941Y004957D01*
X011998Y004818D01*
X012104Y004713D01*
X012242Y004655D01*
X012392Y004655D01*
X012530Y004713D01*
X012636Y004818D01*
X012693Y004957D01*
X012693Y005106D01*
X012636Y005245D01*
X012530Y005350D01*
X012392Y005408D01*
X012252Y005408D01*
X012143Y005516D01*
X012143Y005681D01*
X012242Y005640D01*
X012392Y005640D01*
X012530Y005697D01*
X012636Y005803D01*
X012693Y005941D01*
X012693Y006091D01*
X012636Y006229D01*
X012530Y006335D01*
X012392Y006392D01*
X012242Y006392D01*
X012143Y006351D01*
X012143Y006712D01*
X012605Y007174D01*
X012734Y007303D01*
X012734Y008099D01*
X012767Y008099D01*
X012767Y008044D01*
X012828Y007984D01*
X012767Y007924D01*
X012767Y007375D01*
X012849Y007293D01*
X013150Y007293D01*
X013731Y006712D01*
X013860Y006583D01*
X015375Y006583D01*
X015584Y006374D01*
X015541Y006392D01*
X015392Y006392D01*
X015253Y006335D01*
X015148Y006229D01*
X015090Y006091D01*
X015090Y005941D01*
X015148Y005803D01*
X015253Y005697D01*
X015392Y005640D01*
X015541Y005640D01*
X015640Y005681D01*
X015640Y005367D01*
X015541Y005408D01*
X015392Y005408D01*
X015253Y005350D01*
X015148Y005245D01*
X015090Y005106D01*
X015090Y004957D01*
X015148Y004818D01*
X015253Y004713D01*
X015392Y004655D01*
X015541Y004655D01*
X015640Y004696D01*
X015640Y002957D01*
X014982Y002299D01*
X014770Y002299D01*
X014744Y002324D01*
X014799Y002457D01*
X014799Y002554D01*
X014860Y002529D01*
X015010Y002529D01*
X015148Y002587D01*
X015254Y002692D01*
X015311Y002831D01*
X015311Y002980D01*
X015254Y003119D01*
X015148Y003224D01*
X015063Y003260D01*
X015148Y003295D01*
X015254Y003401D01*
X015311Y003539D01*
X015311Y003689D01*
X015254Y003827D01*
X015148Y003933D01*
X015010Y003990D01*
X014860Y003990D01*
X014799Y003965D01*
X014799Y004063D01*
X014742Y004201D01*
X014636Y004307D01*
X014498Y004364D01*
X014348Y004364D01*
X014210Y004307D01*
X014104Y004201D01*
X014083Y004149D01*
X014031Y004187D01*
X013973Y004216D01*
X013959Y004221D01*
X013983Y004221D01*
X014112Y004350D01*
X014376Y004615D01*
X014376Y004615D01*
X014472Y004710D01*
X014604Y004655D01*
X014754Y004655D01*
X014892Y004713D01*
X014998Y004818D01*
X015055Y004957D01*
X015055Y005106D01*
X014998Y005245D01*
X014892Y005350D01*
X014754Y005408D01*
X014604Y005408D01*
X014505Y005367D01*
X014505Y005531D01*
X014614Y005640D01*
X014754Y005640D01*
X014892Y005697D01*
X014998Y005803D01*
X015055Y005941D01*
X015055Y006091D01*
X014998Y006229D01*
X014892Y006335D01*
X014754Y006392D01*
X014604Y006392D01*
X014466Y006335D01*
X014360Y006229D01*
X014303Y006091D01*
X014303Y005951D01*
X014250Y005898D01*
X014268Y005941D01*
X014268Y006091D01*
X014211Y006229D01*
X014105Y006335D01*
X013966Y006392D01*
X013817Y006392D01*
X013679Y006335D01*
X013573Y006229D01*
X013515Y006091D01*
X013515Y005941D01*
X013573Y005803D01*
X013679Y005697D01*
X013817Y005640D01*
X013966Y005640D01*
X014065Y005681D01*
X014065Y005367D01*
X013966Y005408D01*
X013817Y005408D01*
X013679Y005350D01*
X013573Y005245D01*
X013515Y005106D01*
X013515Y004957D01*
X013573Y004818D01*
X013679Y004713D01*
X013801Y004662D01*
X013801Y004661D01*
X013195Y004661D01*
X013193Y004661D01*
X013317Y004713D01*
X013423Y004818D01*
X013480Y004957D01*
X013480Y005106D01*
X013423Y005245D01*
X013317Y005350D01*
X013179Y005408D01*
X013029Y005408D01*
X012891Y005350D01*
X012785Y005245D01*
X012728Y005106D01*
X012728Y004957D01*
X012785Y004818D01*
X012891Y004713D01*
X013016Y004661D01*
X013013Y004661D01*
X012619Y004267D01*
X012491Y004138D01*
X012491Y002957D01*
X012491Y002775D01*
X012884Y002381D01*
X013013Y002252D01*
X013407Y002252D01*
X013589Y002252D01*
X013675Y002339D01*
X013738Y002313D01*
X013888Y002313D01*
X014026Y002370D01*
X014066Y002410D01*
X014104Y002318D01*
X014210Y002213D01*
X014251Y002196D01*
X014332Y002115D01*
X014588Y001859D01*
X014770Y001859D01*
X015164Y001859D01*
X015293Y001988D01*
X016080Y002775D01*
X016080Y002957D01*
X016080Y004696D01*
X016080Y004468D02*
X018222Y004468D01*
X018222Y004309D02*
X016080Y004309D01*
X016080Y004150D02*
X018222Y004150D01*
X018222Y003992D02*
X016080Y003992D01*
X016080Y003833D02*
X018222Y003833D01*
X018222Y003675D02*
X017571Y003675D01*
X017522Y003695D02*
X017348Y003695D01*
X017188Y003629D01*
X017066Y003506D01*
X017000Y003346D01*
X017000Y003173D01*
X017066Y003013D01*
X017188Y002891D01*
X017348Y002825D01*
X017522Y002825D01*
X017681Y002891D01*
X017804Y003013D01*
X017870Y003173D01*
X017870Y003346D01*
X017804Y003506D01*
X017681Y003629D01*
X017522Y003695D01*
X017299Y003675D02*
X016080Y003675D01*
X016080Y003516D02*
X017076Y003516D01*
X017004Y003358D02*
X016080Y003358D01*
X016080Y003199D02*
X017000Y003199D01*
X017055Y003041D02*
X016080Y003041D01*
X016080Y002882D02*
X017209Y002882D01*
X017660Y002882D02*
X018222Y002882D01*
X018222Y002724D02*
X016029Y002724D01*
X015860Y002866D02*
X015073Y002079D01*
X014679Y002079D01*
X014423Y002335D01*
X014423Y002531D01*
X014068Y002406D02*
X014062Y002406D01*
X014175Y002248D02*
X011529Y002248D01*
X011529Y002406D02*
X012859Y002406D01*
X012701Y002565D02*
X011529Y002565D01*
X011529Y002724D02*
X012542Y002724D01*
X012491Y002882D02*
X011529Y002882D01*
X011529Y003041D02*
X012491Y003041D01*
X012491Y003199D02*
X011529Y003199D01*
X011529Y003358D02*
X012491Y003358D01*
X012491Y003516D02*
X011529Y003516D01*
X011529Y003675D02*
X012491Y003675D01*
X012491Y003833D02*
X011529Y003833D01*
X011529Y003992D02*
X012491Y003992D01*
X012503Y004150D02*
X011529Y004150D01*
X011529Y004309D02*
X012661Y004309D01*
X012820Y004468D02*
X011529Y004468D01*
X011529Y004626D02*
X012978Y004626D01*
X013104Y004441D02*
X012711Y004047D01*
X012711Y002866D01*
X013104Y002472D01*
X013498Y002472D01*
X013714Y002689D01*
X013813Y002689D01*
X013437Y002722D02*
X013407Y002692D01*
X013195Y002692D01*
X012931Y002957D01*
X012931Y003956D01*
X013195Y004221D01*
X013667Y004221D01*
X013653Y004216D01*
X013595Y004187D01*
X013542Y004148D01*
X013495Y004102D01*
X013457Y004049D01*
X013427Y003990D01*
X013407Y003928D01*
X013397Y003863D01*
X013397Y003831D01*
X013812Y003831D01*
X013812Y003830D01*
X013397Y003830D01*
X013397Y003798D01*
X013407Y003733D01*
X013427Y003671D01*
X013451Y003623D01*
X013344Y003579D01*
X013238Y003473D01*
X013181Y003335D01*
X013181Y003185D01*
X013238Y003047D01*
X013344Y002941D01*
X013482Y002884D01*
X013486Y002884D01*
X013437Y002764D01*
X013437Y002722D01*
X013437Y002724D02*
X013164Y002724D01*
X013006Y002882D02*
X013486Y002882D01*
X013244Y003041D02*
X012931Y003041D01*
X012931Y003199D02*
X013181Y003199D01*
X013190Y003358D02*
X012931Y003358D01*
X012931Y003516D02*
X013281Y003516D01*
X013426Y003675D02*
X012931Y003675D01*
X012931Y003833D02*
X013397Y003833D01*
X013428Y003992D02*
X012966Y003992D01*
X013125Y004150D02*
X013545Y004150D01*
X014081Y004150D02*
X014083Y004150D01*
X014071Y004309D02*
X014215Y004309D01*
X014112Y004350D02*
X014112Y004350D01*
X014229Y004468D02*
X015640Y004468D01*
X015640Y004626D02*
X014388Y004626D01*
X014285Y004835D02*
X013892Y004441D01*
X013104Y004441D01*
X012819Y004785D02*
X012602Y004785D01*
X012687Y004943D02*
X012734Y004943D01*
X012728Y005102D02*
X012693Y005102D01*
X012620Y005260D02*
X012801Y005260D01*
X013029Y005640D02*
X013179Y005640D01*
X013317Y005697D01*
X013423Y005803D01*
X013480Y005941D01*
X013480Y006091D01*
X013423Y006229D01*
X013317Y006335D01*
X013179Y006392D01*
X013029Y006392D01*
X012891Y006335D01*
X012785Y006229D01*
X012728Y006091D01*
X012728Y005941D01*
X012785Y005803D01*
X012891Y005697D01*
X013029Y005640D01*
X012852Y005736D02*
X012569Y005736D01*
X012674Y005894D02*
X012747Y005894D01*
X012728Y006053D02*
X012693Y006053D01*
X012643Y006211D02*
X012778Y006211D01*
X012977Y006370D02*
X012445Y006370D01*
X012189Y006370D02*
X012143Y006370D01*
X012143Y006529D02*
X015430Y006529D01*
X015339Y006370D02*
X014807Y006370D01*
X015005Y006211D02*
X015140Y006211D01*
X015090Y006053D02*
X015055Y006053D01*
X015036Y005894D02*
X015109Y005894D01*
X015214Y005736D02*
X014931Y005736D01*
X014679Y006016D02*
X014285Y005622D01*
X014285Y004835D01*
X014964Y004785D02*
X015181Y004785D01*
X015096Y004943D02*
X015050Y004943D01*
X015055Y005102D02*
X015090Y005102D01*
X015163Y005260D02*
X014982Y005260D01*
X014505Y005419D02*
X015640Y005419D01*
X015640Y005577D02*
X014552Y005577D01*
X014065Y005577D02*
X012143Y005577D01*
X012241Y005419D02*
X014065Y005419D01*
X013588Y005260D02*
X013407Y005260D01*
X013480Y005102D02*
X013515Y005102D01*
X013521Y004943D02*
X013475Y004943D01*
X013389Y004785D02*
X013606Y004785D01*
X014632Y004309D02*
X015640Y004309D01*
X015640Y004150D02*
X014763Y004150D01*
X014799Y003992D02*
X015640Y003992D01*
X015640Y003833D02*
X015248Y003833D01*
X015311Y003675D02*
X015640Y003675D01*
X015640Y003516D02*
X015302Y003516D01*
X015211Y003358D02*
X015640Y003358D01*
X015640Y003199D02*
X015173Y003199D01*
X015286Y003041D02*
X015640Y003041D01*
X015565Y002882D02*
X015311Y002882D01*
X015267Y002724D02*
X015406Y002724D01*
X015248Y002565D02*
X015096Y002565D01*
X015089Y002406D02*
X014779Y002406D01*
X014357Y002089D02*
X011529Y002089D01*
X011529Y001931D02*
X014516Y001931D01*
X015236Y001931D02*
X018222Y001931D01*
X018222Y002089D02*
X015394Y002089D01*
X015553Y002248D02*
X018222Y002248D01*
X018222Y002406D02*
X015712Y002406D01*
X015870Y002565D02*
X018222Y002565D01*
X018222Y003041D02*
X017815Y003041D01*
X017870Y003199D02*
X018222Y003199D01*
X018222Y003358D02*
X017866Y003358D01*
X017794Y003516D02*
X018222Y003516D01*
X017904Y004655D02*
X017754Y004655D01*
X017616Y004713D01*
X017510Y004818D01*
X017452Y004957D01*
X017452Y005106D01*
X017510Y005245D01*
X017616Y005350D01*
X017754Y005408D01*
X017904Y005408D01*
X018042Y005350D01*
X018148Y005245D01*
X018205Y005106D01*
X018205Y004957D01*
X018148Y004818D01*
X018042Y004713D01*
X017904Y004655D01*
X018114Y004785D02*
X018222Y004785D01*
X018222Y004943D02*
X018199Y004943D01*
X018205Y005102D02*
X018222Y005102D01*
X018222Y005260D02*
X018132Y005260D01*
X018222Y005419D02*
X016080Y005419D01*
X016080Y005577D02*
X018222Y005577D01*
X018222Y005736D02*
X018137Y005736D01*
X017829Y005736D02*
X017828Y005736D01*
X017828Y005894D02*
X017829Y005894D01*
X017828Y006016D02*
X017457Y006016D01*
X017042Y006016D01*
X017041Y006016D02*
X017041Y006432D01*
X017074Y006432D01*
X017139Y006422D01*
X017201Y006401D01*
X017259Y006372D01*
X017312Y006333D01*
X017359Y006287D01*
X017397Y006234D01*
X017427Y006176D01*
X017435Y006151D01*
X017443Y006176D01*
X017473Y006234D01*
X017511Y006287D01*
X017557Y006333D01*
X017611Y006372D01*
X017669Y006401D01*
X017731Y006422D01*
X017796Y006432D01*
X017828Y006432D01*
X017828Y006016D01*
X017828Y006053D02*
X017829Y006053D01*
X017828Y006211D02*
X017829Y006211D01*
X017828Y006370D02*
X017829Y006370D01*
X018049Y006370D02*
X018222Y006370D01*
X018222Y006211D02*
X018196Y006211D01*
X017608Y006370D02*
X017262Y006370D01*
X017409Y006211D02*
X017461Y006211D01*
X017041Y006211D02*
X017041Y006211D01*
X017041Y006053D02*
X017041Y006053D01*
X017041Y005894D02*
X017041Y005894D01*
X017041Y005736D02*
X017041Y005736D01*
X016732Y005736D02*
X016506Y005736D01*
X016611Y005894D02*
X016643Y005894D01*
X016674Y006211D02*
X016580Y006211D01*
X016382Y006370D02*
X016821Y006370D01*
X017041Y006370D02*
X017041Y006370D01*
X017350Y005736D02*
X017520Y005736D01*
X017254Y005350D02*
X017116Y005408D01*
X016966Y005408D01*
X016828Y005350D01*
X016722Y005245D01*
X016665Y005106D01*
X016665Y004957D01*
X016722Y004818D01*
X016828Y004713D01*
X016966Y004655D01*
X017116Y004655D01*
X017254Y004713D01*
X017360Y004818D01*
X017417Y004957D01*
X017417Y005106D01*
X017360Y005245D01*
X017254Y005350D01*
X017344Y005260D02*
X017525Y005260D01*
X017452Y005102D02*
X017417Y005102D01*
X017412Y004943D02*
X017458Y004943D01*
X017544Y004785D02*
X017326Y004785D01*
X016756Y004785D02*
X016539Y004785D01*
X016624Y004943D02*
X016671Y004943D01*
X016665Y005102D02*
X016630Y005102D01*
X016557Y005260D02*
X016738Y005260D01*
X016126Y006370D02*
X016080Y006370D01*
X016052Y006529D02*
X018222Y006529D01*
X018222Y006687D02*
X015894Y006687D01*
X015735Y006846D02*
X018222Y006846D01*
X018222Y007004D02*
X015576Y007004D01*
X015466Y006803D02*
X015860Y006409D01*
X015860Y002866D01*
X018222Y001772D02*
X011529Y001772D01*
X011529Y001614D02*
X018222Y001614D01*
X018222Y001455D02*
X011531Y001455D01*
X011623Y001297D02*
X018222Y001297D01*
X018222Y001138D02*
X011766Y001138D01*
X011948Y000980D02*
X018222Y000980D01*
X012317Y005031D02*
X011923Y005425D01*
X011923Y006803D01*
X012514Y007394D01*
X012514Y008319D01*
X013104Y008319D01*
X013441Y008273D02*
X013517Y008273D01*
X013465Y008147D02*
X013465Y007821D01*
X013590Y007519D01*
X013821Y007289D01*
X014122Y007164D01*
X014449Y007164D01*
X014750Y007289D01*
X014981Y007519D01*
X015106Y007821D01*
X015106Y008147D01*
X014981Y008449D01*
X014750Y008680D01*
X014449Y008805D01*
X014122Y008805D01*
X013821Y008680D01*
X013590Y008449D01*
X013465Y008147D01*
X013465Y008114D02*
X013441Y008114D01*
X013465Y007955D02*
X013410Y007955D01*
X013441Y007797D02*
X013475Y007797D01*
X013441Y007638D02*
X013540Y007638D01*
X013585Y007480D02*
X013629Y007480D01*
X013744Y007321D02*
X013788Y007321D01*
X013902Y007163D02*
X018222Y007163D01*
X018222Y007321D02*
X017932Y007321D01*
X018091Y007480D02*
X018222Y007480D01*
X018222Y007638D02*
X018180Y007638D01*
X018616Y007638D02*
X018673Y007638D01*
X018673Y007480D02*
X018616Y007480D01*
X018616Y007321D02*
X018727Y007321D01*
X018790Y007163D02*
X018616Y007163D01*
X018616Y007004D02*
X018790Y007004D01*
X018790Y006846D02*
X018616Y006846D01*
X018616Y006687D02*
X018790Y006687D01*
X018790Y006529D02*
X018616Y006529D01*
X018744Y006370D02*
X018790Y006370D01*
X019293Y007321D02*
X019851Y007321D01*
X019814Y007480D02*
X019347Y007480D01*
X019347Y007797D02*
X019814Y007797D01*
X019838Y007955D02*
X019315Y007955D01*
X019600Y008319D02*
X019010Y008319D01*
X018673Y008273D02*
X018616Y008273D01*
X018616Y008431D02*
X018673Y008431D01*
X018673Y008114D02*
X018616Y008114D01*
X018616Y007955D02*
X018704Y007955D01*
X018673Y007797D02*
X018616Y007797D01*
X018222Y008273D02*
X018204Y008273D01*
X018222Y008431D02*
X018138Y008431D01*
X018222Y008590D02*
X017990Y008590D01*
X018222Y008748D02*
X017735Y008748D01*
X017135Y008748D02*
X014585Y008748D01*
X014840Y008590D02*
X016880Y008590D01*
X016732Y008431D02*
X014988Y008431D01*
X015054Y008273D02*
X016666Y008273D01*
X016614Y008114D02*
X015106Y008114D01*
X015106Y007955D02*
X016614Y007955D01*
X016624Y007797D02*
X015096Y007797D01*
X015030Y007638D02*
X016690Y007638D01*
X016779Y007480D02*
X014941Y007480D01*
X014783Y007321D02*
X016937Y007321D01*
X015466Y006803D02*
X013951Y006803D01*
X013104Y007650D01*
X012767Y007638D02*
X012734Y007638D01*
X012734Y007480D02*
X012767Y007480D01*
X012734Y007321D02*
X012821Y007321D01*
X012594Y007163D02*
X013280Y007163D01*
X013439Y007004D02*
X012435Y007004D01*
X012277Y006846D02*
X013597Y006846D01*
X013756Y006687D02*
X012143Y006687D01*
X011703Y006687D02*
X011529Y006687D01*
X011529Y006529D02*
X011703Y006529D01*
X011703Y006370D02*
X011529Y006370D01*
X011529Y006211D02*
X011703Y006211D01*
X011703Y006053D02*
X011529Y006053D01*
X011529Y005894D02*
X011703Y005894D01*
X011703Y005736D02*
X011529Y005736D01*
X011529Y005577D02*
X011703Y005577D01*
X011703Y005419D02*
X011529Y005419D01*
X011529Y005260D02*
X011777Y005260D01*
X011936Y005102D02*
X011529Y005102D01*
X011529Y004943D02*
X011946Y004943D01*
X012032Y004785D02*
X011529Y004785D01*
X013356Y005736D02*
X013639Y005736D01*
X013535Y005894D02*
X013461Y005894D01*
X013480Y006053D02*
X013515Y006053D01*
X013566Y006211D02*
X013430Y006211D01*
X013232Y006370D02*
X013764Y006370D01*
X014019Y006370D02*
X014551Y006370D01*
X014353Y006211D02*
X014218Y006211D01*
X014268Y006053D02*
X014303Y006053D01*
X012767Y007797D02*
X012734Y007797D01*
X012734Y007955D02*
X012799Y007955D01*
X012514Y008319D02*
X011923Y008319D01*
X011586Y008273D02*
X011529Y008273D01*
X011529Y008431D02*
X011586Y008431D01*
X011586Y008590D02*
X011529Y008590D01*
X011612Y008748D02*
X013986Y008748D01*
X013730Y008590D02*
X013441Y008590D01*
X013441Y008431D02*
X013582Y008431D01*
X012767Y008590D02*
X012260Y008590D01*
X011916Y009065D02*
X018222Y009065D01*
X018222Y008907D02*
X011747Y008907D01*
X011586Y008114D02*
X011529Y008114D01*
X011529Y007955D02*
X011570Y007955D01*
X011546Y007797D02*
X011529Y007797D01*
X011529Y007638D02*
X011904Y007638D01*
X011905Y007480D02*
X011942Y007480D01*
X011942Y007321D02*
X011905Y007321D01*
X011972Y007163D02*
X011529Y007163D01*
X011529Y007321D02*
X011583Y007321D01*
X011546Y007480D02*
X011529Y007480D01*
X011529Y007004D02*
X011813Y007004D01*
X011703Y006846D02*
X011529Y006846D01*
X019600Y008319D02*
X020191Y008319D01*
X020528Y008114D02*
X021035Y008114D01*
X021066Y007955D02*
X020544Y007955D01*
X020568Y007797D02*
X021035Y007797D01*
X021677Y007955D02*
X022200Y007955D01*
X022176Y007797D02*
X021709Y007797D01*
X021709Y007480D02*
X022176Y007480D01*
X022213Y007321D02*
X021655Y007321D01*
X022535Y007321D02*
X022571Y007321D01*
X022571Y007480D02*
X022535Y007480D01*
X022216Y008590D02*
X021709Y008590D01*
X023452Y008907D02*
X031949Y008907D01*
X031324Y007004D02*
X033852Y007004D01*
X034010Y006846D02*
X031483Y006846D01*
X031828Y006370D02*
X031874Y006370D01*
X035420Y006846D02*
X036506Y006846D01*
X036506Y006687D02*
X035579Y006687D01*
X035737Y006529D02*
X036506Y006529D01*
X035563Y006053D02*
X035528Y006053D01*
X035508Y005894D02*
X035582Y005894D01*
X035687Y005736D02*
X035404Y005736D01*
X035455Y005260D02*
X035636Y005260D01*
X035563Y005102D02*
X035528Y005102D01*
X035522Y004943D02*
X035568Y004943D01*
X035578Y004785D02*
X035437Y004785D01*
X036333Y008319D02*
X036333Y008772D01*
X025915Y005736D02*
X025900Y005736D01*
X020209Y007321D02*
X020172Y007321D01*
X020172Y007480D02*
X020209Y007480D01*
M02*
