G75*
G70*
%OFA0B0*%
%FSLAX24Y24*%
%IPPOS*%
%LPD*%
%AMOC8*
5,1,8,0,0,1.08239X$1,22.5*
%
%ADD10C,0.0000*%
%ADD11C,0.0472*%
%ADD12C,0.0591*%
%ADD13R,0.0394X0.0433*%
%ADD14R,0.0433X0.0394*%
%ADD15C,0.0376*%
%ADD16C,0.0160*%
%ADD17C,0.0100*%
D10*
X018222Y002079D02*
X018222Y007984D01*
X018224Y008061D01*
X018230Y008138D01*
X018239Y008215D01*
X018252Y008291D01*
X018269Y008367D01*
X018290Y008441D01*
X018314Y008515D01*
X018342Y008587D01*
X018373Y008657D01*
X018408Y008726D01*
X018446Y008794D01*
X018487Y008859D01*
X018532Y008922D01*
X018580Y008983D01*
X018630Y009042D01*
X018683Y009098D01*
X018739Y009151D01*
X018798Y009201D01*
X018859Y009249D01*
X018922Y009294D01*
X018987Y009335D01*
X019055Y009373D01*
X019124Y009408D01*
X019194Y009439D01*
X019266Y009467D01*
X019340Y009491D01*
X019414Y009512D01*
X019490Y009529D01*
X019566Y009542D01*
X019643Y009551D01*
X019720Y009557D01*
X019797Y009559D01*
X044994Y009559D01*
X045071Y009557D01*
X045148Y009551D01*
X045225Y009542D01*
X045301Y009529D01*
X045377Y009512D01*
X045451Y009491D01*
X045525Y009467D01*
X045597Y009439D01*
X045667Y009408D01*
X045736Y009373D01*
X045804Y009335D01*
X045869Y009294D01*
X045932Y009249D01*
X045993Y009201D01*
X046052Y009151D01*
X046108Y009098D01*
X046161Y009042D01*
X046211Y008983D01*
X046259Y008922D01*
X046304Y008859D01*
X046345Y008794D01*
X046383Y008726D01*
X046418Y008657D01*
X046449Y008587D01*
X046477Y008515D01*
X046501Y008441D01*
X046522Y008367D01*
X046539Y008291D01*
X046552Y008215D01*
X046561Y008138D01*
X046567Y008061D01*
X046569Y007984D01*
X046569Y002079D01*
X046567Y002002D01*
X046561Y001925D01*
X046552Y001848D01*
X046539Y001772D01*
X046522Y001696D01*
X046501Y001622D01*
X046477Y001548D01*
X046449Y001476D01*
X046418Y001406D01*
X046383Y001337D01*
X046345Y001269D01*
X046304Y001204D01*
X046259Y001141D01*
X046211Y001080D01*
X046161Y001021D01*
X046108Y000965D01*
X046052Y000912D01*
X045993Y000862D01*
X045932Y000814D01*
X045869Y000769D01*
X045804Y000728D01*
X045736Y000690D01*
X045667Y000655D01*
X045597Y000624D01*
X045525Y000596D01*
X045451Y000572D01*
X045377Y000551D01*
X045301Y000534D01*
X045225Y000521D01*
X045148Y000512D01*
X045071Y000506D01*
X044994Y000504D01*
X019797Y000504D01*
X019720Y000506D01*
X019643Y000512D01*
X019566Y000521D01*
X019490Y000534D01*
X019414Y000551D01*
X019340Y000572D01*
X019266Y000596D01*
X019194Y000624D01*
X019124Y000655D01*
X019055Y000690D01*
X018987Y000728D01*
X018922Y000769D01*
X018859Y000814D01*
X018798Y000862D01*
X018739Y000912D01*
X018683Y000965D01*
X018630Y001021D01*
X018580Y001080D01*
X018532Y001141D01*
X018487Y001204D01*
X018446Y001269D01*
X018408Y001337D01*
X018373Y001406D01*
X018342Y001476D01*
X018314Y001548D01*
X018290Y001622D01*
X018269Y001696D01*
X018252Y001772D01*
X018239Y001848D01*
X018230Y001925D01*
X018224Y002002D01*
X018222Y002079D01*
X020781Y007984D02*
X020783Y008032D01*
X020789Y008080D01*
X020799Y008127D01*
X020812Y008173D01*
X020830Y008218D01*
X020850Y008262D01*
X020875Y008304D01*
X020903Y008343D01*
X020933Y008380D01*
X020967Y008414D01*
X021004Y008446D01*
X021042Y008475D01*
X021083Y008500D01*
X021126Y008522D01*
X021171Y008540D01*
X021217Y008554D01*
X021264Y008565D01*
X021312Y008572D01*
X021360Y008575D01*
X021408Y008574D01*
X021456Y008569D01*
X021504Y008560D01*
X021550Y008548D01*
X021595Y008531D01*
X021639Y008511D01*
X021681Y008488D01*
X021721Y008461D01*
X021759Y008431D01*
X021794Y008398D01*
X021826Y008362D01*
X021856Y008324D01*
X021882Y008283D01*
X021904Y008240D01*
X021924Y008196D01*
X021939Y008151D01*
X021951Y008104D01*
X021959Y008056D01*
X021963Y008008D01*
X021963Y007960D01*
X021959Y007912D01*
X021951Y007864D01*
X021939Y007817D01*
X021924Y007772D01*
X021904Y007728D01*
X021882Y007685D01*
X021856Y007644D01*
X021826Y007606D01*
X021794Y007570D01*
X021759Y007537D01*
X021721Y007507D01*
X021681Y007480D01*
X021639Y007457D01*
X021595Y007437D01*
X021550Y007420D01*
X021504Y007408D01*
X021456Y007399D01*
X021408Y007394D01*
X021360Y007393D01*
X021312Y007396D01*
X021264Y007403D01*
X021217Y007414D01*
X021171Y007428D01*
X021126Y007446D01*
X021083Y007468D01*
X021042Y007493D01*
X021004Y007522D01*
X020967Y007554D01*
X020933Y007588D01*
X020903Y007625D01*
X020875Y007664D01*
X020850Y007706D01*
X020830Y007750D01*
X020812Y007795D01*
X020799Y007841D01*
X020789Y007888D01*
X020783Y007936D01*
X020781Y007984D01*
X023931Y007984D02*
X023933Y008032D01*
X023939Y008080D01*
X023949Y008127D01*
X023962Y008173D01*
X023980Y008218D01*
X024000Y008262D01*
X024025Y008304D01*
X024053Y008343D01*
X024083Y008380D01*
X024117Y008414D01*
X024154Y008446D01*
X024192Y008475D01*
X024233Y008500D01*
X024276Y008522D01*
X024321Y008540D01*
X024367Y008554D01*
X024414Y008565D01*
X024462Y008572D01*
X024510Y008575D01*
X024558Y008574D01*
X024606Y008569D01*
X024654Y008560D01*
X024700Y008548D01*
X024745Y008531D01*
X024789Y008511D01*
X024831Y008488D01*
X024871Y008461D01*
X024909Y008431D01*
X024944Y008398D01*
X024976Y008362D01*
X025006Y008324D01*
X025032Y008283D01*
X025054Y008240D01*
X025074Y008196D01*
X025089Y008151D01*
X025101Y008104D01*
X025109Y008056D01*
X025113Y008008D01*
X025113Y007960D01*
X025109Y007912D01*
X025101Y007864D01*
X025089Y007817D01*
X025074Y007772D01*
X025054Y007728D01*
X025032Y007685D01*
X025006Y007644D01*
X024976Y007606D01*
X024944Y007570D01*
X024909Y007537D01*
X024871Y007507D01*
X024831Y007480D01*
X024789Y007457D01*
X024745Y007437D01*
X024700Y007420D01*
X024654Y007408D01*
X024606Y007399D01*
X024558Y007394D01*
X024510Y007393D01*
X024462Y007396D01*
X024414Y007403D01*
X024367Y007414D01*
X024321Y007428D01*
X024276Y007446D01*
X024233Y007468D01*
X024192Y007493D01*
X024154Y007522D01*
X024117Y007554D01*
X024083Y007588D01*
X024053Y007625D01*
X024025Y007664D01*
X024000Y007706D01*
X023980Y007750D01*
X023962Y007795D01*
X023949Y007841D01*
X023939Y007888D01*
X023933Y007936D01*
X023931Y007984D01*
X036529Y007984D02*
X036531Y008032D01*
X036537Y008080D01*
X036547Y008127D01*
X036560Y008173D01*
X036578Y008218D01*
X036598Y008262D01*
X036623Y008304D01*
X036651Y008343D01*
X036681Y008380D01*
X036715Y008414D01*
X036752Y008446D01*
X036790Y008475D01*
X036831Y008500D01*
X036874Y008522D01*
X036919Y008540D01*
X036965Y008554D01*
X037012Y008565D01*
X037060Y008572D01*
X037108Y008575D01*
X037156Y008574D01*
X037204Y008569D01*
X037252Y008560D01*
X037298Y008548D01*
X037343Y008531D01*
X037387Y008511D01*
X037429Y008488D01*
X037469Y008461D01*
X037507Y008431D01*
X037542Y008398D01*
X037574Y008362D01*
X037604Y008324D01*
X037630Y008283D01*
X037652Y008240D01*
X037672Y008196D01*
X037687Y008151D01*
X037699Y008104D01*
X037707Y008056D01*
X037711Y008008D01*
X037711Y007960D01*
X037707Y007912D01*
X037699Y007864D01*
X037687Y007817D01*
X037672Y007772D01*
X037652Y007728D01*
X037630Y007685D01*
X037604Y007644D01*
X037574Y007606D01*
X037542Y007570D01*
X037507Y007537D01*
X037469Y007507D01*
X037429Y007480D01*
X037387Y007457D01*
X037343Y007437D01*
X037298Y007420D01*
X037252Y007408D01*
X037204Y007399D01*
X037156Y007394D01*
X037108Y007393D01*
X037060Y007396D01*
X037012Y007403D01*
X036965Y007414D01*
X036919Y007428D01*
X036874Y007446D01*
X036831Y007468D01*
X036790Y007493D01*
X036752Y007522D01*
X036715Y007554D01*
X036681Y007588D01*
X036651Y007625D01*
X036623Y007664D01*
X036598Y007706D01*
X036578Y007750D01*
X036560Y007795D01*
X036547Y007841D01*
X036537Y007888D01*
X036531Y007936D01*
X036529Y007984D01*
X041253Y007984D02*
X041255Y008032D01*
X041261Y008080D01*
X041271Y008127D01*
X041284Y008173D01*
X041302Y008218D01*
X041322Y008262D01*
X041347Y008304D01*
X041375Y008343D01*
X041405Y008380D01*
X041439Y008414D01*
X041476Y008446D01*
X041514Y008475D01*
X041555Y008500D01*
X041598Y008522D01*
X041643Y008540D01*
X041689Y008554D01*
X041736Y008565D01*
X041784Y008572D01*
X041832Y008575D01*
X041880Y008574D01*
X041928Y008569D01*
X041976Y008560D01*
X042022Y008548D01*
X042067Y008531D01*
X042111Y008511D01*
X042153Y008488D01*
X042193Y008461D01*
X042231Y008431D01*
X042266Y008398D01*
X042298Y008362D01*
X042328Y008324D01*
X042354Y008283D01*
X042376Y008240D01*
X042396Y008196D01*
X042411Y008151D01*
X042423Y008104D01*
X042431Y008056D01*
X042435Y008008D01*
X042435Y007960D01*
X042431Y007912D01*
X042423Y007864D01*
X042411Y007817D01*
X042396Y007772D01*
X042376Y007728D01*
X042354Y007685D01*
X042328Y007644D01*
X042298Y007606D01*
X042266Y007570D01*
X042231Y007537D01*
X042193Y007507D01*
X042153Y007480D01*
X042111Y007457D01*
X042067Y007437D01*
X042022Y007420D01*
X041976Y007408D01*
X041928Y007399D01*
X041880Y007394D01*
X041832Y007393D01*
X041784Y007396D01*
X041736Y007403D01*
X041689Y007414D01*
X041643Y007428D01*
X041598Y007446D01*
X041555Y007468D01*
X041514Y007493D01*
X041476Y007522D01*
X041439Y007554D01*
X041405Y007588D01*
X041375Y007625D01*
X041347Y007664D01*
X041322Y007706D01*
X041302Y007750D01*
X041284Y007795D01*
X041271Y007841D01*
X041261Y007888D01*
X041255Y007936D01*
X041253Y007984D01*
D11*
X041451Y006016D03*
X040663Y006016D03*
X039876Y006016D03*
X039089Y006016D03*
X038301Y006016D03*
X037514Y006016D03*
X036726Y006016D03*
X035939Y006016D03*
X035939Y005031D03*
X036726Y005031D03*
X037514Y005031D03*
X038301Y005031D03*
X039089Y005031D03*
X039876Y005031D03*
X040663Y005031D03*
X041451Y005031D03*
X042238Y005031D03*
X043026Y005031D03*
X043026Y006016D03*
X042238Y006016D03*
X042770Y003988D03*
X042159Y003831D03*
X041903Y003260D03*
X042159Y002689D03*
X042770Y002531D03*
X043281Y002906D03*
X042632Y003260D03*
X043281Y003614D03*
X036195Y003614D03*
X035545Y003260D03*
X036195Y002906D03*
X035683Y002531D03*
X035073Y002689D03*
X034817Y003260D03*
X035073Y003831D03*
X035683Y003988D03*
X029108Y003614D03*
X028596Y003988D03*
X027986Y003831D03*
X027730Y003260D03*
X028459Y003260D03*
X029108Y002906D03*
X028596Y002531D03*
X027986Y002689D03*
X026490Y005031D03*
X025703Y005031D03*
X024915Y005031D03*
X024128Y005031D03*
X023340Y005031D03*
X022553Y005031D03*
X021766Y005031D03*
X020978Y005031D03*
X020191Y005031D03*
X019403Y005031D03*
X019403Y006016D03*
X020191Y006016D03*
X020978Y006016D03*
X021766Y006016D03*
X022553Y006016D03*
X023340Y006016D03*
X024128Y006016D03*
X024915Y006016D03*
X025703Y006016D03*
X026490Y006016D03*
X022022Y003614D03*
X021510Y003988D03*
X020900Y003831D03*
X020644Y003260D03*
X021372Y003260D03*
X022022Y002906D03*
X021510Y002531D03*
X020900Y002689D03*
D12*
X024522Y003260D03*
X031608Y003260D03*
X038695Y003260D03*
X045191Y006016D03*
X045781Y003260D03*
D13*
X045781Y007650D03*
X045781Y008319D03*
X044600Y008319D03*
X044600Y007650D03*
X043419Y007650D03*
X043419Y008319D03*
X035545Y008319D03*
X035545Y007650D03*
X034364Y007650D03*
X034364Y008319D03*
X033183Y008319D03*
X033183Y007650D03*
X032002Y007650D03*
X032002Y008319D03*
X030821Y008319D03*
X030821Y007650D03*
X029640Y007650D03*
X029640Y008319D03*
X028459Y008319D03*
X028459Y007650D03*
X027277Y007650D03*
X027277Y008319D03*
X020191Y008319D03*
X020191Y007650D03*
X019010Y007650D03*
X019010Y008319D03*
D14*
X043478Y006803D03*
X044148Y006803D03*
X044659Y006803D03*
X045329Y006803D03*
D15*
X044207Y006213D03*
X044207Y005622D03*
X043026Y006803D03*
X043419Y008772D03*
X044600Y008772D03*
X033970Y007197D03*
X033183Y006016D03*
X031608Y006016D03*
X031214Y006803D03*
X033970Y004835D03*
X032002Y001685D03*
X027671Y002079D03*
X026687Y008181D03*
D16*
X026884Y008378D01*
X027218Y008378D01*
X027277Y008319D01*
X027614Y008273D02*
X028122Y008273D01*
X028122Y008431D02*
X027614Y008431D01*
X027614Y008590D02*
X028122Y008590D01*
X028122Y008593D02*
X028122Y008044D01*
X028182Y007984D01*
X028122Y007924D01*
X028122Y007375D01*
X028204Y007293D01*
X028239Y007293D01*
X028239Y006712D01*
X028367Y006583D01*
X028367Y006583D01*
X029155Y005796D01*
X029337Y005796D01*
X031364Y005796D01*
X031422Y005738D01*
X031543Y005688D01*
X031673Y005688D01*
X031794Y005738D01*
X031886Y005830D01*
X031936Y005950D01*
X031936Y006081D01*
X031886Y006202D01*
X031794Y006294D01*
X031673Y006344D01*
X031543Y006344D01*
X031422Y006294D01*
X031364Y006236D01*
X029337Y006236D01*
X028679Y006894D01*
X028679Y007293D01*
X028713Y007293D01*
X028795Y007375D01*
X028795Y007924D01*
X028735Y007984D01*
X028795Y008044D01*
X028795Y008099D01*
X029303Y008099D01*
X029303Y008044D01*
X029335Y008012D01*
X029332Y008010D01*
X029299Y007977D01*
X029275Y007936D01*
X029263Y007890D01*
X029263Y007668D01*
X029621Y007668D01*
X029621Y007631D01*
X029263Y007631D01*
X029263Y007409D01*
X029275Y007364D01*
X029299Y007323D01*
X029332Y007289D01*
X029373Y007265D01*
X029419Y007253D01*
X029621Y007253D01*
X029621Y007631D01*
X029658Y007631D01*
X029658Y007253D01*
X029860Y007253D01*
X029906Y007265D01*
X029947Y007289D01*
X029981Y007323D01*
X030004Y007364D01*
X030016Y007409D01*
X030016Y007631D01*
X029658Y007631D01*
X029658Y007668D01*
X030016Y007668D01*
X030016Y007890D01*
X030004Y007936D01*
X029981Y007977D01*
X029947Y008010D01*
X029944Y008012D01*
X029976Y008044D01*
X029976Y008345D01*
X030577Y008945D01*
X038997Y008945D01*
X041360Y006583D01*
X041542Y006583D01*
X042147Y006583D01*
X042356Y006374D01*
X042313Y006392D01*
X042163Y006392D01*
X042025Y006335D01*
X041919Y006229D01*
X041862Y006091D01*
X041862Y006080D01*
X041857Y006113D01*
X041836Y006176D01*
X041807Y006234D01*
X041768Y006287D01*
X041722Y006333D01*
X041669Y006372D01*
X041610Y006401D01*
X041548Y006422D01*
X041483Y006432D01*
X041451Y006432D01*
X041451Y006016D01*
X041450Y006016D01*
X041450Y006016D01*
X041034Y006016D01*
X040664Y006016D01*
X040664Y006016D01*
X040663Y006016D02*
X040663Y006016D01*
X040663Y006432D01*
X040631Y006432D01*
X040566Y006422D01*
X040504Y006401D01*
X040445Y006372D01*
X040392Y006333D01*
X040346Y006287D01*
X040307Y006234D01*
X040278Y006176D01*
X040257Y006113D01*
X040252Y006080D01*
X040252Y006091D01*
X040195Y006229D01*
X040089Y006335D01*
X039951Y006392D01*
X039801Y006392D01*
X039663Y006335D01*
X039557Y006229D01*
X039500Y006091D01*
X039500Y005941D01*
X039557Y005803D01*
X039663Y005697D01*
X039801Y005640D01*
X039951Y005640D01*
X040089Y005697D01*
X040195Y005803D01*
X040252Y005941D01*
X040252Y005952D01*
X040257Y005918D01*
X040278Y005856D01*
X040307Y005798D01*
X040346Y005745D01*
X040392Y005698D01*
X040445Y005660D01*
X040504Y005630D01*
X040566Y005610D01*
X040631Y005600D01*
X040663Y005600D01*
X040663Y006015D01*
X040663Y006015D01*
X040663Y005600D01*
X040696Y005600D01*
X040761Y005610D01*
X040823Y005630D01*
X040881Y005660D01*
X040934Y005698D01*
X040981Y005745D01*
X041019Y005798D01*
X041049Y005856D01*
X041057Y005881D01*
X041065Y005856D01*
X041095Y005798D01*
X041133Y005745D01*
X041180Y005698D01*
X041233Y005660D01*
X041291Y005630D01*
X041353Y005610D01*
X041418Y005600D01*
X041450Y005600D01*
X041450Y006015D01*
X041451Y006015D01*
X041451Y005600D01*
X041483Y005600D01*
X041548Y005610D01*
X041610Y005630D01*
X041669Y005660D01*
X041722Y005698D01*
X041768Y005745D01*
X041807Y005798D01*
X041836Y005856D01*
X041857Y005918D01*
X041862Y005951D01*
X041862Y005941D01*
X041919Y005803D01*
X042025Y005697D01*
X042163Y005640D01*
X042313Y005640D01*
X042451Y005697D01*
X042557Y005803D01*
X042614Y005941D01*
X042614Y006091D01*
X042596Y006134D01*
X042649Y006081D01*
X042649Y005941D01*
X042707Y005803D01*
X042812Y005697D01*
X042951Y005640D01*
X043100Y005640D01*
X043239Y005697D01*
X043344Y005803D01*
X043402Y005941D01*
X043402Y006091D01*
X043344Y006229D01*
X043239Y006335D01*
X043100Y006392D01*
X042960Y006392D01*
X042458Y006894D01*
X042329Y007023D01*
X041542Y007023D01*
X039400Y009165D01*
X045615Y009165D01*
X045813Y009051D01*
X046061Y008803D01*
X046175Y008605D01*
X046175Y003447D01*
X046150Y003506D01*
X046028Y003629D01*
X045868Y003695D01*
X045695Y003695D01*
X045535Y003629D01*
X045412Y003506D01*
X045346Y003346D01*
X045346Y003173D01*
X045357Y003147D01*
X043722Y001511D01*
X039180Y001511D01*
X038915Y001776D01*
X038915Y002880D01*
X038941Y002891D01*
X039064Y003013D01*
X039075Y003040D01*
X039588Y003040D01*
X039770Y003040D01*
X041386Y004655D01*
X041526Y004655D01*
X041664Y004713D01*
X041770Y004818D01*
X041827Y004957D01*
X041827Y005106D01*
X041770Y005245D01*
X041664Y005350D01*
X041526Y005408D01*
X041376Y005408D01*
X041238Y005350D01*
X041132Y005245D01*
X041074Y005106D01*
X041074Y004966D01*
X041022Y004913D01*
X041039Y004957D01*
X041039Y005106D01*
X040982Y005245D01*
X040876Y005350D01*
X040738Y005408D01*
X040588Y005408D01*
X040450Y005350D01*
X040344Y005245D01*
X040287Y005106D01*
X040287Y004957D01*
X040344Y004818D01*
X040450Y004713D01*
X040588Y004655D01*
X040738Y004655D01*
X040781Y004673D01*
X039588Y003480D01*
X039075Y003480D01*
X039064Y003506D01*
X038941Y003629D01*
X038781Y003695D01*
X038654Y003695D01*
X039180Y004221D01*
X039391Y004221D01*
X039573Y004221D01*
X039967Y004615D01*
X040048Y004696D01*
X040089Y004713D01*
X040195Y004818D01*
X040252Y004957D01*
X040252Y005106D01*
X040195Y005245D01*
X040089Y005350D01*
X039951Y005408D01*
X039801Y005408D01*
X039663Y005350D01*
X039557Y005245D01*
X039500Y005106D01*
X039500Y004957D01*
X039555Y004824D01*
X039391Y004661D01*
X039226Y004661D01*
X039260Y004696D01*
X039302Y004713D01*
X039407Y004818D01*
X039465Y004957D01*
X039465Y005106D01*
X039407Y005245D01*
X039302Y005350D01*
X039163Y005408D01*
X039014Y005408D01*
X038915Y005367D01*
X038915Y005516D01*
X038915Y005681D01*
X039014Y005640D01*
X039163Y005640D01*
X039302Y005697D01*
X039407Y005803D01*
X039465Y005941D01*
X039465Y006091D01*
X039407Y006229D01*
X039302Y006335D01*
X039163Y006392D01*
X039014Y006392D01*
X038915Y006351D01*
X038915Y006501D01*
X038786Y006629D01*
X038392Y007023D01*
X038210Y007023D01*
X036817Y007023D01*
X035971Y007870D01*
X035882Y007870D01*
X035882Y007924D01*
X035850Y007957D01*
X035853Y007958D01*
X035886Y007992D01*
X035910Y008033D01*
X035922Y008079D01*
X035922Y008300D01*
X035564Y008300D01*
X035564Y008337D01*
X035922Y008337D01*
X035922Y008559D01*
X035910Y008605D01*
X035886Y008646D01*
X035853Y008679D01*
X035811Y008703D01*
X035766Y008715D01*
X035564Y008715D01*
X035564Y008338D01*
X035527Y008338D01*
X035527Y008715D01*
X035325Y008715D01*
X035279Y008703D01*
X035238Y008679D01*
X035204Y008646D01*
X035181Y008605D01*
X035168Y008559D01*
X035168Y008337D01*
X035526Y008337D01*
X035526Y008300D01*
X035168Y008300D01*
X035168Y008079D01*
X035181Y008033D01*
X035204Y007992D01*
X035238Y007958D01*
X035241Y007957D01*
X035208Y007924D01*
X035208Y007870D01*
X034701Y007870D01*
X034701Y007924D01*
X034641Y007984D01*
X034701Y008044D01*
X034701Y008593D01*
X034619Y008675D01*
X034109Y008675D01*
X034027Y008593D01*
X034027Y008352D01*
X033879Y008204D01*
X033750Y008075D01*
X033750Y008063D01*
X033520Y008293D01*
X033520Y008593D01*
X033438Y008675D01*
X032928Y008675D01*
X032846Y008593D01*
X032846Y008044D01*
X032906Y007984D01*
X032846Y007924D01*
X032846Y007375D01*
X032928Y007293D01*
X032963Y007293D01*
X032963Y006260D01*
X032905Y006202D01*
X032855Y006081D01*
X032855Y005950D01*
X032905Y005830D01*
X032997Y005738D01*
X033118Y005688D01*
X033248Y005688D01*
X033369Y005738D01*
X033461Y005830D01*
X033511Y005950D01*
X033511Y006081D01*
X033461Y006202D01*
X033403Y006260D01*
X033403Y006272D01*
X033486Y006189D01*
X033879Y005796D01*
X034061Y005796D01*
X034667Y005796D01*
X035178Y005284D01*
X035361Y005284D01*
X035659Y005284D01*
X035620Y005245D01*
X035563Y005106D01*
X035563Y004957D01*
X035620Y004818D01*
X035726Y004713D01*
X035851Y004661D01*
X035636Y004661D01*
X034849Y005448D01*
X034667Y005448D01*
X033274Y005448D01*
X032616Y006107D01*
X032616Y008016D01*
X032487Y008145D01*
X032339Y008293D01*
X032339Y008593D01*
X032257Y008675D01*
X031747Y008675D01*
X031665Y008593D01*
X031665Y008539D01*
X031158Y008539D01*
X031158Y008593D01*
X031076Y008675D01*
X030566Y008675D01*
X030484Y008593D01*
X030484Y008044D01*
X030544Y007984D01*
X030484Y007924D01*
X030484Y007375D01*
X030566Y007293D01*
X030601Y007293D01*
X030601Y007288D01*
X030601Y007106D01*
X030886Y006820D01*
X030886Y006738D01*
X030936Y006617D01*
X031029Y006525D01*
X031149Y006475D01*
X031280Y006475D01*
X031400Y006525D01*
X031493Y006617D01*
X031543Y006738D01*
X031543Y006868D01*
X031493Y006989D01*
X031400Y007081D01*
X031280Y007131D01*
X031197Y007131D01*
X031041Y007288D01*
X031041Y007293D01*
X031076Y007293D01*
X031158Y007375D01*
X031158Y007924D01*
X031097Y007984D01*
X031158Y008044D01*
X031158Y008099D01*
X031665Y008099D01*
X031665Y008044D01*
X031698Y008012D01*
X031694Y008010D01*
X031661Y007977D01*
X031637Y007936D01*
X031625Y007890D01*
X031625Y007668D01*
X031983Y007668D01*
X031983Y007631D01*
X031625Y007631D01*
X031625Y007409D01*
X031637Y007364D01*
X031661Y007323D01*
X031694Y007289D01*
X031736Y007265D01*
X031781Y007253D01*
X031983Y007253D01*
X031983Y007631D01*
X032020Y007631D01*
X032020Y007253D01*
X032176Y007253D01*
X032176Y006107D01*
X032176Y005925D01*
X032963Y005137D01*
X033046Y005055D01*
X027580Y005055D01*
X027497Y004972D01*
X027497Y007293D01*
X027532Y007293D01*
X027614Y007375D01*
X027614Y007924D01*
X027554Y007984D01*
X027614Y008044D01*
X027614Y008593D01*
X027532Y008675D01*
X027023Y008675D01*
X026945Y008598D01*
X026793Y008598D01*
X026704Y008509D01*
X026622Y008509D01*
X026501Y008459D01*
X026409Y008367D01*
X026359Y008246D01*
X026359Y008164D01*
X025876Y007682D01*
X025876Y007499D01*
X025876Y006351D01*
X025778Y006392D01*
X025703Y006392D01*
X025703Y009165D01*
X030175Y009165D01*
X029685Y008675D01*
X029385Y008675D01*
X029303Y008593D01*
X029303Y008539D01*
X028795Y008539D01*
X028795Y008593D01*
X028713Y008675D01*
X028204Y008675D01*
X028122Y008593D01*
X028795Y008590D02*
X029303Y008590D01*
X029758Y008748D02*
X025703Y008748D01*
X025703Y008590D02*
X026784Y008590D01*
X026473Y008431D02*
X025703Y008431D01*
X025703Y008273D02*
X026370Y008273D01*
X026309Y008114D02*
X025703Y008114D01*
X025703Y007955D02*
X026150Y007955D01*
X025992Y007797D02*
X025703Y007797D01*
X025703Y007638D02*
X025876Y007638D01*
X025876Y007480D02*
X025703Y007480D01*
X025703Y007321D02*
X025876Y007321D01*
X025876Y007163D02*
X025703Y007163D01*
X025703Y007004D02*
X025876Y007004D01*
X025876Y006846D02*
X025703Y006846D01*
X025703Y006687D02*
X025876Y006687D01*
X025876Y006529D02*
X025703Y006529D01*
X025830Y006370D02*
X025876Y006370D01*
X025309Y006370D02*
X025136Y006370D01*
X025133Y006372D02*
X025075Y006401D01*
X025013Y006422D01*
X024948Y006432D01*
X024915Y006432D01*
X024882Y006432D01*
X024818Y006422D01*
X024755Y006401D01*
X024697Y006372D01*
X024644Y006333D01*
X024598Y006287D01*
X024559Y006234D01*
X024530Y006176D01*
X024522Y006151D01*
X024514Y006176D01*
X024484Y006234D01*
X024445Y006287D01*
X024399Y006333D01*
X024346Y006372D01*
X024288Y006401D01*
X024225Y006422D01*
X024161Y006432D01*
X024128Y006432D01*
X024128Y006016D01*
X024128Y006016D01*
X024544Y006016D01*
X024915Y006016D01*
X024915Y006432D01*
X024915Y006016D01*
X024915Y006016D01*
X024915Y006016D01*
X024544Y006016D01*
X024128Y006016D01*
X024128Y006016D01*
X024128Y006432D01*
X024095Y006432D01*
X024030Y006422D01*
X023968Y006401D01*
X023910Y006372D01*
X023857Y006333D01*
X023810Y006287D01*
X023772Y006234D01*
X023742Y006176D01*
X023722Y006113D01*
X023717Y006080D01*
X023717Y006091D01*
X023659Y006229D01*
X023554Y006335D01*
X023415Y006392D01*
X023266Y006392D01*
X023167Y006351D01*
X023167Y006501D01*
X023038Y006629D01*
X022644Y007023D01*
X022462Y007023D01*
X021128Y007023D01*
X020528Y007624D01*
X020528Y007924D01*
X020468Y007984D01*
X020528Y008044D01*
X020528Y008593D01*
X020446Y008675D01*
X019936Y008675D01*
X019854Y008593D01*
X019854Y008539D01*
X019691Y008539D01*
X019509Y008539D01*
X019347Y008539D01*
X019347Y008593D01*
X019265Y008675D01*
X018755Y008675D01*
X018673Y008593D01*
X018673Y008044D01*
X018705Y008012D01*
X018702Y008010D01*
X018669Y007977D01*
X018645Y007936D01*
X018633Y007890D01*
X018633Y007668D01*
X018991Y007668D01*
X018991Y007631D01*
X018633Y007631D01*
X018633Y007409D01*
X018645Y007364D01*
X018669Y007323D01*
X018702Y007289D01*
X018743Y007265D01*
X018789Y007253D01*
X018991Y007253D01*
X018991Y007631D01*
X019028Y007631D01*
X019028Y007253D01*
X019149Y007253D01*
X018790Y006894D01*
X018790Y006712D01*
X018790Y005334D01*
X018919Y005205D01*
X019027Y005097D01*
X019027Y004957D01*
X019085Y004818D01*
X019190Y004713D01*
X019329Y004655D01*
X019478Y004655D01*
X019617Y004713D01*
X019722Y004818D01*
X019780Y004957D01*
X019780Y005106D01*
X019722Y005245D01*
X019617Y005350D01*
X019478Y005408D01*
X019338Y005408D01*
X019230Y005516D01*
X019230Y005681D01*
X019329Y005640D01*
X019478Y005640D01*
X019617Y005697D01*
X019722Y005803D01*
X019780Y005941D01*
X019780Y006091D01*
X019722Y006229D01*
X019617Y006335D01*
X019478Y006392D01*
X019329Y006392D01*
X019230Y006351D01*
X019230Y006712D01*
X019691Y007174D01*
X019820Y007303D01*
X019820Y008099D01*
X019854Y008099D01*
X019854Y008044D01*
X019914Y007984D01*
X019854Y007924D01*
X019854Y007375D01*
X019936Y007293D01*
X020236Y007293D01*
X020817Y006712D01*
X020946Y006583D01*
X022462Y006583D01*
X022671Y006374D01*
X022628Y006392D01*
X022478Y006392D01*
X022340Y006335D01*
X022234Y006229D01*
X022177Y006091D01*
X022177Y005941D01*
X022234Y005803D01*
X022340Y005697D01*
X022478Y005640D01*
X022628Y005640D01*
X022727Y005681D01*
X022727Y005367D01*
X022628Y005408D01*
X022478Y005408D01*
X022340Y005350D01*
X022234Y005245D01*
X022177Y005106D01*
X022177Y004957D01*
X022234Y004818D01*
X022340Y004713D01*
X022478Y004655D01*
X022628Y004655D01*
X022727Y004696D01*
X022727Y002957D01*
X022068Y002299D01*
X021857Y002299D01*
X021831Y002324D01*
X021886Y002457D01*
X021886Y002554D01*
X021947Y002529D01*
X022096Y002529D01*
X022235Y002587D01*
X022340Y002692D01*
X022398Y002831D01*
X022398Y002980D01*
X022340Y003119D01*
X022235Y003224D01*
X022149Y003260D01*
X022235Y003295D01*
X022340Y003401D01*
X022398Y003539D01*
X022398Y003689D01*
X022340Y003827D01*
X022235Y003933D01*
X022096Y003990D01*
X021947Y003990D01*
X021886Y003965D01*
X021886Y004063D01*
X021829Y004201D01*
X021723Y004307D01*
X021585Y004364D01*
X021435Y004364D01*
X021297Y004307D01*
X021191Y004201D01*
X021169Y004149D01*
X021118Y004187D01*
X021059Y004216D01*
X021045Y004221D01*
X021069Y004221D01*
X021198Y004350D01*
X021559Y004710D01*
X021691Y004655D01*
X021841Y004655D01*
X021979Y004713D01*
X022085Y004818D01*
X022142Y004957D01*
X022142Y005106D01*
X022085Y005245D01*
X021979Y005350D01*
X021841Y005408D01*
X021691Y005408D01*
X021592Y005367D01*
X021592Y005531D01*
X021701Y005640D01*
X021841Y005640D01*
X021979Y005697D01*
X022085Y005803D01*
X022142Y005941D01*
X022142Y006091D01*
X022085Y006229D01*
X021979Y006335D01*
X021841Y006392D01*
X021691Y006392D01*
X021553Y006335D01*
X021447Y006229D01*
X021389Y006091D01*
X021389Y005951D01*
X021337Y005898D01*
X021354Y005941D01*
X021354Y006091D01*
X021297Y006229D01*
X021191Y006335D01*
X021053Y006392D01*
X020903Y006392D01*
X020765Y006335D01*
X020659Y006229D01*
X020602Y006091D01*
X020602Y005941D01*
X020659Y005803D01*
X020765Y005697D01*
X020903Y005640D01*
X021053Y005640D01*
X021152Y005681D01*
X021152Y005367D01*
X021053Y005408D01*
X020903Y005408D01*
X020765Y005350D01*
X020659Y005245D01*
X020602Y005106D01*
X020602Y004957D01*
X020659Y004818D01*
X020765Y004713D01*
X020888Y004662D01*
X020887Y004661D01*
X020282Y004661D01*
X020279Y004661D01*
X020404Y004713D01*
X020510Y004818D01*
X020567Y004957D01*
X020567Y005106D01*
X020510Y005245D01*
X020404Y005350D01*
X020266Y005408D01*
X020116Y005408D01*
X019978Y005350D01*
X019872Y005245D01*
X019815Y005106D01*
X019815Y004957D01*
X019872Y004818D01*
X019978Y004713D01*
X020102Y004661D01*
X020100Y004661D01*
X019706Y004267D01*
X019577Y004138D01*
X019577Y002957D01*
X019577Y002775D01*
X019971Y002381D01*
X020100Y002252D01*
X020493Y002252D01*
X020676Y002252D01*
X020762Y002339D01*
X020825Y002313D01*
X020974Y002313D01*
X021113Y002370D01*
X021153Y002410D01*
X021191Y002318D01*
X021297Y002213D01*
X021338Y002196D01*
X021675Y001859D01*
X021857Y001859D01*
X022250Y001859D01*
X022379Y001988D01*
X023167Y002775D01*
X023167Y002957D01*
X023167Y004696D01*
X023266Y004655D01*
X023415Y004655D01*
X023554Y004713D01*
X023659Y004818D01*
X023717Y004957D01*
X023717Y005106D01*
X023659Y005245D01*
X023554Y005350D01*
X023415Y005408D01*
X023266Y005408D01*
X023167Y005367D01*
X023167Y005681D01*
X023266Y005640D01*
X023415Y005640D01*
X023554Y005697D01*
X023659Y005803D01*
X023717Y005941D01*
X023717Y005952D01*
X023722Y005918D01*
X023742Y005856D01*
X023772Y005798D01*
X023810Y005745D01*
X023857Y005698D01*
X023910Y005660D01*
X023968Y005630D01*
X024030Y005610D01*
X024095Y005600D01*
X024128Y005600D01*
X024161Y005600D01*
X024225Y005610D01*
X024288Y005630D01*
X024346Y005660D01*
X024399Y005698D01*
X024445Y005745D01*
X024484Y005798D01*
X024514Y005856D01*
X024522Y005881D01*
X024530Y005856D01*
X024559Y005798D01*
X024598Y005745D01*
X024644Y005698D01*
X024697Y005660D01*
X024755Y005630D01*
X024818Y005610D01*
X024882Y005600D01*
X024915Y005600D01*
X024915Y006015D01*
X024915Y006015D01*
X024915Y005600D01*
X024948Y005600D01*
X025013Y005610D01*
X025075Y005630D01*
X025133Y005660D01*
X025186Y005698D01*
X025233Y005745D01*
X025271Y005798D01*
X025301Y005856D01*
X025309Y005881D01*
X025309Y000898D01*
X019176Y000898D01*
X018978Y001012D01*
X018730Y001260D01*
X018616Y001458D01*
X018616Y008605D01*
X018730Y008803D01*
X018978Y009051D01*
X019176Y009165D01*
X025309Y009165D01*
X025309Y008227D01*
X025217Y008449D01*
X024986Y008680D01*
X024685Y008805D01*
X024358Y008805D01*
X024057Y008680D01*
X023826Y008449D01*
X023701Y008147D01*
X023701Y007821D01*
X023826Y007519D01*
X024057Y007289D01*
X024358Y007164D01*
X024685Y007164D01*
X024986Y007289D01*
X025217Y007519D01*
X025309Y007741D01*
X025309Y006151D01*
X025301Y006176D01*
X025271Y006234D01*
X025233Y006287D01*
X025186Y006333D01*
X025133Y006372D01*
X024915Y006370D02*
X024915Y006370D01*
X024915Y006211D02*
X024915Y006211D01*
X024915Y006053D02*
X024915Y006053D01*
X024915Y005894D02*
X024915Y005894D01*
X024915Y005736D02*
X024915Y005736D01*
X024606Y005736D02*
X024437Y005736D01*
X024128Y005736D02*
X024128Y005736D01*
X024128Y005600D02*
X024128Y006015D01*
X024128Y006015D01*
X024128Y005600D01*
X024203Y005408D02*
X024053Y005408D01*
X023915Y005350D01*
X023809Y005245D01*
X023752Y005106D01*
X023752Y004957D01*
X023809Y004818D01*
X023915Y004713D01*
X024053Y004655D01*
X024203Y004655D01*
X024341Y004713D01*
X024447Y004818D01*
X024504Y004957D01*
X024504Y005106D01*
X024447Y005245D01*
X024341Y005350D01*
X024203Y005408D01*
X024431Y005260D02*
X024612Y005260D01*
X024596Y005245D02*
X024539Y005106D01*
X024539Y004957D01*
X024596Y004818D01*
X024702Y004713D01*
X024840Y004655D01*
X024990Y004655D01*
X025128Y004713D01*
X025234Y004818D01*
X025291Y004957D01*
X025291Y005106D01*
X025234Y005245D01*
X025128Y005350D01*
X024990Y005408D01*
X024840Y005408D01*
X024702Y005350D01*
X024596Y005245D01*
X024539Y005102D02*
X024504Y005102D01*
X024498Y004943D02*
X024545Y004943D01*
X024630Y004785D02*
X024413Y004785D01*
X023843Y004785D02*
X023626Y004785D01*
X023711Y004943D02*
X023757Y004943D01*
X023752Y005102D02*
X023717Y005102D01*
X023644Y005260D02*
X023825Y005260D01*
X023819Y005736D02*
X023593Y005736D01*
X023697Y005894D02*
X023730Y005894D01*
X023761Y006211D02*
X023667Y006211D01*
X023468Y006370D02*
X023907Y006370D01*
X024128Y006370D02*
X024128Y006370D01*
X024128Y006211D02*
X024128Y006211D01*
X024128Y006053D02*
X024128Y006053D01*
X024128Y005894D02*
X024128Y005894D01*
X024495Y006211D02*
X024548Y006211D01*
X024695Y006370D02*
X024348Y006370D01*
X025283Y006211D02*
X025309Y006211D01*
X025309Y005736D02*
X025224Y005736D01*
X025309Y005577D02*
X023167Y005577D01*
X023167Y005419D02*
X025309Y005419D01*
X025309Y005260D02*
X025219Y005260D01*
X025291Y005102D02*
X025309Y005102D01*
X025309Y004943D02*
X025286Y004943D01*
X025309Y004785D02*
X025200Y004785D01*
X025309Y004626D02*
X023167Y004626D01*
X023167Y004468D02*
X025309Y004468D01*
X025309Y004309D02*
X023167Y004309D01*
X023167Y004150D02*
X025309Y004150D01*
X025309Y003992D02*
X023167Y003992D01*
X023167Y003833D02*
X025309Y003833D01*
X025309Y003675D02*
X024657Y003675D01*
X024608Y003695D02*
X024435Y003695D01*
X024275Y003629D01*
X024153Y003506D01*
X024086Y003346D01*
X024086Y003173D01*
X024153Y003013D01*
X024275Y002891D01*
X024435Y002825D01*
X024608Y002825D01*
X024768Y002891D01*
X024891Y003013D01*
X024957Y003173D01*
X024957Y003346D01*
X024891Y003506D01*
X024768Y003629D01*
X024608Y003695D01*
X024386Y003675D02*
X023167Y003675D01*
X023167Y003516D02*
X024162Y003516D01*
X024091Y003358D02*
X023167Y003358D01*
X023167Y003199D02*
X024086Y003199D01*
X024141Y003041D02*
X023167Y003041D01*
X023167Y002882D02*
X024296Y002882D01*
X024747Y002882D02*
X025309Y002882D01*
X025309Y002724D02*
X023115Y002724D01*
X022947Y002866D02*
X022159Y002079D01*
X021766Y002079D01*
X021510Y002335D01*
X021510Y002531D01*
X021865Y002406D02*
X022176Y002406D01*
X022183Y002565D02*
X022335Y002565D01*
X022353Y002724D02*
X022493Y002724D01*
X022398Y002882D02*
X022652Y002882D01*
X022727Y003041D02*
X022373Y003041D01*
X022260Y003199D02*
X022727Y003199D01*
X022727Y003358D02*
X022297Y003358D01*
X022388Y003516D02*
X022727Y003516D01*
X022727Y003675D02*
X022398Y003675D01*
X022334Y003833D02*
X022727Y003833D01*
X022727Y003992D02*
X021886Y003992D01*
X021850Y004150D02*
X022727Y004150D01*
X022727Y004309D02*
X021718Y004309D01*
X021474Y004626D02*
X022727Y004626D01*
X022727Y004468D02*
X021316Y004468D01*
X021301Y004309D02*
X021157Y004309D01*
X021167Y004150D02*
X021170Y004150D01*
X020899Y003831D02*
X020899Y003830D01*
X020483Y003830D01*
X020483Y003798D01*
X020494Y003733D01*
X020514Y003671D01*
X020538Y003623D01*
X020431Y003579D01*
X020325Y003473D01*
X020267Y003335D01*
X020267Y003185D01*
X020325Y003047D01*
X020431Y002941D01*
X020569Y002884D01*
X020573Y002884D01*
X020523Y002764D01*
X020523Y002722D01*
X020493Y002692D01*
X020282Y002692D01*
X020017Y002957D01*
X020017Y003956D01*
X020282Y004221D01*
X020754Y004221D01*
X020740Y004216D01*
X020681Y004187D01*
X020628Y004148D01*
X020582Y004102D01*
X020544Y004049D01*
X020514Y003990D01*
X020494Y003928D01*
X020483Y003863D01*
X020483Y003831D01*
X020899Y003831D01*
X020483Y003833D02*
X020017Y003833D01*
X020017Y003675D02*
X020512Y003675D01*
X020368Y003516D02*
X020017Y003516D01*
X020017Y003358D02*
X020277Y003358D01*
X020267Y003199D02*
X020017Y003199D01*
X020017Y003041D02*
X020331Y003041D01*
X020092Y002882D02*
X020572Y002882D01*
X020523Y002724D02*
X020251Y002724D01*
X020191Y002472D02*
X019797Y002866D01*
X019797Y004047D01*
X020191Y004441D01*
X020978Y004441D01*
X021372Y004835D01*
X021372Y005622D01*
X021766Y006016D01*
X021893Y006370D02*
X022425Y006370D01*
X022516Y006529D02*
X019230Y006529D01*
X019230Y006687D02*
X020842Y006687D01*
X020684Y006846D02*
X019363Y006846D01*
X019522Y007004D02*
X020525Y007004D01*
X020367Y007163D02*
X019680Y007163D01*
X019820Y007321D02*
X019908Y007321D01*
X019854Y007480D02*
X019820Y007480D01*
X019820Y007638D02*
X019854Y007638D01*
X019854Y007797D02*
X019820Y007797D01*
X019820Y007955D02*
X019885Y007955D01*
X020191Y007650D02*
X021037Y006803D01*
X022553Y006803D01*
X022947Y006409D01*
X022947Y002866D01*
X022957Y002565D02*
X025309Y002565D01*
X025309Y002406D02*
X022798Y002406D01*
X022640Y002248D02*
X025309Y002248D01*
X025309Y002089D02*
X022481Y002089D01*
X022323Y001931D02*
X025309Y001931D01*
X025309Y001772D02*
X018616Y001772D01*
X018616Y001614D02*
X025309Y001614D01*
X025309Y001455D02*
X018618Y001455D01*
X018709Y001297D02*
X025309Y001297D01*
X025309Y001138D02*
X018852Y001138D01*
X019034Y000980D02*
X025309Y000980D01*
X025703Y000980D02*
X033184Y000980D01*
X033266Y000898D02*
X025703Y000898D01*
X025703Y004655D01*
X025778Y004655D01*
X025876Y004696D01*
X025876Y002381D01*
X026005Y002252D01*
X026793Y001465D01*
X026975Y001465D01*
X028156Y001465D01*
X028285Y001594D01*
X028816Y002125D01*
X028816Y002219D01*
X028915Y002318D01*
X028973Y002457D01*
X028973Y002554D01*
X029033Y002529D01*
X029183Y002529D01*
X029321Y002587D01*
X029420Y002686D01*
X030690Y002686D01*
X031674Y001702D01*
X031674Y001620D01*
X031724Y001499D01*
X031816Y001407D01*
X031937Y001357D01*
X032067Y001357D01*
X032188Y001407D01*
X032280Y001499D01*
X032330Y001620D01*
X032330Y001750D01*
X032280Y001871D01*
X032188Y001963D01*
X032067Y002013D01*
X031985Y002013D01*
X030873Y003125D01*
X030690Y003125D01*
X029420Y003125D01*
X029321Y003224D01*
X029236Y003260D01*
X029321Y003295D01*
X029427Y003401D01*
X029484Y003539D01*
X029484Y003689D01*
X029427Y003827D01*
X029321Y003933D01*
X029183Y003990D01*
X029033Y003990D01*
X029013Y003982D01*
X029013Y003988D01*
X028597Y003988D01*
X028597Y003988D01*
X029013Y003988D01*
X029013Y004021D01*
X029002Y004086D01*
X028982Y004148D01*
X028952Y004206D01*
X028914Y004259D01*
X028868Y004306D01*
X028814Y004344D01*
X028756Y004374D01*
X028694Y004394D01*
X028629Y004404D01*
X028597Y004404D01*
X028597Y003989D01*
X028596Y003989D01*
X028596Y004404D01*
X028564Y004404D01*
X028499Y004394D01*
X028437Y004374D01*
X028378Y004344D01*
X028325Y004306D01*
X028279Y004259D01*
X028240Y004206D01*
X028223Y004173D01*
X028204Y004187D01*
X028146Y004216D01*
X028084Y004237D01*
X028019Y004247D01*
X027986Y004247D01*
X027953Y004247D01*
X027889Y004237D01*
X027826Y004216D01*
X027768Y004187D01*
X027715Y004148D01*
X027669Y004102D01*
X027630Y004049D01*
X027600Y003990D01*
X027580Y003928D01*
X027570Y003863D01*
X027570Y003831D01*
X027986Y003831D01*
X027986Y004247D01*
X027986Y003831D01*
X027986Y003831D01*
X027986Y003830D01*
X027570Y003830D01*
X027570Y003798D01*
X027580Y003733D01*
X027600Y003671D01*
X027625Y003623D01*
X027517Y003579D01*
X027411Y003473D01*
X027354Y003335D01*
X027354Y003185D01*
X027411Y003047D01*
X027517Y002941D01*
X027594Y002909D01*
X027546Y002909D01*
X027104Y003351D01*
X027104Y003956D01*
X027762Y004615D01*
X033726Y004615D01*
X033785Y004556D01*
X033905Y004507D01*
X034036Y004507D01*
X034156Y004556D01*
X034249Y004649D01*
X034298Y004769D01*
X034298Y004900D01*
X034254Y005008D01*
X034667Y005008D01*
X035325Y004350D01*
X035391Y004284D01*
X035366Y004259D01*
X035327Y004206D01*
X035310Y004173D01*
X035291Y004187D01*
X035233Y004216D01*
X035170Y004237D01*
X035106Y004247D01*
X035073Y004247D01*
X035073Y003831D01*
X035073Y003831D01*
X035545Y003260D01*
X035546Y003260D02*
X035961Y003260D01*
X035961Y003293D01*
X035957Y003320D01*
X035982Y003295D01*
X036067Y003260D01*
X035982Y003224D01*
X035957Y003200D01*
X035961Y003227D01*
X035961Y003260D01*
X035546Y003260D01*
X035546Y003260D01*
X036195Y002906D02*
X036766Y002906D01*
X037120Y003260D01*
X037120Y004047D01*
X037514Y004441D01*
X037514Y005031D01*
X037041Y005504D01*
X035270Y005504D01*
X034758Y006016D01*
X033970Y006016D01*
X033577Y006409D01*
X033577Y007925D01*
X033183Y008319D01*
X032846Y008273D02*
X032359Y008273D01*
X032339Y008431D02*
X032846Y008431D01*
X032846Y008590D02*
X032339Y008590D01*
X032002Y008319D02*
X032396Y007925D01*
X032396Y006016D01*
X033183Y005228D01*
X034758Y005228D01*
X035545Y004441D01*
X036333Y004441D01*
X036726Y004835D01*
X036726Y005031D01*
X037011Y004785D02*
X037229Y004785D01*
X037195Y004818D02*
X037294Y004719D01*
X037294Y004532D01*
X036900Y004138D01*
X036900Y003956D01*
X036900Y003351D01*
X036675Y003125D01*
X036507Y003125D01*
X036408Y003224D01*
X036322Y003260D01*
X036408Y003295D01*
X036514Y003401D01*
X036571Y003539D01*
X036571Y003689D01*
X036514Y003827D01*
X036408Y003933D01*
X036270Y003990D01*
X036120Y003990D01*
X036099Y003982D01*
X036099Y003988D01*
X035683Y003988D01*
X035683Y003988D01*
X036099Y003988D01*
X036099Y004021D01*
X036089Y004086D01*
X036069Y004148D01*
X036039Y004206D01*
X036028Y004221D01*
X036241Y004221D01*
X036424Y004221D01*
X036817Y004615D01*
X036898Y004696D01*
X036939Y004713D01*
X037045Y004818D01*
X037102Y004957D01*
X037102Y005106D01*
X037085Y005149D01*
X037137Y005097D01*
X037137Y004957D01*
X037195Y004818D01*
X037143Y004943D02*
X037097Y004943D01*
X037102Y005102D02*
X037132Y005102D01*
X037294Y004626D02*
X036829Y004626D01*
X036670Y004468D02*
X037229Y004468D01*
X037071Y004309D02*
X036512Y004309D01*
X036912Y004150D02*
X036067Y004150D01*
X036099Y003992D02*
X036900Y003992D01*
X036900Y003833D02*
X036508Y003833D01*
X036571Y003675D02*
X036900Y003675D01*
X036900Y003516D02*
X036561Y003516D01*
X036470Y003358D02*
X036900Y003358D01*
X036748Y003199D02*
X036433Y003199D01*
X037682Y002724D02*
X038475Y002724D01*
X038475Y002880D02*
X038475Y001776D01*
X037816Y001118D01*
X033668Y001118D01*
X031875Y002911D01*
X031977Y003013D01*
X032043Y003173D01*
X032043Y003346D01*
X031977Y003506D01*
X031855Y003629D01*
X031695Y003695D01*
X031522Y003695D01*
X031362Y003629D01*
X031239Y003506D01*
X031173Y003346D01*
X031173Y003173D01*
X031239Y003013D01*
X031362Y002891D01*
X031388Y002880D01*
X031388Y002775D01*
X033266Y000898D01*
X033577Y000898D02*
X037907Y000898D01*
X038695Y001685D01*
X038695Y003260D01*
X039679Y003260D01*
X041451Y005031D01*
X041736Y004785D02*
X041953Y004785D01*
X041919Y004818D02*
X042025Y004713D01*
X042150Y004661D01*
X041753Y004661D01*
X041624Y004532D01*
X040837Y003745D01*
X040837Y003562D01*
X040837Y002775D01*
X040966Y002646D01*
X041360Y002252D01*
X041542Y002252D01*
X042034Y002252D01*
X042094Y002313D01*
X042234Y002313D01*
X042372Y002370D01*
X042413Y002410D01*
X042451Y002318D01*
X042556Y002213D01*
X042598Y002196D01*
X042678Y002115D01*
X042806Y001988D01*
X042934Y001859D01*
X043328Y001859D01*
X043510Y001859D01*
X045873Y004221D01*
X046001Y004350D01*
X046001Y007293D01*
X046036Y007293D01*
X046118Y007375D01*
X046118Y007924D01*
X046058Y007984D01*
X046118Y008044D01*
X046118Y008593D01*
X046036Y008675D01*
X045527Y008675D01*
X045445Y008593D01*
X045445Y008539D01*
X044937Y008539D01*
X044937Y008593D01*
X044898Y008633D01*
X044928Y008706D01*
X044928Y008837D01*
X044878Y008957D01*
X044786Y009050D01*
X044666Y009100D01*
X044535Y009100D01*
X044414Y009050D01*
X044322Y008957D01*
X044272Y008837D01*
X044272Y008706D01*
X044303Y008633D01*
X044263Y008593D01*
X044263Y008044D01*
X044296Y008012D01*
X044293Y008010D01*
X044259Y007977D01*
X044236Y007936D01*
X044223Y007890D01*
X044223Y007668D01*
X044582Y007668D01*
X044582Y007631D01*
X044619Y007631D01*
X044619Y007668D01*
X044977Y007668D01*
X044977Y007890D01*
X044965Y007936D01*
X044941Y007977D01*
X044908Y008010D01*
X044905Y008012D01*
X044937Y008044D01*
X044937Y008099D01*
X045445Y008099D01*
X045445Y008044D01*
X045505Y007984D01*
X045445Y007924D01*
X045445Y007375D01*
X045527Y007293D01*
X045561Y007293D01*
X045561Y007180D01*
X045347Y007180D01*
X045347Y006822D01*
X045310Y006822D01*
X045310Y007180D01*
X045088Y007180D01*
X045043Y007168D01*
X045002Y007144D01*
X044968Y007111D01*
X044966Y007107D01*
X044934Y007140D01*
X044385Y007140D01*
X044008Y007140D01*
X044033Y007165D01*
X044033Y007347D01*
X043756Y007624D01*
X043756Y007924D01*
X043696Y007984D01*
X043756Y008044D01*
X043756Y008593D01*
X043717Y008633D01*
X043747Y008706D01*
X043747Y008837D01*
X043697Y008957D01*
X043605Y009050D01*
X043484Y009100D01*
X043354Y009100D01*
X043233Y009050D01*
X043141Y008957D01*
X043091Y008837D01*
X043091Y008706D01*
X043122Y008633D01*
X043082Y008593D01*
X043082Y008044D01*
X043142Y007984D01*
X043082Y007924D01*
X043082Y007375D01*
X043164Y007293D01*
X043465Y007293D01*
X043618Y007140D01*
X043204Y007140D01*
X043164Y007101D01*
X043091Y007131D01*
X042960Y007131D01*
X042840Y007081D01*
X042747Y006989D01*
X042697Y006868D01*
X042697Y006738D01*
X042747Y006617D01*
X042840Y006525D01*
X042960Y006475D01*
X043091Y006475D01*
X043164Y006506D01*
X043204Y006466D01*
X043593Y006466D01*
X043593Y005713D01*
X043233Y005353D01*
X043100Y005408D01*
X042951Y005408D01*
X042812Y005350D01*
X042707Y005245D01*
X042649Y005106D01*
X042649Y004957D01*
X042704Y004824D01*
X042541Y004661D01*
X042326Y004661D01*
X042451Y004713D01*
X042557Y004818D01*
X042614Y004957D01*
X042614Y005106D01*
X042557Y005245D01*
X042451Y005350D01*
X042313Y005408D01*
X042163Y005408D01*
X042025Y005350D01*
X041919Y005245D01*
X041862Y005106D01*
X041862Y004957D01*
X041919Y004818D01*
X041867Y004943D02*
X041821Y004943D01*
X041827Y005102D02*
X041862Y005102D01*
X041935Y005260D02*
X041754Y005260D01*
X041147Y005260D02*
X040967Y005260D01*
X041039Y005102D02*
X041074Y005102D01*
X041051Y004943D02*
X041034Y004943D01*
X040378Y004785D02*
X040161Y004785D01*
X040246Y004943D02*
X040293Y004943D01*
X040287Y005102D02*
X040252Y005102D01*
X040179Y005260D02*
X040360Y005260D01*
X039876Y005031D02*
X039876Y004835D01*
X039482Y004441D01*
X039089Y004441D01*
X036333Y001685D01*
X035151Y001685D01*
X034364Y002472D01*
X034364Y002807D01*
X034817Y003260D01*
X034758Y003260D01*
X034450Y003358D02*
X032039Y003358D01*
X032043Y003199D02*
X034441Y003199D01*
X034441Y003195D02*
X034273Y003027D01*
X034144Y002898D01*
X034144Y002564D01*
X034144Y002381D01*
X034931Y001594D01*
X035060Y001465D01*
X036241Y001465D01*
X036424Y001465D01*
X038260Y003301D01*
X038260Y003173D01*
X038326Y003013D01*
X038448Y002891D01*
X038475Y002880D01*
X038469Y002882D02*
X037841Y002882D01*
X037999Y003041D02*
X038314Y003041D01*
X038260Y003199D02*
X038158Y003199D01*
X038830Y003675D02*
X039783Y003675D01*
X039941Y003833D02*
X038792Y003833D01*
X038951Y003992D02*
X040100Y003992D01*
X040259Y004150D02*
X039109Y004150D01*
X039661Y004309D02*
X040417Y004309D01*
X040576Y004468D02*
X039820Y004468D01*
X039978Y004626D02*
X040734Y004626D01*
X041039Y004309D02*
X041401Y004309D01*
X041243Y004150D02*
X040881Y004150D01*
X040722Y003992D02*
X041084Y003992D01*
X040926Y003833D02*
X040564Y003833D01*
X040405Y003675D02*
X040837Y003675D01*
X040837Y003516D02*
X040247Y003516D01*
X040088Y003358D02*
X040837Y003358D01*
X040837Y003199D02*
X039929Y003199D01*
X039771Y003041D02*
X040837Y003041D01*
X040837Y002882D02*
X038920Y002882D01*
X038915Y002724D02*
X040888Y002724D01*
X041057Y002866D02*
X041057Y003654D01*
X041844Y004441D01*
X042632Y004441D01*
X043026Y004835D01*
X043026Y005031D01*
X043222Y005031D01*
X043813Y005622D01*
X043813Y006409D01*
X043593Y006370D02*
X043153Y006370D01*
X043352Y006211D02*
X043593Y006211D01*
X043593Y006053D02*
X043402Y006053D01*
X043382Y005894D02*
X043593Y005894D01*
X043593Y005736D02*
X043278Y005736D01*
X043457Y005577D02*
X038915Y005577D01*
X038915Y005419D02*
X043299Y005419D01*
X043604Y005102D02*
X045561Y005102D01*
X045561Y005260D02*
X043762Y005260D01*
X043904Y005402D02*
X044033Y005531D01*
X044033Y005929D01*
X044141Y005884D01*
X044272Y005884D01*
X044392Y005934D01*
X044485Y006027D01*
X044535Y006147D01*
X044535Y006278D01*
X044485Y006398D01*
X044427Y006457D01*
X044427Y006466D01*
X044934Y006466D01*
X044966Y006499D01*
X044968Y006496D01*
X045002Y006462D01*
X045043Y006439D01*
X045088Y006426D01*
X045310Y006426D01*
X045310Y006784D01*
X045347Y006784D01*
X045347Y006426D01*
X045561Y006426D01*
X045561Y004532D01*
X043328Y002299D01*
X043117Y002299D01*
X043091Y002324D01*
X043146Y002457D01*
X043146Y002554D01*
X043207Y002529D01*
X043356Y002529D01*
X043494Y002587D01*
X043600Y002692D01*
X043658Y002831D01*
X043658Y002980D01*
X043600Y003119D01*
X043494Y003224D01*
X043409Y003260D01*
X043494Y003295D01*
X043600Y003401D01*
X043658Y003539D01*
X043658Y003689D01*
X043600Y003827D01*
X043494Y003933D01*
X043356Y003990D01*
X043207Y003990D01*
X043186Y003982D01*
X043186Y003988D01*
X042770Y003988D01*
X042770Y003988D01*
X043186Y003988D01*
X043186Y004021D01*
X043176Y004086D01*
X043155Y004148D01*
X043126Y004206D01*
X043087Y004259D01*
X043041Y004306D01*
X042988Y004344D01*
X042929Y004374D01*
X042889Y004387D01*
X043117Y004615D01*
X043198Y004696D01*
X043239Y004713D01*
X043344Y004818D01*
X043361Y004859D01*
X043904Y005402D01*
X043904Y005402D01*
X043921Y005419D02*
X045561Y005419D01*
X045561Y005577D02*
X044033Y005577D01*
X044033Y005736D02*
X045561Y005736D01*
X045561Y005894D02*
X044296Y005894D01*
X044117Y005894D02*
X044033Y005894D01*
X044207Y006213D02*
X044207Y006744D01*
X044148Y006803D01*
X044659Y006803D01*
X044619Y007253D02*
X044821Y007253D01*
X044867Y007265D01*
X044908Y007289D01*
X044941Y007323D01*
X044965Y007364D01*
X044977Y007409D01*
X044977Y007631D01*
X044619Y007631D01*
X044619Y007253D01*
X044582Y007253D02*
X044582Y007631D01*
X044223Y007631D01*
X044223Y007409D01*
X044236Y007364D01*
X044259Y007323D01*
X044293Y007289D01*
X044334Y007265D01*
X044380Y007253D01*
X044582Y007253D01*
X044582Y007321D02*
X044619Y007321D01*
X044619Y007480D02*
X044582Y007480D01*
X044582Y007638D02*
X043756Y007638D01*
X043756Y007797D02*
X044223Y007797D01*
X044247Y007955D02*
X043725Y007955D01*
X043756Y008114D02*
X044263Y008114D01*
X044263Y008273D02*
X043756Y008273D01*
X043756Y008431D02*
X044263Y008431D01*
X044263Y008590D02*
X043756Y008590D01*
X043747Y008748D02*
X044272Y008748D01*
X044301Y008907D02*
X043718Y008907D01*
X043568Y009065D02*
X044452Y009065D01*
X044749Y009065D02*
X045788Y009065D01*
X045957Y008907D02*
X044899Y008907D01*
X044928Y008748D02*
X046092Y008748D01*
X046118Y008590D02*
X046175Y008590D01*
X046175Y008431D02*
X046118Y008431D01*
X046118Y008273D02*
X046175Y008273D01*
X046175Y008114D02*
X046118Y008114D01*
X046087Y007955D02*
X046175Y007955D01*
X046175Y007797D02*
X046118Y007797D01*
X046118Y007638D02*
X046175Y007638D01*
X046175Y007480D02*
X046118Y007480D01*
X046064Y007321D02*
X046175Y007321D01*
X046175Y007163D02*
X046001Y007163D01*
X046001Y007004D02*
X046175Y007004D01*
X046175Y006846D02*
X046001Y006846D01*
X046001Y006687D02*
X046175Y006687D01*
X046175Y006529D02*
X046001Y006529D01*
X046001Y006370D02*
X046175Y006370D01*
X046175Y006211D02*
X046001Y006211D01*
X046001Y006053D02*
X046175Y006053D01*
X046175Y005894D02*
X046001Y005894D01*
X046001Y005736D02*
X046175Y005736D01*
X046175Y005577D02*
X046001Y005577D01*
X046001Y005419D02*
X046175Y005419D01*
X046175Y005260D02*
X046001Y005260D01*
X046001Y005102D02*
X046175Y005102D01*
X046175Y004943D02*
X046001Y004943D01*
X046001Y004785D02*
X046175Y004785D01*
X046175Y004626D02*
X046001Y004626D01*
X046001Y004468D02*
X046175Y004468D01*
X046175Y004309D02*
X045961Y004309D01*
X045781Y004441D02*
X045781Y007650D01*
X045445Y007638D02*
X044619Y007638D01*
X044977Y007480D02*
X045445Y007480D01*
X045498Y007321D02*
X044940Y007321D01*
X045034Y007163D02*
X044031Y007163D01*
X044033Y007321D02*
X044261Y007321D01*
X044223Y007480D02*
X043900Y007480D01*
X043813Y007256D02*
X043419Y007650D01*
X043082Y007638D02*
X042589Y007638D01*
X042540Y007519D02*
X042309Y007289D01*
X042008Y007164D01*
X041681Y007164D01*
X041380Y007289D01*
X041149Y007519D01*
X041024Y007821D01*
X041024Y008147D01*
X041149Y008449D01*
X041380Y008680D01*
X041681Y008805D01*
X042008Y008805D01*
X042309Y008680D01*
X042540Y008449D01*
X042665Y008147D01*
X042665Y007821D01*
X042540Y007519D01*
X042500Y007480D02*
X043082Y007480D01*
X043136Y007321D02*
X042342Y007321D01*
X042655Y007797D02*
X043082Y007797D01*
X043114Y007955D02*
X042665Y007955D01*
X042665Y008114D02*
X043082Y008114D01*
X043082Y008273D02*
X042613Y008273D01*
X042547Y008431D02*
X043082Y008431D01*
X043082Y008590D02*
X042399Y008590D01*
X042144Y008748D02*
X043091Y008748D01*
X043120Y008907D02*
X039658Y008907D01*
X039500Y009065D02*
X043271Y009065D01*
X043419Y008772D02*
X043419Y008319D01*
X044600Y008319D02*
X044600Y008772D01*
X044937Y008590D02*
X045445Y008590D01*
X045781Y008319D02*
X044600Y008319D01*
X044953Y007955D02*
X045476Y007955D01*
X045445Y007797D02*
X044977Y007797D01*
X045310Y007163D02*
X045347Y007163D01*
X045347Y007004D02*
X045310Y007004D01*
X045310Y006846D02*
X045347Y006846D01*
X045347Y006687D02*
X045310Y006687D01*
X045310Y006529D02*
X045347Y006529D01*
X045561Y006370D02*
X044496Y006370D01*
X044535Y006211D02*
X045561Y006211D01*
X045561Y006053D02*
X044496Y006053D01*
X043478Y006803D02*
X043026Y006803D01*
X042718Y006687D02*
X042665Y006687D01*
X042697Y006846D02*
X042507Y006846D01*
X042348Y007004D02*
X042763Y007004D01*
X042824Y006529D02*
X042836Y006529D01*
X043026Y006016D02*
X042238Y006803D01*
X041451Y006803D01*
X039089Y009165D01*
X030486Y009165D01*
X029640Y008319D01*
X028459Y008319D01*
X028122Y008114D02*
X027614Y008114D01*
X027583Y007955D02*
X028153Y007955D01*
X028122Y007797D02*
X027614Y007797D01*
X027614Y007638D02*
X028122Y007638D01*
X028122Y007480D02*
X027614Y007480D01*
X027561Y007321D02*
X028175Y007321D01*
X028239Y007163D02*
X027497Y007163D01*
X027497Y007004D02*
X028239Y007004D01*
X028239Y006846D02*
X027497Y006846D01*
X027497Y006687D02*
X028263Y006687D01*
X028422Y006529D02*
X027497Y006529D01*
X027497Y006370D02*
X028581Y006370D01*
X028739Y006211D02*
X027497Y006211D01*
X027497Y006053D02*
X028898Y006053D01*
X029056Y005894D02*
X027497Y005894D01*
X027497Y005736D02*
X031426Y005736D01*
X031608Y006016D02*
X029246Y006016D01*
X028459Y006803D01*
X028459Y007650D01*
X028795Y007638D02*
X029621Y007638D01*
X029658Y007638D02*
X030484Y007638D01*
X030484Y007480D02*
X030016Y007480D01*
X029979Y007321D02*
X030538Y007321D01*
X030601Y007163D02*
X028679Y007163D01*
X028679Y007004D02*
X030702Y007004D01*
X030861Y006846D02*
X028727Y006846D01*
X028886Y006687D02*
X030907Y006687D01*
X031025Y006529D02*
X029044Y006529D01*
X029203Y006370D02*
X032176Y006370D01*
X032176Y006211D02*
X031876Y006211D01*
X031936Y006053D02*
X032176Y006053D01*
X032206Y005894D02*
X031913Y005894D01*
X031790Y005736D02*
X032364Y005736D01*
X032523Y005577D02*
X027497Y005577D01*
X027497Y005419D02*
X032681Y005419D01*
X032840Y005260D02*
X027497Y005260D01*
X027497Y005102D02*
X032999Y005102D01*
X033145Y005577D02*
X034885Y005577D01*
X034878Y005419D02*
X035044Y005419D01*
X035037Y005260D02*
X035636Y005260D01*
X035563Y005102D02*
X035196Y005102D01*
X035354Y004943D02*
X035568Y004943D01*
X035513Y004785D02*
X035654Y004785D01*
X035207Y004468D02*
X027615Y004468D01*
X027457Y004309D02*
X028330Y004309D01*
X028596Y004309D02*
X028597Y004309D01*
X028596Y004150D02*
X028597Y004150D01*
X028596Y003992D02*
X028597Y003992D01*
X028863Y004309D02*
X035366Y004309D01*
X035073Y004247D02*
X035040Y004247D01*
X034975Y004237D01*
X034913Y004216D01*
X034855Y004187D01*
X034802Y004148D01*
X034755Y004102D01*
X034717Y004049D01*
X034687Y003990D01*
X034667Y003928D01*
X034657Y003863D01*
X034657Y003831D01*
X035072Y003831D01*
X035072Y003830D01*
X034657Y003830D01*
X034657Y003798D01*
X034667Y003733D01*
X034687Y003671D01*
X034711Y003623D01*
X034604Y003579D01*
X034498Y003473D01*
X034441Y003335D01*
X034441Y003195D01*
X034287Y003041D02*
X031988Y003041D01*
X031903Y002882D02*
X034144Y002882D01*
X034144Y002724D02*
X032062Y002724D01*
X032220Y002565D02*
X034144Y002565D01*
X034144Y002406D02*
X032379Y002406D01*
X032537Y002248D02*
X034277Y002248D01*
X034436Y002089D02*
X032696Y002089D01*
X032855Y001931D02*
X034595Y001931D01*
X034753Y001772D02*
X033013Y001772D01*
X033172Y001614D02*
X034912Y001614D01*
X035545Y002079D02*
X035073Y002551D01*
X035073Y002689D01*
X035545Y002079D02*
X036333Y002079D01*
X039089Y004835D01*
X039089Y005031D01*
X039374Y004785D02*
X039515Y004785D01*
X039505Y004943D02*
X039459Y004943D01*
X039465Y005102D02*
X039500Y005102D01*
X039573Y005260D02*
X039392Y005260D01*
X039341Y005736D02*
X039624Y005736D01*
X039519Y005894D02*
X039445Y005894D01*
X039465Y006053D02*
X039500Y006053D01*
X039550Y006211D02*
X039415Y006211D01*
X039216Y006370D02*
X039748Y006370D01*
X040004Y006370D02*
X040443Y006370D01*
X040296Y006211D02*
X040202Y006211D01*
X040233Y005894D02*
X040265Y005894D01*
X040355Y005736D02*
X040128Y005736D01*
X040663Y005736D02*
X040663Y005736D01*
X040663Y005894D02*
X040663Y005894D01*
X040664Y006016D02*
X041079Y006016D01*
X041450Y006016D01*
X041450Y006432D01*
X041418Y006432D01*
X041353Y006422D01*
X041291Y006401D01*
X041233Y006372D01*
X041180Y006333D01*
X041133Y006287D01*
X041095Y006234D01*
X041065Y006176D01*
X041057Y006151D01*
X041049Y006176D01*
X041019Y006234D01*
X040981Y006287D01*
X040934Y006333D01*
X040881Y006372D01*
X040823Y006401D01*
X040761Y006422D01*
X040696Y006432D01*
X040663Y006432D01*
X040663Y006016D01*
X040663Y006053D02*
X040663Y006053D01*
X040663Y006211D02*
X040663Y006211D01*
X040663Y006370D02*
X040663Y006370D01*
X040884Y006370D02*
X041230Y006370D01*
X041083Y006211D02*
X041031Y006211D01*
X041450Y006211D02*
X041451Y006211D01*
X041450Y006053D02*
X041451Y006053D01*
X041450Y005894D02*
X041451Y005894D01*
X041450Y005736D02*
X041451Y005736D01*
X041759Y005736D02*
X041986Y005736D01*
X041881Y005894D02*
X041849Y005894D01*
X041818Y006211D02*
X041912Y006211D01*
X042110Y006370D02*
X041671Y006370D01*
X041451Y006370D02*
X041450Y006370D01*
X041256Y006687D02*
X038728Y006687D01*
X038570Y006846D02*
X041097Y006846D01*
X040939Y007004D02*
X038411Y007004D01*
X038301Y006803D02*
X038695Y006409D01*
X038695Y005425D01*
X038301Y005031D01*
X038915Y006370D02*
X038961Y006370D01*
X038887Y006529D02*
X042202Y006529D01*
X042614Y006053D02*
X042649Y006053D01*
X042669Y005894D02*
X042595Y005894D01*
X042490Y005736D02*
X042773Y005736D01*
X042722Y005260D02*
X042541Y005260D01*
X042614Y005102D02*
X042649Y005102D01*
X042655Y004943D02*
X042609Y004943D01*
X042664Y004785D02*
X042523Y004785D01*
X042969Y004468D02*
X045497Y004468D01*
X045561Y004626D02*
X043128Y004626D01*
X043311Y004785D02*
X045561Y004785D01*
X045561Y004943D02*
X043445Y004943D01*
X043036Y004309D02*
X045338Y004309D01*
X045180Y004150D02*
X043154Y004150D01*
X043186Y003992D02*
X045021Y003992D01*
X044863Y003833D02*
X043594Y003833D01*
X043658Y003675D02*
X044704Y003675D01*
X044546Y003516D02*
X043648Y003516D01*
X043557Y003358D02*
X044387Y003358D01*
X044229Y003199D02*
X043520Y003199D01*
X043633Y003041D02*
X044070Y003041D01*
X043911Y002882D02*
X043658Y002882D01*
X043613Y002724D02*
X043753Y002724D01*
X043594Y002565D02*
X043442Y002565D01*
X043436Y002406D02*
X043125Y002406D01*
X043026Y002079D02*
X042770Y002335D01*
X042770Y002531D01*
X042521Y002248D02*
X038915Y002248D01*
X038915Y002406D02*
X041206Y002406D01*
X041047Y002565D02*
X038915Y002565D01*
X038475Y002565D02*
X037524Y002565D01*
X037365Y002406D02*
X038475Y002406D01*
X038475Y002248D02*
X037207Y002248D01*
X037048Y002089D02*
X038475Y002089D01*
X038475Y001931D02*
X036889Y001931D01*
X036731Y001772D02*
X038471Y001772D01*
X038312Y001614D02*
X036572Y001614D01*
X037837Y001138D02*
X033647Y001138D01*
X033489Y001297D02*
X037995Y001297D01*
X038154Y001455D02*
X033330Y001455D01*
X033025Y001138D02*
X025703Y001138D01*
X025703Y001297D02*
X032867Y001297D01*
X032708Y001455D02*
X032236Y001455D01*
X032327Y001614D02*
X032549Y001614D01*
X032391Y001772D02*
X032321Y001772D01*
X032232Y001931D02*
X032220Y001931D01*
X032074Y002089D02*
X031909Y002089D01*
X031915Y002248D02*
X031750Y002248D01*
X031757Y002406D02*
X031592Y002406D01*
X031598Y002565D02*
X031433Y002565D01*
X031440Y002724D02*
X031274Y002724D01*
X031383Y002882D02*
X031116Y002882D01*
X031228Y003041D02*
X030957Y003041D01*
X030781Y002906D02*
X032002Y001685D01*
X031768Y001455D02*
X025703Y001455D01*
X025703Y001614D02*
X026644Y001614D01*
X026485Y001772D02*
X025703Y001772D01*
X025703Y001931D02*
X026327Y001931D01*
X026168Y002089D02*
X025703Y002089D01*
X025703Y002248D02*
X026010Y002248D01*
X025876Y002406D02*
X025703Y002406D01*
X025703Y002565D02*
X025876Y002565D01*
X025876Y002724D02*
X025703Y002724D01*
X025703Y002882D02*
X025876Y002882D01*
X025876Y003041D02*
X025703Y003041D01*
X025703Y003199D02*
X025876Y003199D01*
X025876Y003358D02*
X025703Y003358D01*
X025703Y003516D02*
X025876Y003516D01*
X025876Y003675D02*
X025703Y003675D01*
X025703Y003833D02*
X025876Y003833D01*
X025876Y003992D02*
X025703Y003992D01*
X025703Y004150D02*
X025876Y004150D01*
X025876Y004309D02*
X025703Y004309D01*
X025703Y004468D02*
X025876Y004468D01*
X025876Y004626D02*
X025703Y004626D01*
X026490Y004047D02*
X026490Y002866D01*
X027277Y002079D01*
X027671Y002079D01*
X028065Y001685D02*
X026884Y001685D01*
X026096Y002472D01*
X026096Y007591D01*
X026687Y008181D01*
X027277Y007650D02*
X027277Y004835D01*
X026490Y004047D01*
X026884Y004047D02*
X027671Y004835D01*
X033970Y004835D01*
X034281Y004943D02*
X034732Y004943D01*
X034890Y004785D02*
X034298Y004785D01*
X034226Y004626D02*
X035049Y004626D01*
X035073Y004247D02*
X035073Y003831D01*
X035073Y003833D02*
X035073Y003833D01*
X035073Y003992D02*
X035073Y003992D01*
X035073Y004150D02*
X035073Y004150D01*
X034805Y004150D02*
X028981Y004150D01*
X029013Y003992D02*
X034688Y003992D01*
X034657Y003833D02*
X029421Y003833D01*
X029484Y003675D02*
X031473Y003675D01*
X031744Y003675D02*
X034686Y003675D01*
X034541Y003516D02*
X031967Y003516D01*
X031608Y003260D02*
X031608Y002866D01*
X033577Y000898D01*
X031676Y001614D02*
X028305Y001614D01*
X028463Y001772D02*
X031604Y001772D01*
X031445Y001931D02*
X028622Y001931D01*
X028780Y002089D02*
X031286Y002089D01*
X031128Y002248D02*
X028845Y002248D01*
X028952Y002406D02*
X030969Y002406D01*
X030811Y002565D02*
X029269Y002565D01*
X028596Y002531D02*
X028596Y002217D01*
X028065Y001685D01*
X027986Y002689D02*
X027455Y002689D01*
X026884Y003260D01*
X026884Y004047D01*
X027140Y003992D02*
X027601Y003992D01*
X027570Y003833D02*
X027104Y003833D01*
X027104Y003675D02*
X027599Y003675D01*
X027455Y003516D02*
X027104Y003516D01*
X027104Y003358D02*
X027364Y003358D01*
X027354Y003199D02*
X027256Y003199D01*
X027414Y003041D02*
X027417Y003041D01*
X027986Y003833D02*
X027986Y003833D01*
X027986Y003992D02*
X027986Y003992D01*
X027986Y004150D02*
X027986Y004150D01*
X027718Y004150D02*
X027298Y004150D01*
X025309Y003516D02*
X024881Y003516D01*
X024952Y003358D02*
X025309Y003358D01*
X025309Y003199D02*
X024957Y003199D01*
X024902Y003041D02*
X025309Y003041D01*
X022268Y004785D02*
X022051Y004785D01*
X022136Y004943D02*
X022182Y004943D01*
X022177Y005102D02*
X022142Y005102D01*
X022069Y005260D02*
X022250Y005260D01*
X022727Y005419D02*
X021592Y005419D01*
X021638Y005577D02*
X022727Y005577D01*
X022301Y005736D02*
X022018Y005736D01*
X022123Y005894D02*
X022196Y005894D01*
X022177Y006053D02*
X022142Y006053D01*
X022092Y006211D02*
X022227Y006211D01*
X021638Y006370D02*
X021106Y006370D01*
X021304Y006211D02*
X021440Y006211D01*
X021389Y006053D02*
X021354Y006053D01*
X020851Y006370D02*
X020319Y006370D01*
X020266Y006392D02*
X020116Y006392D01*
X019978Y006335D01*
X019872Y006229D01*
X019815Y006091D01*
X019815Y005941D01*
X019872Y005803D01*
X019978Y005697D01*
X020116Y005640D01*
X020266Y005640D01*
X020404Y005697D01*
X020510Y005803D01*
X020567Y005941D01*
X020567Y006091D01*
X020510Y006229D01*
X020404Y006335D01*
X020266Y006392D01*
X020063Y006370D02*
X019531Y006370D01*
X019730Y006211D02*
X019865Y006211D01*
X019815Y006053D02*
X019780Y006053D01*
X019760Y005894D02*
X019834Y005894D01*
X019939Y005736D02*
X019656Y005736D01*
X019230Y005577D02*
X021152Y005577D01*
X021152Y005419D02*
X019327Y005419D01*
X019010Y005425D02*
X019403Y005031D01*
X019118Y004785D02*
X018616Y004785D01*
X018616Y004943D02*
X019033Y004943D01*
X019022Y005102D02*
X018616Y005102D01*
X018616Y005260D02*
X018864Y005260D01*
X018790Y005419D02*
X018616Y005419D01*
X018616Y005577D02*
X018790Y005577D01*
X018790Y005736D02*
X018616Y005736D01*
X018616Y005894D02*
X018790Y005894D01*
X018790Y006053D02*
X018616Y006053D01*
X018616Y006211D02*
X018790Y006211D01*
X018790Y006370D02*
X018616Y006370D01*
X018616Y006529D02*
X018790Y006529D01*
X018790Y006687D02*
X018616Y006687D01*
X018616Y006846D02*
X018790Y006846D01*
X018900Y007004D02*
X018616Y007004D01*
X018616Y007163D02*
X019058Y007163D01*
X019028Y007321D02*
X018991Y007321D01*
X018991Y007480D02*
X019028Y007480D01*
X018991Y007638D02*
X018616Y007638D01*
X018616Y007480D02*
X018633Y007480D01*
X018616Y007321D02*
X018670Y007321D01*
X018633Y007797D02*
X018616Y007797D01*
X018616Y007955D02*
X018657Y007955D01*
X018673Y008114D02*
X018616Y008114D01*
X018616Y008273D02*
X018673Y008273D01*
X018673Y008431D02*
X018616Y008431D01*
X018616Y008590D02*
X018673Y008590D01*
X018699Y008748D02*
X021072Y008748D01*
X021209Y008805D02*
X020907Y008680D01*
X020676Y008449D01*
X020551Y008147D01*
X020551Y007821D01*
X020676Y007519D01*
X020907Y007289D01*
X021209Y007164D01*
X021535Y007164D01*
X021837Y007289D01*
X022068Y007519D01*
X022192Y007821D01*
X022192Y008147D01*
X022068Y008449D01*
X021837Y008680D01*
X021535Y008805D01*
X021209Y008805D01*
X020817Y008590D02*
X020528Y008590D01*
X020528Y008431D02*
X020669Y008431D01*
X020603Y008273D02*
X020528Y008273D01*
X020528Y008114D02*
X020551Y008114D01*
X020551Y007955D02*
X020496Y007955D01*
X020528Y007797D02*
X020561Y007797D01*
X020528Y007638D02*
X020627Y007638D01*
X020672Y007480D02*
X020716Y007480D01*
X020830Y007321D02*
X020874Y007321D01*
X020989Y007163D02*
X025309Y007163D01*
X025309Y007321D02*
X025019Y007321D01*
X025178Y007480D02*
X025309Y007480D01*
X025309Y007638D02*
X025266Y007638D01*
X025290Y008273D02*
X025309Y008273D01*
X025309Y008431D02*
X025225Y008431D01*
X025309Y008590D02*
X025077Y008590D01*
X025309Y008748D02*
X024821Y008748D01*
X025309Y008907D02*
X018834Y008907D01*
X019003Y009065D02*
X025309Y009065D01*
X025703Y009065D02*
X030075Y009065D01*
X029916Y008907D02*
X025703Y008907D01*
X024222Y008748D02*
X021672Y008748D01*
X021927Y008590D02*
X023967Y008590D01*
X023819Y008431D02*
X022075Y008431D01*
X022141Y008273D02*
X023753Y008273D01*
X023701Y008114D02*
X022192Y008114D01*
X022192Y007955D02*
X023701Y007955D01*
X023711Y007797D02*
X022182Y007797D01*
X022117Y007638D02*
X023777Y007638D01*
X023866Y007480D02*
X022028Y007480D01*
X021869Y007321D02*
X024024Y007321D01*
X023139Y006529D02*
X025309Y006529D01*
X025309Y006687D02*
X022980Y006687D01*
X022822Y006846D02*
X025309Y006846D01*
X025309Y007004D02*
X022663Y007004D01*
X023167Y006370D02*
X023213Y006370D01*
X020652Y006211D02*
X020517Y006211D01*
X020567Y006053D02*
X020602Y006053D01*
X020621Y005894D02*
X020548Y005894D01*
X020443Y005736D02*
X020726Y005736D01*
X020675Y005260D02*
X020494Y005260D01*
X020567Y005102D02*
X020602Y005102D01*
X020608Y004943D02*
X020561Y004943D01*
X020476Y004785D02*
X020693Y004785D01*
X020065Y004626D02*
X018616Y004626D01*
X018616Y004468D02*
X019906Y004468D01*
X019748Y004309D02*
X018616Y004309D01*
X018616Y004150D02*
X019589Y004150D01*
X019577Y003992D02*
X018616Y003992D01*
X018616Y003833D02*
X019577Y003833D01*
X019577Y003675D02*
X018616Y003675D01*
X018616Y003516D02*
X019577Y003516D01*
X019577Y003358D02*
X018616Y003358D01*
X018616Y003199D02*
X019577Y003199D01*
X019577Y003041D02*
X018616Y003041D01*
X018616Y002882D02*
X019577Y002882D01*
X019629Y002724D02*
X018616Y002724D01*
X018616Y002565D02*
X019787Y002565D01*
X019946Y002406D02*
X018616Y002406D01*
X018616Y002248D02*
X021261Y002248D01*
X021154Y002406D02*
X021149Y002406D01*
X020900Y002689D02*
X020801Y002689D01*
X020585Y002472D01*
X020191Y002472D01*
X021444Y002089D02*
X018616Y002089D01*
X018616Y001931D02*
X021602Y001931D01*
X020515Y003992D02*
X020053Y003992D01*
X020211Y004150D02*
X020631Y004150D01*
X019906Y004785D02*
X019689Y004785D01*
X019774Y004943D02*
X019820Y004943D01*
X019815Y005102D02*
X019780Y005102D01*
X019707Y005260D02*
X019888Y005260D01*
X019010Y005425D02*
X019010Y006803D01*
X019600Y007394D01*
X019600Y008319D01*
X020191Y008319D01*
X019854Y008590D02*
X019347Y008590D01*
X019600Y008319D02*
X019010Y008319D01*
X019230Y006370D02*
X019276Y006370D01*
X028742Y007321D02*
X029300Y007321D01*
X029263Y007480D02*
X028795Y007480D01*
X028795Y007797D02*
X029263Y007797D01*
X029287Y007955D02*
X028764Y007955D01*
X029621Y007480D02*
X029658Y007480D01*
X029658Y007321D02*
X029621Y007321D01*
X030016Y007797D02*
X030484Y007797D01*
X030515Y007955D02*
X029993Y007955D01*
X029976Y008114D02*
X030484Y008114D01*
X030484Y008273D02*
X029976Y008273D01*
X030063Y008431D02*
X030484Y008431D01*
X030484Y008590D02*
X030222Y008590D01*
X030380Y008748D02*
X036820Y008748D01*
X036957Y008805D02*
X036655Y008680D01*
X036424Y008449D01*
X036299Y008147D01*
X036299Y007821D01*
X036424Y007519D01*
X036655Y007289D01*
X036957Y007164D01*
X037283Y007164D01*
X037585Y007289D01*
X037816Y007519D01*
X037941Y007821D01*
X037941Y008147D01*
X037816Y008449D01*
X037585Y008680D01*
X037283Y008805D01*
X036957Y008805D01*
X036565Y008590D02*
X035914Y008590D01*
X035922Y008431D02*
X036417Y008431D01*
X036351Y008273D02*
X035922Y008273D01*
X035922Y008114D02*
X036299Y008114D01*
X036299Y007955D02*
X035851Y007955D01*
X036044Y007797D02*
X036309Y007797D01*
X036375Y007638D02*
X036202Y007638D01*
X036361Y007480D02*
X036464Y007480D01*
X036519Y007321D02*
X036623Y007321D01*
X036678Y007163D02*
X040780Y007163D01*
X040621Y007321D02*
X037617Y007321D01*
X037776Y007480D02*
X040463Y007480D01*
X040304Y007638D02*
X037865Y007638D01*
X037931Y007797D02*
X040146Y007797D01*
X039987Y007955D02*
X037941Y007955D01*
X037941Y008114D02*
X039829Y008114D01*
X039670Y008273D02*
X037889Y008273D01*
X037823Y008431D02*
X039512Y008431D01*
X039353Y008590D02*
X037675Y008590D01*
X037420Y008748D02*
X039195Y008748D01*
X039036Y008907D02*
X030539Y008907D01*
X031158Y008590D02*
X031665Y008590D01*
X032002Y008319D02*
X030821Y008319D01*
X031126Y007955D02*
X031649Y007955D01*
X031625Y007797D02*
X031158Y007797D01*
X031158Y007638D02*
X031983Y007638D01*
X031983Y007480D02*
X032020Y007480D01*
X032020Y007321D02*
X031983Y007321D01*
X032176Y007163D02*
X031166Y007163D01*
X031104Y007321D02*
X031662Y007321D01*
X031625Y007480D02*
X031158Y007480D01*
X030821Y007650D02*
X030821Y007197D01*
X031214Y006803D01*
X031522Y006687D02*
X032176Y006687D01*
X032176Y006529D02*
X031404Y006529D01*
X031543Y006846D02*
X032176Y006846D01*
X032176Y007004D02*
X031477Y007004D01*
X032616Y007004D02*
X032963Y007004D01*
X032963Y006846D02*
X032616Y006846D01*
X032616Y006687D02*
X032963Y006687D01*
X032963Y006529D02*
X032616Y006529D01*
X032616Y006370D02*
X032963Y006370D01*
X032915Y006211D02*
X032616Y006211D01*
X032669Y006053D02*
X032855Y006053D01*
X032878Y005894D02*
X032828Y005894D01*
X032987Y005736D02*
X033001Y005736D01*
X033183Y006016D02*
X033183Y007650D01*
X033183Y007591D01*
X032846Y007638D02*
X032616Y007638D01*
X032616Y007480D02*
X032846Y007480D01*
X032900Y007321D02*
X032616Y007321D01*
X032616Y007163D02*
X032963Y007163D01*
X032846Y007797D02*
X032616Y007797D01*
X032616Y007955D02*
X032877Y007955D01*
X032846Y008114D02*
X032518Y008114D01*
X033540Y008273D02*
X033948Y008273D01*
X034027Y008431D02*
X033520Y008431D01*
X033520Y008590D02*
X034027Y008590D01*
X034305Y008319D02*
X033970Y007984D01*
X033970Y007197D01*
X034364Y007650D02*
X035545Y007650D01*
X035880Y007650D01*
X036726Y006803D01*
X038301Y006803D01*
X040292Y008273D02*
X041076Y008273D01*
X041024Y008114D02*
X040451Y008114D01*
X040609Y007955D02*
X041024Y007955D01*
X041034Y007797D02*
X040768Y007797D01*
X040927Y007638D02*
X041099Y007638D01*
X041085Y007480D02*
X041188Y007480D01*
X041244Y007321D02*
X041347Y007321D01*
X041402Y007163D02*
X043595Y007163D01*
X041141Y008431D02*
X040134Y008431D01*
X039975Y008590D02*
X041289Y008590D01*
X041545Y008748D02*
X039817Y008748D01*
X035564Y008590D02*
X035527Y008590D01*
X035527Y008431D02*
X035564Y008431D01*
X035168Y008431D02*
X034701Y008431D01*
X034701Y008273D02*
X035168Y008273D01*
X035168Y008114D02*
X034701Y008114D01*
X034670Y007955D02*
X035240Y007955D01*
X034364Y008319D02*
X034305Y008319D01*
X033789Y008114D02*
X033699Y008114D01*
X034701Y008590D02*
X035177Y008590D01*
X033464Y006211D02*
X033451Y006211D01*
X033511Y006053D02*
X033622Y006053D01*
X033488Y005894D02*
X033781Y005894D01*
X033365Y005736D02*
X034727Y005736D01*
X031249Y003516D02*
X029475Y003516D01*
X029384Y003358D02*
X031178Y003358D01*
X031173Y003199D02*
X029346Y003199D01*
X029108Y002906D02*
X030781Y002906D01*
X038695Y001685D02*
X039089Y001291D01*
X043813Y001291D01*
X045781Y003260D01*
X045346Y003199D02*
X044851Y003199D01*
X045009Y003358D02*
X045351Y003358D01*
X045422Y003516D02*
X045168Y003516D01*
X045326Y003675D02*
X045646Y003675D01*
X045485Y003833D02*
X046175Y003833D01*
X046175Y003675D02*
X045917Y003675D01*
X046141Y003516D02*
X046175Y003516D01*
X046175Y003992D02*
X045643Y003992D01*
X045802Y004150D02*
X046175Y004150D01*
X045781Y004441D02*
X043419Y002079D01*
X043026Y002079D01*
X042862Y001931D02*
X038915Y001931D01*
X038915Y002089D02*
X042704Y002089D01*
X042414Y002406D02*
X042409Y002406D01*
X042159Y002689D02*
X041943Y002472D01*
X041451Y002472D01*
X041057Y002866D01*
X039624Y003516D02*
X039054Y003516D01*
X041198Y004468D02*
X041560Y004468D01*
X041718Y004626D02*
X041356Y004626D01*
X042770Y003988D02*
X042632Y003260D01*
X043048Y003260D01*
X043048Y003293D01*
X043044Y003320D01*
X043068Y003295D01*
X043154Y003260D01*
X043068Y003224D01*
X043044Y003200D01*
X043048Y003227D01*
X043048Y003260D01*
X042632Y003260D01*
X042632Y003260D01*
X044058Y002406D02*
X044617Y002406D01*
X044458Y002248D02*
X043899Y002248D01*
X043741Y002089D02*
X044300Y002089D01*
X044141Y001931D02*
X043582Y001931D01*
X043824Y001614D02*
X039077Y001614D01*
X038919Y001772D02*
X043983Y001772D01*
X044217Y002565D02*
X044776Y002565D01*
X044934Y002724D02*
X044375Y002724D01*
X044534Y002882D02*
X045093Y002882D01*
X045251Y003041D02*
X044692Y003041D01*
X041142Y005736D02*
X040972Y005736D01*
D17*
X043813Y006409D02*
X043813Y007256D01*
M02*
